%TF.GenerationSoftware,KiCad,Pcbnew,6.0.7-f9a2dced07~116~ubuntu20.04.1*%
%TF.CreationDate,2022-09-07T21:51:15+02:00*%
%TF.ProjectId,px16_regfile,70783136-5f72-4656-9766-696c652e6b69,1*%
%TF.SameCoordinates,Original*%
%TF.FileFunction,Soldermask,Bot*%
%TF.FilePolarity,Negative*%
%FSLAX46Y46*%
G04 Gerber Fmt 4.6, Leading zero omitted, Abs format (unit mm)*
G04 Created by KiCad (PCBNEW 6.0.7-f9a2dced07~116~ubuntu20.04.1) date 2022-09-07 21:51:15*
%MOMM*%
%LPD*%
G01*
G04 APERTURE LIST*
%ADD10R,1.800000X1.800000*%
%ADD11C,1.800000*%
%ADD12R,1.600000X1.600000*%
%ADD13O,1.600000X1.600000*%
%ADD14C,1.600000*%
%ADD15C,6.000000*%
%ADD16R,1.700000X1.700000*%
%ADD17O,1.700000X1.700000*%
%ADD18R,3.000000X3.000000*%
%ADD19C,3.000000*%
G04 APERTURE END LIST*
D10*
%TO.C,D80*%
X77628750Y-373380000D03*
D11*
X80168750Y-373380000D03*
%TD*%
D10*
%TO.C,D93*%
X240665000Y-222250000D03*
D11*
X243205000Y-222250000D03*
%TD*%
D12*
%TO.C,U57*%
X226060000Y-313690000D03*
D13*
X226060000Y-316230000D03*
X226060000Y-318770000D03*
X226060000Y-321310000D03*
X226060000Y-323850000D03*
X226060000Y-326390000D03*
X226060000Y-328930000D03*
X226060000Y-331470000D03*
X226060000Y-334010000D03*
X226060000Y-336550000D03*
X233680000Y-336550000D03*
X233680000Y-334010000D03*
X233680000Y-331470000D03*
X233680000Y-328930000D03*
X233680000Y-326390000D03*
X233680000Y-323850000D03*
X233680000Y-321310000D03*
X233680000Y-318770000D03*
X233680000Y-316230000D03*
X233680000Y-313690000D03*
%TD*%
D10*
%TO.C,D26*%
X116681250Y-146685000D03*
D11*
X119221250Y-146685000D03*
%TD*%
D14*
%TO.C,R57*%
X125730000Y-304165000D03*
D13*
X123190000Y-304165000D03*
%TD*%
D10*
%TO.C,D108*%
X292735000Y-373380000D03*
D11*
X295275000Y-373380000D03*
%TD*%
D10*
%TO.C,D1*%
X175260000Y-71120000D03*
D11*
X177800000Y-71120000D03*
%TD*%
D14*
%TO.C,R50*%
X170180000Y-304165000D03*
D13*
X167640000Y-304165000D03*
%TD*%
D10*
%TO.C,D92*%
X247173750Y-222250000D03*
D11*
X249713750Y-222250000D03*
%TD*%
D12*
%TO.C,U14*%
X152400000Y-238125000D03*
D13*
X152400000Y-240665000D03*
X152400000Y-243205000D03*
X152400000Y-245745000D03*
X152400000Y-248285000D03*
X152400000Y-250825000D03*
X152400000Y-253365000D03*
X152400000Y-255905000D03*
X152400000Y-258445000D03*
X152400000Y-260985000D03*
X160020000Y-260985000D03*
X160020000Y-258445000D03*
X160020000Y-255905000D03*
X160020000Y-253365000D03*
X160020000Y-250825000D03*
X160020000Y-248285000D03*
X160020000Y-245745000D03*
X160020000Y-243205000D03*
X160020000Y-240665000D03*
X160020000Y-238125000D03*
%TD*%
D14*
%TO.C,R90*%
X262890000Y-228600000D03*
D13*
X260350000Y-228600000D03*
%TD*%
D14*
%TO.C,R25*%
X125730000Y-153035000D03*
D13*
X123190000Y-153035000D03*
%TD*%
D14*
%TO.C,R51*%
X163825000Y-304165000D03*
D13*
X161285000Y-304165000D03*
%TD*%
D10*
%TO.C,D36*%
X155733750Y-222250000D03*
D11*
X158273750Y-222250000D03*
%TD*%
D14*
%TO.C,R62*%
X93980000Y-304165000D03*
D13*
X91440000Y-304165000D03*
%TD*%
D14*
%TO.C,R6*%
X144780000Y-77470000D03*
D13*
X142240000Y-77470000D03*
%TD*%
D15*
%TO.C,H3*%
X379095000Y-67310000D03*
%TD*%
D12*
%TO.C,U34*%
X283210000Y-125095000D03*
D13*
X283210000Y-127635000D03*
X283210000Y-130175000D03*
X283210000Y-132715000D03*
X283210000Y-135255000D03*
X283210000Y-137795000D03*
X283210000Y-140335000D03*
X283210000Y-142875000D03*
X290830000Y-142875000D03*
X290830000Y-140335000D03*
X290830000Y-137795000D03*
X290830000Y-135255000D03*
X290830000Y-132715000D03*
X290830000Y-130175000D03*
X290830000Y-127635000D03*
X290830000Y-125095000D03*
%TD*%
D12*
%TO.C,U11*%
X152410000Y-191775000D03*
D13*
X152410000Y-194315000D03*
X152410000Y-196855000D03*
X152410000Y-199395000D03*
X152410000Y-201935000D03*
X152410000Y-204475000D03*
X152410000Y-207015000D03*
X152410000Y-209555000D03*
X152410000Y-212095000D03*
X152410000Y-214635000D03*
X160030000Y-214635000D03*
X160030000Y-212095000D03*
X160030000Y-209555000D03*
X160030000Y-207015000D03*
X160030000Y-204475000D03*
X160030000Y-201935000D03*
X160030000Y-199395000D03*
X160030000Y-196855000D03*
X160030000Y-194315000D03*
X160030000Y-191775000D03*
%TD*%
D12*
%TO.C,U3*%
X165110000Y-87000000D03*
D13*
X165110000Y-89540000D03*
X165110000Y-92080000D03*
X165110000Y-94620000D03*
X165110000Y-97160000D03*
X165110000Y-99700000D03*
X165110000Y-102240000D03*
X165110000Y-104780000D03*
X165110000Y-107320000D03*
X165110000Y-109860000D03*
X172730000Y-109860000D03*
X172730000Y-107320000D03*
X172730000Y-104780000D03*
X172730000Y-102240000D03*
X172730000Y-99700000D03*
X172730000Y-97160000D03*
X172730000Y-94620000D03*
X172730000Y-92080000D03*
X172730000Y-89540000D03*
X172730000Y-87000000D03*
%TD*%
D14*
%TO.C,R66*%
X170180000Y-379730000D03*
D13*
X167640000Y-379730000D03*
%TD*%
D10*
%TO.C,D60*%
X103663750Y-297815000D03*
D11*
X106203750Y-297815000D03*
%TD*%
D10*
%TO.C,D117*%
X234156250Y-373380000D03*
D11*
X236696250Y-373380000D03*
%TD*%
D14*
%TO.C,R76*%
X106680000Y-379730000D03*
D13*
X104140000Y-379730000D03*
%TD*%
D14*
%TO.C,R10*%
X119380000Y-77470000D03*
D13*
X116840000Y-77470000D03*
%TD*%
D12*
%TO.C,U23*%
X152410000Y-342905000D03*
D13*
X152410000Y-345445000D03*
X152410000Y-347985000D03*
X152410000Y-350525000D03*
X152410000Y-353065000D03*
X152410000Y-355605000D03*
X152410000Y-358145000D03*
X152410000Y-360685000D03*
X152410000Y-363225000D03*
X152410000Y-365765000D03*
X160030000Y-365765000D03*
X160030000Y-363225000D03*
X160030000Y-360685000D03*
X160030000Y-358145000D03*
X160030000Y-355605000D03*
X160030000Y-353065000D03*
X160030000Y-350525000D03*
X160030000Y-347985000D03*
X160030000Y-345445000D03*
X160030000Y-342905000D03*
%TD*%
D14*
%TO.C,R34*%
X170175000Y-228600000D03*
D13*
X167635000Y-228600000D03*
%TD*%
D14*
%TO.C,R5*%
X151130000Y-77470000D03*
D13*
X148590000Y-77470000D03*
%TD*%
D14*
%TO.C,R31*%
X87630000Y-153035000D03*
D13*
X85090000Y-153035000D03*
%TD*%
D14*
%TO.C,R43*%
X113025000Y-228600000D03*
D13*
X110485000Y-228600000D03*
%TD*%
D10*
%TO.C,D100*%
X240665000Y-146685000D03*
D11*
X243205000Y-146685000D03*
%TD*%
D14*
%TO.C,R102*%
X231140000Y-153035000D03*
D13*
X228600000Y-153035000D03*
%TD*%
D10*
%TO.C,D85*%
X292735000Y-222250000D03*
D11*
X295275000Y-222250000D03*
%TD*%
D10*
%TO.C,D116*%
X240665000Y-373380000D03*
D11*
X243205000Y-373380000D03*
%TD*%
D14*
%TO.C,R12*%
X106680000Y-77470000D03*
D13*
X104140000Y-77470000D03*
%TD*%
D10*
%TO.C,D56*%
X129698750Y-297815000D03*
D11*
X132238750Y-297815000D03*
%TD*%
D15*
%TO.C,H7*%
X34290000Y-276860000D03*
%TD*%
D10*
%TO.C,D61*%
X97155000Y-297815000D03*
D11*
X99695000Y-297815000D03*
%TD*%
D12*
%TO.C,U48*%
X290830000Y-269875000D03*
D13*
X290830000Y-272415000D03*
X290830000Y-274955000D03*
X290830000Y-277495000D03*
X290830000Y-280035000D03*
X290830000Y-282575000D03*
X290830000Y-285115000D03*
X290830000Y-287655000D03*
X298450000Y-287655000D03*
X298450000Y-285115000D03*
X298450000Y-282575000D03*
X298450000Y-280035000D03*
X298450000Y-277495000D03*
X298450000Y-274955000D03*
X298450000Y-272415000D03*
X298450000Y-269875000D03*
%TD*%
D12*
%TO.C,U10*%
X82560000Y-191775000D03*
D13*
X82560000Y-194315000D03*
X82560000Y-196855000D03*
X82560000Y-199395000D03*
X82560000Y-201935000D03*
X82560000Y-204475000D03*
X82560000Y-207015000D03*
X82560000Y-209555000D03*
X82560000Y-212095000D03*
X82560000Y-214635000D03*
X90180000Y-214635000D03*
X90180000Y-212095000D03*
X90180000Y-209555000D03*
X90180000Y-207015000D03*
X90180000Y-204475000D03*
X90180000Y-201935000D03*
X90180000Y-199395000D03*
X90180000Y-196855000D03*
X90180000Y-194315000D03*
X90180000Y-191775000D03*
%TD*%
D14*
%TO.C,R71*%
X138430000Y-379730000D03*
D13*
X135890000Y-379730000D03*
%TD*%
D12*
%TO.C,U53*%
X308610000Y-389255000D03*
D13*
X308610000Y-391795000D03*
X308610000Y-394335000D03*
X308610000Y-396875000D03*
X308610000Y-399415000D03*
X308610000Y-401955000D03*
X308610000Y-404495000D03*
X308610000Y-407035000D03*
X308610000Y-409575000D03*
X308610000Y-412115000D03*
X316230000Y-412115000D03*
X316230000Y-409575000D03*
X316230000Y-407035000D03*
X316230000Y-404495000D03*
X316230000Y-401955000D03*
X316230000Y-399415000D03*
X316230000Y-396875000D03*
X316230000Y-394335000D03*
X316230000Y-391795000D03*
X316230000Y-389255000D03*
%TD*%
D12*
%TO.C,U45*%
X308610000Y-240665000D03*
D13*
X308610000Y-243205000D03*
X308610000Y-245745000D03*
X308610000Y-248285000D03*
X308610000Y-250825000D03*
X308610000Y-253365000D03*
X308610000Y-255905000D03*
X308610000Y-258445000D03*
X316230000Y-258445000D03*
X316230000Y-255905000D03*
X316230000Y-253365000D03*
X316230000Y-250825000D03*
X316230000Y-248285000D03*
X316230000Y-245745000D03*
X316230000Y-243205000D03*
X316230000Y-240665000D03*
%TD*%
D14*
%TO.C,R92*%
X250190000Y-228600000D03*
D13*
X247650000Y-228600000D03*
%TD*%
D10*
%TO.C,D59*%
X110172500Y-297815000D03*
D11*
X112712500Y-297815000D03*
%TD*%
D14*
%TO.C,R105*%
X313690000Y-379730000D03*
D13*
X311150000Y-379730000D03*
%TD*%
D14*
%TO.C,R107*%
X300990000Y-379730000D03*
D13*
X298450000Y-379730000D03*
%TD*%
D10*
%TO.C,D131*%
X247173750Y-297815000D03*
D11*
X249713750Y-297815000D03*
%TD*%
D10*
%TO.C,D48*%
X77628750Y-222250000D03*
D11*
X80168750Y-222250000D03*
%TD*%
D14*
%TO.C,R72*%
X132080000Y-379730000D03*
D13*
X129540000Y-379730000D03*
%TD*%
D12*
%TO.C,U16*%
X82550000Y-267335000D03*
D13*
X82550000Y-269875000D03*
X82550000Y-272415000D03*
X82550000Y-274955000D03*
X82550000Y-277495000D03*
X82550000Y-280035000D03*
X82550000Y-282575000D03*
X82550000Y-285115000D03*
X82550000Y-287655000D03*
X82550000Y-290195000D03*
X90170000Y-290195000D03*
X90170000Y-287655000D03*
X90170000Y-285115000D03*
X90170000Y-282575000D03*
X90170000Y-280035000D03*
X90170000Y-277495000D03*
X90170000Y-274955000D03*
X90170000Y-272415000D03*
X90170000Y-269875000D03*
X90170000Y-267335000D03*
%TD*%
D14*
%TO.C,R40*%
X132075000Y-228600000D03*
D13*
X129535000Y-228600000D03*
%TD*%
D14*
%TO.C,R52*%
X157475000Y-304165000D03*
D13*
X154935000Y-304165000D03*
%TD*%
D14*
%TO.C,R29*%
X100330000Y-153035000D03*
D13*
X97790000Y-153035000D03*
%TD*%
D14*
%TO.C,R87*%
X281940000Y-228600000D03*
D13*
X279400000Y-228600000D03*
%TD*%
D12*
%TO.C,U25*%
X82560000Y-389260000D03*
D13*
X82560000Y-391800000D03*
X82560000Y-394340000D03*
X82560000Y-396880000D03*
X82560000Y-399420000D03*
X82560000Y-401960000D03*
X82560000Y-404500000D03*
X82560000Y-407040000D03*
X82560000Y-409580000D03*
X82560000Y-412120000D03*
X90180000Y-412120000D03*
X90180000Y-409580000D03*
X90180000Y-407040000D03*
X90180000Y-404500000D03*
X90180000Y-401960000D03*
X90180000Y-399420000D03*
X90180000Y-396880000D03*
X90180000Y-394340000D03*
X90180000Y-391800000D03*
X90180000Y-389260000D03*
%TD*%
D14*
%TO.C,R53*%
X151130000Y-304165000D03*
D13*
X148590000Y-304165000D03*
%TD*%
D10*
%TO.C,D31*%
X84137500Y-146685000D03*
D11*
X86677500Y-146685000D03*
%TD*%
D12*
%TO.C,U42*%
X238760000Y-191770000D03*
D13*
X238760000Y-194310000D03*
X238760000Y-196850000D03*
X238760000Y-199390000D03*
X238760000Y-201930000D03*
X238760000Y-204470000D03*
X238760000Y-207010000D03*
X238760000Y-209550000D03*
X238760000Y-212090000D03*
X238760000Y-214630000D03*
X246380000Y-214630000D03*
X246380000Y-212090000D03*
X246380000Y-209550000D03*
X246380000Y-207010000D03*
X246380000Y-204470000D03*
X246380000Y-201930000D03*
X246380000Y-199390000D03*
X246380000Y-196850000D03*
X246380000Y-194310000D03*
X246380000Y-191770000D03*
%TD*%
D14*
%TO.C,R101*%
X237490000Y-153035000D03*
D13*
X234950000Y-153035000D03*
%TD*%
D14*
%TO.C,R41*%
X125725000Y-228600000D03*
D13*
X123185000Y-228600000D03*
%TD*%
D12*
%TO.C,U37*%
X283210000Y-191770000D03*
D13*
X283210000Y-194310000D03*
X283210000Y-196850000D03*
X283210000Y-199390000D03*
X283210000Y-201930000D03*
X283210000Y-204470000D03*
X283210000Y-207010000D03*
X283210000Y-209550000D03*
X283210000Y-212090000D03*
X283210000Y-214630000D03*
X290830000Y-214630000D03*
X290830000Y-212090000D03*
X290830000Y-209550000D03*
X290830000Y-207010000D03*
X290830000Y-204470000D03*
X290830000Y-201930000D03*
X290830000Y-199390000D03*
X290830000Y-196850000D03*
X290830000Y-194310000D03*
X290830000Y-191770000D03*
%TD*%
D12*
%TO.C,U40*%
X308610000Y-191770000D03*
D13*
X308610000Y-194310000D03*
X308610000Y-196850000D03*
X308610000Y-199390000D03*
X308610000Y-201930000D03*
X308610000Y-204470000D03*
X308610000Y-207010000D03*
X308610000Y-209550000D03*
X308610000Y-212090000D03*
X308610000Y-214630000D03*
X316230000Y-214630000D03*
X316230000Y-212090000D03*
X316230000Y-209550000D03*
X316230000Y-207010000D03*
X316230000Y-204470000D03*
X316230000Y-201930000D03*
X316230000Y-199390000D03*
X316230000Y-196850000D03*
X316230000Y-194310000D03*
X316230000Y-191770000D03*
%TD*%
D12*
%TO.C,U38*%
X238760000Y-162560000D03*
D13*
X238760000Y-165100000D03*
X238760000Y-167640000D03*
X238760000Y-170180000D03*
X238760000Y-172720000D03*
X238760000Y-175260000D03*
X238760000Y-177800000D03*
X238760000Y-180340000D03*
X238760000Y-182880000D03*
X238760000Y-185420000D03*
X246380000Y-185420000D03*
X246380000Y-182880000D03*
X246380000Y-180340000D03*
X246380000Y-177800000D03*
X246380000Y-175260000D03*
X246380000Y-172720000D03*
X246380000Y-170180000D03*
X246380000Y-167640000D03*
X246380000Y-165100000D03*
X246380000Y-162560000D03*
%TD*%
D14*
%TO.C,R42*%
X119375000Y-228600000D03*
D13*
X116835000Y-228600000D03*
%TD*%
D16*
%TO.C,J2*%
X245745000Y-134620000D03*
D17*
X243205000Y-134620000D03*
X245745000Y-132080000D03*
X243205000Y-132080000D03*
X245745000Y-129540000D03*
X243205000Y-129540000D03*
X245745000Y-127000000D03*
X243205000Y-127000000D03*
X245745000Y-124460000D03*
X243205000Y-124460000D03*
X245745000Y-121920000D03*
X243205000Y-121920000D03*
X245745000Y-119380000D03*
X243205000Y-119380000D03*
X245745000Y-116840000D03*
X243205000Y-116840000D03*
X245745000Y-114300000D03*
X243205000Y-114300000D03*
X245745000Y-111760000D03*
X243205000Y-111760000D03*
X245745000Y-109220000D03*
X243205000Y-109220000D03*
X245745000Y-106680000D03*
X243205000Y-106680000D03*
%TD*%
D10*
%TO.C,D57*%
X123190000Y-297815000D03*
D11*
X125730000Y-297815000D03*
%TD*%
D10*
%TO.C,D19*%
X162242500Y-146685000D03*
D11*
X164782500Y-146685000D03*
%TD*%
D10*
%TO.C,D65*%
X175260000Y-373380000D03*
D11*
X177800000Y-373380000D03*
%TD*%
D12*
%TO.C,U44*%
X290830000Y-240665000D03*
D13*
X290830000Y-243205000D03*
X290830000Y-245745000D03*
X290830000Y-248285000D03*
X290830000Y-250825000D03*
X290830000Y-253365000D03*
X290830000Y-255905000D03*
X290830000Y-258445000D03*
X298450000Y-258445000D03*
X298450000Y-255905000D03*
X298450000Y-253365000D03*
X298450000Y-250825000D03*
X298450000Y-248285000D03*
X298450000Y-245745000D03*
X298450000Y-243205000D03*
X298450000Y-240665000D03*
%TD*%
D10*
%TO.C,D104*%
X318770000Y-373380000D03*
D11*
X321310000Y-373380000D03*
%TD*%
D14*
%TO.C,R129*%
X262890000Y-304165000D03*
D13*
X260350000Y-304165000D03*
%TD*%
D12*
%TO.C,U51*%
X226060000Y-267335000D03*
D13*
X226060000Y-269875000D03*
X226060000Y-272415000D03*
X226060000Y-274955000D03*
X226060000Y-277495000D03*
X226060000Y-280035000D03*
X226060000Y-282575000D03*
X226060000Y-285115000D03*
X226060000Y-287655000D03*
X226060000Y-290195000D03*
X233680000Y-290195000D03*
X233680000Y-287655000D03*
X233680000Y-285115000D03*
X233680000Y-282575000D03*
X233680000Y-280035000D03*
X233680000Y-277495000D03*
X233680000Y-274955000D03*
X233680000Y-272415000D03*
X233680000Y-269875000D03*
X233680000Y-267335000D03*
%TD*%
D12*
%TO.C,U52*%
X283210000Y-148590000D03*
D13*
X283210000Y-151130000D03*
X283210000Y-153670000D03*
X283210000Y-156210000D03*
X283210000Y-158750000D03*
X283210000Y-161290000D03*
X283210000Y-163830000D03*
X290830000Y-163830000D03*
X290830000Y-161290000D03*
X290830000Y-158750000D03*
X290830000Y-156210000D03*
X290830000Y-153670000D03*
X290830000Y-151130000D03*
X290830000Y-148590000D03*
%TD*%
D12*
%TO.C,U60*%
X226060000Y-418465000D03*
D13*
X226060000Y-421005000D03*
X226060000Y-423545000D03*
X226060000Y-426085000D03*
X226060000Y-428625000D03*
X226060000Y-431165000D03*
X226060000Y-433705000D03*
X226060000Y-436245000D03*
X226060000Y-438785000D03*
X226060000Y-441325000D03*
X233680000Y-441325000D03*
X233680000Y-438785000D03*
X233680000Y-436245000D03*
X233680000Y-433705000D03*
X233680000Y-431165000D03*
X233680000Y-428625000D03*
X233680000Y-426085000D03*
X233680000Y-423545000D03*
X233680000Y-421005000D03*
X233680000Y-418465000D03*
%TD*%
D14*
%TO.C,R127*%
X275590000Y-304165000D03*
D13*
X273050000Y-304165000D03*
%TD*%
D14*
%TO.C,R65*%
X176530000Y-379730000D03*
D13*
X173990000Y-379730000D03*
%TD*%
D14*
%TO.C,R131*%
X250190000Y-304165000D03*
D13*
X247650000Y-304165000D03*
%TD*%
D12*
%TO.C,U41*%
X295910000Y-191770000D03*
D13*
X295910000Y-194310000D03*
X295910000Y-196850000D03*
X295910000Y-199390000D03*
X295910000Y-201930000D03*
X295910000Y-204470000D03*
X295910000Y-207010000D03*
X295910000Y-209550000D03*
X295910000Y-212090000D03*
X295910000Y-214630000D03*
X303530000Y-214630000D03*
X303530000Y-212090000D03*
X303530000Y-209550000D03*
X303530000Y-207010000D03*
X303530000Y-204470000D03*
X303530000Y-201930000D03*
X303530000Y-199390000D03*
X303530000Y-196850000D03*
X303530000Y-194310000D03*
X303530000Y-191770000D03*
%TD*%
D14*
%TO.C,R28*%
X106680000Y-153035000D03*
D13*
X104140000Y-153035000D03*
%TD*%
D14*
%TO.C,R4*%
X157480000Y-77470000D03*
D13*
X154940000Y-77470000D03*
%TD*%
D14*
%TO.C,R73*%
X125730000Y-379730000D03*
D13*
X123190000Y-379730000D03*
%TD*%
D10*
%TO.C,D6*%
X142716250Y-71120000D03*
D11*
X145256250Y-71120000D03*
%TD*%
D10*
%TO.C,D13*%
X97155000Y-71120000D03*
D11*
X99695000Y-71120000D03*
%TD*%
D12*
%TO.C,U1*%
X82560000Y-87000000D03*
D13*
X82560000Y-89540000D03*
X82560000Y-92080000D03*
X82560000Y-94620000D03*
X82560000Y-97160000D03*
X82560000Y-99700000D03*
X82560000Y-102240000D03*
X82560000Y-104780000D03*
X82560000Y-107320000D03*
X82560000Y-109860000D03*
X90180000Y-109860000D03*
X90180000Y-107320000D03*
X90180000Y-104780000D03*
X90180000Y-102240000D03*
X90180000Y-99700000D03*
X90180000Y-97160000D03*
X90180000Y-94620000D03*
X90180000Y-92080000D03*
X90180000Y-89540000D03*
X90180000Y-87000000D03*
%TD*%
D10*
%TO.C,D5*%
X149225000Y-71120000D03*
D11*
X151765000Y-71120000D03*
%TD*%
D12*
%TO.C,U26*%
X152400000Y-389255000D03*
D13*
X152400000Y-391795000D03*
X152400000Y-394335000D03*
X152400000Y-396875000D03*
X152400000Y-399415000D03*
X152400000Y-401955000D03*
X152400000Y-404495000D03*
X152400000Y-407035000D03*
X152400000Y-409575000D03*
X152400000Y-412115000D03*
X160020000Y-412115000D03*
X160020000Y-409575000D03*
X160020000Y-407035000D03*
X160020000Y-404495000D03*
X160020000Y-401955000D03*
X160020000Y-399415000D03*
X160020000Y-396875000D03*
X160020000Y-394335000D03*
X160020000Y-391795000D03*
X160020000Y-389255000D03*
%TD*%
D10*
%TO.C,D4*%
X155733750Y-71120000D03*
D11*
X158273750Y-71120000D03*
%TD*%
D14*
%TO.C,R27*%
X113030000Y-153035000D03*
D13*
X110490000Y-153035000D03*
%TD*%
D14*
%TO.C,R23*%
X138430000Y-153035000D03*
D13*
X135890000Y-153035000D03*
%TD*%
D14*
%TO.C,R81*%
X320040000Y-228600000D03*
D13*
X317500000Y-228600000D03*
%TD*%
D14*
%TO.C,R7*%
X138430000Y-77470000D03*
D13*
X135890000Y-77470000D03*
%TD*%
D10*
%TO.C,D115*%
X247173750Y-373380000D03*
D11*
X249713750Y-373380000D03*
%TD*%
D10*
%TO.C,D88*%
X273213750Y-222250000D03*
D11*
X275753750Y-222250000D03*
%TD*%
D10*
%TO.C,D50*%
X168751250Y-297815000D03*
D11*
X171291250Y-297815000D03*
%TD*%
D10*
%TO.C,D8*%
X129698750Y-71120000D03*
D11*
X132238750Y-71120000D03*
%TD*%
D10*
%TO.C,D74*%
X116681250Y-373380000D03*
D11*
X119221250Y-373380000D03*
%TD*%
D10*
%TO.C,D54*%
X142716250Y-297815000D03*
D11*
X145256250Y-297815000D03*
%TD*%
D14*
%TO.C,R24*%
X132080000Y-153035000D03*
D13*
X129540000Y-153035000D03*
%TD*%
D10*
%TO.C,D52*%
X155733750Y-297815000D03*
D11*
X158273750Y-297815000D03*
%TD*%
D16*
%TO.C,J3*%
X245745000Y-99060000D03*
D17*
X243205000Y-99060000D03*
X245745000Y-96520000D03*
X243205000Y-96520000D03*
X245745000Y-93980000D03*
X243205000Y-93980000D03*
X245745000Y-91440000D03*
X243205000Y-91440000D03*
X245745000Y-88900000D03*
X243205000Y-88900000D03*
X245745000Y-86360000D03*
X243205000Y-86360000D03*
X245745000Y-83820000D03*
X243205000Y-83820000D03*
X245745000Y-81280000D03*
X243205000Y-81280000D03*
X245745000Y-78740000D03*
X243205000Y-78740000D03*
X245745000Y-76200000D03*
X243205000Y-76200000D03*
X245745000Y-73660000D03*
X243205000Y-73660000D03*
X245745000Y-71120000D03*
X243205000Y-71120000D03*
%TD*%
D10*
%TO.C,D127*%
X273208750Y-297815000D03*
D11*
X275748750Y-297815000D03*
%TD*%
D10*
%TO.C,D11*%
X110172500Y-71120000D03*
D11*
X112712500Y-71120000D03*
%TD*%
D10*
%TO.C,D128*%
X266700000Y-297815000D03*
D11*
X269240000Y-297815000D03*
%TD*%
D14*
%TO.C,R113*%
X262890000Y-379730000D03*
D13*
X260350000Y-379730000D03*
%TD*%
D10*
%TO.C,D66*%
X168751250Y-373380000D03*
D11*
X171291250Y-373380000D03*
%TD*%
D10*
%TO.C,D121*%
X312261250Y-297815000D03*
D11*
X314801250Y-297815000D03*
%TD*%
D10*
%TO.C,D29*%
X97155000Y-146685000D03*
D11*
X99695000Y-146685000D03*
%TD*%
D10*
%TO.C,D39*%
X136207500Y-222250000D03*
D11*
X138747500Y-222250000D03*
%TD*%
D10*
%TO.C,D43*%
X110172500Y-222250000D03*
D11*
X112712500Y-222250000D03*
%TD*%
D10*
%TO.C,D55*%
X136207500Y-297815000D03*
D11*
X138747500Y-297815000D03*
%TD*%
D14*
%TO.C,R49*%
X176530000Y-304165000D03*
D13*
X173990000Y-304165000D03*
%TD*%
D12*
%TO.C,U7*%
X82560000Y-162565000D03*
D13*
X82560000Y-165105000D03*
X82560000Y-167645000D03*
X82560000Y-170185000D03*
X82560000Y-172725000D03*
X82560000Y-175265000D03*
X82560000Y-177805000D03*
X82560000Y-180345000D03*
X82560000Y-182885000D03*
X82560000Y-185425000D03*
X90180000Y-185425000D03*
X90180000Y-182885000D03*
X90180000Y-180345000D03*
X90180000Y-177805000D03*
X90180000Y-175265000D03*
X90180000Y-172725000D03*
X90180000Y-170185000D03*
X90180000Y-167645000D03*
X90180000Y-165105000D03*
X90180000Y-162565000D03*
%TD*%
D14*
%TO.C,R118*%
X231140000Y-379730000D03*
D13*
X228600000Y-379730000D03*
%TD*%
D14*
%TO.C,R33*%
X176525000Y-228600000D03*
D13*
X173985000Y-228600000D03*
%TD*%
D10*
%TO.C,D7*%
X136207500Y-71120000D03*
D11*
X138747500Y-71120000D03*
%TD*%
D10*
%TO.C,D109*%
X286226250Y-373380000D03*
D11*
X288766250Y-373380000D03*
%TD*%
D12*
%TO.C,U27*%
X165100000Y-389255000D03*
D13*
X165100000Y-391795000D03*
X165100000Y-394335000D03*
X165100000Y-396875000D03*
X165100000Y-399415000D03*
X165100000Y-401955000D03*
X165100000Y-404495000D03*
X165100000Y-407035000D03*
X165100000Y-409575000D03*
X165100000Y-412115000D03*
X172720000Y-412115000D03*
X172720000Y-409575000D03*
X172720000Y-407035000D03*
X172720000Y-404495000D03*
X172720000Y-401955000D03*
X172720000Y-399415000D03*
X172720000Y-396875000D03*
X172720000Y-394335000D03*
X172720000Y-391795000D03*
X172720000Y-389255000D03*
%TD*%
D14*
%TO.C,R58*%
X119380000Y-304165000D03*
D13*
X116840000Y-304165000D03*
%TD*%
D14*
%TO.C,R89*%
X269240000Y-228600000D03*
D13*
X266700000Y-228600000D03*
%TD*%
D14*
%TO.C,R60*%
X106680000Y-304165000D03*
D13*
X104140000Y-304165000D03*
%TD*%
D14*
%TO.C,R78*%
X93980000Y-379730000D03*
D13*
X91440000Y-379730000D03*
%TD*%
D10*
%TO.C,D103*%
X221138750Y-146685000D03*
D11*
X223678750Y-146685000D03*
%TD*%
D12*
%TO.C,U32*%
X283210000Y-170180000D03*
D13*
X283210000Y-172720000D03*
X283210000Y-175260000D03*
X283210000Y-177800000D03*
X283210000Y-180340000D03*
X283210000Y-182880000D03*
X283210000Y-185420000D03*
X290830000Y-185420000D03*
X290830000Y-182880000D03*
X290830000Y-180340000D03*
X290830000Y-177800000D03*
X290830000Y-175260000D03*
X290830000Y-172720000D03*
X290830000Y-170180000D03*
%TD*%
D14*
%TO.C,R19*%
X163830000Y-153035000D03*
D13*
X161290000Y-153035000D03*
%TD*%
D12*
%TO.C,U59*%
X226060000Y-389255000D03*
D13*
X226060000Y-391795000D03*
X226060000Y-394335000D03*
X226060000Y-396875000D03*
X226060000Y-399415000D03*
X226060000Y-401955000D03*
X226060000Y-404495000D03*
X226060000Y-407035000D03*
X226060000Y-409575000D03*
X226060000Y-412115000D03*
X233680000Y-412115000D03*
X233680000Y-409575000D03*
X233680000Y-407035000D03*
X233680000Y-404495000D03*
X233680000Y-401955000D03*
X233680000Y-399415000D03*
X233680000Y-396875000D03*
X233680000Y-394335000D03*
X233680000Y-391795000D03*
X233680000Y-389255000D03*
%TD*%
D10*
%TO.C,D89*%
X266705000Y-222250000D03*
D11*
X269245000Y-222250000D03*
%TD*%
D14*
%TO.C,R63*%
X87630000Y-304165000D03*
D13*
X85090000Y-304165000D03*
%TD*%
D14*
%TO.C,R67*%
X163830000Y-379730000D03*
D13*
X161290000Y-379730000D03*
%TD*%
D10*
%TO.C,D42*%
X116681250Y-222250000D03*
D11*
X119221250Y-222250000D03*
%TD*%
D12*
%TO.C,U5*%
X152410000Y-116210000D03*
D13*
X152410000Y-118750000D03*
X152410000Y-121290000D03*
X152410000Y-123830000D03*
X152410000Y-126370000D03*
X152410000Y-128910000D03*
X152410000Y-131450000D03*
X152410000Y-133990000D03*
X152410000Y-136530000D03*
X152410000Y-139070000D03*
X160030000Y-139070000D03*
X160030000Y-136530000D03*
X160030000Y-133990000D03*
X160030000Y-131450000D03*
X160030000Y-128910000D03*
X160030000Y-126370000D03*
X160030000Y-123830000D03*
X160030000Y-121290000D03*
X160030000Y-118750000D03*
X160030000Y-116210000D03*
%TD*%
D14*
%TO.C,R126*%
X281940000Y-304165000D03*
D13*
X279400000Y-304165000D03*
%TD*%
D14*
%TO.C,R44*%
X106675000Y-228600000D03*
D13*
X104135000Y-228600000D03*
%TD*%
D14*
%TO.C,R82*%
X313690000Y-228600000D03*
D13*
X311150000Y-228600000D03*
%TD*%
D10*
%TO.C,D97*%
X260191250Y-146685000D03*
D11*
X262731250Y-146685000D03*
%TD*%
D12*
%TO.C,U18*%
X165100000Y-267335000D03*
D13*
X165100000Y-269875000D03*
X165100000Y-272415000D03*
X165100000Y-274955000D03*
X165100000Y-277495000D03*
X165100000Y-280035000D03*
X165100000Y-282575000D03*
X165100000Y-285115000D03*
X165100000Y-287655000D03*
X165100000Y-290195000D03*
X172720000Y-290195000D03*
X172720000Y-287655000D03*
X172720000Y-285115000D03*
X172720000Y-282575000D03*
X172720000Y-280035000D03*
X172720000Y-277495000D03*
X172720000Y-274955000D03*
X172720000Y-272415000D03*
X172720000Y-269875000D03*
X172720000Y-267335000D03*
%TD*%
D14*
%TO.C,R94*%
X237490000Y-228600000D03*
D13*
X234950000Y-228600000D03*
%TD*%
D14*
%TO.C,R135*%
X224790000Y-304165000D03*
D13*
X222250000Y-304165000D03*
%TD*%
D10*
%TO.C,D58*%
X116681250Y-297815000D03*
D11*
X119221250Y-297815000D03*
%TD*%
D10*
%TO.C,D67*%
X162242500Y-373380000D03*
D11*
X164782500Y-373380000D03*
%TD*%
D15*
%TO.C,H2*%
X206692500Y-67310000D03*
%TD*%
D10*
%TO.C,D83*%
X305752500Y-222250000D03*
D11*
X308292500Y-222250000D03*
%TD*%
D15*
%TO.C,H1*%
X34290000Y-67310000D03*
%TD*%
D12*
%TO.C,U9*%
X165110000Y-162565000D03*
D13*
X165110000Y-165105000D03*
X165110000Y-167645000D03*
X165110000Y-170185000D03*
X165110000Y-172725000D03*
X165110000Y-175265000D03*
X165110000Y-177805000D03*
X165110000Y-180345000D03*
X165110000Y-182885000D03*
X165110000Y-185425000D03*
X172730000Y-185425000D03*
X172730000Y-182885000D03*
X172730000Y-180345000D03*
X172730000Y-177805000D03*
X172730000Y-175265000D03*
X172730000Y-172725000D03*
X172730000Y-170185000D03*
X172730000Y-167645000D03*
X172730000Y-165105000D03*
X172730000Y-162565000D03*
%TD*%
D14*
%TO.C,R15*%
X87630000Y-77470000D03*
D13*
X85090000Y-77470000D03*
%TD*%
D10*
%TO.C,D16*%
X77628750Y-71120000D03*
D11*
X80168750Y-71120000D03*
%TD*%
D14*
%TO.C,R36*%
X157475000Y-228600000D03*
D13*
X154935000Y-228600000D03*
%TD*%
D14*
%TO.C,R124*%
X294640000Y-304165000D03*
D13*
X292100000Y-304165000D03*
%TD*%
D10*
%TO.C,D107*%
X299243750Y-373380000D03*
D11*
X301783750Y-373380000D03*
%TD*%
D14*
%TO.C,R14*%
X93980000Y-77470000D03*
D13*
X91440000Y-77470000D03*
%TD*%
D12*
%TO.C,U36*%
X308620000Y-148590000D03*
D13*
X308620000Y-151130000D03*
X308620000Y-153670000D03*
X308620000Y-156210000D03*
X308620000Y-158750000D03*
X308620000Y-161290000D03*
X308620000Y-163830000D03*
X316240000Y-163830000D03*
X316240000Y-161290000D03*
X316240000Y-158750000D03*
X316240000Y-156210000D03*
X316240000Y-153670000D03*
X316240000Y-151130000D03*
X316240000Y-148590000D03*
%TD*%
D10*
%TO.C,D111*%
X273208750Y-373380000D03*
D11*
X275748750Y-373380000D03*
%TD*%
D10*
%TO.C,D77*%
X97155000Y-373380000D03*
D11*
X99695000Y-373380000D03*
%TD*%
D14*
%TO.C,R30*%
X93980000Y-153035000D03*
D13*
X91440000Y-153035000D03*
%TD*%
D12*
%TO.C,U19*%
X82560000Y-313695000D03*
D13*
X82560000Y-316235000D03*
X82560000Y-318775000D03*
X82560000Y-321315000D03*
X82560000Y-323855000D03*
X82560000Y-326395000D03*
X82560000Y-328935000D03*
X82560000Y-331475000D03*
X82560000Y-334015000D03*
X82560000Y-336555000D03*
X90180000Y-336555000D03*
X90180000Y-334015000D03*
X90180000Y-331475000D03*
X90180000Y-328935000D03*
X90180000Y-326395000D03*
X90180000Y-323855000D03*
X90180000Y-321315000D03*
X90180000Y-318775000D03*
X90180000Y-316235000D03*
X90180000Y-313695000D03*
%TD*%
D12*
%TO.C,U39*%
X226060000Y-162560000D03*
D13*
X226060000Y-165100000D03*
X226060000Y-167640000D03*
X226060000Y-170180000D03*
X226060000Y-172720000D03*
X226060000Y-175260000D03*
X226060000Y-177800000D03*
X226060000Y-180340000D03*
X226060000Y-182880000D03*
X226060000Y-185420000D03*
X233680000Y-185420000D03*
X233680000Y-182880000D03*
X233680000Y-180340000D03*
X233680000Y-177800000D03*
X233680000Y-175260000D03*
X233680000Y-172720000D03*
X233680000Y-170180000D03*
X233680000Y-167640000D03*
X233680000Y-165100000D03*
X233680000Y-162560000D03*
%TD*%
D10*
%TO.C,D22*%
X142716250Y-146685000D03*
D11*
X145256250Y-146685000D03*
%TD*%
D15*
%TO.C,H5*%
X379095000Y-486410000D03*
%TD*%
D10*
%TO.C,D72*%
X129698750Y-373380000D03*
D11*
X132238750Y-373380000D03*
%TD*%
D16*
%TO.C,J6*%
X339030000Y-99060000D03*
D17*
X336490000Y-99060000D03*
X339030000Y-96520000D03*
X336490000Y-96520000D03*
X339030000Y-93980000D03*
X336490000Y-93980000D03*
X339030000Y-91440000D03*
X336490000Y-91440000D03*
X339030000Y-88900000D03*
X336490000Y-88900000D03*
X339030000Y-86360000D03*
X336490000Y-86360000D03*
X339030000Y-83820000D03*
X336490000Y-83820000D03*
X339030000Y-81280000D03*
X336490000Y-81280000D03*
X339030000Y-78740000D03*
X336490000Y-78740000D03*
X339030000Y-76200000D03*
X336490000Y-76200000D03*
X339030000Y-73660000D03*
X336490000Y-73660000D03*
X339030000Y-71120000D03*
X336490000Y-71120000D03*
%TD*%
D14*
%TO.C,R95*%
X231140000Y-228600000D03*
D13*
X228600000Y-228600000D03*
%TD*%
D12*
%TO.C,U15*%
X165100000Y-238125000D03*
D13*
X165100000Y-240665000D03*
X165100000Y-243205000D03*
X165100000Y-245745000D03*
X165100000Y-248285000D03*
X165100000Y-250825000D03*
X165100000Y-253365000D03*
X165100000Y-255905000D03*
X165100000Y-258445000D03*
X165100000Y-260985000D03*
X172720000Y-260985000D03*
X172720000Y-258445000D03*
X172720000Y-255905000D03*
X172720000Y-253365000D03*
X172720000Y-250825000D03*
X172720000Y-248285000D03*
X172720000Y-245745000D03*
X172720000Y-243205000D03*
X172720000Y-240665000D03*
X172720000Y-238125000D03*
%TD*%
D10*
%TO.C,D76*%
X103663750Y-373380000D03*
D11*
X106203750Y-373380000D03*
%TD*%
D16*
%TO.C,J1*%
X372745000Y-441960000D03*
D17*
X375285000Y-441960000D03*
X372745000Y-444500000D03*
X375285000Y-444500000D03*
X372745000Y-447040000D03*
X375285000Y-447040000D03*
X372745000Y-449580000D03*
X375285000Y-449580000D03*
X372745000Y-452120000D03*
X375285000Y-452120000D03*
X372745000Y-454660000D03*
X375285000Y-454660000D03*
X372745000Y-457200000D03*
X375285000Y-457200000D03*
X372745000Y-459740000D03*
X375285000Y-459740000D03*
X372745000Y-462280000D03*
X375285000Y-462280000D03*
X372745000Y-464820000D03*
X375285000Y-464820000D03*
X372745000Y-467360000D03*
X375285000Y-467360000D03*
X372745000Y-469900000D03*
X375285000Y-469900000D03*
%TD*%
D14*
%TO.C,R21*%
X151130000Y-153035000D03*
D13*
X148590000Y-153035000D03*
%TD*%
D12*
%TO.C,U55*%
X308610000Y-313690000D03*
D13*
X308610000Y-316230000D03*
X308610000Y-318770000D03*
X308610000Y-321310000D03*
X308610000Y-323850000D03*
X308610000Y-326390000D03*
X308610000Y-328930000D03*
X308610000Y-331470000D03*
X308610000Y-334010000D03*
X308610000Y-336550000D03*
X316230000Y-336550000D03*
X316230000Y-334010000D03*
X316230000Y-331470000D03*
X316230000Y-328930000D03*
X316230000Y-326390000D03*
X316230000Y-323850000D03*
X316230000Y-321310000D03*
X316230000Y-318770000D03*
X316230000Y-316230000D03*
X316230000Y-313690000D03*
%TD*%
D10*
%TO.C,D105*%
X312261250Y-373380000D03*
D11*
X314801250Y-373380000D03*
%TD*%
D10*
%TO.C,D110*%
X279717500Y-373380000D03*
D11*
X282257500Y-373380000D03*
%TD*%
D14*
%TO.C,R64*%
X81280000Y-304165000D03*
D13*
X78740000Y-304165000D03*
%TD*%
D10*
%TO.C,D53*%
X149225000Y-297815000D03*
D11*
X151765000Y-297815000D03*
%TD*%
D10*
%TO.C,D25*%
X123190000Y-146685000D03*
D11*
X125730000Y-146685000D03*
%TD*%
D10*
%TO.C,D126*%
X279717500Y-297815000D03*
D11*
X282257500Y-297815000D03*
%TD*%
D14*
%TO.C,R39*%
X138425000Y-228600000D03*
D13*
X135885000Y-228600000D03*
%TD*%
D15*
%TO.C,H4*%
X379095000Y-276860000D03*
%TD*%
D10*
%TO.C,D70*%
X142716250Y-373380000D03*
D11*
X145256250Y-373380000D03*
%TD*%
D10*
%TO.C,D30*%
X90646250Y-146685000D03*
D11*
X93186250Y-146685000D03*
%TD*%
D14*
%TO.C,R110*%
X281940000Y-379730000D03*
D13*
X279400000Y-379730000D03*
%TD*%
D12*
%TO.C,U30*%
X165100000Y-418460000D03*
D13*
X165100000Y-421000000D03*
X165100000Y-423540000D03*
X165100000Y-426080000D03*
X165100000Y-428620000D03*
X165100000Y-431160000D03*
X165100000Y-433700000D03*
X165100000Y-436240000D03*
X165100000Y-438780000D03*
X165100000Y-441320000D03*
X172720000Y-441320000D03*
X172720000Y-438780000D03*
X172720000Y-436240000D03*
X172720000Y-433700000D03*
X172720000Y-431160000D03*
X172720000Y-428620000D03*
X172720000Y-426080000D03*
X172720000Y-423540000D03*
X172720000Y-421000000D03*
X172720000Y-418460000D03*
%TD*%
D10*
%TO.C,D40*%
X129693750Y-222250000D03*
D11*
X132233750Y-222250000D03*
%TD*%
D12*
%TO.C,U4*%
X82560000Y-116210000D03*
D13*
X82560000Y-118750000D03*
X82560000Y-121290000D03*
X82560000Y-123830000D03*
X82560000Y-126370000D03*
X82560000Y-128910000D03*
X82560000Y-131450000D03*
X82560000Y-133990000D03*
X82560000Y-136530000D03*
X82560000Y-139070000D03*
X90180000Y-139070000D03*
X90180000Y-136530000D03*
X90180000Y-133990000D03*
X90180000Y-131450000D03*
X90180000Y-128910000D03*
X90180000Y-126370000D03*
X90180000Y-123830000D03*
X90180000Y-121290000D03*
X90180000Y-118750000D03*
X90180000Y-116210000D03*
%TD*%
D14*
%TO.C,R46*%
X93975000Y-228600000D03*
D13*
X91435000Y-228600000D03*
%TD*%
D10*
%TO.C,D124*%
X292735000Y-297815000D03*
D11*
X295275000Y-297815000D03*
%TD*%
D10*
%TO.C,D44*%
X103663750Y-222250000D03*
D11*
X106203750Y-222250000D03*
%TD*%
D10*
%TO.C,D37*%
X149225000Y-222250000D03*
D11*
X151765000Y-222250000D03*
%TD*%
D10*
%TO.C,D98*%
X253682500Y-146685000D03*
D11*
X256222500Y-146685000D03*
%TD*%
D14*
%TO.C,R125*%
X288290000Y-304165000D03*
D13*
X285750000Y-304165000D03*
%TD*%
D10*
%TO.C,D101*%
X234156250Y-146685000D03*
D11*
X236696250Y-146685000D03*
%TD*%
D10*
%TO.C,D135*%
X221138750Y-297815000D03*
D11*
X223678750Y-297815000D03*
%TD*%
D10*
%TO.C,D112*%
X266700000Y-373380000D03*
D11*
X269240000Y-373380000D03*
%TD*%
D14*
%TO.C,R103*%
X224790000Y-153035000D03*
D13*
X222250000Y-153035000D03*
%TD*%
D14*
%TO.C,R96*%
X224790000Y-228600000D03*
D13*
X222250000Y-228600000D03*
%TD*%
D14*
%TO.C,R69*%
X151130000Y-379730000D03*
D13*
X148590000Y-379730000D03*
%TD*%
D14*
%TO.C,R112*%
X269240000Y-379730000D03*
D13*
X266700000Y-379730000D03*
%TD*%
D10*
%TO.C,D2*%
X168751250Y-71120000D03*
D11*
X171291250Y-71120000D03*
%TD*%
D10*
%TO.C,D130*%
X253682500Y-297815000D03*
D11*
X256222500Y-297815000D03*
%TD*%
D16*
%TO.C,J5*%
X375285000Y-134620000D03*
D17*
X372745000Y-134620000D03*
X375285000Y-132080000D03*
X372745000Y-132080000D03*
X375285000Y-129540000D03*
X372745000Y-129540000D03*
X375285000Y-127000000D03*
X372745000Y-127000000D03*
X375285000Y-124460000D03*
X372745000Y-124460000D03*
X375285000Y-121920000D03*
X372745000Y-121920000D03*
X375285000Y-119380000D03*
X372745000Y-119380000D03*
X375285000Y-116840000D03*
X372745000Y-116840000D03*
X375285000Y-114300000D03*
X372745000Y-114300000D03*
X375285000Y-111760000D03*
X372745000Y-111760000D03*
X375285000Y-109220000D03*
X372745000Y-109220000D03*
X375285000Y-106680000D03*
X372745000Y-106680000D03*
%TD*%
D10*
%TO.C,D122*%
X305752500Y-297815000D03*
D11*
X308292500Y-297815000D03*
%TD*%
D10*
%TO.C,D95*%
X227647500Y-222250000D03*
D11*
X230187500Y-222250000D03*
%TD*%
D14*
%TO.C,R114*%
X256540000Y-379730000D03*
D13*
X254000000Y-379730000D03*
%TD*%
D10*
%TO.C,D84*%
X299243750Y-222250000D03*
D11*
X301783750Y-222250000D03*
%TD*%
D10*
%TO.C,D132*%
X240665000Y-297815000D03*
D11*
X243205000Y-297815000D03*
%TD*%
D14*
%TO.C,R13*%
X100330000Y-77470000D03*
D13*
X97790000Y-77470000D03*
%TD*%
D14*
%TO.C,R1*%
X176530000Y-77470000D03*
D13*
X173990000Y-77470000D03*
%TD*%
D14*
%TO.C,R22*%
X144780000Y-153035000D03*
D13*
X142240000Y-153035000D03*
%TD*%
D12*
%TO.C,U24*%
X165110000Y-342905000D03*
D13*
X165110000Y-345445000D03*
X165110000Y-347985000D03*
X165110000Y-350525000D03*
X165110000Y-353065000D03*
X165110000Y-355605000D03*
X165110000Y-358145000D03*
X165110000Y-360685000D03*
X165110000Y-363225000D03*
X165110000Y-365765000D03*
X172730000Y-365765000D03*
X172730000Y-363225000D03*
X172730000Y-360685000D03*
X172730000Y-358145000D03*
X172730000Y-355605000D03*
X172730000Y-353065000D03*
X172730000Y-350525000D03*
X172730000Y-347985000D03*
X172730000Y-345445000D03*
X172730000Y-342905000D03*
%TD*%
D14*
%TO.C,R54*%
X144780000Y-304165000D03*
D13*
X142240000Y-304165000D03*
%TD*%
D12*
%TO.C,U29*%
X152400000Y-418465000D03*
D13*
X152400000Y-421005000D03*
X152400000Y-423545000D03*
X152400000Y-426085000D03*
X152400000Y-428625000D03*
X152400000Y-431165000D03*
X152400000Y-433705000D03*
X152400000Y-436245000D03*
X152400000Y-438785000D03*
X152400000Y-441325000D03*
X160020000Y-441325000D03*
X160020000Y-438785000D03*
X160020000Y-436245000D03*
X160020000Y-433705000D03*
X160020000Y-431165000D03*
X160020000Y-428625000D03*
X160020000Y-426085000D03*
X160020000Y-423545000D03*
X160020000Y-421005000D03*
X160020000Y-418465000D03*
%TD*%
D10*
%TO.C,D87*%
X279717500Y-222250000D03*
D11*
X282257500Y-222250000D03*
%TD*%
D14*
%TO.C,R115*%
X250190000Y-379730000D03*
D13*
X247650000Y-379730000D03*
%TD*%
D14*
%TO.C,R132*%
X243840000Y-304165000D03*
D13*
X241300000Y-304165000D03*
%TD*%
D14*
%TO.C,R80*%
X81280000Y-379730000D03*
D13*
X78740000Y-379730000D03*
%TD*%
D14*
%TO.C,R55*%
X138430000Y-304165000D03*
D13*
X135890000Y-304165000D03*
%TD*%
D12*
%TO.C,U17*%
X152400000Y-267335000D03*
D13*
X152400000Y-269875000D03*
X152400000Y-272415000D03*
X152400000Y-274955000D03*
X152400000Y-277495000D03*
X152400000Y-280035000D03*
X152400000Y-282575000D03*
X152400000Y-285115000D03*
X152400000Y-287655000D03*
X152400000Y-290195000D03*
X160020000Y-290195000D03*
X160020000Y-287655000D03*
X160020000Y-285115000D03*
X160020000Y-282575000D03*
X160020000Y-280035000D03*
X160020000Y-277495000D03*
X160020000Y-274955000D03*
X160020000Y-272415000D03*
X160020000Y-269875000D03*
X160020000Y-267335000D03*
%TD*%
D14*
%TO.C,R32*%
X81280000Y-153035000D03*
D13*
X78740000Y-153035000D03*
%TD*%
D14*
%TO.C,R26*%
X119380000Y-153035000D03*
D13*
X116840000Y-153035000D03*
%TD*%
D10*
%TO.C,D12*%
X103663750Y-71120000D03*
D11*
X106203750Y-71120000D03*
%TD*%
D10*
%TO.C,D9*%
X123190000Y-71120000D03*
D11*
X125730000Y-71120000D03*
%TD*%
D14*
%TO.C,R45*%
X100325000Y-228600000D03*
D13*
X97785000Y-228600000D03*
%TD*%
D10*
%TO.C,D82*%
X312261250Y-222250000D03*
D11*
X314801250Y-222250000D03*
%TD*%
D14*
%TO.C,R109*%
X288290000Y-379730000D03*
D13*
X285750000Y-379730000D03*
%TD*%
D12*
%TO.C,U33*%
X334010000Y-167640000D03*
D13*
X334010000Y-170180000D03*
X334010000Y-172720000D03*
X334010000Y-175260000D03*
X334010000Y-177800000D03*
X334010000Y-180340000D03*
X334010000Y-182880000D03*
X334010000Y-185420000D03*
X341630000Y-185420000D03*
X341630000Y-182880000D03*
X341630000Y-180340000D03*
X341630000Y-177800000D03*
X341630000Y-175260000D03*
X341630000Y-172720000D03*
X341630000Y-170180000D03*
X341630000Y-167640000D03*
%TD*%
D14*
%TO.C,R17*%
X176530000Y-153035000D03*
D13*
X173990000Y-153035000D03*
%TD*%
D14*
%TO.C,R3*%
X163830000Y-77470000D03*
D13*
X161290000Y-77470000D03*
%TD*%
D12*
%TO.C,U28*%
X82560000Y-418465000D03*
D13*
X82560000Y-421005000D03*
X82560000Y-423545000D03*
X82560000Y-426085000D03*
X82560000Y-428625000D03*
X82560000Y-431165000D03*
X82560000Y-433705000D03*
X82560000Y-436245000D03*
X82560000Y-438785000D03*
X82560000Y-441325000D03*
X90180000Y-441325000D03*
X90180000Y-438785000D03*
X90180000Y-436245000D03*
X90180000Y-433705000D03*
X90180000Y-431165000D03*
X90180000Y-428625000D03*
X90180000Y-426085000D03*
X90180000Y-423545000D03*
X90180000Y-421005000D03*
X90180000Y-418465000D03*
%TD*%
D10*
%TO.C,D34*%
X168751250Y-222250000D03*
D11*
X171291250Y-222250000D03*
%TD*%
D10*
%TO.C,D62*%
X90646250Y-297815000D03*
D11*
X93186250Y-297815000D03*
%TD*%
D10*
%TO.C,D68*%
X155733750Y-373380000D03*
D11*
X158273750Y-373380000D03*
%TD*%
D14*
%TO.C,R48*%
X81275000Y-228600000D03*
D13*
X78735000Y-228600000D03*
%TD*%
D14*
%TO.C,R108*%
X294640000Y-379730000D03*
D13*
X292100000Y-379730000D03*
%TD*%
D12*
%TO.C,U12*%
X165110000Y-191775000D03*
D13*
X165110000Y-194315000D03*
X165110000Y-196855000D03*
X165110000Y-199395000D03*
X165110000Y-201935000D03*
X165110000Y-204475000D03*
X165110000Y-207015000D03*
X165110000Y-209555000D03*
X165110000Y-212095000D03*
X165110000Y-214635000D03*
X172730000Y-214635000D03*
X172730000Y-212095000D03*
X172730000Y-209555000D03*
X172730000Y-207015000D03*
X172730000Y-204475000D03*
X172730000Y-201935000D03*
X172730000Y-199395000D03*
X172730000Y-196855000D03*
X172730000Y-194315000D03*
X172730000Y-191775000D03*
%TD*%
D12*
%TO.C,U47*%
X226060000Y-238125000D03*
D13*
X226060000Y-240665000D03*
X226060000Y-243205000D03*
X226060000Y-245745000D03*
X226060000Y-248285000D03*
X226060000Y-250825000D03*
X226060000Y-253365000D03*
X226060000Y-255905000D03*
X226060000Y-258445000D03*
X226060000Y-260985000D03*
X233680000Y-260985000D03*
X233680000Y-258445000D03*
X233680000Y-255905000D03*
X233680000Y-253365000D03*
X233680000Y-250825000D03*
X233680000Y-248285000D03*
X233680000Y-245745000D03*
X233680000Y-243205000D03*
X233680000Y-240665000D03*
X233680000Y-238125000D03*
%TD*%
D14*
%TO.C,R75*%
X113030000Y-379730000D03*
D13*
X110490000Y-379730000D03*
%TD*%
D10*
%TO.C,D79*%
X84137500Y-373380000D03*
D11*
X86677500Y-373380000D03*
%TD*%
D10*
%TO.C,D45*%
X97155000Y-222250000D03*
D11*
X99695000Y-222250000D03*
%TD*%
D14*
%TO.C,R99*%
X250190000Y-153035000D03*
D13*
X247650000Y-153035000D03*
%TD*%
D14*
%TO.C,R79*%
X87630000Y-379730000D03*
D13*
X85090000Y-379730000D03*
%TD*%
D10*
%TO.C,D28*%
X103663750Y-146685000D03*
D11*
X106203750Y-146685000D03*
%TD*%
D14*
%TO.C,R84*%
X300990000Y-228600000D03*
D13*
X298450000Y-228600000D03*
%TD*%
D10*
%TO.C,D73*%
X123190000Y-373380000D03*
D11*
X125730000Y-373380000D03*
%TD*%
D10*
%TO.C,D46*%
X90646250Y-222250000D03*
D11*
X93186250Y-222250000D03*
%TD*%
D10*
%TO.C,D106*%
X305752500Y-373380000D03*
D11*
X308292500Y-373380000D03*
%TD*%
D10*
%TO.C,D134*%
X227647500Y-297815000D03*
D11*
X230187500Y-297815000D03*
%TD*%
D12*
%TO.C,U2*%
X152410000Y-87000000D03*
D13*
X152410000Y-89540000D03*
X152410000Y-92080000D03*
X152410000Y-94620000D03*
X152410000Y-97160000D03*
X152410000Y-99700000D03*
X152410000Y-102240000D03*
X152410000Y-104780000D03*
X152410000Y-107320000D03*
X152410000Y-109860000D03*
X160030000Y-109860000D03*
X160030000Y-107320000D03*
X160030000Y-104780000D03*
X160030000Y-102240000D03*
X160030000Y-99700000D03*
X160030000Y-97160000D03*
X160030000Y-94620000D03*
X160030000Y-92080000D03*
X160030000Y-89540000D03*
X160030000Y-87000000D03*
%TD*%
D10*
%TO.C,D17*%
X175260000Y-146685000D03*
D11*
X177800000Y-146685000D03*
%TD*%
D14*
%TO.C,R59*%
X113030000Y-304165000D03*
D13*
X110490000Y-304165000D03*
%TD*%
D12*
%TO.C,U54*%
X308610000Y-418465000D03*
D13*
X308610000Y-421005000D03*
X308610000Y-423545000D03*
X308610000Y-426085000D03*
X308610000Y-428625000D03*
X308610000Y-431165000D03*
X308610000Y-433705000D03*
X308610000Y-436245000D03*
X308610000Y-438785000D03*
X308610000Y-441325000D03*
X316230000Y-441325000D03*
X316230000Y-438785000D03*
X316230000Y-436245000D03*
X316230000Y-433705000D03*
X316230000Y-431165000D03*
X316230000Y-428625000D03*
X316230000Y-426085000D03*
X316230000Y-423545000D03*
X316230000Y-421005000D03*
X316230000Y-418465000D03*
%TD*%
D12*
%TO.C,U43*%
X226060000Y-191770000D03*
D13*
X226060000Y-194310000D03*
X226060000Y-196850000D03*
X226060000Y-199390000D03*
X226060000Y-201930000D03*
X226060000Y-204470000D03*
X226060000Y-207010000D03*
X226060000Y-209550000D03*
X226060000Y-212090000D03*
X226060000Y-214630000D03*
X233680000Y-214630000D03*
X233680000Y-212090000D03*
X233680000Y-209550000D03*
X233680000Y-207010000D03*
X233680000Y-204470000D03*
X233680000Y-201930000D03*
X233680000Y-199390000D03*
X233680000Y-196850000D03*
X233680000Y-194310000D03*
X233680000Y-191770000D03*
%TD*%
D14*
%TO.C,R37*%
X151125000Y-228600000D03*
D13*
X148585000Y-228600000D03*
%TD*%
D10*
%TO.C,D120*%
X318770000Y-297815000D03*
D11*
X321310000Y-297815000D03*
%TD*%
D14*
%TO.C,R38*%
X144775000Y-228600000D03*
D13*
X142235000Y-228600000D03*
%TD*%
D10*
%TO.C,D94*%
X234156250Y-222250000D03*
D11*
X236696250Y-222250000D03*
%TD*%
D14*
%TO.C,R130*%
X256540000Y-304165000D03*
D13*
X254000000Y-304165000D03*
%TD*%
D14*
%TO.C,R77*%
X100330000Y-379730000D03*
D13*
X97790000Y-379730000D03*
%TD*%
D14*
%TO.C,R85*%
X294640000Y-228600000D03*
D13*
X292100000Y-228600000D03*
%TD*%
D14*
%TO.C,R93*%
X243840000Y-228600000D03*
D13*
X241300000Y-228600000D03*
%TD*%
D10*
%TO.C,D63*%
X84137500Y-297815000D03*
D11*
X86677500Y-297815000D03*
%TD*%
D14*
%TO.C,R16*%
X81280000Y-77470000D03*
D13*
X78740000Y-77470000D03*
%TD*%
D10*
%TO.C,D81*%
X318770000Y-222250000D03*
D11*
X321310000Y-222250000D03*
%TD*%
D10*
%TO.C,D35*%
X162242500Y-222250000D03*
D11*
X164782500Y-222250000D03*
%TD*%
D14*
%TO.C,R47*%
X87625000Y-228600000D03*
D13*
X85085000Y-228600000D03*
%TD*%
D14*
%TO.C,R121*%
X313690000Y-304165000D03*
D13*
X311150000Y-304165000D03*
%TD*%
D14*
%TO.C,R8*%
X132080000Y-77470000D03*
D13*
X129540000Y-77470000D03*
%TD*%
D10*
%TO.C,D38*%
X142716250Y-222250000D03*
D11*
X145256250Y-222250000D03*
%TD*%
D10*
%TO.C,D78*%
X90646250Y-373380000D03*
D11*
X93186250Y-373380000D03*
%TD*%
D12*
%TO.C,U50*%
X238760000Y-267335000D03*
D13*
X238760000Y-269875000D03*
X238760000Y-272415000D03*
X238760000Y-274955000D03*
X238760000Y-277495000D03*
X238760000Y-280035000D03*
X238760000Y-282575000D03*
X238760000Y-285115000D03*
X238760000Y-287655000D03*
X238760000Y-290195000D03*
X246380000Y-290195000D03*
X246380000Y-287655000D03*
X246380000Y-285115000D03*
X246380000Y-282575000D03*
X246380000Y-280035000D03*
X246380000Y-277495000D03*
X246380000Y-274955000D03*
X246380000Y-272415000D03*
X246380000Y-269875000D03*
X246380000Y-267335000D03*
%TD*%
D14*
%TO.C,R88*%
X275590000Y-228600000D03*
D13*
X273050000Y-228600000D03*
%TD*%
D10*
%TO.C,D18*%
X168751250Y-146685000D03*
D11*
X171291250Y-146685000D03*
%TD*%
D10*
%TO.C,D90*%
X260191250Y-222250000D03*
D11*
X262731250Y-222250000D03*
%TD*%
D12*
%TO.C,U20*%
X152410000Y-313695000D03*
D13*
X152410000Y-316235000D03*
X152410000Y-318775000D03*
X152410000Y-321315000D03*
X152410000Y-323855000D03*
X152410000Y-326395000D03*
X152410000Y-328935000D03*
X152410000Y-331475000D03*
X152410000Y-334015000D03*
X152410000Y-336555000D03*
X160030000Y-336555000D03*
X160030000Y-334015000D03*
X160030000Y-331475000D03*
X160030000Y-328935000D03*
X160030000Y-326395000D03*
X160030000Y-323855000D03*
X160030000Y-321315000D03*
X160030000Y-318775000D03*
X160030000Y-316235000D03*
X160030000Y-313695000D03*
%TD*%
D14*
%TO.C,R134*%
X231140000Y-304165000D03*
D13*
X228600000Y-304165000D03*
%TD*%
D14*
%TO.C,R83*%
X307340000Y-228600000D03*
D13*
X304800000Y-228600000D03*
%TD*%
D10*
%TO.C,D119*%
X221138750Y-373380000D03*
D11*
X223678750Y-373380000D03*
%TD*%
D12*
%TO.C,U22*%
X82560000Y-342905000D03*
D13*
X82560000Y-345445000D03*
X82560000Y-347985000D03*
X82560000Y-350525000D03*
X82560000Y-353065000D03*
X82560000Y-355605000D03*
X82560000Y-358145000D03*
X82560000Y-360685000D03*
X82560000Y-363225000D03*
X82560000Y-365765000D03*
X90180000Y-365765000D03*
X90180000Y-363225000D03*
X90180000Y-360685000D03*
X90180000Y-358145000D03*
X90180000Y-355605000D03*
X90180000Y-353065000D03*
X90180000Y-350525000D03*
X90180000Y-347985000D03*
X90180000Y-345445000D03*
X90180000Y-342905000D03*
%TD*%
D14*
%TO.C,R104*%
X320040000Y-379730000D03*
D13*
X317500000Y-379730000D03*
%TD*%
D10*
%TO.C,D15*%
X84137500Y-71120000D03*
D11*
X86677500Y-71120000D03*
%TD*%
D10*
%TO.C,D96*%
X221138750Y-222250000D03*
D11*
X223678750Y-222250000D03*
%TD*%
D14*
%TO.C,R106*%
X307340000Y-379730000D03*
D13*
X304800000Y-379730000D03*
%TD*%
D10*
%TO.C,D129*%
X260191250Y-297815000D03*
D11*
X262731250Y-297815000D03*
%TD*%
D12*
%TO.C,U58*%
X226060000Y-342900000D03*
D13*
X226060000Y-345440000D03*
X226060000Y-347980000D03*
X226060000Y-350520000D03*
X226060000Y-353060000D03*
X226060000Y-355600000D03*
X226060000Y-358140000D03*
X226060000Y-360680000D03*
X226060000Y-363220000D03*
X226060000Y-365760000D03*
X233680000Y-365760000D03*
X233680000Y-363220000D03*
X233680000Y-360680000D03*
X233680000Y-358140000D03*
X233680000Y-355600000D03*
X233680000Y-353060000D03*
X233680000Y-350520000D03*
X233680000Y-347980000D03*
X233680000Y-345440000D03*
X233680000Y-342900000D03*
%TD*%
D14*
%TO.C,R86*%
X288290000Y-228600000D03*
D13*
X285750000Y-228600000D03*
%TD*%
D10*
%TO.C,D69*%
X149225000Y-373380000D03*
D11*
X151765000Y-373380000D03*
%TD*%
D10*
%TO.C,D49*%
X175255000Y-297815000D03*
D11*
X177795000Y-297815000D03*
%TD*%
D12*
%TO.C,U56*%
X308610000Y-342900000D03*
D13*
X308610000Y-345440000D03*
X308610000Y-347980000D03*
X308610000Y-350520000D03*
X308610000Y-353060000D03*
X308610000Y-355600000D03*
X308610000Y-358140000D03*
X308610000Y-360680000D03*
X308610000Y-363220000D03*
X308610000Y-365760000D03*
X316230000Y-365760000D03*
X316230000Y-363220000D03*
X316230000Y-360680000D03*
X316230000Y-358140000D03*
X316230000Y-355600000D03*
X316230000Y-353060000D03*
X316230000Y-350520000D03*
X316230000Y-347980000D03*
X316230000Y-345440000D03*
X316230000Y-342900000D03*
%TD*%
D14*
%TO.C,R100*%
X243840000Y-153035000D03*
D13*
X241300000Y-153035000D03*
%TD*%
D12*
%TO.C,U49*%
X308610000Y-269875000D03*
D13*
X308610000Y-272415000D03*
X308610000Y-274955000D03*
X308610000Y-277495000D03*
X308610000Y-280035000D03*
X308610000Y-282575000D03*
X308610000Y-285115000D03*
X308610000Y-287655000D03*
X316230000Y-287655000D03*
X316230000Y-285115000D03*
X316230000Y-282575000D03*
X316230000Y-280035000D03*
X316230000Y-277495000D03*
X316230000Y-274955000D03*
X316230000Y-272415000D03*
X316230000Y-269875000D03*
%TD*%
D12*
%TO.C,U21*%
X165110000Y-313695000D03*
D13*
X165110000Y-316235000D03*
X165110000Y-318775000D03*
X165110000Y-321315000D03*
X165110000Y-323855000D03*
X165110000Y-326395000D03*
X165110000Y-328935000D03*
X165110000Y-331475000D03*
X165110000Y-334015000D03*
X165110000Y-336555000D03*
X172730000Y-336555000D03*
X172730000Y-334015000D03*
X172730000Y-331475000D03*
X172730000Y-328935000D03*
X172730000Y-326395000D03*
X172730000Y-323855000D03*
X172730000Y-321315000D03*
X172730000Y-318775000D03*
X172730000Y-316235000D03*
X172730000Y-313695000D03*
%TD*%
D10*
%TO.C,D41*%
X123180000Y-222250000D03*
D11*
X125720000Y-222250000D03*
%TD*%
D14*
%TO.C,R122*%
X307340000Y-304165000D03*
D13*
X304800000Y-304165000D03*
%TD*%
D10*
%TO.C,D91*%
X253682500Y-222250000D03*
D11*
X256222500Y-222250000D03*
%TD*%
D10*
%TO.C,D14*%
X90646250Y-71120000D03*
D11*
X93186250Y-71120000D03*
%TD*%
D12*
%TO.C,U46*%
X238760000Y-238125000D03*
D13*
X238760000Y-240665000D03*
X238760000Y-243205000D03*
X238760000Y-245745000D03*
X238760000Y-248285000D03*
X238760000Y-250825000D03*
X238760000Y-253365000D03*
X238760000Y-255905000D03*
X238760000Y-258445000D03*
X238760000Y-260985000D03*
X246380000Y-260985000D03*
X246380000Y-258445000D03*
X246380000Y-255905000D03*
X246380000Y-253365000D03*
X246380000Y-250825000D03*
X246380000Y-248285000D03*
X246380000Y-245745000D03*
X246380000Y-243205000D03*
X246380000Y-240665000D03*
X246380000Y-238125000D03*
%TD*%
D10*
%TO.C,D64*%
X77628750Y-297815000D03*
D11*
X80168750Y-297815000D03*
%TD*%
D14*
%TO.C,R120*%
X320040000Y-304165000D03*
D13*
X317500000Y-304165000D03*
%TD*%
D14*
%TO.C,R117*%
X237490000Y-379730000D03*
D13*
X234950000Y-379730000D03*
%TD*%
D10*
%TO.C,D51*%
X162242500Y-297815000D03*
D11*
X164782500Y-297815000D03*
%TD*%
D10*
%TO.C,D99*%
X247173750Y-146685000D03*
D11*
X249713750Y-146685000D03*
%TD*%
D14*
%TO.C,R98*%
X256540000Y-153035000D03*
D13*
X254000000Y-153035000D03*
%TD*%
D10*
%TO.C,D21*%
X149225000Y-146685000D03*
D11*
X151765000Y-146685000D03*
%TD*%
D10*
%TO.C,D33*%
X175260000Y-222250000D03*
D11*
X177800000Y-222250000D03*
%TD*%
D10*
%TO.C,D23*%
X136207500Y-146685000D03*
D11*
X138747500Y-146685000D03*
%TD*%
D14*
%TO.C,R68*%
X157480000Y-379730000D03*
D13*
X154940000Y-379730000D03*
%TD*%
D10*
%TO.C,D24*%
X129698750Y-146685000D03*
D11*
X132238750Y-146685000D03*
%TD*%
D12*
%TO.C,U31*%
X334010000Y-144145000D03*
D13*
X334010000Y-146685000D03*
X334010000Y-149225000D03*
X334010000Y-151765000D03*
X334010000Y-154305000D03*
X334010000Y-156845000D03*
X334010000Y-159385000D03*
X334010000Y-161925000D03*
X341630000Y-161925000D03*
X341630000Y-159385000D03*
X341630000Y-156845000D03*
X341630000Y-154305000D03*
X341630000Y-151765000D03*
X341630000Y-149225000D03*
X341630000Y-146685000D03*
X341630000Y-144145000D03*
%TD*%
D15*
%TO.C,H8*%
X34290000Y-486410000D03*
%TD*%
D14*
%TO.C,R18*%
X170180000Y-153035000D03*
D13*
X167640000Y-153035000D03*
%TD*%
D14*
%TO.C,R56*%
X132080000Y-304165000D03*
D13*
X129540000Y-304165000D03*
%TD*%
D14*
%TO.C,R74*%
X119380000Y-379730000D03*
D13*
X116840000Y-379730000D03*
%TD*%
D14*
%TO.C,R20*%
X157480000Y-153035000D03*
D13*
X154940000Y-153035000D03*
%TD*%
D14*
%TO.C,R97*%
X262890000Y-153035000D03*
D13*
X260350000Y-153035000D03*
%TD*%
D12*
%TO.C,U8*%
X152410000Y-162565000D03*
D13*
X152410000Y-165105000D03*
X152410000Y-167645000D03*
X152410000Y-170185000D03*
X152410000Y-172725000D03*
X152410000Y-175265000D03*
X152410000Y-177805000D03*
X152410000Y-180345000D03*
X152410000Y-182885000D03*
X152410000Y-185425000D03*
X160030000Y-185425000D03*
X160030000Y-182885000D03*
X160030000Y-180345000D03*
X160030000Y-177805000D03*
X160030000Y-175265000D03*
X160030000Y-172725000D03*
X160030000Y-170185000D03*
X160030000Y-167645000D03*
X160030000Y-165105000D03*
X160030000Y-162565000D03*
%TD*%
D10*
%TO.C,D133*%
X234156250Y-297815000D03*
D11*
X236696250Y-297815000D03*
%TD*%
D14*
%TO.C,R123*%
X300990000Y-304165000D03*
D13*
X298450000Y-304165000D03*
%TD*%
D10*
%TO.C,D114*%
X253682500Y-373380000D03*
D11*
X256222500Y-373380000D03*
%TD*%
D10*
%TO.C,D125*%
X286226250Y-297815000D03*
D11*
X288766250Y-297815000D03*
%TD*%
D12*
%TO.C,U6*%
X165110000Y-116210000D03*
D13*
X165110000Y-118750000D03*
X165110000Y-121290000D03*
X165110000Y-123830000D03*
X165110000Y-126370000D03*
X165110000Y-128910000D03*
X165110000Y-131450000D03*
X165110000Y-133990000D03*
X165110000Y-136530000D03*
X165110000Y-139070000D03*
X172730000Y-139070000D03*
X172730000Y-136530000D03*
X172730000Y-133990000D03*
X172730000Y-131450000D03*
X172730000Y-128910000D03*
X172730000Y-126370000D03*
X172730000Y-123830000D03*
X172730000Y-121290000D03*
X172730000Y-118750000D03*
X172730000Y-116210000D03*
%TD*%
D10*
%TO.C,D102*%
X227647500Y-146685000D03*
D11*
X230187500Y-146685000D03*
%TD*%
D10*
%TO.C,D20*%
X155733750Y-146685000D03*
D11*
X158273750Y-146685000D03*
%TD*%
D14*
%TO.C,R70*%
X144780000Y-379730000D03*
D13*
X142240000Y-379730000D03*
%TD*%
D10*
%TO.C,D3*%
X162242500Y-71120000D03*
D11*
X164782500Y-71120000D03*
%TD*%
D14*
%TO.C,R119*%
X224790000Y-379730000D03*
D13*
X222250000Y-379730000D03*
%TD*%
D14*
%TO.C,R133*%
X237490000Y-304165000D03*
D13*
X234950000Y-304165000D03*
%TD*%
D14*
%TO.C,R111*%
X275590000Y-379730000D03*
D13*
X273050000Y-379730000D03*
%TD*%
D10*
%TO.C,D113*%
X260191250Y-373380000D03*
D11*
X262731250Y-373380000D03*
%TD*%
D10*
%TO.C,D27*%
X110172500Y-146685000D03*
D11*
X112712500Y-146685000D03*
%TD*%
D15*
%TO.C,H6*%
X206692500Y-486410000D03*
%TD*%
D10*
%TO.C,D10*%
X116681250Y-71120000D03*
D11*
X119221250Y-71120000D03*
%TD*%
D14*
%TO.C,R116*%
X243840000Y-379730000D03*
D13*
X241300000Y-379730000D03*
%TD*%
D14*
%TO.C,R11*%
X113030000Y-77470000D03*
D13*
X110490000Y-77470000D03*
%TD*%
D14*
%TO.C,R9*%
X125730000Y-77470000D03*
D13*
X123190000Y-77470000D03*
%TD*%
D10*
%TO.C,D118*%
X227647500Y-373380000D03*
D11*
X230187500Y-373380000D03*
%TD*%
D14*
%TO.C,R91*%
X256540000Y-228600000D03*
D13*
X254000000Y-228600000D03*
%TD*%
D10*
%TO.C,D75*%
X110172500Y-373380000D03*
D11*
X112712500Y-373380000D03*
%TD*%
D14*
%TO.C,R2*%
X170180000Y-77470000D03*
D13*
X167640000Y-77470000D03*
%TD*%
D10*
%TO.C,D71*%
X136207500Y-373380000D03*
D11*
X138747500Y-373380000D03*
%TD*%
D10*
%TO.C,D86*%
X286226250Y-222250000D03*
D11*
X288766250Y-222250000D03*
%TD*%
D10*
%TO.C,D32*%
X77628750Y-146685000D03*
D11*
X80168750Y-146685000D03*
%TD*%
D12*
%TO.C,U13*%
X82550000Y-238125000D03*
D13*
X82550000Y-240665000D03*
X82550000Y-243205000D03*
X82550000Y-245745000D03*
X82550000Y-248285000D03*
X82550000Y-250825000D03*
X82550000Y-253365000D03*
X82550000Y-255905000D03*
X82550000Y-258445000D03*
X82550000Y-260985000D03*
X90170000Y-260985000D03*
X90170000Y-258445000D03*
X90170000Y-255905000D03*
X90170000Y-253365000D03*
X90170000Y-250825000D03*
X90170000Y-248285000D03*
X90170000Y-245745000D03*
X90170000Y-243205000D03*
X90170000Y-240665000D03*
X90170000Y-238125000D03*
%TD*%
D18*
%TO.C,J4*%
X54610000Y-71120000D03*
D19*
X59690000Y-71120000D03*
%TD*%
D14*
%TO.C,R35*%
X163825000Y-228600000D03*
D13*
X161285000Y-228600000D03*
%TD*%
D12*
%TO.C,U35*%
X308610000Y-170180000D03*
D13*
X308610000Y-172720000D03*
X308610000Y-175260000D03*
X308610000Y-177800000D03*
X308610000Y-180340000D03*
X308610000Y-182880000D03*
X308610000Y-185420000D03*
X316230000Y-185420000D03*
X316230000Y-182880000D03*
X316230000Y-180340000D03*
X316230000Y-177800000D03*
X316230000Y-175260000D03*
X316230000Y-172720000D03*
X316230000Y-170180000D03*
%TD*%
D14*
%TO.C,R61*%
X100330000Y-304165000D03*
D13*
X97790000Y-304165000D03*
%TD*%
D10*
%TO.C,D123*%
X299243750Y-297815000D03*
D11*
X301783750Y-297815000D03*
%TD*%
D10*
%TO.C,D47*%
X84137500Y-222250000D03*
D11*
X86677500Y-222250000D03*
%TD*%
D14*
%TO.C,R128*%
X269240000Y-304165000D03*
D13*
X266700000Y-304165000D03*
%TD*%
M02*
