%TF.GenerationSoftware,KiCad,Pcbnew,6.0.7-f9a2dced07~116~ubuntu20.04.1*%
%TF.CreationDate,2022-09-07T21:51:15+02:00*%
%TF.ProjectId,px16_regfile,70783136-5f72-4656-9766-696c652e6b69,1*%
%TF.SameCoordinates,Original*%
%TF.FileFunction,Legend,Bot*%
%TF.FilePolarity,Positive*%
%FSLAX46Y46*%
G04 Gerber Fmt 4.6, Leading zero omitted, Abs format (unit mm)*
G04 Created by KiCad (PCBNEW 6.0.7-f9a2dced07~116~ubuntu20.04.1) date 2022-09-07 21:51:15*
%MOMM*%
%LPD*%
G01*
G04 APERTURE LIST*
%ADD10C,0.300000*%
G04 APERTURE END LIST*
D10*
X380444229Y-441055550D02*
X380595658Y-440979835D01*
X380822801Y-440979835D01*
X381049944Y-441055550D01*
X381201372Y-441206978D01*
X381277086Y-441358407D01*
X381352801Y-441661264D01*
X381352801Y-441888407D01*
X381277086Y-442191264D01*
X381201372Y-442342692D01*
X381049944Y-442494121D01*
X380822801Y-442569835D01*
X380671372Y-442569835D01*
X380444229Y-442494121D01*
X380368515Y-442418407D01*
X380368515Y-441888407D01*
X380671372Y-441888407D01*
X379687086Y-442569835D02*
X379687086Y-440979835D01*
X378778515Y-442569835D01*
X378778515Y-440979835D01*
X378021372Y-442569835D02*
X378021372Y-440979835D01*
X377642801Y-440979835D01*
X377415658Y-441055550D01*
X377264229Y-441206978D01*
X377188515Y-441358407D01*
X377112801Y-441661264D01*
X377112801Y-441888407D01*
X377188515Y-442191264D01*
X377264229Y-442342692D01*
X377415658Y-442494121D01*
X377642801Y-442569835D01*
X378021372Y-442569835D01*
X377112801Y-445129735D02*
X378021372Y-445129735D01*
X377567086Y-445129735D02*
X377567086Y-443539735D01*
X377718515Y-443766878D01*
X377869944Y-443918307D01*
X378021372Y-443994021D01*
X378097086Y-446099635D02*
X377112801Y-446099635D01*
X377642801Y-446705350D01*
X377415658Y-446705350D01*
X377264229Y-446781064D01*
X377188515Y-446856778D01*
X377112801Y-447008207D01*
X377112801Y-447386778D01*
X377188515Y-447538207D01*
X377264229Y-447613921D01*
X377415658Y-447689635D01*
X377869944Y-447689635D01*
X378021372Y-447613921D01*
X378097086Y-447538207D01*
X377188515Y-448659535D02*
X377945658Y-448659535D01*
X378021372Y-449416678D01*
X377945658Y-449340964D01*
X377794229Y-449265250D01*
X377415658Y-449265250D01*
X377264229Y-449340964D01*
X377188515Y-449416678D01*
X377112801Y-449568107D01*
X377112801Y-449946678D01*
X377188515Y-450098107D01*
X377264229Y-450173821D01*
X377415658Y-450249535D01*
X377794229Y-450249535D01*
X377945658Y-450173821D01*
X378021372Y-450098107D01*
X378097086Y-451219435D02*
X377037086Y-451219435D01*
X377718515Y-452809435D01*
X377869944Y-455369335D02*
X377567086Y-455369335D01*
X377415658Y-455293621D01*
X377339944Y-455217907D01*
X377188515Y-454990764D01*
X377112801Y-454687907D01*
X377112801Y-454082192D01*
X377188515Y-453930764D01*
X377264229Y-453855050D01*
X377415658Y-453779335D01*
X377718515Y-453779335D01*
X377869944Y-453855050D01*
X377945658Y-453930764D01*
X378021372Y-454082192D01*
X378021372Y-454460764D01*
X377945658Y-454612192D01*
X377869944Y-454687907D01*
X377718515Y-454763621D01*
X377415658Y-454763621D01*
X377264229Y-454687907D01*
X377188515Y-454612192D01*
X377112801Y-454460764D01*
X378627086Y-457929235D02*
X379535658Y-457929235D01*
X379081372Y-457929235D02*
X379081372Y-456339235D01*
X379232801Y-456566378D01*
X379384229Y-456717807D01*
X379535658Y-456793521D01*
X377112801Y-457929235D02*
X378021372Y-457929235D01*
X377567086Y-457929235D02*
X377567086Y-456339235D01*
X377718515Y-456566378D01*
X377869944Y-456717807D01*
X378021372Y-456793521D01*
X378627086Y-460489135D02*
X379535658Y-460489135D01*
X379081372Y-460489135D02*
X379081372Y-458899135D01*
X379232801Y-459126278D01*
X379384229Y-459277707D01*
X379535658Y-459353421D01*
X378097086Y-458899135D02*
X377112801Y-458899135D01*
X377642801Y-459504850D01*
X377415658Y-459504850D01*
X377264229Y-459580564D01*
X377188515Y-459656278D01*
X377112801Y-459807707D01*
X377112801Y-460186278D01*
X377188515Y-460337707D01*
X377264229Y-460413421D01*
X377415658Y-460489135D01*
X377869944Y-460489135D01*
X378021372Y-460413421D01*
X378097086Y-460337707D01*
X378627086Y-463049035D02*
X379535658Y-463049035D01*
X379081372Y-463049035D02*
X379081372Y-461459035D01*
X379232801Y-461686178D01*
X379384229Y-461837607D01*
X379535658Y-461913321D01*
X377188515Y-461459035D02*
X377945658Y-461459035D01*
X378021372Y-462216178D01*
X377945658Y-462140464D01*
X377794229Y-462064750D01*
X377415658Y-462064750D01*
X377264229Y-462140464D01*
X377188515Y-462216178D01*
X377112801Y-462367607D01*
X377112801Y-462746178D01*
X377188515Y-462897607D01*
X377264229Y-462973321D01*
X377415658Y-463049035D01*
X377794229Y-463049035D01*
X377945658Y-462973321D01*
X378021372Y-462897607D01*
X379687086Y-465608935D02*
X379687086Y-464018935D01*
X378778515Y-465608935D01*
X378778515Y-464018935D01*
X377112801Y-465457507D02*
X377188515Y-465533221D01*
X377415658Y-465608935D01*
X377567086Y-465608935D01*
X377794229Y-465533221D01*
X377945658Y-465381792D01*
X378021372Y-465230364D01*
X378097086Y-464927507D01*
X378097086Y-464700364D01*
X378021372Y-464397507D01*
X377945658Y-464246078D01*
X377794229Y-464094650D01*
X377567086Y-464018935D01*
X377415658Y-464018935D01*
X377188515Y-464094650D01*
X377112801Y-464170364D01*
X379687086Y-468168835D02*
X379687086Y-466578835D01*
X378778515Y-468168835D01*
X378778515Y-466578835D01*
X377112801Y-468017407D02*
X377188515Y-468093121D01*
X377415658Y-468168835D01*
X377567086Y-468168835D01*
X377794229Y-468093121D01*
X377945658Y-467941692D01*
X378021372Y-467790264D01*
X378097086Y-467487407D01*
X378097086Y-467260264D01*
X378021372Y-466957407D01*
X377945658Y-466805978D01*
X377794229Y-466654550D01*
X377567086Y-466578835D01*
X377415658Y-466578835D01*
X377188515Y-466654550D01*
X377112801Y-466730264D01*
X380444229Y-469214450D02*
X380595658Y-469138735D01*
X380822801Y-469138735D01*
X381049944Y-469214450D01*
X381201372Y-469365878D01*
X381277086Y-469517307D01*
X381352801Y-469820164D01*
X381352801Y-470047307D01*
X381277086Y-470350164D01*
X381201372Y-470501592D01*
X381049944Y-470653021D01*
X380822801Y-470728735D01*
X380671372Y-470728735D01*
X380444229Y-470653021D01*
X380368515Y-470577307D01*
X380368515Y-470047307D01*
X380671372Y-470047307D01*
X379687086Y-470728735D02*
X379687086Y-469138735D01*
X378778515Y-470728735D01*
X378778515Y-469138735D01*
X378021372Y-470728735D02*
X378021372Y-469138735D01*
X377642801Y-469138735D01*
X377415658Y-469214450D01*
X377264229Y-469365878D01*
X377188515Y-469517307D01*
X377112801Y-469820164D01*
X377112801Y-470047307D01*
X377188515Y-470350164D01*
X377264229Y-470501592D01*
X377415658Y-470653021D01*
X377642801Y-470728735D01*
X378021372Y-470728735D01*
X251479285Y-105775550D02*
X251630714Y-105699835D01*
X251857857Y-105699835D01*
X252085000Y-105775550D01*
X252236428Y-105926978D01*
X252312142Y-106078407D01*
X252387857Y-106381264D01*
X252387857Y-106608407D01*
X252312142Y-106911264D01*
X252236428Y-107062692D01*
X252085000Y-107214121D01*
X251857857Y-107289835D01*
X251706428Y-107289835D01*
X251479285Y-107214121D01*
X251403571Y-107138407D01*
X251403571Y-106608407D01*
X251706428Y-106608407D01*
X250722142Y-107289835D02*
X250722142Y-105699835D01*
X249813571Y-107289835D01*
X249813571Y-105699835D01*
X249056428Y-107289835D02*
X249056428Y-105699835D01*
X248677857Y-105699835D01*
X248450714Y-105775550D01*
X248299285Y-105926978D01*
X248223571Y-106078407D01*
X248147857Y-106381264D01*
X248147857Y-106608407D01*
X248223571Y-106911264D01*
X248299285Y-107062692D01*
X248450714Y-107214121D01*
X248677857Y-107289835D01*
X249056428Y-107289835D01*
X251479285Y-108335450D02*
X251630714Y-108259735D01*
X251857857Y-108259735D01*
X252085000Y-108335450D01*
X252236428Y-108486878D01*
X252312142Y-108638307D01*
X252387857Y-108941164D01*
X252387857Y-109168307D01*
X252312142Y-109471164D01*
X252236428Y-109622592D01*
X252085000Y-109774021D01*
X251857857Y-109849735D01*
X251706428Y-109849735D01*
X251479285Y-109774021D01*
X251403571Y-109698307D01*
X251403571Y-109168307D01*
X251706428Y-109168307D01*
X250722142Y-109849735D02*
X250722142Y-108259735D01*
X249813571Y-109849735D01*
X249813571Y-108259735D01*
X249056428Y-109849735D02*
X249056428Y-108259735D01*
X248677857Y-108259735D01*
X248450714Y-108335450D01*
X248299285Y-108486878D01*
X248223571Y-108638307D01*
X248147857Y-108941164D01*
X248147857Y-109168307D01*
X248223571Y-109471164D01*
X248299285Y-109622592D01*
X248450714Y-109774021D01*
X248677857Y-109849735D01*
X249056428Y-109849735D01*
X251479285Y-110895350D02*
X251630714Y-110819635D01*
X251857857Y-110819635D01*
X252085000Y-110895350D01*
X252236428Y-111046778D01*
X252312142Y-111198207D01*
X252387857Y-111501064D01*
X252387857Y-111728207D01*
X252312142Y-112031064D01*
X252236428Y-112182492D01*
X252085000Y-112333921D01*
X251857857Y-112409635D01*
X251706428Y-112409635D01*
X251479285Y-112333921D01*
X251403571Y-112258207D01*
X251403571Y-111728207D01*
X251706428Y-111728207D01*
X250722142Y-112409635D02*
X250722142Y-110819635D01*
X249813571Y-112409635D01*
X249813571Y-110819635D01*
X249056428Y-112409635D02*
X249056428Y-110819635D01*
X248677857Y-110819635D01*
X248450714Y-110895350D01*
X248299285Y-111046778D01*
X248223571Y-111198207D01*
X248147857Y-111501064D01*
X248147857Y-111728207D01*
X248223571Y-112031064D01*
X248299285Y-112182492D01*
X248450714Y-112333921D01*
X248677857Y-112409635D01*
X249056428Y-112409635D01*
X249662142Y-114969535D02*
X250570714Y-114969535D01*
X250116428Y-114969535D02*
X250116428Y-113379535D01*
X250267857Y-113606678D01*
X250419285Y-113758107D01*
X250570714Y-113833821D01*
X248299285Y-113909535D02*
X248299285Y-114969535D01*
X248677857Y-113303821D02*
X249056428Y-114439535D01*
X248072142Y-114439535D01*
X249662142Y-117529435D02*
X250570714Y-117529435D01*
X250116428Y-117529435D02*
X250116428Y-115939435D01*
X250267857Y-116166578D01*
X250419285Y-116318007D01*
X250570714Y-116393721D01*
X249056428Y-116090864D02*
X248980714Y-116015150D01*
X248829285Y-115939435D01*
X248450714Y-115939435D01*
X248299285Y-116015150D01*
X248223571Y-116090864D01*
X248147857Y-116242292D01*
X248147857Y-116393721D01*
X248223571Y-116620864D01*
X249132142Y-117529435D01*
X248147857Y-117529435D01*
X249662142Y-120089335D02*
X250570714Y-120089335D01*
X250116428Y-120089335D02*
X250116428Y-118499335D01*
X250267857Y-118726478D01*
X250419285Y-118877907D01*
X250570714Y-118953621D01*
X248677857Y-118499335D02*
X248526428Y-118499335D01*
X248375000Y-118575050D01*
X248299285Y-118650764D01*
X248223571Y-118802192D01*
X248147857Y-119105050D01*
X248147857Y-119483621D01*
X248223571Y-119786478D01*
X248299285Y-119937907D01*
X248375000Y-120013621D01*
X248526428Y-120089335D01*
X248677857Y-120089335D01*
X248829285Y-120013621D01*
X248905000Y-119937907D01*
X248980714Y-119786478D01*
X249056428Y-119483621D01*
X249056428Y-119105050D01*
X248980714Y-118802192D01*
X248905000Y-118650764D01*
X248829285Y-118575050D01*
X248677857Y-118499335D01*
X248753571Y-121740664D02*
X248905000Y-121664950D01*
X248980714Y-121589235D01*
X249056428Y-121437807D01*
X249056428Y-121362092D01*
X248980714Y-121210664D01*
X248905000Y-121134950D01*
X248753571Y-121059235D01*
X248450714Y-121059235D01*
X248299285Y-121134950D01*
X248223571Y-121210664D01*
X248147857Y-121362092D01*
X248147857Y-121437807D01*
X248223571Y-121589235D01*
X248299285Y-121664950D01*
X248450714Y-121740664D01*
X248753571Y-121740664D01*
X248905000Y-121816378D01*
X248980714Y-121892092D01*
X249056428Y-122043521D01*
X249056428Y-122346378D01*
X248980714Y-122497807D01*
X248905000Y-122573521D01*
X248753571Y-122649235D01*
X248450714Y-122649235D01*
X248299285Y-122573521D01*
X248223571Y-122497807D01*
X248147857Y-122346378D01*
X248147857Y-122043521D01*
X248223571Y-121892092D01*
X248299285Y-121816378D01*
X248450714Y-121740664D01*
X248299285Y-123619135D02*
X248602142Y-123619135D01*
X248753571Y-123694850D01*
X248829285Y-123770564D01*
X248980714Y-123997707D01*
X249056428Y-124300564D01*
X249056428Y-124906278D01*
X248980714Y-125057707D01*
X248905000Y-125133421D01*
X248753571Y-125209135D01*
X248450714Y-125209135D01*
X248299285Y-125133421D01*
X248223571Y-125057707D01*
X248147857Y-124906278D01*
X248147857Y-124527707D01*
X248223571Y-124376278D01*
X248299285Y-124300564D01*
X248450714Y-124224850D01*
X248753571Y-124224850D01*
X248905000Y-124300564D01*
X248980714Y-124376278D01*
X249056428Y-124527707D01*
X248299285Y-126709035D02*
X248299285Y-127769035D01*
X248677857Y-126103321D02*
X249056428Y-127239035D01*
X248072142Y-127239035D01*
X249056428Y-128890364D02*
X248980714Y-128814650D01*
X248829285Y-128738935D01*
X248450714Y-128738935D01*
X248299285Y-128814650D01*
X248223571Y-128890364D01*
X248147857Y-129041792D01*
X248147857Y-129193221D01*
X248223571Y-129420364D01*
X249132142Y-130328935D01*
X248147857Y-130328935D01*
X248677857Y-131298835D02*
X248526428Y-131298835D01*
X248375000Y-131374550D01*
X248299285Y-131450264D01*
X248223571Y-131601692D01*
X248147857Y-131904550D01*
X248147857Y-132283121D01*
X248223571Y-132585978D01*
X248299285Y-132737407D01*
X248375000Y-132813121D01*
X248526428Y-132888835D01*
X248677857Y-132888835D01*
X248829285Y-132813121D01*
X248905000Y-132737407D01*
X248980714Y-132585978D01*
X249056428Y-132283121D01*
X249056428Y-131904550D01*
X248980714Y-131601692D01*
X248905000Y-131450264D01*
X248829285Y-131374550D01*
X248677857Y-131298835D01*
X251479285Y-133934450D02*
X251630714Y-133858735D01*
X251857857Y-133858735D01*
X252085000Y-133934450D01*
X252236428Y-134085878D01*
X252312142Y-134237307D01*
X252387857Y-134540164D01*
X252387857Y-134767307D01*
X252312142Y-135070164D01*
X252236428Y-135221592D01*
X252085000Y-135373021D01*
X251857857Y-135448735D01*
X251706428Y-135448735D01*
X251479285Y-135373021D01*
X251403571Y-135297307D01*
X251403571Y-134767307D01*
X251706428Y-134767307D01*
X250722142Y-135448735D02*
X250722142Y-133858735D01*
X249813571Y-135448735D01*
X249813571Y-133858735D01*
X249056428Y-135448735D02*
X249056428Y-133858735D01*
X248677857Y-133858735D01*
X248450714Y-133934450D01*
X248299285Y-134085878D01*
X248223571Y-134237307D01*
X248147857Y-134540164D01*
X248147857Y-134767307D01*
X248223571Y-135070164D01*
X248299285Y-135221592D01*
X248450714Y-135373021D01*
X248677857Y-135448735D01*
X249056428Y-135448735D01*
X239893571Y-105756508D02*
X240045000Y-105680793D01*
X240272142Y-105680793D01*
X240499285Y-105756508D01*
X240650714Y-105907936D01*
X240726428Y-106059365D01*
X240802142Y-106362222D01*
X240802142Y-106589365D01*
X240726428Y-106892222D01*
X240650714Y-107043650D01*
X240499285Y-107195079D01*
X240272142Y-107270793D01*
X240120714Y-107270793D01*
X239893571Y-107195079D01*
X239817857Y-107119365D01*
X239817857Y-106589365D01*
X240120714Y-106589365D01*
X239136428Y-107270793D02*
X239136428Y-105680793D01*
X238227857Y-107270793D01*
X238227857Y-105680793D01*
X237470714Y-107270793D02*
X237470714Y-105680793D01*
X237092142Y-105680793D01*
X236865000Y-105756508D01*
X236713571Y-105907936D01*
X236637857Y-106059365D01*
X236562142Y-106362222D01*
X236562142Y-106589365D01*
X236637857Y-106892222D01*
X236713571Y-107043650D01*
X236865000Y-107195079D01*
X237092142Y-107270793D01*
X237470714Y-107270793D01*
X239893571Y-108316408D02*
X240045000Y-108240693D01*
X240272142Y-108240693D01*
X240499285Y-108316408D01*
X240650714Y-108467836D01*
X240726428Y-108619265D01*
X240802142Y-108922122D01*
X240802142Y-109149265D01*
X240726428Y-109452122D01*
X240650714Y-109603550D01*
X240499285Y-109754979D01*
X240272142Y-109830693D01*
X240120714Y-109830693D01*
X239893571Y-109754979D01*
X239817857Y-109679265D01*
X239817857Y-109149265D01*
X240120714Y-109149265D01*
X239136428Y-109830693D02*
X239136428Y-108240693D01*
X238227857Y-109830693D01*
X238227857Y-108240693D01*
X237470714Y-109830693D02*
X237470714Y-108240693D01*
X237092142Y-108240693D01*
X236865000Y-108316408D01*
X236713571Y-108467836D01*
X236637857Y-108619265D01*
X236562142Y-108922122D01*
X236562142Y-109149265D01*
X236637857Y-109452122D01*
X236713571Y-109603550D01*
X236865000Y-109754979D01*
X237092142Y-109830693D01*
X237470714Y-109830693D01*
X239893571Y-110876308D02*
X240045000Y-110800593D01*
X240272142Y-110800593D01*
X240499285Y-110876308D01*
X240650714Y-111027736D01*
X240726428Y-111179165D01*
X240802142Y-111482022D01*
X240802142Y-111709165D01*
X240726428Y-112012022D01*
X240650714Y-112163450D01*
X240499285Y-112314879D01*
X240272142Y-112390593D01*
X240120714Y-112390593D01*
X239893571Y-112314879D01*
X239817857Y-112239165D01*
X239817857Y-111709165D01*
X240120714Y-111709165D01*
X239136428Y-112390593D02*
X239136428Y-110800593D01*
X238227857Y-112390593D01*
X238227857Y-110800593D01*
X237470714Y-112390593D02*
X237470714Y-110800593D01*
X237092142Y-110800593D01*
X236865000Y-110876308D01*
X236713571Y-111027736D01*
X236637857Y-111179165D01*
X236562142Y-111482022D01*
X236562142Y-111709165D01*
X236637857Y-112012022D01*
X236713571Y-112163450D01*
X236865000Y-112314879D01*
X237092142Y-112390593D01*
X237470714Y-112390593D01*
X239893571Y-114950493D02*
X240802142Y-114950493D01*
X240347857Y-114950493D02*
X240347857Y-113360493D01*
X240499285Y-113587636D01*
X240650714Y-113739065D01*
X240802142Y-113814779D01*
X238455000Y-113360493D02*
X239212142Y-113360493D01*
X239287857Y-114117636D01*
X239212142Y-114041922D01*
X239060714Y-113966208D01*
X238682142Y-113966208D01*
X238530714Y-114041922D01*
X238455000Y-114117636D01*
X238379285Y-114269065D01*
X238379285Y-114647636D01*
X238455000Y-114799065D01*
X238530714Y-114874779D01*
X238682142Y-114950493D01*
X239060714Y-114950493D01*
X239212142Y-114874779D01*
X239287857Y-114799065D01*
X239893571Y-117510393D02*
X240802142Y-117510393D01*
X240347857Y-117510393D02*
X240347857Y-115920393D01*
X240499285Y-116147536D01*
X240650714Y-116298965D01*
X240802142Y-116374679D01*
X239363571Y-115920393D02*
X238379285Y-115920393D01*
X238909285Y-116526108D01*
X238682142Y-116526108D01*
X238530714Y-116601822D01*
X238455000Y-116677536D01*
X238379285Y-116828965D01*
X238379285Y-117207536D01*
X238455000Y-117358965D01*
X238530714Y-117434679D01*
X238682142Y-117510393D01*
X239136428Y-117510393D01*
X239287857Y-117434679D01*
X239363571Y-117358965D01*
X239893571Y-120070293D02*
X240802142Y-120070293D01*
X240347857Y-120070293D02*
X240347857Y-118480293D01*
X240499285Y-118707436D01*
X240650714Y-118858865D01*
X240802142Y-118934579D01*
X238379285Y-120070293D02*
X239287857Y-120070293D01*
X238833571Y-120070293D02*
X238833571Y-118480293D01*
X238985000Y-118707436D01*
X239136428Y-118858865D01*
X239287857Y-118934579D01*
X240650714Y-122630193D02*
X240347857Y-122630193D01*
X240196428Y-122554479D01*
X240120714Y-122478765D01*
X239969285Y-122251622D01*
X239893571Y-121948765D01*
X239893571Y-121343050D01*
X239969285Y-121191622D01*
X240045000Y-121115908D01*
X240196428Y-121040193D01*
X240499285Y-121040193D01*
X240650714Y-121115908D01*
X240726428Y-121191622D01*
X240802142Y-121343050D01*
X240802142Y-121721622D01*
X240726428Y-121873050D01*
X240650714Y-121948765D01*
X240499285Y-122024479D01*
X240196428Y-122024479D01*
X240045000Y-121948765D01*
X239969285Y-121873050D01*
X239893571Y-121721622D01*
X240877857Y-123600093D02*
X239817857Y-123600093D01*
X240499285Y-125190093D01*
X239969285Y-126159993D02*
X240726428Y-126159993D01*
X240802142Y-126917136D01*
X240726428Y-126841422D01*
X240575000Y-126765708D01*
X240196428Y-126765708D01*
X240045000Y-126841422D01*
X239969285Y-126917136D01*
X239893571Y-127068565D01*
X239893571Y-127447136D01*
X239969285Y-127598565D01*
X240045000Y-127674279D01*
X240196428Y-127749993D01*
X240575000Y-127749993D01*
X240726428Y-127674279D01*
X240802142Y-127598565D01*
X240877857Y-128719893D02*
X239893571Y-128719893D01*
X240423571Y-129325608D01*
X240196428Y-129325608D01*
X240045000Y-129401322D01*
X239969285Y-129477036D01*
X239893571Y-129628465D01*
X239893571Y-130007036D01*
X239969285Y-130158465D01*
X240045000Y-130234179D01*
X240196428Y-130309893D01*
X240650714Y-130309893D01*
X240802142Y-130234179D01*
X240877857Y-130158465D01*
X239893571Y-132869793D02*
X240802142Y-132869793D01*
X240347857Y-132869793D02*
X240347857Y-131279793D01*
X240499285Y-131506936D01*
X240650714Y-131658365D01*
X240802142Y-131734079D01*
X239893571Y-133915408D02*
X240045000Y-133839693D01*
X240272142Y-133839693D01*
X240499285Y-133915408D01*
X240650714Y-134066836D01*
X240726428Y-134218265D01*
X240802142Y-134521122D01*
X240802142Y-134748265D01*
X240726428Y-135051122D01*
X240650714Y-135202550D01*
X240499285Y-135353979D01*
X240272142Y-135429693D01*
X240120714Y-135429693D01*
X239893571Y-135353979D01*
X239817857Y-135278265D01*
X239817857Y-134748265D01*
X240120714Y-134748265D01*
X239136428Y-135429693D02*
X239136428Y-133839693D01*
X238227857Y-135429693D01*
X238227857Y-133839693D01*
X237470714Y-135429693D02*
X237470714Y-133839693D01*
X237092142Y-133839693D01*
X236865000Y-133915408D01*
X236713571Y-134066836D01*
X236637857Y-134218265D01*
X236562142Y-134521122D01*
X236562142Y-134748265D01*
X236637857Y-135051122D01*
X236713571Y-135202550D01*
X236865000Y-135353979D01*
X237092142Y-135429693D01*
X237470714Y-135429693D01*
X51466428Y-71262857D02*
X49942619Y-71262857D01*
X50704523Y-72024761D02*
X50704523Y-70500952D01*
X48037857Y-70024761D02*
X48990238Y-70024761D01*
X49085476Y-70977142D01*
X48990238Y-70881904D01*
X48799761Y-70786666D01*
X48323571Y-70786666D01*
X48133095Y-70881904D01*
X48037857Y-70977142D01*
X47942619Y-71167619D01*
X47942619Y-71643809D01*
X48037857Y-71834285D01*
X48133095Y-71929523D01*
X48323571Y-72024761D01*
X48799761Y-72024761D01*
X48990238Y-71929523D01*
X49085476Y-71834285D01*
X47371190Y-70024761D02*
X46704523Y-72024761D01*
X46037857Y-70024761D01*
X239893571Y-70215550D02*
X240045000Y-70139835D01*
X240272142Y-70139835D01*
X240499285Y-70215550D01*
X240650714Y-70366978D01*
X240726428Y-70518407D01*
X240802142Y-70821264D01*
X240802142Y-71048407D01*
X240726428Y-71351264D01*
X240650714Y-71502692D01*
X240499285Y-71654121D01*
X240272142Y-71729835D01*
X240120714Y-71729835D01*
X239893571Y-71654121D01*
X239817857Y-71578407D01*
X239817857Y-71048407D01*
X240120714Y-71048407D01*
X239136428Y-71729835D02*
X239136428Y-70139835D01*
X238227857Y-71729835D01*
X238227857Y-70139835D01*
X237470714Y-71729835D02*
X237470714Y-70139835D01*
X237092142Y-70139835D01*
X236865000Y-70215550D01*
X236713571Y-70366978D01*
X236637857Y-70518407D01*
X236562142Y-70821264D01*
X236562142Y-71048407D01*
X236637857Y-71351264D01*
X236713571Y-71502692D01*
X236865000Y-71654121D01*
X237092142Y-71729835D01*
X237470714Y-71729835D01*
X239893571Y-72775450D02*
X240045000Y-72699735D01*
X240272142Y-72699735D01*
X240499285Y-72775450D01*
X240650714Y-72926878D01*
X240726428Y-73078307D01*
X240802142Y-73381164D01*
X240802142Y-73608307D01*
X240726428Y-73911164D01*
X240650714Y-74062592D01*
X240499285Y-74214021D01*
X240272142Y-74289735D01*
X240120714Y-74289735D01*
X239893571Y-74214021D01*
X239817857Y-74138307D01*
X239817857Y-73608307D01*
X240120714Y-73608307D01*
X239136428Y-74289735D02*
X239136428Y-72699735D01*
X238227857Y-74289735D01*
X238227857Y-72699735D01*
X237470714Y-74289735D02*
X237470714Y-72699735D01*
X237092142Y-72699735D01*
X236865000Y-72775450D01*
X236713571Y-72926878D01*
X236637857Y-73078307D01*
X236562142Y-73381164D01*
X236562142Y-73608307D01*
X236637857Y-73911164D01*
X236713571Y-74062592D01*
X236865000Y-74214021D01*
X237092142Y-74289735D01*
X237470714Y-74289735D01*
X239893571Y-75335350D02*
X240045000Y-75259635D01*
X240272142Y-75259635D01*
X240499285Y-75335350D01*
X240650714Y-75486778D01*
X240726428Y-75638207D01*
X240802142Y-75941064D01*
X240802142Y-76168207D01*
X240726428Y-76471064D01*
X240650714Y-76622492D01*
X240499285Y-76773921D01*
X240272142Y-76849635D01*
X240120714Y-76849635D01*
X239893571Y-76773921D01*
X239817857Y-76698207D01*
X239817857Y-76168207D01*
X240120714Y-76168207D01*
X239136428Y-76849635D02*
X239136428Y-75259635D01*
X238227857Y-76849635D01*
X238227857Y-75259635D01*
X237470714Y-76849635D02*
X237470714Y-75259635D01*
X237092142Y-75259635D01*
X236865000Y-75335350D01*
X236713571Y-75486778D01*
X236637857Y-75638207D01*
X236562142Y-75941064D01*
X236562142Y-76168207D01*
X236637857Y-76471064D01*
X236713571Y-76622492D01*
X236865000Y-76773921D01*
X237092142Y-76849635D01*
X237470714Y-76849635D01*
X239893571Y-79409535D02*
X240802142Y-79409535D01*
X240347857Y-79409535D02*
X240347857Y-77819535D01*
X240499285Y-78046678D01*
X240650714Y-78198107D01*
X240802142Y-78273821D01*
X238455000Y-77819535D02*
X239212142Y-77819535D01*
X239287857Y-78576678D01*
X239212142Y-78500964D01*
X239060714Y-78425250D01*
X238682142Y-78425250D01*
X238530714Y-78500964D01*
X238455000Y-78576678D01*
X238379285Y-78728107D01*
X238379285Y-79106678D01*
X238455000Y-79258107D01*
X238530714Y-79333821D01*
X238682142Y-79409535D01*
X239060714Y-79409535D01*
X239212142Y-79333821D01*
X239287857Y-79258107D01*
X239893571Y-81969435D02*
X240802142Y-81969435D01*
X240347857Y-81969435D02*
X240347857Y-80379435D01*
X240499285Y-80606578D01*
X240650714Y-80758007D01*
X240802142Y-80833721D01*
X239363571Y-80379435D02*
X238379285Y-80379435D01*
X238909285Y-80985150D01*
X238682142Y-80985150D01*
X238530714Y-81060864D01*
X238455000Y-81136578D01*
X238379285Y-81288007D01*
X238379285Y-81666578D01*
X238455000Y-81818007D01*
X238530714Y-81893721D01*
X238682142Y-81969435D01*
X239136428Y-81969435D01*
X239287857Y-81893721D01*
X239363571Y-81818007D01*
X239893571Y-84529335D02*
X240802142Y-84529335D01*
X240347857Y-84529335D02*
X240347857Y-82939335D01*
X240499285Y-83166478D01*
X240650714Y-83317907D01*
X240802142Y-83393621D01*
X238379285Y-84529335D02*
X239287857Y-84529335D01*
X238833571Y-84529335D02*
X238833571Y-82939335D01*
X238985000Y-83166478D01*
X239136428Y-83317907D01*
X239287857Y-83393621D01*
X240650714Y-87089235D02*
X240347857Y-87089235D01*
X240196428Y-87013521D01*
X240120714Y-86937807D01*
X239969285Y-86710664D01*
X239893571Y-86407807D01*
X239893571Y-85802092D01*
X239969285Y-85650664D01*
X240045000Y-85574950D01*
X240196428Y-85499235D01*
X240499285Y-85499235D01*
X240650714Y-85574950D01*
X240726428Y-85650664D01*
X240802142Y-85802092D01*
X240802142Y-86180664D01*
X240726428Y-86332092D01*
X240650714Y-86407807D01*
X240499285Y-86483521D01*
X240196428Y-86483521D01*
X240045000Y-86407807D01*
X239969285Y-86332092D01*
X239893571Y-86180664D01*
X240877857Y-88059135D02*
X239817857Y-88059135D01*
X240499285Y-89649135D01*
X239969285Y-90619035D02*
X240726428Y-90619035D01*
X240802142Y-91376178D01*
X240726428Y-91300464D01*
X240575000Y-91224750D01*
X240196428Y-91224750D01*
X240045000Y-91300464D01*
X239969285Y-91376178D01*
X239893571Y-91527607D01*
X239893571Y-91906178D01*
X239969285Y-92057607D01*
X240045000Y-92133321D01*
X240196428Y-92209035D01*
X240575000Y-92209035D01*
X240726428Y-92133321D01*
X240802142Y-92057607D01*
X240877857Y-93178935D02*
X239893571Y-93178935D01*
X240423571Y-93784650D01*
X240196428Y-93784650D01*
X240045000Y-93860364D01*
X239969285Y-93936078D01*
X239893571Y-94087507D01*
X239893571Y-94466078D01*
X239969285Y-94617507D01*
X240045000Y-94693221D01*
X240196428Y-94768935D01*
X240650714Y-94768935D01*
X240802142Y-94693221D01*
X240877857Y-94617507D01*
X239893571Y-97328835D02*
X240802142Y-97328835D01*
X240347857Y-97328835D02*
X240347857Y-95738835D01*
X240499285Y-95965978D01*
X240650714Y-96117407D01*
X240802142Y-96193121D01*
X239893571Y-98374450D02*
X240045000Y-98298735D01*
X240272142Y-98298735D01*
X240499285Y-98374450D01*
X240650714Y-98525878D01*
X240726428Y-98677307D01*
X240802142Y-98980164D01*
X240802142Y-99207307D01*
X240726428Y-99510164D01*
X240650714Y-99661592D01*
X240499285Y-99813021D01*
X240272142Y-99888735D01*
X240120714Y-99888735D01*
X239893571Y-99813021D01*
X239817857Y-99737307D01*
X239817857Y-99207307D01*
X240120714Y-99207307D01*
X239136428Y-99888735D02*
X239136428Y-98298735D01*
X238227857Y-99888735D01*
X238227857Y-98298735D01*
X237470714Y-99888735D02*
X237470714Y-98298735D01*
X237092142Y-98298735D01*
X236865000Y-98374450D01*
X236713571Y-98525878D01*
X236637857Y-98677307D01*
X236562142Y-98980164D01*
X236562142Y-99207307D01*
X236637857Y-99510164D01*
X236713571Y-99661592D01*
X236865000Y-99813021D01*
X237092142Y-99888735D01*
X237470714Y-99888735D01*
X363805714Y-443563511D02*
X363329523Y-445563511D01*
X362948571Y-444134940D01*
X362567619Y-445563511D01*
X362091428Y-443563511D01*
X361329523Y-445563511D02*
X361329523Y-444230178D01*
X361329523Y-444611130D02*
X361234285Y-444420654D01*
X361139047Y-444325416D01*
X360948571Y-444230178D01*
X360758095Y-444230178D01*
X360091428Y-445563511D02*
X360091428Y-444230178D01*
X360091428Y-443563511D02*
X360186666Y-443658750D01*
X360091428Y-443753988D01*
X359996190Y-443658750D01*
X360091428Y-443563511D01*
X360091428Y-443753988D01*
X359424761Y-444230178D02*
X358662857Y-444230178D01*
X359139047Y-443563511D02*
X359139047Y-445277797D01*
X359043809Y-445468273D01*
X358853333Y-445563511D01*
X358662857Y-445563511D01*
X357234285Y-445468273D02*
X357424761Y-445563511D01*
X357805714Y-445563511D01*
X357996190Y-445468273D01*
X358091428Y-445277797D01*
X358091428Y-444515892D01*
X357996190Y-444325416D01*
X357805714Y-444230178D01*
X357424761Y-444230178D01*
X357234285Y-444325416D01*
X357139047Y-444515892D01*
X357139047Y-444706369D01*
X358091428Y-444896845D01*
X354758095Y-445563511D02*
X354758095Y-444230178D01*
X354758095Y-443563511D02*
X354853333Y-443658750D01*
X354758095Y-443753988D01*
X354662857Y-443658750D01*
X354758095Y-443563511D01*
X354758095Y-443753988D01*
X353900952Y-445468273D02*
X353710476Y-445563511D01*
X353329523Y-445563511D01*
X353139047Y-445468273D01*
X353043809Y-445277797D01*
X353043809Y-445182559D01*
X353139047Y-444992083D01*
X353329523Y-444896845D01*
X353615238Y-444896845D01*
X353805714Y-444801607D01*
X353900952Y-444611130D01*
X353900952Y-444515892D01*
X353805714Y-444325416D01*
X353615238Y-444230178D01*
X353329523Y-444230178D01*
X353139047Y-444325416D01*
X352281904Y-445468273D02*
X352091428Y-445563511D01*
X351710476Y-445563511D01*
X351520000Y-445468273D01*
X351424761Y-445277797D01*
X351424761Y-445182559D01*
X351520000Y-444992083D01*
X351710476Y-444896845D01*
X351996190Y-444896845D01*
X352186666Y-444801607D01*
X352281904Y-444611130D01*
X352281904Y-444515892D01*
X352186666Y-444325416D01*
X351996190Y-444230178D01*
X351710476Y-444230178D01*
X351520000Y-444325416D01*
X349710476Y-444230178D02*
X349710476Y-445563511D01*
X350567619Y-444230178D02*
X350567619Y-445277797D01*
X350472380Y-445468273D01*
X350281904Y-445563511D01*
X349996190Y-445563511D01*
X349805714Y-445468273D01*
X349710476Y-445373035D01*
X347996190Y-445468273D02*
X348186666Y-445563511D01*
X348567619Y-445563511D01*
X348758095Y-445468273D01*
X348853333Y-445277797D01*
X348853333Y-444515892D01*
X348758095Y-444325416D01*
X348567619Y-444230178D01*
X348186666Y-444230178D01*
X347996190Y-444325416D01*
X347900952Y-444515892D01*
X347900952Y-444706369D01*
X348853333Y-444896845D01*
X347139047Y-445468273D02*
X346948571Y-445563511D01*
X346567619Y-445563511D01*
X346377142Y-445468273D01*
X346281904Y-445277797D01*
X346281904Y-445182559D01*
X346377142Y-444992083D01*
X346567619Y-444896845D01*
X346853333Y-444896845D01*
X347043809Y-444801607D01*
X347139047Y-444611130D01*
X347139047Y-444515892D01*
X347043809Y-444325416D01*
X346853333Y-444230178D01*
X346567619Y-444230178D01*
X346377142Y-444325416D01*
X343900952Y-445563511D02*
X343900952Y-443563511D01*
X343043809Y-445563511D02*
X343043809Y-444515892D01*
X343139047Y-444325416D01*
X343329523Y-444230178D01*
X343615238Y-444230178D01*
X343805714Y-444325416D01*
X343900952Y-444420654D01*
X341329523Y-445468273D02*
X341520000Y-445563511D01*
X341900952Y-445563511D01*
X342091428Y-445468273D01*
X342186666Y-445277797D01*
X342186666Y-444515892D01*
X342091428Y-444325416D01*
X341900952Y-444230178D01*
X341520000Y-444230178D01*
X341329523Y-444325416D01*
X341234285Y-444515892D01*
X341234285Y-444706369D01*
X342186666Y-444896845D01*
X340377142Y-445563511D02*
X340377142Y-444230178D01*
X340377142Y-444611130D02*
X340281904Y-444420654D01*
X340186666Y-444325416D01*
X339996190Y-444230178D01*
X339805714Y-444230178D01*
X338377142Y-445468273D02*
X338567619Y-445563511D01*
X338948571Y-445563511D01*
X339139047Y-445468273D01*
X339234285Y-445277797D01*
X339234285Y-444515892D01*
X339139047Y-444325416D01*
X338948571Y-444230178D01*
X338567619Y-444230178D01*
X338377142Y-444325416D01*
X338281904Y-444515892D01*
X338281904Y-444706369D01*
X339234285Y-444896845D01*
X337424761Y-445373035D02*
X337329523Y-445468273D01*
X337424761Y-445563511D01*
X337520000Y-445468273D01*
X337424761Y-445373035D01*
X337424761Y-445563511D01*
X337424761Y-444325416D02*
X337329523Y-444420654D01*
X337424761Y-444515892D01*
X337520000Y-444420654D01*
X337424761Y-444325416D01*
X337424761Y-444515892D01*
X380384285Y-105775550D02*
X380535714Y-105699835D01*
X380762857Y-105699835D01*
X380990000Y-105775550D01*
X381141428Y-105926978D01*
X381217142Y-106078407D01*
X381292857Y-106381264D01*
X381292857Y-106608407D01*
X381217142Y-106911264D01*
X381141428Y-107062692D01*
X380990000Y-107214121D01*
X380762857Y-107289835D01*
X380611428Y-107289835D01*
X380384285Y-107214121D01*
X380308571Y-107138407D01*
X380308571Y-106608407D01*
X380611428Y-106608407D01*
X379627142Y-107289835D02*
X379627142Y-105699835D01*
X378718571Y-107289835D01*
X378718571Y-105699835D01*
X377961428Y-107289835D02*
X377961428Y-105699835D01*
X377582857Y-105699835D01*
X377355714Y-105775550D01*
X377204285Y-105926978D01*
X377128571Y-106078407D01*
X377052857Y-106381264D01*
X377052857Y-106608407D01*
X377128571Y-106911264D01*
X377204285Y-107062692D01*
X377355714Y-107214121D01*
X377582857Y-107289835D01*
X377961428Y-107289835D01*
X379930000Y-109698307D02*
X380005714Y-109774021D01*
X380232857Y-109849735D01*
X380384285Y-109849735D01*
X380611428Y-109774021D01*
X380762857Y-109622592D01*
X380838571Y-109471164D01*
X380914285Y-109168307D01*
X380914285Y-108941164D01*
X380838571Y-108638307D01*
X380762857Y-108486878D01*
X380611428Y-108335450D01*
X380384285Y-108259735D01*
X380232857Y-108259735D01*
X380005714Y-108335450D01*
X379930000Y-108411164D01*
X378491428Y-109849735D02*
X379248571Y-109849735D01*
X379248571Y-108259735D01*
X377961428Y-109849735D02*
X377961428Y-108259735D01*
X377052857Y-109849735D02*
X377734285Y-108941164D01*
X377052857Y-108259735D02*
X377961428Y-109168307D01*
X384472857Y-112333921D02*
X384245714Y-112409635D01*
X383867142Y-112409635D01*
X383715714Y-112333921D01*
X383640000Y-112258207D01*
X383564285Y-112106778D01*
X383564285Y-111955350D01*
X383640000Y-111803921D01*
X383715714Y-111728207D01*
X383867142Y-111652492D01*
X384170000Y-111576778D01*
X384321428Y-111501064D01*
X384397142Y-111425350D01*
X384472857Y-111273921D01*
X384472857Y-111122492D01*
X384397142Y-110971064D01*
X384321428Y-110895350D01*
X384170000Y-110819635D01*
X383791428Y-110819635D01*
X383564285Y-110895350D01*
X382882857Y-112409635D02*
X382882857Y-110819635D01*
X382125714Y-112409635D02*
X382125714Y-111349635D01*
X382125714Y-111501064D02*
X382050000Y-111425350D01*
X381898571Y-111349635D01*
X381671428Y-111349635D01*
X381520000Y-111425350D01*
X381444285Y-111576778D01*
X381444285Y-112409635D01*
X381444285Y-111576778D02*
X381368571Y-111425350D01*
X381217142Y-111349635D01*
X380990000Y-111349635D01*
X380838571Y-111425350D01*
X380762857Y-111576778D01*
X380762857Y-112409635D01*
X380005714Y-112409635D02*
X380005714Y-111349635D01*
X380005714Y-111501064D02*
X379930000Y-111425350D01*
X379778571Y-111349635D01*
X379551428Y-111349635D01*
X379400000Y-111425350D01*
X379324285Y-111576778D01*
X379324285Y-112409635D01*
X379324285Y-111576778D02*
X379248571Y-111425350D01*
X379097142Y-111349635D01*
X378870000Y-111349635D01*
X378718571Y-111425350D01*
X378642857Y-111576778D01*
X378642857Y-112409635D01*
X377582857Y-110819635D02*
X377431428Y-110819635D01*
X377280000Y-110895350D01*
X377204285Y-110971064D01*
X377128571Y-111122492D01*
X377052857Y-111425350D01*
X377052857Y-111803921D01*
X377128571Y-112106778D01*
X377204285Y-112258207D01*
X377280000Y-112333921D01*
X377431428Y-112409635D01*
X377582857Y-112409635D01*
X377734285Y-112333921D01*
X377810000Y-112258207D01*
X377885714Y-112106778D01*
X377961428Y-111803921D01*
X377961428Y-111425350D01*
X377885714Y-111122492D01*
X377810000Y-110971064D01*
X377734285Y-110895350D01*
X377582857Y-110819635D01*
X379930000Y-114969535D02*
X379930000Y-113379535D01*
X379172857Y-113909535D02*
X379172857Y-114969535D01*
X379172857Y-114060964D02*
X379097142Y-113985250D01*
X378945714Y-113909535D01*
X378718571Y-113909535D01*
X378567142Y-113985250D01*
X378491428Y-114136678D01*
X378491428Y-114969535D01*
X377052857Y-114893821D02*
X377204285Y-114969535D01*
X377507142Y-114969535D01*
X377658571Y-114893821D01*
X377734285Y-114818107D01*
X377810000Y-114666678D01*
X377810000Y-114212392D01*
X377734285Y-114060964D01*
X377658571Y-113985250D01*
X377507142Y-113909535D01*
X377204285Y-113909535D01*
X377052857Y-113985250D01*
X381822857Y-115939435D02*
X380762857Y-115939435D01*
X381822857Y-117529435D01*
X380762857Y-117529435D01*
X379551428Y-117453721D02*
X379702857Y-117529435D01*
X380005714Y-117529435D01*
X380157142Y-117453721D01*
X380232857Y-117302292D01*
X380232857Y-116696578D01*
X380157142Y-116545150D01*
X380005714Y-116469435D01*
X379702857Y-116469435D01*
X379551428Y-116545150D01*
X379475714Y-116696578D01*
X379475714Y-116848007D01*
X380232857Y-116999435D01*
X378794285Y-117529435D02*
X378794285Y-116469435D01*
X378794285Y-116772292D02*
X378718571Y-116620864D01*
X378642857Y-116545150D01*
X378491428Y-116469435D01*
X378340000Y-116469435D01*
X377582857Y-117529435D02*
X377734285Y-117453721D01*
X377810000Y-117378007D01*
X377885714Y-117226578D01*
X377885714Y-116772292D01*
X377810000Y-116620864D01*
X377734285Y-116545150D01*
X377582857Y-116469435D01*
X377355714Y-116469435D01*
X377204285Y-116545150D01*
X377128571Y-116620864D01*
X377052857Y-116772292D01*
X377052857Y-117226578D01*
X377128571Y-117378007D01*
X377204285Y-117453721D01*
X377355714Y-117529435D01*
X377582857Y-117529435D01*
X383412857Y-118499335D02*
X383412857Y-119786478D01*
X383337142Y-119937907D01*
X383261428Y-120013621D01*
X383110000Y-120089335D01*
X382807142Y-120089335D01*
X382655714Y-120013621D01*
X382580000Y-119937907D01*
X382504285Y-119786478D01*
X382504285Y-118499335D01*
X380838571Y-119937907D02*
X380914285Y-120013621D01*
X381141428Y-120089335D01*
X381292857Y-120089335D01*
X381520000Y-120013621D01*
X381671428Y-119862192D01*
X381747142Y-119710764D01*
X381822857Y-119407907D01*
X381822857Y-119180764D01*
X381747142Y-118877907D01*
X381671428Y-118726478D01*
X381520000Y-118575050D01*
X381292857Y-118499335D01*
X381141428Y-118499335D01*
X380914285Y-118575050D01*
X380838571Y-118650764D01*
X379930000Y-120089335D02*
X380081428Y-120013621D01*
X380157142Y-119937907D01*
X380232857Y-119786478D01*
X380232857Y-119332192D01*
X380157142Y-119180764D01*
X380081428Y-119105050D01*
X379930000Y-119029335D01*
X379702857Y-119029335D01*
X379551428Y-119105050D01*
X379475714Y-119180764D01*
X379400000Y-119332192D01*
X379400000Y-119786478D01*
X379475714Y-119937907D01*
X379551428Y-120013621D01*
X379702857Y-120089335D01*
X379930000Y-120089335D01*
X378037142Y-119029335D02*
X378037142Y-120089335D01*
X378718571Y-119029335D02*
X378718571Y-119862192D01*
X378642857Y-120013621D01*
X378491428Y-120089335D01*
X378264285Y-120089335D01*
X378112857Y-120013621D01*
X378037142Y-119937907D01*
X377507142Y-119029335D02*
X376901428Y-119029335D01*
X377280000Y-118499335D02*
X377280000Y-119862192D01*
X377204285Y-120013621D01*
X377052857Y-120089335D01*
X376901428Y-120089335D01*
X378945714Y-121816378D02*
X378718571Y-121892092D01*
X378642857Y-121967807D01*
X378567142Y-122119235D01*
X378567142Y-122346378D01*
X378642857Y-122497807D01*
X378718571Y-122573521D01*
X378870000Y-122649235D01*
X379475714Y-122649235D01*
X379475714Y-121059235D01*
X378945714Y-121059235D01*
X378794285Y-121134950D01*
X378718571Y-121210664D01*
X378642857Y-121362092D01*
X378642857Y-121513521D01*
X378718571Y-121664950D01*
X378794285Y-121740664D01*
X378945714Y-121816378D01*
X379475714Y-121816378D01*
X377961428Y-121210664D02*
X377885714Y-121134950D01*
X377734285Y-121059235D01*
X377355714Y-121059235D01*
X377204285Y-121134950D01*
X377128571Y-121210664D01*
X377052857Y-121362092D01*
X377052857Y-121513521D01*
X377128571Y-121740664D01*
X378037142Y-122649235D01*
X377052857Y-122649235D01*
X378945714Y-124376278D02*
X378718571Y-124451992D01*
X378642857Y-124527707D01*
X378567142Y-124679135D01*
X378567142Y-124906278D01*
X378642857Y-125057707D01*
X378718571Y-125133421D01*
X378870000Y-125209135D01*
X379475714Y-125209135D01*
X379475714Y-123619135D01*
X378945714Y-123619135D01*
X378794285Y-123694850D01*
X378718571Y-123770564D01*
X378642857Y-123921992D01*
X378642857Y-124073421D01*
X378718571Y-124224850D01*
X378794285Y-124300564D01*
X378945714Y-124376278D01*
X379475714Y-124376278D01*
X377582857Y-123619135D02*
X377431428Y-123619135D01*
X377280000Y-123694850D01*
X377204285Y-123770564D01*
X377128571Y-123921992D01*
X377052857Y-124224850D01*
X377052857Y-124603421D01*
X377128571Y-124906278D01*
X377204285Y-125057707D01*
X377280000Y-125133421D01*
X377431428Y-125209135D01*
X377582857Y-125209135D01*
X377734285Y-125133421D01*
X377810000Y-125057707D01*
X377885714Y-124906278D01*
X377961428Y-124603421D01*
X377961428Y-124224850D01*
X377885714Y-123921992D01*
X377810000Y-123770564D01*
X377734285Y-123694850D01*
X377582857Y-123619135D01*
X379324285Y-127314750D02*
X378567142Y-127314750D01*
X379475714Y-127769035D02*
X378945714Y-126179035D01*
X378415714Y-127769035D01*
X377052857Y-127769035D02*
X377961428Y-127769035D01*
X377507142Y-127769035D02*
X377507142Y-126179035D01*
X377658571Y-126406178D01*
X377810000Y-126557607D01*
X377961428Y-126633321D01*
X379475714Y-130328935D02*
X379475714Y-128738935D01*
X379097142Y-128738935D01*
X378870000Y-128814650D01*
X378718571Y-128966078D01*
X378642857Y-129117507D01*
X378567142Y-129420364D01*
X378567142Y-129647507D01*
X378642857Y-129950364D01*
X378718571Y-130101792D01*
X378870000Y-130253221D01*
X379097142Y-130328935D01*
X379475714Y-130328935D01*
X377961428Y-128890364D02*
X377885714Y-128814650D01*
X377734285Y-128738935D01*
X377355714Y-128738935D01*
X377204285Y-128814650D01*
X377128571Y-128890364D01*
X377052857Y-129041792D01*
X377052857Y-129193221D01*
X377128571Y-129420364D01*
X378037142Y-130328935D01*
X377052857Y-130328935D01*
X379475714Y-132888835D02*
X379475714Y-131298835D01*
X379097142Y-131298835D01*
X378870000Y-131374550D01*
X378718571Y-131525978D01*
X378642857Y-131677407D01*
X378567142Y-131980264D01*
X378567142Y-132207407D01*
X378642857Y-132510264D01*
X378718571Y-132661692D01*
X378870000Y-132813121D01*
X379097142Y-132888835D01*
X379475714Y-132888835D01*
X377582857Y-131298835D02*
X377431428Y-131298835D01*
X377280000Y-131374550D01*
X377204285Y-131450264D01*
X377128571Y-131601692D01*
X377052857Y-131904550D01*
X377052857Y-132283121D01*
X377128571Y-132585978D01*
X377204285Y-132737407D01*
X377280000Y-132813121D01*
X377431428Y-132888835D01*
X377582857Y-132888835D01*
X377734285Y-132813121D01*
X377810000Y-132737407D01*
X377885714Y-132585978D01*
X377961428Y-132283121D01*
X377961428Y-131904550D01*
X377885714Y-131601692D01*
X377810000Y-131450264D01*
X377734285Y-131374550D01*
X377582857Y-131298835D01*
X380384285Y-133934450D02*
X380535714Y-133858735D01*
X380762857Y-133858735D01*
X380990000Y-133934450D01*
X381141428Y-134085878D01*
X381217142Y-134237307D01*
X381292857Y-134540164D01*
X381292857Y-134767307D01*
X381217142Y-135070164D01*
X381141428Y-135221592D01*
X380990000Y-135373021D01*
X380762857Y-135448735D01*
X380611428Y-135448735D01*
X380384285Y-135373021D01*
X380308571Y-135297307D01*
X380308571Y-134767307D01*
X380611428Y-134767307D01*
X379627142Y-135448735D02*
X379627142Y-133858735D01*
X378718571Y-135448735D01*
X378718571Y-133858735D01*
X377961428Y-135448735D02*
X377961428Y-133858735D01*
X377582857Y-133858735D01*
X377355714Y-133934450D01*
X377204285Y-134085878D01*
X377128571Y-134237307D01*
X377052857Y-134540164D01*
X377052857Y-134767307D01*
X377128571Y-135070164D01*
X377204285Y-135221592D01*
X377355714Y-135373021D01*
X377582857Y-135448735D01*
X377961428Y-135448735D01*
X370068571Y-441055550D02*
X370220000Y-440979835D01*
X370447142Y-440979835D01*
X370674285Y-441055550D01*
X370825714Y-441206978D01*
X370901428Y-441358407D01*
X370977142Y-441661264D01*
X370977142Y-441888407D01*
X370901428Y-442191264D01*
X370825714Y-442342692D01*
X370674285Y-442494121D01*
X370447142Y-442569835D01*
X370295714Y-442569835D01*
X370068571Y-442494121D01*
X369992857Y-442418407D01*
X369992857Y-441888407D01*
X370295714Y-441888407D01*
X369311428Y-442569835D02*
X369311428Y-440979835D01*
X368402857Y-442569835D01*
X368402857Y-440979835D01*
X367645714Y-442569835D02*
X367645714Y-440979835D01*
X367267142Y-440979835D01*
X367040000Y-441055550D01*
X366888571Y-441206978D01*
X366812857Y-441358407D01*
X366737142Y-441661264D01*
X366737142Y-441888407D01*
X366812857Y-442191264D01*
X366888571Y-442342692D01*
X367040000Y-442494121D01*
X367267142Y-442569835D01*
X367645714Y-442569835D01*
X370598571Y-443539735D02*
X370447142Y-443539735D01*
X370295714Y-443615450D01*
X370220000Y-443691164D01*
X370144285Y-443842592D01*
X370068571Y-444145450D01*
X370068571Y-444524021D01*
X370144285Y-444826878D01*
X370220000Y-444978307D01*
X370295714Y-445054021D01*
X370447142Y-445129735D01*
X370598571Y-445129735D01*
X370750000Y-445054021D01*
X370825714Y-444978307D01*
X370901428Y-444826878D01*
X370977142Y-444524021D01*
X370977142Y-444145450D01*
X370901428Y-443842592D01*
X370825714Y-443691164D01*
X370750000Y-443615450D01*
X370598571Y-443539735D01*
X370977142Y-446251064D02*
X370901428Y-446175350D01*
X370750000Y-446099635D01*
X370371428Y-446099635D01*
X370220000Y-446175350D01*
X370144285Y-446251064D01*
X370068571Y-446402492D01*
X370068571Y-446553921D01*
X370144285Y-446781064D01*
X371052857Y-447689635D01*
X370068571Y-447689635D01*
X370220000Y-449189535D02*
X370220000Y-450249535D01*
X370598571Y-448583821D02*
X370977142Y-449719535D01*
X369992857Y-449719535D01*
X370220000Y-451219435D02*
X370522857Y-451219435D01*
X370674285Y-451295150D01*
X370750000Y-451370864D01*
X370901428Y-451598007D01*
X370977142Y-451900864D01*
X370977142Y-452506578D01*
X370901428Y-452658007D01*
X370825714Y-452733721D01*
X370674285Y-452809435D01*
X370371428Y-452809435D01*
X370220000Y-452733721D01*
X370144285Y-452658007D01*
X370068571Y-452506578D01*
X370068571Y-452128007D01*
X370144285Y-451976578D01*
X370220000Y-451900864D01*
X370371428Y-451825150D01*
X370674285Y-451825150D01*
X370825714Y-451900864D01*
X370901428Y-451976578D01*
X370977142Y-452128007D01*
X370674285Y-454460764D02*
X370825714Y-454385050D01*
X370901428Y-454309335D01*
X370977142Y-454157907D01*
X370977142Y-454082192D01*
X370901428Y-453930764D01*
X370825714Y-453855050D01*
X370674285Y-453779335D01*
X370371428Y-453779335D01*
X370220000Y-453855050D01*
X370144285Y-453930764D01*
X370068571Y-454082192D01*
X370068571Y-454157907D01*
X370144285Y-454309335D01*
X370220000Y-454385050D01*
X370371428Y-454460764D01*
X370674285Y-454460764D01*
X370825714Y-454536478D01*
X370901428Y-454612192D01*
X370977142Y-454763621D01*
X370977142Y-455066478D01*
X370901428Y-455217907D01*
X370825714Y-455293621D01*
X370674285Y-455369335D01*
X370371428Y-455369335D01*
X370220000Y-455293621D01*
X370144285Y-455217907D01*
X370068571Y-455066478D01*
X370068571Y-454763621D01*
X370144285Y-454612192D01*
X370220000Y-454536478D01*
X370371428Y-454460764D01*
X370068571Y-457929235D02*
X370977142Y-457929235D01*
X370522857Y-457929235D02*
X370522857Y-456339235D01*
X370674285Y-456566378D01*
X370825714Y-456717807D01*
X370977142Y-456793521D01*
X369084285Y-456339235D02*
X368932857Y-456339235D01*
X368781428Y-456414950D01*
X368705714Y-456490664D01*
X368630000Y-456642092D01*
X368554285Y-456944950D01*
X368554285Y-457323521D01*
X368630000Y-457626378D01*
X368705714Y-457777807D01*
X368781428Y-457853521D01*
X368932857Y-457929235D01*
X369084285Y-457929235D01*
X369235714Y-457853521D01*
X369311428Y-457777807D01*
X369387142Y-457626378D01*
X369462857Y-457323521D01*
X369462857Y-456944950D01*
X369387142Y-456642092D01*
X369311428Y-456490664D01*
X369235714Y-456414950D01*
X369084285Y-456339235D01*
X370068571Y-460489135D02*
X370977142Y-460489135D01*
X370522857Y-460489135D02*
X370522857Y-458899135D01*
X370674285Y-459126278D01*
X370825714Y-459277707D01*
X370977142Y-459353421D01*
X369462857Y-459050564D02*
X369387142Y-458974850D01*
X369235714Y-458899135D01*
X368857142Y-458899135D01*
X368705714Y-458974850D01*
X368630000Y-459050564D01*
X368554285Y-459201992D01*
X368554285Y-459353421D01*
X368630000Y-459580564D01*
X369538571Y-460489135D01*
X368554285Y-460489135D01*
X370068571Y-463049035D02*
X370977142Y-463049035D01*
X370522857Y-463049035D02*
X370522857Y-461459035D01*
X370674285Y-461686178D01*
X370825714Y-461837607D01*
X370977142Y-461913321D01*
X368705714Y-461989035D02*
X368705714Y-463049035D01*
X369084285Y-461383321D02*
X369462857Y-462519035D01*
X368478571Y-462519035D01*
X370901428Y-465608935D02*
X370901428Y-464018935D01*
X369992857Y-465608935D01*
X369992857Y-464018935D01*
X368327142Y-465457507D02*
X368402857Y-465533221D01*
X368630000Y-465608935D01*
X368781428Y-465608935D01*
X369008571Y-465533221D01*
X369160000Y-465381792D01*
X369235714Y-465230364D01*
X369311428Y-464927507D01*
X369311428Y-464700364D01*
X369235714Y-464397507D01*
X369160000Y-464246078D01*
X369008571Y-464094650D01*
X368781428Y-464018935D01*
X368630000Y-464018935D01*
X368402857Y-464094650D01*
X368327142Y-464170364D01*
X370901428Y-468168835D02*
X370901428Y-466578835D01*
X369992857Y-468168835D01*
X369992857Y-466578835D01*
X368327142Y-468017407D02*
X368402857Y-468093121D01*
X368630000Y-468168835D01*
X368781428Y-468168835D01*
X369008571Y-468093121D01*
X369160000Y-467941692D01*
X369235714Y-467790264D01*
X369311428Y-467487407D01*
X369311428Y-467260264D01*
X369235714Y-466957407D01*
X369160000Y-466805978D01*
X369008571Y-466654550D01*
X368781428Y-466578835D01*
X368630000Y-466578835D01*
X368402857Y-466654550D01*
X368327142Y-466730264D01*
X370068571Y-469214450D02*
X370220000Y-469138735D01*
X370447142Y-469138735D01*
X370674285Y-469214450D01*
X370825714Y-469365878D01*
X370901428Y-469517307D01*
X370977142Y-469820164D01*
X370977142Y-470047307D01*
X370901428Y-470350164D01*
X370825714Y-470501592D01*
X370674285Y-470653021D01*
X370447142Y-470728735D01*
X370295714Y-470728735D01*
X370068571Y-470653021D01*
X369992857Y-470577307D01*
X369992857Y-470047307D01*
X370295714Y-470047307D01*
X369311428Y-470728735D02*
X369311428Y-469138735D01*
X368402857Y-470728735D01*
X368402857Y-469138735D01*
X367645714Y-470728735D02*
X367645714Y-469138735D01*
X367267142Y-469138735D01*
X367040000Y-469214450D01*
X366888571Y-469365878D01*
X366812857Y-469517307D01*
X366737142Y-469820164D01*
X366737142Y-470047307D01*
X366812857Y-470350164D01*
X366888571Y-470501592D01*
X367040000Y-470653021D01*
X367267142Y-470728735D01*
X367645714Y-470728735D01*
X251479285Y-70215550D02*
X251630714Y-70139835D01*
X251857857Y-70139835D01*
X252085000Y-70215550D01*
X252236428Y-70366978D01*
X252312142Y-70518407D01*
X252387857Y-70821264D01*
X252387857Y-71048407D01*
X252312142Y-71351264D01*
X252236428Y-71502692D01*
X252085000Y-71654121D01*
X251857857Y-71729835D01*
X251706428Y-71729835D01*
X251479285Y-71654121D01*
X251403571Y-71578407D01*
X251403571Y-71048407D01*
X251706428Y-71048407D01*
X250722142Y-71729835D02*
X250722142Y-70139835D01*
X249813571Y-71729835D01*
X249813571Y-70139835D01*
X249056428Y-71729835D02*
X249056428Y-70139835D01*
X248677857Y-70139835D01*
X248450714Y-70215550D01*
X248299285Y-70366978D01*
X248223571Y-70518407D01*
X248147857Y-70821264D01*
X248147857Y-71048407D01*
X248223571Y-71351264D01*
X248299285Y-71502692D01*
X248450714Y-71654121D01*
X248677857Y-71729835D01*
X249056428Y-71729835D01*
X251479285Y-72775450D02*
X251630714Y-72699735D01*
X251857857Y-72699735D01*
X252085000Y-72775450D01*
X252236428Y-72926878D01*
X252312142Y-73078307D01*
X252387857Y-73381164D01*
X252387857Y-73608307D01*
X252312142Y-73911164D01*
X252236428Y-74062592D01*
X252085000Y-74214021D01*
X251857857Y-74289735D01*
X251706428Y-74289735D01*
X251479285Y-74214021D01*
X251403571Y-74138307D01*
X251403571Y-73608307D01*
X251706428Y-73608307D01*
X250722142Y-74289735D02*
X250722142Y-72699735D01*
X249813571Y-74289735D01*
X249813571Y-72699735D01*
X249056428Y-74289735D02*
X249056428Y-72699735D01*
X248677857Y-72699735D01*
X248450714Y-72775450D01*
X248299285Y-72926878D01*
X248223571Y-73078307D01*
X248147857Y-73381164D01*
X248147857Y-73608307D01*
X248223571Y-73911164D01*
X248299285Y-74062592D01*
X248450714Y-74214021D01*
X248677857Y-74289735D01*
X249056428Y-74289735D01*
X251479285Y-75335350D02*
X251630714Y-75259635D01*
X251857857Y-75259635D01*
X252085000Y-75335350D01*
X252236428Y-75486778D01*
X252312142Y-75638207D01*
X252387857Y-75941064D01*
X252387857Y-76168207D01*
X252312142Y-76471064D01*
X252236428Y-76622492D01*
X252085000Y-76773921D01*
X251857857Y-76849635D01*
X251706428Y-76849635D01*
X251479285Y-76773921D01*
X251403571Y-76698207D01*
X251403571Y-76168207D01*
X251706428Y-76168207D01*
X250722142Y-76849635D02*
X250722142Y-75259635D01*
X249813571Y-76849635D01*
X249813571Y-75259635D01*
X249056428Y-76849635D02*
X249056428Y-75259635D01*
X248677857Y-75259635D01*
X248450714Y-75335350D01*
X248299285Y-75486778D01*
X248223571Y-75638207D01*
X248147857Y-75941064D01*
X248147857Y-76168207D01*
X248223571Y-76471064D01*
X248299285Y-76622492D01*
X248450714Y-76773921D01*
X248677857Y-76849635D01*
X249056428Y-76849635D01*
X249662142Y-79409535D02*
X250570714Y-79409535D01*
X250116428Y-79409535D02*
X250116428Y-77819535D01*
X250267857Y-78046678D01*
X250419285Y-78198107D01*
X250570714Y-78273821D01*
X248299285Y-78349535D02*
X248299285Y-79409535D01*
X248677857Y-77743821D02*
X249056428Y-78879535D01*
X248072142Y-78879535D01*
X249662142Y-81969435D02*
X250570714Y-81969435D01*
X250116428Y-81969435D02*
X250116428Y-80379435D01*
X250267857Y-80606578D01*
X250419285Y-80758007D01*
X250570714Y-80833721D01*
X249056428Y-80530864D02*
X248980714Y-80455150D01*
X248829285Y-80379435D01*
X248450714Y-80379435D01*
X248299285Y-80455150D01*
X248223571Y-80530864D01*
X248147857Y-80682292D01*
X248147857Y-80833721D01*
X248223571Y-81060864D01*
X249132142Y-81969435D01*
X248147857Y-81969435D01*
X249662142Y-84529335D02*
X250570714Y-84529335D01*
X250116428Y-84529335D02*
X250116428Y-82939335D01*
X250267857Y-83166478D01*
X250419285Y-83317907D01*
X250570714Y-83393621D01*
X248677857Y-82939335D02*
X248526428Y-82939335D01*
X248375000Y-83015050D01*
X248299285Y-83090764D01*
X248223571Y-83242192D01*
X248147857Y-83545050D01*
X248147857Y-83923621D01*
X248223571Y-84226478D01*
X248299285Y-84377907D01*
X248375000Y-84453621D01*
X248526428Y-84529335D01*
X248677857Y-84529335D01*
X248829285Y-84453621D01*
X248905000Y-84377907D01*
X248980714Y-84226478D01*
X249056428Y-83923621D01*
X249056428Y-83545050D01*
X248980714Y-83242192D01*
X248905000Y-83090764D01*
X248829285Y-83015050D01*
X248677857Y-82939335D01*
X248753571Y-86180664D02*
X248905000Y-86104950D01*
X248980714Y-86029235D01*
X249056428Y-85877807D01*
X249056428Y-85802092D01*
X248980714Y-85650664D01*
X248905000Y-85574950D01*
X248753571Y-85499235D01*
X248450714Y-85499235D01*
X248299285Y-85574950D01*
X248223571Y-85650664D01*
X248147857Y-85802092D01*
X248147857Y-85877807D01*
X248223571Y-86029235D01*
X248299285Y-86104950D01*
X248450714Y-86180664D01*
X248753571Y-86180664D01*
X248905000Y-86256378D01*
X248980714Y-86332092D01*
X249056428Y-86483521D01*
X249056428Y-86786378D01*
X248980714Y-86937807D01*
X248905000Y-87013521D01*
X248753571Y-87089235D01*
X248450714Y-87089235D01*
X248299285Y-87013521D01*
X248223571Y-86937807D01*
X248147857Y-86786378D01*
X248147857Y-86483521D01*
X248223571Y-86332092D01*
X248299285Y-86256378D01*
X248450714Y-86180664D01*
X248299285Y-88059135D02*
X248602142Y-88059135D01*
X248753571Y-88134850D01*
X248829285Y-88210564D01*
X248980714Y-88437707D01*
X249056428Y-88740564D01*
X249056428Y-89346278D01*
X248980714Y-89497707D01*
X248905000Y-89573421D01*
X248753571Y-89649135D01*
X248450714Y-89649135D01*
X248299285Y-89573421D01*
X248223571Y-89497707D01*
X248147857Y-89346278D01*
X248147857Y-88967707D01*
X248223571Y-88816278D01*
X248299285Y-88740564D01*
X248450714Y-88664850D01*
X248753571Y-88664850D01*
X248905000Y-88740564D01*
X248980714Y-88816278D01*
X249056428Y-88967707D01*
X248299285Y-91149035D02*
X248299285Y-92209035D01*
X248677857Y-90543321D02*
X249056428Y-91679035D01*
X248072142Y-91679035D01*
X249056428Y-93330364D02*
X248980714Y-93254650D01*
X248829285Y-93178935D01*
X248450714Y-93178935D01*
X248299285Y-93254650D01*
X248223571Y-93330364D01*
X248147857Y-93481792D01*
X248147857Y-93633221D01*
X248223571Y-93860364D01*
X249132142Y-94768935D01*
X248147857Y-94768935D01*
X248677857Y-95738835D02*
X248526428Y-95738835D01*
X248375000Y-95814550D01*
X248299285Y-95890264D01*
X248223571Y-96041692D01*
X248147857Y-96344550D01*
X248147857Y-96723121D01*
X248223571Y-97025978D01*
X248299285Y-97177407D01*
X248375000Y-97253121D01*
X248526428Y-97328835D01*
X248677857Y-97328835D01*
X248829285Y-97253121D01*
X248905000Y-97177407D01*
X248980714Y-97025978D01*
X249056428Y-96723121D01*
X249056428Y-96344550D01*
X248980714Y-96041692D01*
X248905000Y-95890264D01*
X248829285Y-95814550D01*
X248677857Y-95738835D01*
X251479285Y-98374450D02*
X251630714Y-98298735D01*
X251857857Y-98298735D01*
X252085000Y-98374450D01*
X252236428Y-98525878D01*
X252312142Y-98677307D01*
X252387857Y-98980164D01*
X252387857Y-99207307D01*
X252312142Y-99510164D01*
X252236428Y-99661592D01*
X252085000Y-99813021D01*
X251857857Y-99888735D01*
X251706428Y-99888735D01*
X251479285Y-99813021D01*
X251403571Y-99737307D01*
X251403571Y-99207307D01*
X251706428Y-99207307D01*
X250722142Y-99888735D02*
X250722142Y-98298735D01*
X249813571Y-99888735D01*
X249813571Y-98298735D01*
X249056428Y-99888735D02*
X249056428Y-98298735D01*
X248677857Y-98298735D01*
X248450714Y-98374450D01*
X248299285Y-98525878D01*
X248223571Y-98677307D01*
X248147857Y-98980164D01*
X248147857Y-99207307D01*
X248223571Y-99510164D01*
X248299285Y-99661592D01*
X248450714Y-99813021D01*
X248677857Y-99888735D01*
X249056428Y-99888735D01*
X333813571Y-70215550D02*
X333965000Y-70139835D01*
X334192142Y-70139835D01*
X334419285Y-70215550D01*
X334570714Y-70366978D01*
X334646428Y-70518407D01*
X334722142Y-70821264D01*
X334722142Y-71048407D01*
X334646428Y-71351264D01*
X334570714Y-71502692D01*
X334419285Y-71654121D01*
X334192142Y-71729835D01*
X334040714Y-71729835D01*
X333813571Y-71654121D01*
X333737857Y-71578407D01*
X333737857Y-71048407D01*
X334040714Y-71048407D01*
X333056428Y-71729835D02*
X333056428Y-70139835D01*
X332147857Y-71729835D01*
X332147857Y-70139835D01*
X331390714Y-71729835D02*
X331390714Y-70139835D01*
X331012142Y-70139835D01*
X330785000Y-70215550D01*
X330633571Y-70366978D01*
X330557857Y-70518407D01*
X330482142Y-70821264D01*
X330482142Y-71048407D01*
X330557857Y-71351264D01*
X330633571Y-71502692D01*
X330785000Y-71654121D01*
X331012142Y-71729835D01*
X331390714Y-71729835D01*
X333813571Y-72775450D02*
X333965000Y-72699735D01*
X334192142Y-72699735D01*
X334419285Y-72775450D01*
X334570714Y-72926878D01*
X334646428Y-73078307D01*
X334722142Y-73381164D01*
X334722142Y-73608307D01*
X334646428Y-73911164D01*
X334570714Y-74062592D01*
X334419285Y-74214021D01*
X334192142Y-74289735D01*
X334040714Y-74289735D01*
X333813571Y-74214021D01*
X333737857Y-74138307D01*
X333737857Y-73608307D01*
X334040714Y-73608307D01*
X333056428Y-74289735D02*
X333056428Y-72699735D01*
X332147857Y-74289735D01*
X332147857Y-72699735D01*
X331390714Y-74289735D02*
X331390714Y-72699735D01*
X331012142Y-72699735D01*
X330785000Y-72775450D01*
X330633571Y-72926878D01*
X330557857Y-73078307D01*
X330482142Y-73381164D01*
X330482142Y-73608307D01*
X330557857Y-73911164D01*
X330633571Y-74062592D01*
X330785000Y-74214021D01*
X331012142Y-74289735D01*
X331390714Y-74289735D01*
X333813571Y-75335350D02*
X333965000Y-75259635D01*
X334192142Y-75259635D01*
X334419285Y-75335350D01*
X334570714Y-75486778D01*
X334646428Y-75638207D01*
X334722142Y-75941064D01*
X334722142Y-76168207D01*
X334646428Y-76471064D01*
X334570714Y-76622492D01*
X334419285Y-76773921D01*
X334192142Y-76849635D01*
X334040714Y-76849635D01*
X333813571Y-76773921D01*
X333737857Y-76698207D01*
X333737857Y-76168207D01*
X334040714Y-76168207D01*
X333056428Y-76849635D02*
X333056428Y-75259635D01*
X332147857Y-76849635D01*
X332147857Y-75259635D01*
X331390714Y-76849635D02*
X331390714Y-75259635D01*
X331012142Y-75259635D01*
X330785000Y-75335350D01*
X330633571Y-75486778D01*
X330557857Y-75638207D01*
X330482142Y-75941064D01*
X330482142Y-76168207D01*
X330557857Y-76471064D01*
X330633571Y-76622492D01*
X330785000Y-76773921D01*
X331012142Y-76849635D01*
X331390714Y-76849635D01*
X333586428Y-79560964D02*
X333737857Y-79485250D01*
X333889285Y-79333821D01*
X334116428Y-79106678D01*
X334267857Y-79030964D01*
X334419285Y-79030964D01*
X334343571Y-79409535D02*
X334495000Y-79333821D01*
X334646428Y-79182392D01*
X334722142Y-78879535D01*
X334722142Y-78349535D01*
X334646428Y-78046678D01*
X334495000Y-77895250D01*
X334343571Y-77819535D01*
X334040714Y-77819535D01*
X333889285Y-77895250D01*
X333737857Y-78046678D01*
X333662142Y-78349535D01*
X333662142Y-78879535D01*
X333737857Y-79182392D01*
X333889285Y-79333821D01*
X334040714Y-79409535D01*
X334343571Y-79409535D01*
X333056428Y-79333821D02*
X332829285Y-79409535D01*
X332450714Y-79409535D01*
X332299285Y-79333821D01*
X332223571Y-79258107D01*
X332147857Y-79106678D01*
X332147857Y-78955250D01*
X332223571Y-78803821D01*
X332299285Y-78728107D01*
X332450714Y-78652392D01*
X332753571Y-78576678D01*
X332905000Y-78500964D01*
X332980714Y-78425250D01*
X333056428Y-78273821D01*
X333056428Y-78122392D01*
X332980714Y-77970964D01*
X332905000Y-77895250D01*
X332753571Y-77819535D01*
X332375000Y-77819535D01*
X332147857Y-77895250D01*
X330557857Y-79258107D02*
X330633571Y-79333821D01*
X330860714Y-79409535D01*
X331012142Y-79409535D01*
X331239285Y-79333821D01*
X331390714Y-79182392D01*
X331466428Y-79030964D01*
X331542142Y-78728107D01*
X331542142Y-78500964D01*
X331466428Y-78198107D01*
X331390714Y-78046678D01*
X331239285Y-77895250D01*
X331012142Y-77819535D01*
X330860714Y-77819535D01*
X330633571Y-77895250D01*
X330557857Y-77970964D01*
X329649285Y-79409535D02*
X329800714Y-79333821D01*
X329876428Y-79258107D01*
X329952142Y-79106678D01*
X329952142Y-78652392D01*
X329876428Y-78500964D01*
X329800714Y-78425250D01*
X329649285Y-78349535D01*
X329422142Y-78349535D01*
X329270714Y-78425250D01*
X329195000Y-78500964D01*
X329119285Y-78652392D01*
X329119285Y-79106678D01*
X329195000Y-79258107D01*
X329270714Y-79333821D01*
X329422142Y-79409535D01*
X329649285Y-79409535D01*
X327756428Y-78349535D02*
X327756428Y-79409535D01*
X328437857Y-78349535D02*
X328437857Y-79182392D01*
X328362142Y-79333821D01*
X328210714Y-79409535D01*
X327983571Y-79409535D01*
X327832142Y-79333821D01*
X327756428Y-79258107D01*
X327226428Y-78349535D02*
X326620714Y-78349535D01*
X326999285Y-77819535D02*
X326999285Y-79182392D01*
X326923571Y-79333821D01*
X326772142Y-79409535D01*
X326620714Y-79409535D01*
X333586428Y-82120864D02*
X333737857Y-82045150D01*
X333889285Y-81893721D01*
X334116428Y-81666578D01*
X334267857Y-81590864D01*
X334419285Y-81590864D01*
X334343571Y-81969435D02*
X334495000Y-81893721D01*
X334646428Y-81742292D01*
X334722142Y-81439435D01*
X334722142Y-80909435D01*
X334646428Y-80606578D01*
X334495000Y-80455150D01*
X334343571Y-80379435D01*
X334040714Y-80379435D01*
X333889285Y-80455150D01*
X333737857Y-80606578D01*
X333662142Y-80909435D01*
X333662142Y-81439435D01*
X333737857Y-81742292D01*
X333889285Y-81893721D01*
X334040714Y-81969435D01*
X334343571Y-81969435D01*
X333132142Y-80379435D02*
X332072142Y-80379435D01*
X333132142Y-81969435D01*
X332072142Y-81969435D01*
X330860714Y-81893721D02*
X331012142Y-81969435D01*
X331315000Y-81969435D01*
X331466428Y-81893721D01*
X331542142Y-81742292D01*
X331542142Y-81136578D01*
X331466428Y-80985150D01*
X331315000Y-80909435D01*
X331012142Y-80909435D01*
X330860714Y-80985150D01*
X330785000Y-81136578D01*
X330785000Y-81288007D01*
X331542142Y-81439435D01*
X330103571Y-81969435D02*
X330103571Y-80909435D01*
X330103571Y-81212292D02*
X330027857Y-81060864D01*
X329952142Y-80985150D01*
X329800714Y-80909435D01*
X329649285Y-80909435D01*
X328892142Y-81969435D02*
X329043571Y-81893721D01*
X329119285Y-81818007D01*
X329195000Y-81666578D01*
X329195000Y-81212292D01*
X329119285Y-81060864D01*
X329043571Y-80985150D01*
X328892142Y-80909435D01*
X328665000Y-80909435D01*
X328513571Y-80985150D01*
X328437857Y-81060864D01*
X328362142Y-81212292D01*
X328362142Y-81666578D01*
X328437857Y-81818007D01*
X328513571Y-81893721D01*
X328665000Y-81969435D01*
X328892142Y-81969435D01*
X333813571Y-83015050D02*
X333965000Y-82939335D01*
X334192142Y-82939335D01*
X334419285Y-83015050D01*
X334570714Y-83166478D01*
X334646428Y-83317907D01*
X334722142Y-83620764D01*
X334722142Y-83847907D01*
X334646428Y-84150764D01*
X334570714Y-84302192D01*
X334419285Y-84453621D01*
X334192142Y-84529335D01*
X334040714Y-84529335D01*
X333813571Y-84453621D01*
X333737857Y-84377907D01*
X333737857Y-83847907D01*
X334040714Y-83847907D01*
X333056428Y-84529335D02*
X333056428Y-82939335D01*
X332147857Y-84529335D01*
X332147857Y-82939335D01*
X331390714Y-84529335D02*
X331390714Y-82939335D01*
X331012142Y-82939335D01*
X330785000Y-83015050D01*
X330633571Y-83166478D01*
X330557857Y-83317907D01*
X330482142Y-83620764D01*
X330482142Y-83847907D01*
X330557857Y-84150764D01*
X330633571Y-84302192D01*
X330785000Y-84453621D01*
X331012142Y-84529335D01*
X331390714Y-84529335D01*
X333813571Y-85574950D02*
X333965000Y-85499235D01*
X334192142Y-85499235D01*
X334419285Y-85574950D01*
X334570714Y-85726378D01*
X334646428Y-85877807D01*
X334722142Y-86180664D01*
X334722142Y-86407807D01*
X334646428Y-86710664D01*
X334570714Y-86862092D01*
X334419285Y-87013521D01*
X334192142Y-87089235D01*
X334040714Y-87089235D01*
X333813571Y-87013521D01*
X333737857Y-86937807D01*
X333737857Y-86407807D01*
X334040714Y-86407807D01*
X333056428Y-87089235D02*
X333056428Y-85499235D01*
X332147857Y-87089235D01*
X332147857Y-85499235D01*
X331390714Y-87089235D02*
X331390714Y-85499235D01*
X331012142Y-85499235D01*
X330785000Y-85574950D01*
X330633571Y-85726378D01*
X330557857Y-85877807D01*
X330482142Y-86180664D01*
X330482142Y-86407807D01*
X330557857Y-86710664D01*
X330633571Y-86862092D01*
X330785000Y-87013521D01*
X331012142Y-87089235D01*
X331390714Y-87089235D01*
X333813571Y-88134850D02*
X333965000Y-88059135D01*
X334192142Y-88059135D01*
X334419285Y-88134850D01*
X334570714Y-88286278D01*
X334646428Y-88437707D01*
X334722142Y-88740564D01*
X334722142Y-88967707D01*
X334646428Y-89270564D01*
X334570714Y-89421992D01*
X334419285Y-89573421D01*
X334192142Y-89649135D01*
X334040714Y-89649135D01*
X333813571Y-89573421D01*
X333737857Y-89497707D01*
X333737857Y-88967707D01*
X334040714Y-88967707D01*
X333056428Y-89649135D02*
X333056428Y-88059135D01*
X332147857Y-89649135D01*
X332147857Y-88059135D01*
X331390714Y-89649135D02*
X331390714Y-88059135D01*
X331012142Y-88059135D01*
X330785000Y-88134850D01*
X330633571Y-88286278D01*
X330557857Y-88437707D01*
X330482142Y-88740564D01*
X330482142Y-88967707D01*
X330557857Y-89270564D01*
X330633571Y-89421992D01*
X330785000Y-89573421D01*
X331012142Y-89649135D01*
X331390714Y-89649135D01*
X333813571Y-90694750D02*
X333965000Y-90619035D01*
X334192142Y-90619035D01*
X334419285Y-90694750D01*
X334570714Y-90846178D01*
X334646428Y-90997607D01*
X334722142Y-91300464D01*
X334722142Y-91527607D01*
X334646428Y-91830464D01*
X334570714Y-91981892D01*
X334419285Y-92133321D01*
X334192142Y-92209035D01*
X334040714Y-92209035D01*
X333813571Y-92133321D01*
X333737857Y-92057607D01*
X333737857Y-91527607D01*
X334040714Y-91527607D01*
X333056428Y-92209035D02*
X333056428Y-90619035D01*
X332147857Y-92209035D01*
X332147857Y-90619035D01*
X331390714Y-92209035D02*
X331390714Y-90619035D01*
X331012142Y-90619035D01*
X330785000Y-90694750D01*
X330633571Y-90846178D01*
X330557857Y-90997607D01*
X330482142Y-91300464D01*
X330482142Y-91527607D01*
X330557857Y-91830464D01*
X330633571Y-91981892D01*
X330785000Y-92133321D01*
X331012142Y-92209035D01*
X331390714Y-92209035D01*
X333586428Y-94920364D02*
X333737857Y-94844650D01*
X333889285Y-94693221D01*
X334116428Y-94466078D01*
X334267857Y-94390364D01*
X334419285Y-94390364D01*
X334343571Y-94768935D02*
X334495000Y-94693221D01*
X334646428Y-94541792D01*
X334722142Y-94238935D01*
X334722142Y-93708935D01*
X334646428Y-93406078D01*
X334495000Y-93254650D01*
X334343571Y-93178935D01*
X334040714Y-93178935D01*
X333889285Y-93254650D01*
X333737857Y-93406078D01*
X333662142Y-93708935D01*
X333662142Y-94238935D01*
X333737857Y-94541792D01*
X333889285Y-94693221D01*
X334040714Y-94768935D01*
X334343571Y-94768935D01*
X332980714Y-94768935D02*
X332980714Y-93178935D01*
X332223571Y-93708935D02*
X332223571Y-94768935D01*
X332223571Y-93860364D02*
X332147857Y-93784650D01*
X331996428Y-93708935D01*
X331769285Y-93708935D01*
X331617857Y-93784650D01*
X331542142Y-93936078D01*
X331542142Y-94768935D01*
X331012142Y-93708935D02*
X330406428Y-93708935D01*
X330785000Y-93178935D02*
X330785000Y-94541792D01*
X330709285Y-94693221D01*
X330557857Y-94768935D01*
X330406428Y-94768935D01*
X329876428Y-94768935D02*
X329876428Y-93178935D01*
X329270714Y-93178935D01*
X329119285Y-93254650D01*
X329043571Y-93330364D01*
X328967857Y-93481792D01*
X328967857Y-93708935D01*
X329043571Y-93860364D01*
X329119285Y-93936078D01*
X329270714Y-94011792D01*
X329876428Y-94011792D01*
X328286428Y-94768935D02*
X328286428Y-93708935D01*
X328286428Y-94011792D02*
X328210714Y-93860364D01*
X328135000Y-93784650D01*
X327983571Y-93708935D01*
X327832142Y-93708935D01*
X327075000Y-94768935D02*
X327226428Y-94693221D01*
X327302142Y-94617507D01*
X327377857Y-94466078D01*
X327377857Y-94011792D01*
X327302142Y-93860364D01*
X327226428Y-93784650D01*
X327075000Y-93708935D01*
X326847857Y-93708935D01*
X326696428Y-93784650D01*
X326620714Y-93860364D01*
X326545000Y-94011792D01*
X326545000Y-94466078D01*
X326620714Y-94617507D01*
X326696428Y-94693221D01*
X326847857Y-94768935D01*
X327075000Y-94768935D01*
X325182142Y-93708935D02*
X325182142Y-94996078D01*
X325257857Y-95147507D01*
X325333571Y-95223221D01*
X325485000Y-95298935D01*
X325712142Y-95298935D01*
X325863571Y-95223221D01*
X325182142Y-94693221D02*
X325333571Y-94768935D01*
X325636428Y-94768935D01*
X325787857Y-94693221D01*
X325863571Y-94617507D01*
X325939285Y-94466078D01*
X325939285Y-94011792D01*
X325863571Y-93860364D01*
X325787857Y-93784650D01*
X325636428Y-93708935D01*
X325333571Y-93708935D01*
X325182142Y-93784650D01*
X333586428Y-97480264D02*
X333737857Y-97404550D01*
X333889285Y-97253121D01*
X334116428Y-97025978D01*
X334267857Y-96950264D01*
X334419285Y-96950264D01*
X334343571Y-97328835D02*
X334495000Y-97253121D01*
X334646428Y-97101692D01*
X334722142Y-96798835D01*
X334722142Y-96268835D01*
X334646428Y-95965978D01*
X334495000Y-95814550D01*
X334343571Y-95738835D01*
X334040714Y-95738835D01*
X333889285Y-95814550D01*
X333737857Y-95965978D01*
X333662142Y-96268835D01*
X333662142Y-96798835D01*
X333737857Y-97101692D01*
X333889285Y-97253121D01*
X334040714Y-97328835D01*
X334343571Y-97328835D01*
X332980714Y-97328835D02*
X332980714Y-95738835D01*
X331315000Y-97328835D02*
X331845000Y-96571692D01*
X332223571Y-97328835D02*
X332223571Y-95738835D01*
X331617857Y-95738835D01*
X331466428Y-95814550D01*
X331390714Y-95890264D01*
X331315000Y-96041692D01*
X331315000Y-96268835D01*
X331390714Y-96420264D01*
X331466428Y-96495978D01*
X331617857Y-96571692D01*
X332223571Y-96571692D01*
X329573571Y-97480264D02*
X329725000Y-97404550D01*
X329876428Y-97253121D01*
X330103571Y-97025978D01*
X330255000Y-96950264D01*
X330406428Y-96950264D01*
X330330714Y-97328835D02*
X330482142Y-97253121D01*
X330633571Y-97101692D01*
X330709285Y-96798835D01*
X330709285Y-96268835D01*
X330633571Y-95965978D01*
X330482142Y-95814550D01*
X330330714Y-95738835D01*
X330027857Y-95738835D01*
X329876428Y-95814550D01*
X329725000Y-95965978D01*
X329649285Y-96268835D01*
X329649285Y-96798835D01*
X329725000Y-97101692D01*
X329876428Y-97253121D01*
X330027857Y-97328835D01*
X330330714Y-97328835D01*
X333813571Y-98374450D02*
X333965000Y-98298735D01*
X334192142Y-98298735D01*
X334419285Y-98374450D01*
X334570714Y-98525878D01*
X334646428Y-98677307D01*
X334722142Y-98980164D01*
X334722142Y-99207307D01*
X334646428Y-99510164D01*
X334570714Y-99661592D01*
X334419285Y-99813021D01*
X334192142Y-99888735D01*
X334040714Y-99888735D01*
X333813571Y-99813021D01*
X333737857Y-99737307D01*
X333737857Y-99207307D01*
X334040714Y-99207307D01*
X333056428Y-99888735D02*
X333056428Y-98298735D01*
X332147857Y-99888735D01*
X332147857Y-98298735D01*
X331390714Y-99888735D02*
X331390714Y-98298735D01*
X331012142Y-98298735D01*
X330785000Y-98374450D01*
X330633571Y-98525878D01*
X330557857Y-98677307D01*
X330482142Y-98980164D01*
X330482142Y-99207307D01*
X330557857Y-99510164D01*
X330633571Y-99661592D01*
X330785000Y-99813021D01*
X331012142Y-99888735D01*
X331390714Y-99888735D01*
X344189285Y-70215550D02*
X344340714Y-70139835D01*
X344567857Y-70139835D01*
X344795000Y-70215550D01*
X344946428Y-70366978D01*
X345022142Y-70518407D01*
X345097857Y-70821264D01*
X345097857Y-71048407D01*
X345022142Y-71351264D01*
X344946428Y-71502692D01*
X344795000Y-71654121D01*
X344567857Y-71729835D01*
X344416428Y-71729835D01*
X344189285Y-71654121D01*
X344113571Y-71578407D01*
X344113571Y-71048407D01*
X344416428Y-71048407D01*
X343432142Y-71729835D02*
X343432142Y-70139835D01*
X342523571Y-71729835D01*
X342523571Y-70139835D01*
X341766428Y-71729835D02*
X341766428Y-70139835D01*
X341387857Y-70139835D01*
X341160714Y-70215550D01*
X341009285Y-70366978D01*
X340933571Y-70518407D01*
X340857857Y-70821264D01*
X340857857Y-71048407D01*
X340933571Y-71351264D01*
X341009285Y-71502692D01*
X341160714Y-71654121D01*
X341387857Y-71729835D01*
X341766428Y-71729835D01*
X344189285Y-72775450D02*
X344340714Y-72699735D01*
X344567857Y-72699735D01*
X344795000Y-72775450D01*
X344946428Y-72926878D01*
X345022142Y-73078307D01*
X345097857Y-73381164D01*
X345097857Y-73608307D01*
X345022142Y-73911164D01*
X344946428Y-74062592D01*
X344795000Y-74214021D01*
X344567857Y-74289735D01*
X344416428Y-74289735D01*
X344189285Y-74214021D01*
X344113571Y-74138307D01*
X344113571Y-73608307D01*
X344416428Y-73608307D01*
X343432142Y-74289735D02*
X343432142Y-72699735D01*
X342523571Y-74289735D01*
X342523571Y-72699735D01*
X341766428Y-74289735D02*
X341766428Y-72699735D01*
X341387857Y-72699735D01*
X341160714Y-72775450D01*
X341009285Y-72926878D01*
X340933571Y-73078307D01*
X340857857Y-73381164D01*
X340857857Y-73608307D01*
X340933571Y-73911164D01*
X341009285Y-74062592D01*
X341160714Y-74214021D01*
X341387857Y-74289735D01*
X341766428Y-74289735D01*
X344189285Y-75335350D02*
X344340714Y-75259635D01*
X344567857Y-75259635D01*
X344795000Y-75335350D01*
X344946428Y-75486778D01*
X345022142Y-75638207D01*
X345097857Y-75941064D01*
X345097857Y-76168207D01*
X345022142Y-76471064D01*
X344946428Y-76622492D01*
X344795000Y-76773921D01*
X344567857Y-76849635D01*
X344416428Y-76849635D01*
X344189285Y-76773921D01*
X344113571Y-76698207D01*
X344113571Y-76168207D01*
X344416428Y-76168207D01*
X343432142Y-76849635D02*
X343432142Y-75259635D01*
X342523571Y-76849635D01*
X342523571Y-75259635D01*
X341766428Y-76849635D02*
X341766428Y-75259635D01*
X341387857Y-75259635D01*
X341160714Y-75335350D01*
X341009285Y-75486778D01*
X340933571Y-75638207D01*
X340857857Y-75941064D01*
X340857857Y-76168207D01*
X340933571Y-76471064D01*
X341009285Y-76622492D01*
X341160714Y-76773921D01*
X341387857Y-76849635D01*
X341766428Y-76849635D01*
X347823571Y-79560964D02*
X347975000Y-79485250D01*
X348126428Y-79333821D01*
X348353571Y-79106678D01*
X348505000Y-79030964D01*
X348656428Y-79030964D01*
X348580714Y-79409535D02*
X348732142Y-79333821D01*
X348883571Y-79182392D01*
X348959285Y-78879535D01*
X348959285Y-78349535D01*
X348883571Y-78046678D01*
X348732142Y-77895250D01*
X348580714Y-77819535D01*
X348277857Y-77819535D01*
X348126428Y-77895250D01*
X347975000Y-78046678D01*
X347899285Y-78349535D01*
X347899285Y-78879535D01*
X347975000Y-79182392D01*
X348126428Y-79333821D01*
X348277857Y-79409535D01*
X348580714Y-79409535D01*
X347217857Y-77819535D02*
X347217857Y-79106678D01*
X347142142Y-79258107D01*
X347066428Y-79333821D01*
X346915000Y-79409535D01*
X346612142Y-79409535D01*
X346460714Y-79333821D01*
X346385000Y-79258107D01*
X346309285Y-79106678D01*
X346309285Y-77819535D01*
X344643571Y-79258107D02*
X344719285Y-79333821D01*
X344946428Y-79409535D01*
X345097857Y-79409535D01*
X345325000Y-79333821D01*
X345476428Y-79182392D01*
X345552142Y-79030964D01*
X345627857Y-78728107D01*
X345627857Y-78500964D01*
X345552142Y-78198107D01*
X345476428Y-78046678D01*
X345325000Y-77895250D01*
X345097857Y-77819535D01*
X344946428Y-77819535D01*
X344719285Y-77895250D01*
X344643571Y-77970964D01*
X343735000Y-79409535D02*
X343886428Y-79333821D01*
X343962142Y-79258107D01*
X344037857Y-79106678D01*
X344037857Y-78652392D01*
X343962142Y-78500964D01*
X343886428Y-78425250D01*
X343735000Y-78349535D01*
X343507857Y-78349535D01*
X343356428Y-78425250D01*
X343280714Y-78500964D01*
X343205000Y-78652392D01*
X343205000Y-79106678D01*
X343280714Y-79258107D01*
X343356428Y-79333821D01*
X343507857Y-79409535D01*
X343735000Y-79409535D01*
X341842142Y-78349535D02*
X341842142Y-79409535D01*
X342523571Y-78349535D02*
X342523571Y-79182392D01*
X342447857Y-79333821D01*
X342296428Y-79409535D01*
X342069285Y-79409535D01*
X341917857Y-79333821D01*
X341842142Y-79258107D01*
X341312142Y-78349535D02*
X340706428Y-78349535D01*
X341085000Y-77819535D02*
X341085000Y-79182392D01*
X341009285Y-79333821D01*
X340857857Y-79409535D01*
X340706428Y-79409535D01*
X344189285Y-80455150D02*
X344340714Y-80379435D01*
X344567857Y-80379435D01*
X344795000Y-80455150D01*
X344946428Y-80606578D01*
X345022142Y-80758007D01*
X345097857Y-81060864D01*
X345097857Y-81288007D01*
X345022142Y-81590864D01*
X344946428Y-81742292D01*
X344795000Y-81893721D01*
X344567857Y-81969435D01*
X344416428Y-81969435D01*
X344189285Y-81893721D01*
X344113571Y-81818007D01*
X344113571Y-81288007D01*
X344416428Y-81288007D01*
X343432142Y-81969435D02*
X343432142Y-80379435D01*
X342523571Y-81969435D01*
X342523571Y-80379435D01*
X341766428Y-81969435D02*
X341766428Y-80379435D01*
X341387857Y-80379435D01*
X341160714Y-80455150D01*
X341009285Y-80606578D01*
X340933571Y-80758007D01*
X340857857Y-81060864D01*
X340857857Y-81288007D01*
X340933571Y-81590864D01*
X341009285Y-81742292D01*
X341160714Y-81893721D01*
X341387857Y-81969435D01*
X341766428Y-81969435D01*
X344189285Y-83015050D02*
X344340714Y-82939335D01*
X344567857Y-82939335D01*
X344795000Y-83015050D01*
X344946428Y-83166478D01*
X345022142Y-83317907D01*
X345097857Y-83620764D01*
X345097857Y-83847907D01*
X345022142Y-84150764D01*
X344946428Y-84302192D01*
X344795000Y-84453621D01*
X344567857Y-84529335D01*
X344416428Y-84529335D01*
X344189285Y-84453621D01*
X344113571Y-84377907D01*
X344113571Y-83847907D01*
X344416428Y-83847907D01*
X343432142Y-84529335D02*
X343432142Y-82939335D01*
X342523571Y-84529335D01*
X342523571Y-82939335D01*
X341766428Y-84529335D02*
X341766428Y-82939335D01*
X341387857Y-82939335D01*
X341160714Y-83015050D01*
X341009285Y-83166478D01*
X340933571Y-83317907D01*
X340857857Y-83620764D01*
X340857857Y-83847907D01*
X340933571Y-84150764D01*
X341009285Y-84302192D01*
X341160714Y-84453621D01*
X341387857Y-84529335D01*
X341766428Y-84529335D01*
X344189285Y-85574950D02*
X344340714Y-85499235D01*
X344567857Y-85499235D01*
X344795000Y-85574950D01*
X344946428Y-85726378D01*
X345022142Y-85877807D01*
X345097857Y-86180664D01*
X345097857Y-86407807D01*
X345022142Y-86710664D01*
X344946428Y-86862092D01*
X344795000Y-87013521D01*
X344567857Y-87089235D01*
X344416428Y-87089235D01*
X344189285Y-87013521D01*
X344113571Y-86937807D01*
X344113571Y-86407807D01*
X344416428Y-86407807D01*
X343432142Y-87089235D02*
X343432142Y-85499235D01*
X342523571Y-87089235D01*
X342523571Y-85499235D01*
X341766428Y-87089235D02*
X341766428Y-85499235D01*
X341387857Y-85499235D01*
X341160714Y-85574950D01*
X341009285Y-85726378D01*
X340933571Y-85877807D01*
X340857857Y-86180664D01*
X340857857Y-86407807D01*
X340933571Y-86710664D01*
X341009285Y-86862092D01*
X341160714Y-87013521D01*
X341387857Y-87089235D01*
X341766428Y-87089235D01*
X344189285Y-88134850D02*
X344340714Y-88059135D01*
X344567857Y-88059135D01*
X344795000Y-88134850D01*
X344946428Y-88286278D01*
X345022142Y-88437707D01*
X345097857Y-88740564D01*
X345097857Y-88967707D01*
X345022142Y-89270564D01*
X344946428Y-89421992D01*
X344795000Y-89573421D01*
X344567857Y-89649135D01*
X344416428Y-89649135D01*
X344189285Y-89573421D01*
X344113571Y-89497707D01*
X344113571Y-88967707D01*
X344416428Y-88967707D01*
X343432142Y-89649135D02*
X343432142Y-88059135D01*
X342523571Y-89649135D01*
X342523571Y-88059135D01*
X341766428Y-89649135D02*
X341766428Y-88059135D01*
X341387857Y-88059135D01*
X341160714Y-88134850D01*
X341009285Y-88286278D01*
X340933571Y-88437707D01*
X340857857Y-88740564D01*
X340857857Y-88967707D01*
X340933571Y-89270564D01*
X341009285Y-89421992D01*
X341160714Y-89573421D01*
X341387857Y-89649135D01*
X341766428Y-89649135D01*
X344189285Y-90694750D02*
X344340714Y-90619035D01*
X344567857Y-90619035D01*
X344795000Y-90694750D01*
X344946428Y-90846178D01*
X345022142Y-90997607D01*
X345097857Y-91300464D01*
X345097857Y-91527607D01*
X345022142Y-91830464D01*
X344946428Y-91981892D01*
X344795000Y-92133321D01*
X344567857Y-92209035D01*
X344416428Y-92209035D01*
X344189285Y-92133321D01*
X344113571Y-92057607D01*
X344113571Y-91527607D01*
X344416428Y-91527607D01*
X343432142Y-92209035D02*
X343432142Y-90619035D01*
X342523571Y-92209035D01*
X342523571Y-90619035D01*
X341766428Y-92209035D02*
X341766428Y-90619035D01*
X341387857Y-90619035D01*
X341160714Y-90694750D01*
X341009285Y-90846178D01*
X340933571Y-90997607D01*
X340857857Y-91300464D01*
X340857857Y-91527607D01*
X340933571Y-91830464D01*
X341009285Y-91981892D01*
X341160714Y-92133321D01*
X341387857Y-92209035D01*
X341766428Y-92209035D01*
X347066428Y-94920364D02*
X347217857Y-94844650D01*
X347369285Y-94693221D01*
X347596428Y-94466078D01*
X347747857Y-94390364D01*
X347899285Y-94390364D01*
X347823571Y-94768935D02*
X347975000Y-94693221D01*
X348126428Y-94541792D01*
X348202142Y-94238935D01*
X348202142Y-93708935D01*
X348126428Y-93406078D01*
X347975000Y-93254650D01*
X347823571Y-93178935D01*
X347520714Y-93178935D01*
X347369285Y-93254650D01*
X347217857Y-93406078D01*
X347142142Y-93708935D01*
X347142142Y-94238935D01*
X347217857Y-94541792D01*
X347369285Y-94693221D01*
X347520714Y-94768935D01*
X347823571Y-94768935D01*
X346460714Y-94768935D02*
X346460714Y-93178935D01*
X345703571Y-93708935D02*
X345703571Y-94768935D01*
X345703571Y-93860364D02*
X345627857Y-93784650D01*
X345476428Y-93708935D01*
X345249285Y-93708935D01*
X345097857Y-93784650D01*
X345022142Y-93936078D01*
X345022142Y-94768935D01*
X344492142Y-93708935D02*
X343886428Y-93708935D01*
X344265000Y-93178935D02*
X344265000Y-94541792D01*
X344189285Y-94693221D01*
X344037857Y-94768935D01*
X343886428Y-94768935D01*
X343432142Y-94693221D02*
X343205000Y-94768935D01*
X342826428Y-94768935D01*
X342675000Y-94693221D01*
X342599285Y-94617507D01*
X342523571Y-94466078D01*
X342523571Y-94314650D01*
X342599285Y-94163221D01*
X342675000Y-94087507D01*
X342826428Y-94011792D01*
X343129285Y-93936078D01*
X343280714Y-93860364D01*
X343356428Y-93784650D01*
X343432142Y-93633221D01*
X343432142Y-93481792D01*
X343356428Y-93330364D01*
X343280714Y-93254650D01*
X343129285Y-93178935D01*
X342750714Y-93178935D01*
X342523571Y-93254650D01*
X341993571Y-93708935D02*
X341690714Y-94768935D01*
X341387857Y-94011792D01*
X341085000Y-94768935D01*
X340782142Y-93708935D01*
X345022142Y-97480264D02*
X345173571Y-97404550D01*
X345325000Y-97253121D01*
X345552142Y-97025978D01*
X345703571Y-96950264D01*
X345855000Y-96950264D01*
X345779285Y-97328835D02*
X345930714Y-97253121D01*
X346082142Y-97101692D01*
X346157857Y-96798835D01*
X346157857Y-96268835D01*
X346082142Y-95965978D01*
X345930714Y-95814550D01*
X345779285Y-95738835D01*
X345476428Y-95738835D01*
X345325000Y-95814550D01*
X345173571Y-95965978D01*
X345097857Y-96268835D01*
X345097857Y-96798835D01*
X345173571Y-97101692D01*
X345325000Y-97253121D01*
X345476428Y-97328835D01*
X345779285Y-97328835D01*
X344416428Y-97328835D02*
X344416428Y-95738835D01*
X343507857Y-97328835D01*
X343507857Y-95738835D01*
X342750714Y-97328835D02*
X342750714Y-95738835D01*
X342220714Y-96874550D01*
X341690714Y-95738835D01*
X341690714Y-97328835D01*
X340933571Y-97328835D02*
X340933571Y-95738835D01*
X344189285Y-98374450D02*
X344340714Y-98298735D01*
X344567857Y-98298735D01*
X344795000Y-98374450D01*
X344946428Y-98525878D01*
X345022142Y-98677307D01*
X345097857Y-98980164D01*
X345097857Y-99207307D01*
X345022142Y-99510164D01*
X344946428Y-99661592D01*
X344795000Y-99813021D01*
X344567857Y-99888735D01*
X344416428Y-99888735D01*
X344189285Y-99813021D01*
X344113571Y-99737307D01*
X344113571Y-99207307D01*
X344416428Y-99207307D01*
X343432142Y-99888735D02*
X343432142Y-98298735D01*
X342523571Y-99888735D01*
X342523571Y-98298735D01*
X341766428Y-99888735D02*
X341766428Y-98298735D01*
X341387857Y-98298735D01*
X341160714Y-98374450D01*
X341009285Y-98525878D01*
X340933571Y-98677307D01*
X340857857Y-98980164D01*
X340857857Y-99207307D01*
X340933571Y-99510164D01*
X341009285Y-99661592D01*
X341160714Y-99813021D01*
X341387857Y-99888735D01*
X341766428Y-99888735D01*
X66928809Y-70120000D02*
X67119285Y-70024761D01*
X67405000Y-70024761D01*
X67690714Y-70120000D01*
X67881190Y-70310476D01*
X67976428Y-70500952D01*
X68071666Y-70881904D01*
X68071666Y-71167619D01*
X67976428Y-71548571D01*
X67881190Y-71739047D01*
X67690714Y-71929523D01*
X67405000Y-72024761D01*
X67214523Y-72024761D01*
X66928809Y-71929523D01*
X66833571Y-71834285D01*
X66833571Y-71167619D01*
X67214523Y-71167619D01*
X65976428Y-72024761D02*
X65976428Y-70024761D01*
X64833571Y-72024761D01*
X64833571Y-70024761D01*
X63881190Y-72024761D02*
X63881190Y-70024761D01*
X63405000Y-70024761D01*
X63119285Y-70120000D01*
X62928809Y-70310476D01*
X62833571Y-70500952D01*
X62738333Y-70881904D01*
X62738333Y-71167619D01*
X62833571Y-71548571D01*
X62928809Y-71739047D01*
X63119285Y-71929523D01*
X63405000Y-72024761D01*
X63881190Y-72024761D01*
X370068571Y-105775550D02*
X370220000Y-105699835D01*
X370447142Y-105699835D01*
X370674285Y-105775550D01*
X370825714Y-105926978D01*
X370901428Y-106078407D01*
X370977142Y-106381264D01*
X370977142Y-106608407D01*
X370901428Y-106911264D01*
X370825714Y-107062692D01*
X370674285Y-107214121D01*
X370447142Y-107289835D01*
X370295714Y-107289835D01*
X370068571Y-107214121D01*
X369992857Y-107138407D01*
X369992857Y-106608407D01*
X370295714Y-106608407D01*
X369311428Y-107289835D02*
X369311428Y-105699835D01*
X368402857Y-107289835D01*
X368402857Y-105699835D01*
X367645714Y-107289835D02*
X367645714Y-105699835D01*
X367267142Y-105699835D01*
X367040000Y-105775550D01*
X366888571Y-105926978D01*
X366812857Y-106078407D01*
X366737142Y-106381264D01*
X366737142Y-106608407D01*
X366812857Y-106911264D01*
X366888571Y-107062692D01*
X367040000Y-107214121D01*
X367267142Y-107289835D01*
X367645714Y-107289835D01*
X371280000Y-107810750D02*
X369690000Y-107810750D01*
X369992857Y-109849735D02*
X370522857Y-109092592D01*
X370901428Y-109849735D02*
X370901428Y-108259735D01*
X370295714Y-108259735D01*
X370144285Y-108335450D01*
X370068571Y-108411164D01*
X369992857Y-108562592D01*
X369992857Y-108789735D01*
X370068571Y-108941164D01*
X370144285Y-109016878D01*
X370295714Y-109092592D01*
X370901428Y-109092592D01*
X369690000Y-107810750D02*
X368175714Y-107810750D01*
X369387142Y-109774021D02*
X369160000Y-109849735D01*
X368781428Y-109849735D01*
X368630000Y-109774021D01*
X368554285Y-109698307D01*
X368478571Y-109546878D01*
X368478571Y-109395450D01*
X368554285Y-109244021D01*
X368630000Y-109168307D01*
X368781428Y-109092592D01*
X369084285Y-109016878D01*
X369235714Y-108941164D01*
X369311428Y-108865450D01*
X369387142Y-108714021D01*
X369387142Y-108562592D01*
X369311428Y-108411164D01*
X369235714Y-108335450D01*
X369084285Y-108259735D01*
X368705714Y-108259735D01*
X368478571Y-108335450D01*
X368175714Y-107810750D02*
X366964285Y-107810750D01*
X368024285Y-108259735D02*
X367115714Y-108259735D01*
X367570000Y-109849735D02*
X367570000Y-108259735D01*
X370977142Y-112333921D02*
X370750000Y-112409635D01*
X370371428Y-112409635D01*
X370220000Y-112333921D01*
X370144285Y-112258207D01*
X370068571Y-112106778D01*
X370068571Y-111955350D01*
X370144285Y-111803921D01*
X370220000Y-111728207D01*
X370371428Y-111652492D01*
X370674285Y-111576778D01*
X370825714Y-111501064D01*
X370901428Y-111425350D01*
X370977142Y-111273921D01*
X370977142Y-111122492D01*
X370901428Y-110971064D01*
X370825714Y-110895350D01*
X370674285Y-110819635D01*
X370295714Y-110819635D01*
X370068571Y-110895350D01*
X369387142Y-112409635D02*
X369387142Y-110819635D01*
X368630000Y-112409635D02*
X368630000Y-111349635D01*
X368630000Y-111501064D02*
X368554285Y-111425350D01*
X368402857Y-111349635D01*
X368175714Y-111349635D01*
X368024285Y-111425350D01*
X367948571Y-111576778D01*
X367948571Y-112409635D01*
X367948571Y-111576778D02*
X367872857Y-111425350D01*
X367721428Y-111349635D01*
X367494285Y-111349635D01*
X367342857Y-111425350D01*
X367267142Y-111576778D01*
X367267142Y-112409635D01*
X366510000Y-112409635D02*
X366510000Y-111349635D01*
X366510000Y-111501064D02*
X366434285Y-111425350D01*
X366282857Y-111349635D01*
X366055714Y-111349635D01*
X365904285Y-111425350D01*
X365828571Y-111576778D01*
X365828571Y-112409635D01*
X365828571Y-111576778D02*
X365752857Y-111425350D01*
X365601428Y-111349635D01*
X365374285Y-111349635D01*
X365222857Y-111425350D01*
X365147142Y-111576778D01*
X365147142Y-112409635D01*
X363557142Y-112409635D02*
X364465714Y-112409635D01*
X364011428Y-112409635D02*
X364011428Y-110819635D01*
X364162857Y-111046778D01*
X364314285Y-111198207D01*
X364465714Y-111273921D01*
X370901428Y-114969535D02*
X370901428Y-113379535D01*
X370295714Y-113379535D01*
X370144285Y-113455250D01*
X370068571Y-113530964D01*
X369992857Y-113682392D01*
X369992857Y-113909535D01*
X370068571Y-114060964D01*
X370144285Y-114136678D01*
X370295714Y-114212392D01*
X370901428Y-114212392D01*
X368781428Y-114136678D02*
X369311428Y-114136678D01*
X369311428Y-114969535D02*
X369311428Y-113379535D01*
X368554285Y-113379535D01*
X367948571Y-114363821D02*
X366737142Y-114363821D01*
X366131428Y-113379535D02*
X365752857Y-114969535D01*
X365450000Y-113833821D01*
X365147142Y-114969535D01*
X364768571Y-113379535D01*
X364162857Y-114969535D02*
X364162857Y-113379535D01*
X364162857Y-113985250D02*
X364011428Y-113909535D01*
X363708571Y-113909535D01*
X363557142Y-113985250D01*
X363481428Y-114060964D01*
X363405714Y-114212392D01*
X363405714Y-114666678D01*
X363481428Y-114818107D01*
X363557142Y-114893821D01*
X363708571Y-114969535D01*
X364011428Y-114969535D01*
X364162857Y-114893821D01*
X370901428Y-117529435D02*
X370901428Y-115939435D01*
X370144285Y-116469435D02*
X370144285Y-117529435D01*
X370144285Y-116620864D02*
X370068571Y-116545150D01*
X369917142Y-116469435D01*
X369690000Y-116469435D01*
X369538571Y-116545150D01*
X369462857Y-116696578D01*
X369462857Y-117529435D01*
X368932857Y-116469435D02*
X368327142Y-116469435D01*
X368705714Y-115939435D02*
X368705714Y-117302292D01*
X368630000Y-117453721D01*
X368478571Y-117529435D01*
X368327142Y-117529435D01*
X367797142Y-117529435D02*
X367797142Y-115939435D01*
X367191428Y-115939435D01*
X367040000Y-116015150D01*
X366964285Y-116090864D01*
X366888571Y-116242292D01*
X366888571Y-116469435D01*
X366964285Y-116620864D01*
X367040000Y-116696578D01*
X367191428Y-116772292D01*
X367797142Y-116772292D01*
X365298571Y-117529435D02*
X365828571Y-116772292D01*
X366207142Y-117529435D02*
X366207142Y-115939435D01*
X365601428Y-115939435D01*
X365450000Y-116015150D01*
X365374285Y-116090864D01*
X365298571Y-116242292D01*
X365298571Y-116469435D01*
X365374285Y-116620864D01*
X365450000Y-116696578D01*
X365601428Y-116772292D01*
X366207142Y-116772292D01*
X364390000Y-117529435D02*
X364541428Y-117453721D01*
X364617142Y-117378007D01*
X364692857Y-117226578D01*
X364692857Y-116772292D01*
X364617142Y-116620864D01*
X364541428Y-116545150D01*
X364390000Y-116469435D01*
X364162857Y-116469435D01*
X364011428Y-116545150D01*
X363935714Y-116620864D01*
X363860000Y-116772292D01*
X363860000Y-117226578D01*
X363935714Y-117378007D01*
X364011428Y-117453721D01*
X364162857Y-117529435D01*
X364390000Y-117529435D01*
X362497142Y-116469435D02*
X362497142Y-117756578D01*
X362572857Y-117908007D01*
X362648571Y-117983721D01*
X362800000Y-118059435D01*
X363027142Y-118059435D01*
X363178571Y-117983721D01*
X362497142Y-117453721D02*
X362648571Y-117529435D01*
X362951428Y-117529435D01*
X363102857Y-117453721D01*
X363178571Y-117378007D01*
X363254285Y-117226578D01*
X363254285Y-116772292D01*
X363178571Y-116620864D01*
X363102857Y-116545150D01*
X362951428Y-116469435D01*
X362648571Y-116469435D01*
X362497142Y-116545150D01*
X370977142Y-120013621D02*
X370750000Y-120089335D01*
X370371428Y-120089335D01*
X370220000Y-120013621D01*
X370144285Y-119937907D01*
X370068571Y-119786478D01*
X370068571Y-119635050D01*
X370144285Y-119483621D01*
X370220000Y-119407907D01*
X370371428Y-119332192D01*
X370674285Y-119256478D01*
X370825714Y-119180764D01*
X370901428Y-119105050D01*
X370977142Y-118953621D01*
X370977142Y-118802192D01*
X370901428Y-118650764D01*
X370825714Y-118575050D01*
X370674285Y-118499335D01*
X370295714Y-118499335D01*
X370068571Y-118575050D01*
X368478571Y-119937907D02*
X368554285Y-120013621D01*
X368781428Y-120089335D01*
X368932857Y-120089335D01*
X369160000Y-120013621D01*
X369311428Y-119862192D01*
X369387142Y-119710764D01*
X369462857Y-119407907D01*
X369462857Y-119180764D01*
X369387142Y-118877907D01*
X369311428Y-118726478D01*
X369160000Y-118575050D01*
X368932857Y-118499335D01*
X368781428Y-118499335D01*
X368554285Y-118575050D01*
X368478571Y-118650764D01*
X367570000Y-120089335D02*
X367721428Y-120013621D01*
X367797142Y-119937907D01*
X367872857Y-119786478D01*
X367872857Y-119332192D01*
X367797142Y-119180764D01*
X367721428Y-119105050D01*
X367570000Y-119029335D01*
X367342857Y-119029335D01*
X367191428Y-119105050D01*
X367115714Y-119180764D01*
X367040000Y-119332192D01*
X367040000Y-119786478D01*
X367115714Y-119937907D01*
X367191428Y-120013621D01*
X367342857Y-120089335D01*
X367570000Y-120089335D01*
X365677142Y-119029335D02*
X365677142Y-120089335D01*
X366358571Y-119029335D02*
X366358571Y-119862192D01*
X366282857Y-120013621D01*
X366131428Y-120089335D01*
X365904285Y-120089335D01*
X365752857Y-120013621D01*
X365677142Y-119937907D01*
X365147142Y-119029335D02*
X364541428Y-119029335D01*
X364920000Y-118499335D02*
X364920000Y-119862192D01*
X364844285Y-120013621D01*
X364692857Y-120089335D01*
X364541428Y-120089335D01*
X371052857Y-121059235D02*
X370674285Y-122649235D01*
X370371428Y-121513521D01*
X370068571Y-122649235D01*
X369690000Y-121059235D01*
X369084285Y-121816378D02*
X368554285Y-121816378D01*
X368327142Y-122649235D02*
X369084285Y-122649235D01*
X369084285Y-121059235D01*
X368327142Y-121059235D01*
X370371428Y-124376278D02*
X370144285Y-124451992D01*
X370068571Y-124527707D01*
X369992857Y-124679135D01*
X369992857Y-124906278D01*
X370068571Y-125057707D01*
X370144285Y-125133421D01*
X370295714Y-125209135D01*
X370901428Y-125209135D01*
X370901428Y-123619135D01*
X370371428Y-123619135D01*
X370220000Y-123694850D01*
X370144285Y-123770564D01*
X370068571Y-123921992D01*
X370068571Y-124073421D01*
X370144285Y-124224850D01*
X370220000Y-124300564D01*
X370371428Y-124376278D01*
X370901428Y-124376278D01*
X368478571Y-125209135D02*
X369387142Y-125209135D01*
X368932857Y-125209135D02*
X368932857Y-123619135D01*
X369084285Y-123846278D01*
X369235714Y-123997707D01*
X369387142Y-124073421D01*
X370977142Y-127314750D02*
X370220000Y-127314750D01*
X371128571Y-127769035D02*
X370598571Y-126179035D01*
X370068571Y-127769035D01*
X369614285Y-126330464D02*
X369538571Y-126254750D01*
X369387142Y-126179035D01*
X369008571Y-126179035D01*
X368857142Y-126254750D01*
X368781428Y-126330464D01*
X368705714Y-126481892D01*
X368705714Y-126633321D01*
X368781428Y-126860464D01*
X369690000Y-127769035D01*
X368705714Y-127769035D01*
X370977142Y-129874650D02*
X370220000Y-129874650D01*
X371128571Y-130328935D02*
X370598571Y-128738935D01*
X370068571Y-130328935D01*
X369235714Y-128738935D02*
X369084285Y-128738935D01*
X368932857Y-128814650D01*
X368857142Y-128890364D01*
X368781428Y-129041792D01*
X368705714Y-129344650D01*
X368705714Y-129723221D01*
X368781428Y-130026078D01*
X368857142Y-130177507D01*
X368932857Y-130253221D01*
X369084285Y-130328935D01*
X369235714Y-130328935D01*
X369387142Y-130253221D01*
X369462857Y-130177507D01*
X369538571Y-130026078D01*
X369614285Y-129723221D01*
X369614285Y-129344650D01*
X369538571Y-129041792D01*
X369462857Y-128890364D01*
X369387142Y-128814650D01*
X369235714Y-128738935D01*
X370901428Y-132888835D02*
X370901428Y-131298835D01*
X370522857Y-131298835D01*
X370295714Y-131374550D01*
X370144285Y-131525978D01*
X370068571Y-131677407D01*
X369992857Y-131980264D01*
X369992857Y-132207407D01*
X370068571Y-132510264D01*
X370144285Y-132661692D01*
X370295714Y-132813121D01*
X370522857Y-132888835D01*
X370901428Y-132888835D01*
X368478571Y-132888835D02*
X369387142Y-132888835D01*
X368932857Y-132888835D02*
X368932857Y-131298835D01*
X369084285Y-131525978D01*
X369235714Y-131677407D01*
X369387142Y-131753121D01*
X370068571Y-133934450D02*
X370220000Y-133858735D01*
X370447142Y-133858735D01*
X370674285Y-133934450D01*
X370825714Y-134085878D01*
X370901428Y-134237307D01*
X370977142Y-134540164D01*
X370977142Y-134767307D01*
X370901428Y-135070164D01*
X370825714Y-135221592D01*
X370674285Y-135373021D01*
X370447142Y-135448735D01*
X370295714Y-135448735D01*
X370068571Y-135373021D01*
X369992857Y-135297307D01*
X369992857Y-134767307D01*
X370295714Y-134767307D01*
X369311428Y-135448735D02*
X369311428Y-133858735D01*
X368402857Y-135448735D01*
X368402857Y-133858735D01*
X367645714Y-135448735D02*
X367645714Y-133858735D01*
X367267142Y-133858735D01*
X367040000Y-133934450D01*
X366888571Y-134085878D01*
X366812857Y-134237307D01*
X366737142Y-134540164D01*
X366737142Y-134767307D01*
X366812857Y-135070164D01*
X366888571Y-135221592D01*
X367040000Y-135373021D01*
X367267142Y-135448735D01*
X367645714Y-135448735D01*
M02*
