%TF.GenerationSoftware,KiCad,Pcbnew,6.0.7-f9a2dced07~116~ubuntu20.04.1*%
%TF.CreationDate,2022-09-16T12:59:34+02:00*%
%TF.ProjectId,px16_regfile,70783136-5f72-4656-9766-696c652e6b69,2*%
%TF.SameCoordinates,Original*%
%TF.FileFunction,Paste,Top*%
%TF.FilePolarity,Positive*%
%FSLAX46Y46*%
G04 Gerber Fmt 4.6, Leading zero omitted, Abs format (unit mm)*
G04 Created by KiCad (PCBNEW 6.0.7-f9a2dced07~116~ubuntu20.04.1) date 2022-09-16 12:59:34*
%MOMM*%
%LPD*%
G01*
G04 APERTURE LIST*
G04 Aperture macros list*
%AMRoundRect*
0 Rectangle with rounded corners*
0 $1 Rounding radius*
0 $2 $3 $4 $5 $6 $7 $8 $9 X,Y pos of 4 corners*
0 Add a 4 corners polygon primitive as box body*
4,1,4,$2,$3,$4,$5,$6,$7,$8,$9,$2,$3,0*
0 Add four circle primitives for the rounded corners*
1,1,$1+$1,$2,$3*
1,1,$1+$1,$4,$5*
1,1,$1+$1,$6,$7*
1,1,$1+$1,$8,$9*
0 Add four rect primitives between the rounded corners*
20,1,$1+$1,$2,$3,$4,$5,0*
20,1,$1+$1,$4,$5,$6,$7,0*
20,1,$1+$1,$6,$7,$8,$9,0*
20,1,$1+$1,$8,$9,$2,$3,0*%
G04 Aperture macros list end*
%ADD10RoundRect,0.150000X-0.800000X-0.150000X0.800000X-0.150000X0.800000X0.150000X-0.800000X0.150000X0*%
%ADD11RoundRect,0.150000X-0.875000X-0.150000X0.875000X-0.150000X0.875000X0.150000X-0.875000X0.150000X0*%
G04 APERTURE END LIST*
D10*
%TO.C,U30*%
X119225000Y-313055000D03*
X119225000Y-314325000D03*
X119225000Y-315595000D03*
X119225000Y-316865000D03*
X119225000Y-318135000D03*
X119225000Y-319405000D03*
X119225000Y-320675000D03*
X119225000Y-321945000D03*
X119225000Y-323215000D03*
X119225000Y-324485000D03*
X128425000Y-324485000D03*
X128425000Y-323215000D03*
X128425000Y-321945000D03*
X128425000Y-320675000D03*
X128425000Y-319405000D03*
X128425000Y-318135000D03*
X128425000Y-316865000D03*
X128425000Y-315595000D03*
X128425000Y-314325000D03*
X128425000Y-313055000D03*
%TD*%
%TO.C,U38*%
X175740000Y-132080000D03*
X175740000Y-133350000D03*
X175740000Y-134620000D03*
X175740000Y-135890000D03*
X175740000Y-137160000D03*
X175740000Y-138430000D03*
X175740000Y-139700000D03*
X175740000Y-140970000D03*
X175740000Y-142240000D03*
X175740000Y-143510000D03*
X184940000Y-143510000D03*
X184940000Y-142240000D03*
X184940000Y-140970000D03*
X184940000Y-139700000D03*
X184940000Y-138430000D03*
X184940000Y-137160000D03*
X184940000Y-135890000D03*
X184940000Y-134620000D03*
X184940000Y-133350000D03*
X184940000Y-132080000D03*
%TD*%
D11*
%TO.C,U45*%
X221410000Y-187325000D03*
X221410000Y-188595000D03*
X221410000Y-189865000D03*
X221410000Y-191135000D03*
X221410000Y-192405000D03*
X221410000Y-193675000D03*
X221410000Y-194945000D03*
X221410000Y-196215000D03*
X230710000Y-196215000D03*
X230710000Y-194945000D03*
X230710000Y-193675000D03*
X230710000Y-192405000D03*
X230710000Y-191135000D03*
X230710000Y-189865000D03*
X230710000Y-188595000D03*
X230710000Y-187325000D03*
%TD*%
D10*
%TO.C,U55*%
X206220000Y-242570000D03*
X206220000Y-243840000D03*
X206220000Y-245110000D03*
X206220000Y-246380000D03*
X206220000Y-247650000D03*
X206220000Y-248920000D03*
X206220000Y-250190000D03*
X206220000Y-251460000D03*
X206220000Y-252730000D03*
X206220000Y-254000000D03*
X215420000Y-254000000D03*
X215420000Y-252730000D03*
X215420000Y-251460000D03*
X215420000Y-250190000D03*
X215420000Y-248920000D03*
X215420000Y-247650000D03*
X215420000Y-246380000D03*
X215420000Y-245110000D03*
X215420000Y-243840000D03*
X215420000Y-242570000D03*
%TD*%
%TO.C,U6*%
X119225000Y-92075000D03*
X119225000Y-93345000D03*
X119225000Y-94615000D03*
X119225000Y-95885000D03*
X119225000Y-97155000D03*
X119225000Y-98425000D03*
X119225000Y-99695000D03*
X119225000Y-100965000D03*
X119225000Y-102235000D03*
X119225000Y-103505000D03*
X128425000Y-103505000D03*
X128425000Y-102235000D03*
X128425000Y-100965000D03*
X128425000Y-99695000D03*
X128425000Y-98425000D03*
X128425000Y-97155000D03*
X128425000Y-95885000D03*
X128425000Y-94615000D03*
X128425000Y-93345000D03*
X128425000Y-92075000D03*
%TD*%
%TO.C,U17*%
X103985000Y-202565000D03*
X103985000Y-203835000D03*
X103985000Y-205105000D03*
X103985000Y-206375000D03*
X103985000Y-207645000D03*
X103985000Y-208915000D03*
X103985000Y-210185000D03*
X103985000Y-211455000D03*
X103985000Y-212725000D03*
X103985000Y-213995000D03*
X113185000Y-213995000D03*
X113185000Y-212725000D03*
X113185000Y-211455000D03*
X113185000Y-210185000D03*
X113185000Y-208915000D03*
X113185000Y-207645000D03*
X113185000Y-206375000D03*
X113185000Y-205105000D03*
X113185000Y-203835000D03*
X113185000Y-202565000D03*
%TD*%
%TO.C,U54*%
X206220000Y-313055000D03*
X206220000Y-314325000D03*
X206220000Y-315595000D03*
X206220000Y-316865000D03*
X206220000Y-318135000D03*
X206220000Y-319405000D03*
X206220000Y-320675000D03*
X206220000Y-321945000D03*
X206220000Y-323215000D03*
X206220000Y-324485000D03*
X215420000Y-324485000D03*
X215420000Y-323215000D03*
X215420000Y-321945000D03*
X215420000Y-320675000D03*
X215420000Y-319405000D03*
X215420000Y-318135000D03*
X215420000Y-316865000D03*
X215420000Y-315595000D03*
X215420000Y-314325000D03*
X215420000Y-313055000D03*
%TD*%
%TO.C,U50*%
X175740000Y-202565000D03*
X175740000Y-203835000D03*
X175740000Y-205105000D03*
X175740000Y-206375000D03*
X175740000Y-207645000D03*
X175740000Y-208915000D03*
X175740000Y-210185000D03*
X175740000Y-211455000D03*
X175740000Y-212725000D03*
X175740000Y-213995000D03*
X184940000Y-213995000D03*
X184940000Y-212725000D03*
X184940000Y-211455000D03*
X184940000Y-210185000D03*
X184940000Y-208915000D03*
X184940000Y-207645000D03*
X184940000Y-206375000D03*
X184940000Y-205105000D03*
X184940000Y-203835000D03*
X184940000Y-202565000D03*
%TD*%
D11*
%TO.C,U32*%
X206170000Y-132080000D03*
X206170000Y-133350000D03*
X206170000Y-134620000D03*
X206170000Y-135890000D03*
X206170000Y-137160000D03*
X206170000Y-138430000D03*
X206170000Y-139700000D03*
X215470000Y-139700000D03*
X215470000Y-138430000D03*
X215470000Y-137160000D03*
X215470000Y-135890000D03*
X215470000Y-134620000D03*
X215470000Y-133350000D03*
X215470000Y-132080000D03*
%TD*%
D10*
%TO.C,U23*%
X103985000Y-257810000D03*
X103985000Y-259080000D03*
X103985000Y-260350000D03*
X103985000Y-261620000D03*
X103985000Y-262890000D03*
X103985000Y-264160000D03*
X103985000Y-265430000D03*
X103985000Y-266700000D03*
X103985000Y-267970000D03*
X103985000Y-269240000D03*
X113185000Y-269240000D03*
X113185000Y-267970000D03*
X113185000Y-266700000D03*
X113185000Y-265430000D03*
X113185000Y-264160000D03*
X113185000Y-262890000D03*
X113185000Y-261620000D03*
X113185000Y-260350000D03*
X113185000Y-259080000D03*
X113185000Y-257810000D03*
%TD*%
%TO.C,U8*%
X103985000Y-132080000D03*
X103985000Y-133350000D03*
X103985000Y-134620000D03*
X103985000Y-135890000D03*
X103985000Y-137160000D03*
X103985000Y-138430000D03*
X103985000Y-139700000D03*
X103985000Y-140970000D03*
X103985000Y-142240000D03*
X103985000Y-143510000D03*
X113185000Y-143510000D03*
X113185000Y-142240000D03*
X113185000Y-140970000D03*
X113185000Y-139700000D03*
X113185000Y-138430000D03*
X113185000Y-137160000D03*
X113185000Y-135890000D03*
X113185000Y-134620000D03*
X113185000Y-133350000D03*
X113185000Y-132080000D03*
%TD*%
D11*
%TO.C,U35*%
X206170000Y-116840000D03*
X206170000Y-118110000D03*
X206170000Y-119380000D03*
X206170000Y-120650000D03*
X206170000Y-121920000D03*
X206170000Y-123190000D03*
X206170000Y-124460000D03*
X215470000Y-124460000D03*
X215470000Y-123190000D03*
X215470000Y-121920000D03*
X215470000Y-120650000D03*
X215470000Y-119380000D03*
X215470000Y-118110000D03*
X215470000Y-116840000D03*
%TD*%
D10*
%TO.C,U18*%
X119225000Y-202565000D03*
X119225000Y-203835000D03*
X119225000Y-205105000D03*
X119225000Y-206375000D03*
X119225000Y-207645000D03*
X119225000Y-208915000D03*
X119225000Y-210185000D03*
X119225000Y-211455000D03*
X119225000Y-212725000D03*
X119225000Y-213995000D03*
X128425000Y-213995000D03*
X128425000Y-212725000D03*
X128425000Y-211455000D03*
X128425000Y-210185000D03*
X128425000Y-208915000D03*
X128425000Y-207645000D03*
X128425000Y-206375000D03*
X128425000Y-205105000D03*
X128425000Y-203835000D03*
X128425000Y-202565000D03*
%TD*%
%TO.C,U37*%
X206220000Y-147320000D03*
X206220000Y-148590000D03*
X206220000Y-149860000D03*
X206220000Y-151130000D03*
X206220000Y-152400000D03*
X206220000Y-153670000D03*
X206220000Y-154940000D03*
X206220000Y-156210000D03*
X206220000Y-157480000D03*
X206220000Y-158750000D03*
X215420000Y-158750000D03*
X215420000Y-157480000D03*
X215420000Y-156210000D03*
X215420000Y-154940000D03*
X215420000Y-153670000D03*
X215420000Y-152400000D03*
X215420000Y-151130000D03*
X215420000Y-149860000D03*
X215420000Y-148590000D03*
X215420000Y-147320000D03*
%TD*%
%TO.C,U15*%
X119225000Y-187325000D03*
X119225000Y-188595000D03*
X119225000Y-189865000D03*
X119225000Y-191135000D03*
X119225000Y-192405000D03*
X119225000Y-193675000D03*
X119225000Y-194945000D03*
X119225000Y-196215000D03*
X119225000Y-197485000D03*
X119225000Y-198755000D03*
X128425000Y-198755000D03*
X128425000Y-197485000D03*
X128425000Y-196215000D03*
X128425000Y-194945000D03*
X128425000Y-193675000D03*
X128425000Y-192405000D03*
X128425000Y-191135000D03*
X128425000Y-189865000D03*
X128425000Y-188595000D03*
X128425000Y-187325000D03*
%TD*%
%TO.C,U41*%
X221460000Y-147320000D03*
X221460000Y-148590000D03*
X221460000Y-149860000D03*
X221460000Y-151130000D03*
X221460000Y-152400000D03*
X221460000Y-153670000D03*
X221460000Y-154940000D03*
X221460000Y-156210000D03*
X221460000Y-157480000D03*
X221460000Y-158750000D03*
X230660000Y-158750000D03*
X230660000Y-157480000D03*
X230660000Y-156210000D03*
X230660000Y-154940000D03*
X230660000Y-153670000D03*
X230660000Y-152400000D03*
X230660000Y-151130000D03*
X230660000Y-149860000D03*
X230660000Y-148590000D03*
X230660000Y-147320000D03*
%TD*%
%TO.C,U46*%
X175740000Y-187325000D03*
X175740000Y-188595000D03*
X175740000Y-189865000D03*
X175740000Y-191135000D03*
X175740000Y-192405000D03*
X175740000Y-193675000D03*
X175740000Y-194945000D03*
X175740000Y-196215000D03*
X175740000Y-197485000D03*
X175740000Y-198755000D03*
X184940000Y-198755000D03*
X184940000Y-197485000D03*
X184940000Y-196215000D03*
X184940000Y-194945000D03*
X184940000Y-193675000D03*
X184940000Y-192405000D03*
X184940000Y-191135000D03*
X184940000Y-189865000D03*
X184940000Y-188595000D03*
X184940000Y-187325000D03*
%TD*%
%TO.C,U40*%
X221460000Y-132080000D03*
X221460000Y-133350000D03*
X221460000Y-134620000D03*
X221460000Y-135890000D03*
X221460000Y-137160000D03*
X221460000Y-138430000D03*
X221460000Y-139700000D03*
X221460000Y-140970000D03*
X221460000Y-142240000D03*
X221460000Y-143510000D03*
X230660000Y-143510000D03*
X230660000Y-142240000D03*
X230660000Y-140970000D03*
X230660000Y-139700000D03*
X230660000Y-138430000D03*
X230660000Y-137160000D03*
X230660000Y-135890000D03*
X230660000Y-134620000D03*
X230660000Y-133350000D03*
X230660000Y-132080000D03*
%TD*%
%TO.C,U7*%
X88745000Y-132080000D03*
X88745000Y-133350000D03*
X88745000Y-134620000D03*
X88745000Y-135890000D03*
X88745000Y-137160000D03*
X88745000Y-138430000D03*
X88745000Y-139700000D03*
X88745000Y-140970000D03*
X88745000Y-142240000D03*
X88745000Y-143510000D03*
X97945000Y-143510000D03*
X97945000Y-142240000D03*
X97945000Y-140970000D03*
X97945000Y-139700000D03*
X97945000Y-138430000D03*
X97945000Y-137160000D03*
X97945000Y-135890000D03*
X97945000Y-134620000D03*
X97945000Y-133350000D03*
X97945000Y-132080000D03*
%TD*%
%TO.C,U20*%
X103985000Y-242570000D03*
X103985000Y-243840000D03*
X103985000Y-245110000D03*
X103985000Y-246380000D03*
X103985000Y-247650000D03*
X103985000Y-248920000D03*
X103985000Y-250190000D03*
X103985000Y-251460000D03*
X103985000Y-252730000D03*
X103985000Y-254000000D03*
X113185000Y-254000000D03*
X113185000Y-252730000D03*
X113185000Y-251460000D03*
X113185000Y-250190000D03*
X113185000Y-248920000D03*
X113185000Y-247650000D03*
X113185000Y-246380000D03*
X113185000Y-245110000D03*
X113185000Y-243840000D03*
X113185000Y-242570000D03*
%TD*%
%TO.C,U16*%
X88745000Y-202565000D03*
X88745000Y-203835000D03*
X88745000Y-205105000D03*
X88745000Y-206375000D03*
X88745000Y-207645000D03*
X88745000Y-208915000D03*
X88745000Y-210185000D03*
X88745000Y-211455000D03*
X88745000Y-212725000D03*
X88745000Y-213995000D03*
X97945000Y-213995000D03*
X97945000Y-212725000D03*
X97945000Y-211455000D03*
X97945000Y-210185000D03*
X97945000Y-208915000D03*
X97945000Y-207645000D03*
X97945000Y-206375000D03*
X97945000Y-205105000D03*
X97945000Y-203835000D03*
X97945000Y-202565000D03*
%TD*%
%TO.C,U14*%
X103985000Y-187325000D03*
X103985000Y-188595000D03*
X103985000Y-189865000D03*
X103985000Y-191135000D03*
X103985000Y-192405000D03*
X103985000Y-193675000D03*
X103985000Y-194945000D03*
X103985000Y-196215000D03*
X103985000Y-197485000D03*
X103985000Y-198755000D03*
X113185000Y-198755000D03*
X113185000Y-197485000D03*
X113185000Y-196215000D03*
X113185000Y-194945000D03*
X113185000Y-193675000D03*
X113185000Y-192405000D03*
X113185000Y-191135000D03*
X113185000Y-189865000D03*
X113185000Y-188595000D03*
X113185000Y-187325000D03*
%TD*%
%TO.C,U10*%
X88745000Y-147320000D03*
X88745000Y-148590000D03*
X88745000Y-149860000D03*
X88745000Y-151130000D03*
X88745000Y-152400000D03*
X88745000Y-153670000D03*
X88745000Y-154940000D03*
X88745000Y-156210000D03*
X88745000Y-157480000D03*
X88745000Y-158750000D03*
X97945000Y-158750000D03*
X97945000Y-157480000D03*
X97945000Y-156210000D03*
X97945000Y-154940000D03*
X97945000Y-153670000D03*
X97945000Y-152400000D03*
X97945000Y-151130000D03*
X97945000Y-149860000D03*
X97945000Y-148590000D03*
X97945000Y-147320000D03*
%TD*%
D11*
%TO.C,U36*%
X206170000Y-86360000D03*
X206170000Y-87630000D03*
X206170000Y-88900000D03*
X206170000Y-90170000D03*
X206170000Y-91440000D03*
X206170000Y-92710000D03*
X206170000Y-93980000D03*
X215470000Y-93980000D03*
X215470000Y-92710000D03*
X215470000Y-91440000D03*
X215470000Y-90170000D03*
X215470000Y-88900000D03*
X215470000Y-87630000D03*
X215470000Y-86360000D03*
%TD*%
D10*
%TO.C,U60*%
X175740000Y-313055000D03*
X175740000Y-314325000D03*
X175740000Y-315595000D03*
X175740000Y-316865000D03*
X175740000Y-318135000D03*
X175740000Y-319405000D03*
X175740000Y-320675000D03*
X175740000Y-321945000D03*
X175740000Y-323215000D03*
X175740000Y-324485000D03*
X184940000Y-324485000D03*
X184940000Y-323215000D03*
X184940000Y-321945000D03*
X184940000Y-320675000D03*
X184940000Y-319405000D03*
X184940000Y-318135000D03*
X184940000Y-316865000D03*
X184940000Y-315595000D03*
X184940000Y-314325000D03*
X184940000Y-313055000D03*
%TD*%
%TO.C,U12*%
X119225000Y-147320000D03*
X119225000Y-148590000D03*
X119225000Y-149860000D03*
X119225000Y-151130000D03*
X119225000Y-152400000D03*
X119225000Y-153670000D03*
X119225000Y-154940000D03*
X119225000Y-156210000D03*
X119225000Y-157480000D03*
X119225000Y-158750000D03*
X128425000Y-158750000D03*
X128425000Y-157480000D03*
X128425000Y-156210000D03*
X128425000Y-154940000D03*
X128425000Y-153670000D03*
X128425000Y-152400000D03*
X128425000Y-151130000D03*
X128425000Y-149860000D03*
X128425000Y-148590000D03*
X128425000Y-147320000D03*
%TD*%
%TO.C,U11*%
X103985000Y-147320000D03*
X103985000Y-148590000D03*
X103985000Y-149860000D03*
X103985000Y-151130000D03*
X103985000Y-152400000D03*
X103985000Y-153670000D03*
X103985000Y-154940000D03*
X103985000Y-156210000D03*
X103985000Y-157480000D03*
X103985000Y-158750000D03*
X113185000Y-158750000D03*
X113185000Y-157480000D03*
X113185000Y-156210000D03*
X113185000Y-154940000D03*
X113185000Y-153670000D03*
X113185000Y-152400000D03*
X113185000Y-151130000D03*
X113185000Y-149860000D03*
X113185000Y-148590000D03*
X113185000Y-147320000D03*
%TD*%
D11*
%TO.C,U34*%
X206170000Y-101600000D03*
X206170000Y-102870000D03*
X206170000Y-104140000D03*
X206170000Y-105410000D03*
X206170000Y-106680000D03*
X206170000Y-107950000D03*
X206170000Y-109220000D03*
X206170000Y-110490000D03*
X215470000Y-110490000D03*
X215470000Y-109220000D03*
X215470000Y-107950000D03*
X215470000Y-106680000D03*
X215470000Y-105410000D03*
X215470000Y-104140000D03*
X215470000Y-102870000D03*
X215470000Y-101600000D03*
%TD*%
D10*
%TO.C,U26*%
X103985000Y-297815000D03*
X103985000Y-299085000D03*
X103985000Y-300355000D03*
X103985000Y-301625000D03*
X103985000Y-302895000D03*
X103985000Y-304165000D03*
X103985000Y-305435000D03*
X103985000Y-306705000D03*
X103985000Y-307975000D03*
X103985000Y-309245000D03*
X113185000Y-309245000D03*
X113185000Y-307975000D03*
X113185000Y-306705000D03*
X113185000Y-305435000D03*
X113185000Y-304165000D03*
X113185000Y-302895000D03*
X113185000Y-301625000D03*
X113185000Y-300355000D03*
X113185000Y-299085000D03*
X113185000Y-297815000D03*
%TD*%
%TO.C,U1*%
X88745000Y-76835000D03*
X88745000Y-78105000D03*
X88745000Y-79375000D03*
X88745000Y-80645000D03*
X88745000Y-81915000D03*
X88745000Y-83185000D03*
X88745000Y-84455000D03*
X88745000Y-85725000D03*
X88745000Y-86995000D03*
X88745000Y-88265000D03*
X97945000Y-88265000D03*
X97945000Y-86995000D03*
X97945000Y-85725000D03*
X97945000Y-84455000D03*
X97945000Y-83185000D03*
X97945000Y-81915000D03*
X97945000Y-80645000D03*
X97945000Y-79375000D03*
X97945000Y-78105000D03*
X97945000Y-76835000D03*
%TD*%
%TO.C,U29*%
X103985000Y-313055000D03*
X103985000Y-314325000D03*
X103985000Y-315595000D03*
X103985000Y-316865000D03*
X103985000Y-318135000D03*
X103985000Y-319405000D03*
X103985000Y-320675000D03*
X103985000Y-321945000D03*
X103985000Y-323215000D03*
X103985000Y-324485000D03*
X113185000Y-324485000D03*
X113185000Y-323215000D03*
X113185000Y-321945000D03*
X113185000Y-320675000D03*
X113185000Y-319405000D03*
X113185000Y-318135000D03*
X113185000Y-316865000D03*
X113185000Y-315595000D03*
X113185000Y-314325000D03*
X113185000Y-313055000D03*
%TD*%
%TO.C,U43*%
X190980000Y-147320000D03*
X190980000Y-148590000D03*
X190980000Y-149860000D03*
X190980000Y-151130000D03*
X190980000Y-152400000D03*
X190980000Y-153670000D03*
X190980000Y-154940000D03*
X190980000Y-156210000D03*
X190980000Y-157480000D03*
X190980000Y-158750000D03*
X200180000Y-158750000D03*
X200180000Y-157480000D03*
X200180000Y-156210000D03*
X200180000Y-154940000D03*
X200180000Y-153670000D03*
X200180000Y-152400000D03*
X200180000Y-151130000D03*
X200180000Y-149860000D03*
X200180000Y-148590000D03*
X200180000Y-147320000D03*
%TD*%
%TO.C,U53*%
X206220000Y-297815000D03*
X206220000Y-299085000D03*
X206220000Y-300355000D03*
X206220000Y-301625000D03*
X206220000Y-302895000D03*
X206220000Y-304165000D03*
X206220000Y-305435000D03*
X206220000Y-306705000D03*
X206220000Y-307975000D03*
X206220000Y-309245000D03*
X215420000Y-309245000D03*
X215420000Y-307975000D03*
X215420000Y-306705000D03*
X215420000Y-305435000D03*
X215420000Y-304165000D03*
X215420000Y-302895000D03*
X215420000Y-301625000D03*
X215420000Y-300355000D03*
X215420000Y-299085000D03*
X215420000Y-297815000D03*
%TD*%
%TO.C,U9*%
X119225000Y-132080000D03*
X119225000Y-133350000D03*
X119225000Y-134620000D03*
X119225000Y-135890000D03*
X119225000Y-137160000D03*
X119225000Y-138430000D03*
X119225000Y-139700000D03*
X119225000Y-140970000D03*
X119225000Y-142240000D03*
X119225000Y-143510000D03*
X128425000Y-143510000D03*
X128425000Y-142240000D03*
X128425000Y-140970000D03*
X128425000Y-139700000D03*
X128425000Y-138430000D03*
X128425000Y-137160000D03*
X128425000Y-135890000D03*
X128425000Y-134620000D03*
X128425000Y-133350000D03*
X128425000Y-132080000D03*
%TD*%
%TO.C,U42*%
X175740000Y-147320000D03*
X175740000Y-148590000D03*
X175740000Y-149860000D03*
X175740000Y-151130000D03*
X175740000Y-152400000D03*
X175740000Y-153670000D03*
X175740000Y-154940000D03*
X175740000Y-156210000D03*
X175740000Y-157480000D03*
X175740000Y-158750000D03*
X184940000Y-158750000D03*
X184940000Y-157480000D03*
X184940000Y-156210000D03*
X184940000Y-154940000D03*
X184940000Y-153670000D03*
X184940000Y-152400000D03*
X184940000Y-151130000D03*
X184940000Y-149860000D03*
X184940000Y-148590000D03*
X184940000Y-147320000D03*
%TD*%
%TO.C,U21*%
X119225000Y-242570000D03*
X119225000Y-243840000D03*
X119225000Y-245110000D03*
X119225000Y-246380000D03*
X119225000Y-247650000D03*
X119225000Y-248920000D03*
X119225000Y-250190000D03*
X119225000Y-251460000D03*
X119225000Y-252730000D03*
X119225000Y-254000000D03*
X128425000Y-254000000D03*
X128425000Y-252730000D03*
X128425000Y-251460000D03*
X128425000Y-250190000D03*
X128425000Y-248920000D03*
X128425000Y-247650000D03*
X128425000Y-246380000D03*
X128425000Y-245110000D03*
X128425000Y-243840000D03*
X128425000Y-242570000D03*
%TD*%
D11*
%TO.C,U31*%
X221410000Y-86360000D03*
X221410000Y-87630000D03*
X221410000Y-88900000D03*
X221410000Y-90170000D03*
X221410000Y-91440000D03*
X221410000Y-92710000D03*
X221410000Y-93980000D03*
X221410000Y-95250000D03*
X230710000Y-95250000D03*
X230710000Y-93980000D03*
X230710000Y-92710000D03*
X230710000Y-91440000D03*
X230710000Y-90170000D03*
X230710000Y-88900000D03*
X230710000Y-87630000D03*
X230710000Y-86360000D03*
%TD*%
D10*
%TO.C,U56*%
X206220000Y-257810000D03*
X206220000Y-259080000D03*
X206220000Y-260350000D03*
X206220000Y-261620000D03*
X206220000Y-262890000D03*
X206220000Y-264160000D03*
X206220000Y-265430000D03*
X206220000Y-266700000D03*
X206220000Y-267970000D03*
X206220000Y-269240000D03*
X215420000Y-269240000D03*
X215420000Y-267970000D03*
X215420000Y-266700000D03*
X215420000Y-265430000D03*
X215420000Y-264160000D03*
X215420000Y-262890000D03*
X215420000Y-261620000D03*
X215420000Y-260350000D03*
X215420000Y-259080000D03*
X215420000Y-257810000D03*
%TD*%
%TO.C,U39*%
X190980000Y-132080000D03*
X190980000Y-133350000D03*
X190980000Y-134620000D03*
X190980000Y-135890000D03*
X190980000Y-137160000D03*
X190980000Y-138430000D03*
X190980000Y-139700000D03*
X190980000Y-140970000D03*
X190980000Y-142240000D03*
X190980000Y-143510000D03*
X200180000Y-143510000D03*
X200180000Y-142240000D03*
X200180000Y-140970000D03*
X200180000Y-139700000D03*
X200180000Y-138430000D03*
X200180000Y-137160000D03*
X200180000Y-135890000D03*
X200180000Y-134620000D03*
X200180000Y-133350000D03*
X200180000Y-132080000D03*
%TD*%
%TO.C,U4*%
X88745000Y-92075000D03*
X88745000Y-93345000D03*
X88745000Y-94615000D03*
X88745000Y-95885000D03*
X88745000Y-97155000D03*
X88745000Y-98425000D03*
X88745000Y-99695000D03*
X88745000Y-100965000D03*
X88745000Y-102235000D03*
X88745000Y-103505000D03*
X97945000Y-103505000D03*
X97945000Y-102235000D03*
X97945000Y-100965000D03*
X97945000Y-99695000D03*
X97945000Y-98425000D03*
X97945000Y-97155000D03*
X97945000Y-95885000D03*
X97945000Y-94615000D03*
X97945000Y-93345000D03*
X97945000Y-92075000D03*
%TD*%
D11*
%TO.C,U52*%
X221410000Y-116840000D03*
X221410000Y-118110000D03*
X221410000Y-119380000D03*
X221410000Y-120650000D03*
X221410000Y-121920000D03*
X221410000Y-123190000D03*
X221410000Y-124460000D03*
X230710000Y-124460000D03*
X230710000Y-123190000D03*
X230710000Y-121920000D03*
X230710000Y-120650000D03*
X230710000Y-119380000D03*
X230710000Y-118110000D03*
X230710000Y-116840000D03*
%TD*%
D10*
%TO.C,U5*%
X103985000Y-92075000D03*
X103985000Y-93345000D03*
X103985000Y-94615000D03*
X103985000Y-95885000D03*
X103985000Y-97155000D03*
X103985000Y-98425000D03*
X103985000Y-99695000D03*
X103985000Y-100965000D03*
X103985000Y-102235000D03*
X103985000Y-103505000D03*
X113185000Y-103505000D03*
X113185000Y-102235000D03*
X113185000Y-100965000D03*
X113185000Y-99695000D03*
X113185000Y-98425000D03*
X113185000Y-97155000D03*
X113185000Y-95885000D03*
X113185000Y-94615000D03*
X113185000Y-93345000D03*
X113185000Y-92075000D03*
%TD*%
D11*
%TO.C,U44*%
X206170000Y-187325000D03*
X206170000Y-188595000D03*
X206170000Y-189865000D03*
X206170000Y-191135000D03*
X206170000Y-192405000D03*
X206170000Y-193675000D03*
X206170000Y-194945000D03*
X206170000Y-196215000D03*
X215470000Y-196215000D03*
X215470000Y-194945000D03*
X215470000Y-193675000D03*
X215470000Y-192405000D03*
X215470000Y-191135000D03*
X215470000Y-189865000D03*
X215470000Y-188595000D03*
X215470000Y-187325000D03*
%TD*%
D10*
%TO.C,U24*%
X119225000Y-257810000D03*
X119225000Y-259080000D03*
X119225000Y-260350000D03*
X119225000Y-261620000D03*
X119225000Y-262890000D03*
X119225000Y-264160000D03*
X119225000Y-265430000D03*
X119225000Y-266700000D03*
X119225000Y-267970000D03*
X119225000Y-269240000D03*
X128425000Y-269240000D03*
X128425000Y-267970000D03*
X128425000Y-266700000D03*
X128425000Y-265430000D03*
X128425000Y-264160000D03*
X128425000Y-262890000D03*
X128425000Y-261620000D03*
X128425000Y-260350000D03*
X128425000Y-259080000D03*
X128425000Y-257810000D03*
%TD*%
%TO.C,U2*%
X103985000Y-76835000D03*
X103985000Y-78105000D03*
X103985000Y-79375000D03*
X103985000Y-80645000D03*
X103985000Y-81915000D03*
X103985000Y-83185000D03*
X103985000Y-84455000D03*
X103985000Y-85725000D03*
X103985000Y-86995000D03*
X103985000Y-88265000D03*
X113185000Y-88265000D03*
X113185000Y-86995000D03*
X113185000Y-85725000D03*
X113185000Y-84455000D03*
X113185000Y-83185000D03*
X113185000Y-81915000D03*
X113185000Y-80645000D03*
X113185000Y-79375000D03*
X113185000Y-78105000D03*
X113185000Y-76835000D03*
%TD*%
%TO.C,U28*%
X88745000Y-313055000D03*
X88745000Y-314325000D03*
X88745000Y-315595000D03*
X88745000Y-316865000D03*
X88745000Y-318135000D03*
X88745000Y-319405000D03*
X88745000Y-320675000D03*
X88745000Y-321945000D03*
X88745000Y-323215000D03*
X88745000Y-324485000D03*
X97945000Y-324485000D03*
X97945000Y-323215000D03*
X97945000Y-321945000D03*
X97945000Y-320675000D03*
X97945000Y-319405000D03*
X97945000Y-318135000D03*
X97945000Y-316865000D03*
X97945000Y-315595000D03*
X97945000Y-314325000D03*
X97945000Y-313055000D03*
%TD*%
%TO.C,U25*%
X88745000Y-297815000D03*
X88745000Y-299085000D03*
X88745000Y-300355000D03*
X88745000Y-301625000D03*
X88745000Y-302895000D03*
X88745000Y-304165000D03*
X88745000Y-305435000D03*
X88745000Y-306705000D03*
X88745000Y-307975000D03*
X88745000Y-309245000D03*
X97945000Y-309245000D03*
X97945000Y-307975000D03*
X97945000Y-306705000D03*
X97945000Y-305435000D03*
X97945000Y-304165000D03*
X97945000Y-302895000D03*
X97945000Y-301625000D03*
X97945000Y-300355000D03*
X97945000Y-299085000D03*
X97945000Y-297815000D03*
%TD*%
%TO.C,U47*%
X190980000Y-187325000D03*
X190980000Y-188595000D03*
X190980000Y-189865000D03*
X190980000Y-191135000D03*
X190980000Y-192405000D03*
X190980000Y-193675000D03*
X190980000Y-194945000D03*
X190980000Y-196215000D03*
X190980000Y-197485000D03*
X190980000Y-198755000D03*
X200180000Y-198755000D03*
X200180000Y-197485000D03*
X200180000Y-196215000D03*
X200180000Y-194945000D03*
X200180000Y-193675000D03*
X200180000Y-192405000D03*
X200180000Y-191135000D03*
X200180000Y-189865000D03*
X200180000Y-188595000D03*
X200180000Y-187325000D03*
%TD*%
D11*
%TO.C,U33*%
X221410000Y-101600000D03*
X221410000Y-102870000D03*
X221410000Y-104140000D03*
X221410000Y-105410000D03*
X221410000Y-106680000D03*
X221410000Y-107950000D03*
X221410000Y-109220000D03*
X221410000Y-110490000D03*
X230710000Y-110490000D03*
X230710000Y-109220000D03*
X230710000Y-107950000D03*
X230710000Y-106680000D03*
X230710000Y-105410000D03*
X230710000Y-104140000D03*
X230710000Y-102870000D03*
X230710000Y-101600000D03*
%TD*%
%TO.C,U48*%
X206170000Y-202565000D03*
X206170000Y-203835000D03*
X206170000Y-205105000D03*
X206170000Y-206375000D03*
X206170000Y-207645000D03*
X206170000Y-208915000D03*
X206170000Y-210185000D03*
X206170000Y-211455000D03*
X215470000Y-211455000D03*
X215470000Y-210185000D03*
X215470000Y-208915000D03*
X215470000Y-207645000D03*
X215470000Y-206375000D03*
X215470000Y-205105000D03*
X215470000Y-203835000D03*
X215470000Y-202565000D03*
%TD*%
D10*
%TO.C,U58*%
X175740000Y-257810000D03*
X175740000Y-259080000D03*
X175740000Y-260350000D03*
X175740000Y-261620000D03*
X175740000Y-262890000D03*
X175740000Y-264160000D03*
X175740000Y-265430000D03*
X175740000Y-266700000D03*
X175740000Y-267970000D03*
X175740000Y-269240000D03*
X184940000Y-269240000D03*
X184940000Y-267970000D03*
X184940000Y-266700000D03*
X184940000Y-265430000D03*
X184940000Y-264160000D03*
X184940000Y-262890000D03*
X184940000Y-261620000D03*
X184940000Y-260350000D03*
X184940000Y-259080000D03*
X184940000Y-257810000D03*
%TD*%
%TO.C,U57*%
X175740000Y-242570000D03*
X175740000Y-243840000D03*
X175740000Y-245110000D03*
X175740000Y-246380000D03*
X175740000Y-247650000D03*
X175740000Y-248920000D03*
X175740000Y-250190000D03*
X175740000Y-251460000D03*
X175740000Y-252730000D03*
X175740000Y-254000000D03*
X184940000Y-254000000D03*
X184940000Y-252730000D03*
X184940000Y-251460000D03*
X184940000Y-250190000D03*
X184940000Y-248920000D03*
X184940000Y-247650000D03*
X184940000Y-246380000D03*
X184940000Y-245110000D03*
X184940000Y-243840000D03*
X184940000Y-242570000D03*
%TD*%
D11*
%TO.C,U49*%
X221410000Y-202565000D03*
X221410000Y-203835000D03*
X221410000Y-205105000D03*
X221410000Y-206375000D03*
X221410000Y-207645000D03*
X221410000Y-208915000D03*
X221410000Y-210185000D03*
X221410000Y-211455000D03*
X230710000Y-211455000D03*
X230710000Y-210185000D03*
X230710000Y-208915000D03*
X230710000Y-207645000D03*
X230710000Y-206375000D03*
X230710000Y-205105000D03*
X230710000Y-203835000D03*
X230710000Y-202565000D03*
%TD*%
D10*
%TO.C,U3*%
X119225000Y-76835000D03*
X119225000Y-78105000D03*
X119225000Y-79375000D03*
X119225000Y-80645000D03*
X119225000Y-81915000D03*
X119225000Y-83185000D03*
X119225000Y-84455000D03*
X119225000Y-85725000D03*
X119225000Y-86995000D03*
X119225000Y-88265000D03*
X128425000Y-88265000D03*
X128425000Y-86995000D03*
X128425000Y-85725000D03*
X128425000Y-84455000D03*
X128425000Y-83185000D03*
X128425000Y-81915000D03*
X128425000Y-80645000D03*
X128425000Y-79375000D03*
X128425000Y-78105000D03*
X128425000Y-76835000D03*
%TD*%
%TO.C,U13*%
X88745000Y-187325000D03*
X88745000Y-188595000D03*
X88745000Y-189865000D03*
X88745000Y-191135000D03*
X88745000Y-192405000D03*
X88745000Y-193675000D03*
X88745000Y-194945000D03*
X88745000Y-196215000D03*
X88745000Y-197485000D03*
X88745000Y-198755000D03*
X97945000Y-198755000D03*
X97945000Y-197485000D03*
X97945000Y-196215000D03*
X97945000Y-194945000D03*
X97945000Y-193675000D03*
X97945000Y-192405000D03*
X97945000Y-191135000D03*
X97945000Y-189865000D03*
X97945000Y-188595000D03*
X97945000Y-187325000D03*
%TD*%
%TO.C,U27*%
X119225000Y-297815000D03*
X119225000Y-299085000D03*
X119225000Y-300355000D03*
X119225000Y-301625000D03*
X119225000Y-302895000D03*
X119225000Y-304165000D03*
X119225000Y-305435000D03*
X119225000Y-306705000D03*
X119225000Y-307975000D03*
X119225000Y-309245000D03*
X128425000Y-309245000D03*
X128425000Y-307975000D03*
X128425000Y-306705000D03*
X128425000Y-305435000D03*
X128425000Y-304165000D03*
X128425000Y-302895000D03*
X128425000Y-301625000D03*
X128425000Y-300355000D03*
X128425000Y-299085000D03*
X128425000Y-297815000D03*
%TD*%
%TO.C,U19*%
X88745000Y-242570000D03*
X88745000Y-243840000D03*
X88745000Y-245110000D03*
X88745000Y-246380000D03*
X88745000Y-247650000D03*
X88745000Y-248920000D03*
X88745000Y-250190000D03*
X88745000Y-251460000D03*
X88745000Y-252730000D03*
X88745000Y-254000000D03*
X97945000Y-254000000D03*
X97945000Y-252730000D03*
X97945000Y-251460000D03*
X97945000Y-250190000D03*
X97945000Y-248920000D03*
X97945000Y-247650000D03*
X97945000Y-246380000D03*
X97945000Y-245110000D03*
X97945000Y-243840000D03*
X97945000Y-242570000D03*
%TD*%
%TO.C,U59*%
X175740000Y-297815000D03*
X175740000Y-299085000D03*
X175740000Y-300355000D03*
X175740000Y-301625000D03*
X175740000Y-302895000D03*
X175740000Y-304165000D03*
X175740000Y-305435000D03*
X175740000Y-306705000D03*
X175740000Y-307975000D03*
X175740000Y-309245000D03*
X184940000Y-309245000D03*
X184940000Y-307975000D03*
X184940000Y-306705000D03*
X184940000Y-305435000D03*
X184940000Y-304165000D03*
X184940000Y-302895000D03*
X184940000Y-301625000D03*
X184940000Y-300355000D03*
X184940000Y-299085000D03*
X184940000Y-297815000D03*
%TD*%
%TO.C,U51*%
X190980000Y-202565000D03*
X190980000Y-203835000D03*
X190980000Y-205105000D03*
X190980000Y-206375000D03*
X190980000Y-207645000D03*
X190980000Y-208915000D03*
X190980000Y-210185000D03*
X190980000Y-211455000D03*
X190980000Y-212725000D03*
X190980000Y-213995000D03*
X200180000Y-213995000D03*
X200180000Y-212725000D03*
X200180000Y-211455000D03*
X200180000Y-210185000D03*
X200180000Y-208915000D03*
X200180000Y-207645000D03*
X200180000Y-206375000D03*
X200180000Y-205105000D03*
X200180000Y-203835000D03*
X200180000Y-202565000D03*
%TD*%
%TO.C,U22*%
X88745000Y-257810000D03*
X88745000Y-259080000D03*
X88745000Y-260350000D03*
X88745000Y-261620000D03*
X88745000Y-262890000D03*
X88745000Y-264160000D03*
X88745000Y-265430000D03*
X88745000Y-266700000D03*
X88745000Y-267970000D03*
X88745000Y-269240000D03*
X97945000Y-269240000D03*
X97945000Y-267970000D03*
X97945000Y-266700000D03*
X97945000Y-265430000D03*
X97945000Y-264160000D03*
X97945000Y-262890000D03*
X97945000Y-261620000D03*
X97945000Y-260350000D03*
X97945000Y-259080000D03*
X97945000Y-257810000D03*
%TD*%
M02*
