%TF.GenerationSoftware,KiCad,Pcbnew,6.0.7-f9a2dced07~116~ubuntu20.04.1*%
%TF.CreationDate,2022-09-16T12:59:34+02:00*%
%TF.ProjectId,px16_regfile,70783136-5f72-4656-9766-696c652e6b69,2*%
%TF.SameCoordinates,Original*%
%TF.FileFunction,Legend,Bot*%
%TF.FilePolarity,Positive*%
%FSLAX46Y46*%
G04 Gerber Fmt 4.6, Leading zero omitted, Abs format (unit mm)*
G04 Created by KiCad (PCBNEW 6.0.7-f9a2dced07~116~ubuntu20.04.1) date 2022-09-16 12:59:34*
%MOMM*%
%LPD*%
G01*
G04 APERTURE LIST*
%ADD10C,0.254000*%
%ADD11C,0.300000*%
G04 APERTURE END LIST*
D10*
X281319642Y-324357746D02*
X281469623Y-324282755D01*
X281694595Y-324282755D01*
X281919566Y-324357746D01*
X282069547Y-324507726D01*
X282144538Y-324657707D01*
X282219528Y-324957669D01*
X282219528Y-325182641D01*
X282144538Y-325482603D01*
X282069547Y-325632584D01*
X281919566Y-325782565D01*
X281694595Y-325857555D01*
X281544614Y-325857555D01*
X281319642Y-325782565D01*
X281244652Y-325707574D01*
X281244652Y-325182641D01*
X281544614Y-325182641D01*
X280569738Y-325857555D02*
X280569738Y-324282755D01*
X279669852Y-325857555D01*
X279669852Y-324282755D01*
X278919947Y-325857555D02*
X278919947Y-324282755D01*
X278544995Y-324282755D01*
X278320023Y-324357746D01*
X278170042Y-324507726D01*
X278095052Y-324657707D01*
X278020061Y-324957669D01*
X278020061Y-325182641D01*
X278095052Y-325482603D01*
X278170042Y-325632584D01*
X278320023Y-325782565D01*
X278544995Y-325857555D01*
X278919947Y-325857555D01*
X281319642Y-326893174D02*
X281469623Y-326818183D01*
X281694595Y-326818183D01*
X281919566Y-326893174D01*
X282069547Y-327043154D01*
X282144538Y-327193135D01*
X282219528Y-327493097D01*
X282219528Y-327718069D01*
X282144538Y-328018031D01*
X282069547Y-328168012D01*
X281919566Y-328317993D01*
X281694595Y-328392983D01*
X281544614Y-328392983D01*
X281319642Y-328317993D01*
X281244652Y-328243002D01*
X281244652Y-327718069D01*
X281544614Y-327718069D01*
X280569738Y-328392983D02*
X280569738Y-326818183D01*
X279669852Y-328392983D01*
X279669852Y-326818183D01*
X278919947Y-328392983D02*
X278919947Y-326818183D01*
X278544995Y-326818183D01*
X278320023Y-326893174D01*
X278170042Y-327043154D01*
X278095052Y-327193135D01*
X278020061Y-327493097D01*
X278020061Y-327718069D01*
X278095052Y-328018031D01*
X278170042Y-328168012D01*
X278320023Y-328317993D01*
X278544995Y-328392983D01*
X278919947Y-328392983D01*
X281319642Y-329428602D02*
X281469623Y-329353611D01*
X281694595Y-329353611D01*
X281919566Y-329428602D01*
X282069547Y-329578582D01*
X282144538Y-329728563D01*
X282219528Y-330028525D01*
X282219528Y-330253497D01*
X282144538Y-330553459D01*
X282069547Y-330703440D01*
X281919566Y-330853421D01*
X281694595Y-330928411D01*
X281544614Y-330928411D01*
X281319642Y-330853421D01*
X281244652Y-330778430D01*
X281244652Y-330253497D01*
X281544614Y-330253497D01*
X280569738Y-330928411D02*
X280569738Y-329353611D01*
X279669852Y-330928411D01*
X279669852Y-329353611D01*
X278919947Y-330928411D02*
X278919947Y-329353611D01*
X278544995Y-329353611D01*
X278320023Y-329428602D01*
X278170042Y-329578582D01*
X278095052Y-329728563D01*
X278020061Y-330028525D01*
X278020061Y-330253497D01*
X278095052Y-330553459D01*
X278170042Y-330703440D01*
X278320023Y-330853421D01*
X278544995Y-330928411D01*
X278919947Y-330928411D01*
X281844576Y-333463839D02*
X281844576Y-331889039D01*
X281469623Y-331889039D01*
X281244652Y-331964030D01*
X281094671Y-332114010D01*
X281019680Y-332263991D01*
X280944690Y-332563953D01*
X280944690Y-332788925D01*
X281019680Y-333088887D01*
X281094671Y-333238868D01*
X281244652Y-333388849D01*
X281469623Y-333463839D01*
X281844576Y-333463839D01*
X280269776Y-333463839D02*
X280269776Y-331889039D01*
X280269776Y-332488963D02*
X280119795Y-332413972D01*
X279819833Y-332413972D01*
X279669852Y-332488963D01*
X279594861Y-332563953D01*
X279519871Y-332713934D01*
X279519871Y-333163877D01*
X279594861Y-333313858D01*
X279669852Y-333388849D01*
X279819833Y-333463839D01*
X280119795Y-333463839D01*
X280269776Y-333388849D01*
X278020061Y-333463839D02*
X278919947Y-333463839D01*
X278470004Y-333463839D02*
X278470004Y-331889039D01*
X278619985Y-332114010D01*
X278769966Y-332263991D01*
X278919947Y-332338982D01*
X281844576Y-335999267D02*
X281844576Y-334424467D01*
X281469623Y-334424467D01*
X281244652Y-334499458D01*
X281094671Y-334649438D01*
X281019680Y-334799419D01*
X280944690Y-335099381D01*
X280944690Y-335324353D01*
X281019680Y-335624315D01*
X281094671Y-335774296D01*
X281244652Y-335924277D01*
X281469623Y-335999267D01*
X281844576Y-335999267D01*
X280269776Y-335999267D02*
X280269776Y-334424467D01*
X280269776Y-335024391D02*
X280119795Y-334949400D01*
X279819833Y-334949400D01*
X279669852Y-335024391D01*
X279594861Y-335099381D01*
X279519871Y-335249362D01*
X279519871Y-335699305D01*
X279594861Y-335849286D01*
X279669852Y-335924277D01*
X279819833Y-335999267D01*
X280119795Y-335999267D01*
X280269776Y-335924277D01*
X278994938Y-334424467D02*
X278020061Y-334424467D01*
X278544995Y-335024391D01*
X278320023Y-335024391D01*
X278170042Y-335099381D01*
X278095052Y-335174372D01*
X278020061Y-335324353D01*
X278020061Y-335699305D01*
X278095052Y-335849286D01*
X278170042Y-335924277D01*
X278320023Y-335999267D01*
X278769966Y-335999267D01*
X278919947Y-335924277D01*
X278994938Y-335849286D01*
X281844576Y-338534695D02*
X281844576Y-336959895D01*
X281469623Y-336959895D01*
X281244652Y-337034886D01*
X281094671Y-337184866D01*
X281019680Y-337334847D01*
X280944690Y-337634809D01*
X280944690Y-337859781D01*
X281019680Y-338159743D01*
X281094671Y-338309724D01*
X281244652Y-338459705D01*
X281469623Y-338534695D01*
X281844576Y-338534695D01*
X280269776Y-338534695D02*
X280269776Y-336959895D01*
X280269776Y-337559819D02*
X280119795Y-337484828D01*
X279819833Y-337484828D01*
X279669852Y-337559819D01*
X279594861Y-337634809D01*
X279519871Y-337784790D01*
X279519871Y-338234733D01*
X279594861Y-338384714D01*
X279669852Y-338459705D01*
X279819833Y-338534695D01*
X280119795Y-338534695D01*
X280269776Y-338459705D01*
X278095052Y-336959895D02*
X278844957Y-336959895D01*
X278919947Y-337709800D01*
X278844957Y-337634809D01*
X278694976Y-337559819D01*
X278320023Y-337559819D01*
X278170042Y-337634809D01*
X278095052Y-337709800D01*
X278020061Y-337859781D01*
X278020061Y-338234733D01*
X278095052Y-338384714D01*
X278170042Y-338459705D01*
X278320023Y-338534695D01*
X278694976Y-338534695D01*
X278844957Y-338459705D01*
X278919947Y-338384714D01*
X281844576Y-341070123D02*
X281844576Y-339495323D01*
X281469623Y-339495323D01*
X281244652Y-339570314D01*
X281094671Y-339720294D01*
X281019680Y-339870275D01*
X280944690Y-340170237D01*
X280944690Y-340395209D01*
X281019680Y-340695171D01*
X281094671Y-340845152D01*
X281244652Y-340995133D01*
X281469623Y-341070123D01*
X281844576Y-341070123D01*
X280269776Y-341070123D02*
X280269776Y-339495323D01*
X280269776Y-340095247D02*
X280119795Y-340020256D01*
X279819833Y-340020256D01*
X279669852Y-340095247D01*
X279594861Y-340170237D01*
X279519871Y-340320218D01*
X279519871Y-340770161D01*
X279594861Y-340920142D01*
X279669852Y-340995133D01*
X279819833Y-341070123D01*
X280119795Y-341070123D01*
X280269776Y-340995133D01*
X278994938Y-339495323D02*
X277945071Y-339495323D01*
X278619985Y-341070123D01*
X281844576Y-343605551D02*
X281844576Y-342030751D01*
X281469623Y-342030751D01*
X281244652Y-342105742D01*
X281094671Y-342255722D01*
X281019680Y-342405703D01*
X280944690Y-342705665D01*
X280944690Y-342930637D01*
X281019680Y-343230599D01*
X281094671Y-343380580D01*
X281244652Y-343530561D01*
X281469623Y-343605551D01*
X281844576Y-343605551D01*
X280269776Y-343605551D02*
X280269776Y-342030751D01*
X280269776Y-342630675D02*
X280119795Y-342555684D01*
X279819833Y-342555684D01*
X279669852Y-342630675D01*
X279594861Y-342705665D01*
X279519871Y-342855646D01*
X279519871Y-343305589D01*
X279594861Y-343455570D01*
X279669852Y-343530561D01*
X279819833Y-343605551D01*
X280119795Y-343605551D01*
X280269776Y-343530561D01*
X278769966Y-343605551D02*
X278470004Y-343605551D01*
X278320023Y-343530561D01*
X278245033Y-343455570D01*
X278095052Y-343230599D01*
X278020061Y-342930637D01*
X278020061Y-342330713D01*
X278095052Y-342180732D01*
X278170042Y-342105742D01*
X278320023Y-342030751D01*
X278619985Y-342030751D01*
X278769966Y-342105742D01*
X278844957Y-342180732D01*
X278919947Y-342330713D01*
X278919947Y-342705665D01*
X278844957Y-342855646D01*
X278769966Y-342930637D01*
X278619985Y-343005627D01*
X278320023Y-343005627D01*
X278170042Y-342930637D01*
X278095052Y-342855646D01*
X278020061Y-342705665D01*
X283344385Y-346140979D02*
X283344385Y-344566179D01*
X282969433Y-344566179D01*
X282744461Y-344641170D01*
X282594480Y-344791150D01*
X282519490Y-344941131D01*
X282444500Y-345241093D01*
X282444500Y-345466065D01*
X282519490Y-345766027D01*
X282594480Y-345916008D01*
X282744461Y-346065989D01*
X282969433Y-346140979D01*
X283344385Y-346140979D01*
X281769585Y-346140979D02*
X281769585Y-344566179D01*
X281769585Y-345166103D02*
X281619604Y-345091112D01*
X281319642Y-345091112D01*
X281169661Y-345166103D01*
X281094671Y-345241093D01*
X281019680Y-345391074D01*
X281019680Y-345841017D01*
X281094671Y-345990998D01*
X281169661Y-346065989D01*
X281319642Y-346140979D01*
X281619604Y-346140979D01*
X281769585Y-346065989D01*
X279519871Y-346140979D02*
X280419757Y-346140979D01*
X279969814Y-346140979D02*
X279969814Y-344566179D01*
X280119795Y-344791150D01*
X280269776Y-344941131D01*
X280419757Y-345016122D01*
X278020061Y-346140979D02*
X278919947Y-346140979D01*
X278470004Y-346140979D02*
X278470004Y-344566179D01*
X278619985Y-344791150D01*
X278769966Y-344941131D01*
X278919947Y-345016122D01*
X283344385Y-348676407D02*
X283344385Y-347101607D01*
X282969433Y-347101607D01*
X282744461Y-347176598D01*
X282594480Y-347326578D01*
X282519490Y-347476559D01*
X282444500Y-347776521D01*
X282444500Y-348001493D01*
X282519490Y-348301455D01*
X282594480Y-348451436D01*
X282744461Y-348601417D01*
X282969433Y-348676407D01*
X283344385Y-348676407D01*
X281769585Y-348676407D02*
X281769585Y-347101607D01*
X281769585Y-347701531D02*
X281619604Y-347626540D01*
X281319642Y-347626540D01*
X281169661Y-347701531D01*
X281094671Y-347776521D01*
X281019680Y-347926502D01*
X281019680Y-348376445D01*
X281094671Y-348526426D01*
X281169661Y-348601417D01*
X281319642Y-348676407D01*
X281619604Y-348676407D01*
X281769585Y-348601417D01*
X279519871Y-348676407D02*
X280419757Y-348676407D01*
X279969814Y-348676407D02*
X279969814Y-347101607D01*
X280119795Y-347326578D01*
X280269776Y-347476559D01*
X280419757Y-347551550D01*
X278994938Y-347101607D02*
X278020061Y-347101607D01*
X278544995Y-347701531D01*
X278320023Y-347701531D01*
X278170042Y-347776521D01*
X278095052Y-347851512D01*
X278020061Y-348001493D01*
X278020061Y-348376445D01*
X278095052Y-348526426D01*
X278170042Y-348601417D01*
X278320023Y-348676407D01*
X278769966Y-348676407D01*
X278919947Y-348601417D01*
X278994938Y-348526426D01*
X283344385Y-351211835D02*
X283344385Y-349637035D01*
X282969433Y-349637035D01*
X282744461Y-349712026D01*
X282594480Y-349862006D01*
X282519490Y-350011987D01*
X282444500Y-350311949D01*
X282444500Y-350536921D01*
X282519490Y-350836883D01*
X282594480Y-350986864D01*
X282744461Y-351136845D01*
X282969433Y-351211835D01*
X283344385Y-351211835D01*
X281769585Y-351211835D02*
X281769585Y-349637035D01*
X281769585Y-350236959D02*
X281619604Y-350161968D01*
X281319642Y-350161968D01*
X281169661Y-350236959D01*
X281094671Y-350311949D01*
X281019680Y-350461930D01*
X281019680Y-350911873D01*
X281094671Y-351061854D01*
X281169661Y-351136845D01*
X281319642Y-351211835D01*
X281619604Y-351211835D01*
X281769585Y-351136845D01*
X279519871Y-351211835D02*
X280419757Y-351211835D01*
X279969814Y-351211835D02*
X279969814Y-349637035D01*
X280119795Y-349862006D01*
X280269776Y-350011987D01*
X280419757Y-350086978D01*
X278095052Y-349637035D02*
X278844957Y-349637035D01*
X278919947Y-350386940D01*
X278844957Y-350311949D01*
X278694976Y-350236959D01*
X278320023Y-350236959D01*
X278170042Y-350311949D01*
X278095052Y-350386940D01*
X278020061Y-350536921D01*
X278020061Y-350911873D01*
X278095052Y-351061854D01*
X278170042Y-351136845D01*
X278320023Y-351211835D01*
X278694976Y-351211835D01*
X278844957Y-351136845D01*
X278919947Y-351061854D01*
X281319642Y-352247454D02*
X281469623Y-352172463D01*
X281694595Y-352172463D01*
X281919566Y-352247454D01*
X282069547Y-352397434D01*
X282144538Y-352547415D01*
X282219528Y-352847377D01*
X282219528Y-353072349D01*
X282144538Y-353372311D01*
X282069547Y-353522292D01*
X281919566Y-353672273D01*
X281694595Y-353747263D01*
X281544614Y-353747263D01*
X281319642Y-353672273D01*
X281244652Y-353597282D01*
X281244652Y-353072349D01*
X281544614Y-353072349D01*
X280569738Y-353747263D02*
X280569738Y-352172463D01*
X279669852Y-353747263D01*
X279669852Y-352172463D01*
X278919947Y-353747263D02*
X278919947Y-352172463D01*
X278544995Y-352172463D01*
X278320023Y-352247454D01*
X278170042Y-352397434D01*
X278095052Y-352547415D01*
X278020061Y-352847377D01*
X278020061Y-353072349D01*
X278095052Y-353372311D01*
X278170042Y-353522292D01*
X278320023Y-353672273D01*
X278544995Y-353747263D01*
X278919947Y-353747263D01*
X271050052Y-324357746D02*
X271200033Y-324282755D01*
X271425004Y-324282755D01*
X271649976Y-324357746D01*
X271799957Y-324507726D01*
X271874947Y-324657707D01*
X271949938Y-324957669D01*
X271949938Y-325182641D01*
X271874947Y-325482603D01*
X271799957Y-325632584D01*
X271649976Y-325782565D01*
X271425004Y-325857555D01*
X271275023Y-325857555D01*
X271050052Y-325782565D01*
X270975061Y-325707574D01*
X270975061Y-325182641D01*
X271275023Y-325182641D01*
X270300147Y-325857555D02*
X270300147Y-324282755D01*
X269400261Y-325857555D01*
X269400261Y-324282755D01*
X268650357Y-325857555D02*
X268650357Y-324282755D01*
X268275404Y-324282755D01*
X268050433Y-324357746D01*
X267900452Y-324507726D01*
X267825461Y-324657707D01*
X267750471Y-324957669D01*
X267750471Y-325182641D01*
X267825461Y-325482603D01*
X267900452Y-325632584D01*
X268050433Y-325782565D01*
X268275404Y-325857555D01*
X268650357Y-325857555D01*
X271050052Y-326893174D02*
X271200033Y-326818183D01*
X271425004Y-326818183D01*
X271649976Y-326893174D01*
X271799957Y-327043154D01*
X271874947Y-327193135D01*
X271949938Y-327493097D01*
X271949938Y-327718069D01*
X271874947Y-328018031D01*
X271799957Y-328168012D01*
X271649976Y-328317993D01*
X271425004Y-328392983D01*
X271275023Y-328392983D01*
X271050052Y-328317993D01*
X270975061Y-328243002D01*
X270975061Y-327718069D01*
X271275023Y-327718069D01*
X270300147Y-328392983D02*
X270300147Y-326818183D01*
X269400261Y-328392983D01*
X269400261Y-326818183D01*
X268650357Y-328392983D02*
X268650357Y-326818183D01*
X268275404Y-326818183D01*
X268050433Y-326893174D01*
X267900452Y-327043154D01*
X267825461Y-327193135D01*
X267750471Y-327493097D01*
X267750471Y-327718069D01*
X267825461Y-328018031D01*
X267900452Y-328168012D01*
X268050433Y-328317993D01*
X268275404Y-328392983D01*
X268650357Y-328392983D01*
X271050052Y-329428602D02*
X271200033Y-329353611D01*
X271425004Y-329353611D01*
X271649976Y-329428602D01*
X271799957Y-329578582D01*
X271874947Y-329728563D01*
X271949938Y-330028525D01*
X271949938Y-330253497D01*
X271874947Y-330553459D01*
X271799957Y-330703440D01*
X271649976Y-330853421D01*
X271425004Y-330928411D01*
X271275023Y-330928411D01*
X271050052Y-330853421D01*
X270975061Y-330778430D01*
X270975061Y-330253497D01*
X271275023Y-330253497D01*
X270300147Y-330928411D02*
X270300147Y-329353611D01*
X269400261Y-330928411D01*
X269400261Y-329353611D01*
X268650357Y-330928411D02*
X268650357Y-329353611D01*
X268275404Y-329353611D01*
X268050433Y-329428602D01*
X267900452Y-329578582D01*
X267825461Y-329728563D01*
X267750471Y-330028525D01*
X267750471Y-330253497D01*
X267825461Y-330553459D01*
X267900452Y-330703440D01*
X268050433Y-330853421D01*
X268275404Y-330928411D01*
X268650357Y-330928411D01*
X271874947Y-333463839D02*
X271874947Y-331889039D01*
X271499995Y-331889039D01*
X271275023Y-331964030D01*
X271125042Y-332114010D01*
X271050052Y-332263991D01*
X270975061Y-332563953D01*
X270975061Y-332788925D01*
X271050052Y-333088887D01*
X271125042Y-333238868D01*
X271275023Y-333388849D01*
X271499995Y-333463839D01*
X271874947Y-333463839D01*
X270300147Y-333463839D02*
X270300147Y-331889039D01*
X270300147Y-332488963D02*
X270150166Y-332413972D01*
X269850204Y-332413972D01*
X269700223Y-332488963D01*
X269625233Y-332563953D01*
X269550242Y-332713934D01*
X269550242Y-333163877D01*
X269625233Y-333313858D01*
X269700223Y-333388849D01*
X269850204Y-333463839D01*
X270150166Y-333463839D01*
X270300147Y-333388849D01*
X268575366Y-331889039D02*
X268425385Y-331889039D01*
X268275404Y-331964030D01*
X268200414Y-332039020D01*
X268125423Y-332189001D01*
X268050433Y-332488963D01*
X268050433Y-332863915D01*
X268125423Y-333163877D01*
X268200414Y-333313858D01*
X268275404Y-333388849D01*
X268425385Y-333463839D01*
X268575366Y-333463839D01*
X268725347Y-333388849D01*
X268800338Y-333313858D01*
X268875328Y-333163877D01*
X268950319Y-332863915D01*
X268950319Y-332488963D01*
X268875328Y-332189001D01*
X268800338Y-332039020D01*
X268725347Y-331964030D01*
X268575366Y-331889039D01*
X271874947Y-335999267D02*
X271874947Y-334424467D01*
X271499995Y-334424467D01*
X271275023Y-334499458D01*
X271125042Y-334649438D01*
X271050052Y-334799419D01*
X270975061Y-335099381D01*
X270975061Y-335324353D01*
X271050052Y-335624315D01*
X271125042Y-335774296D01*
X271275023Y-335924277D01*
X271499995Y-335999267D01*
X271874947Y-335999267D01*
X270300147Y-335999267D02*
X270300147Y-334424467D01*
X270300147Y-335024391D02*
X270150166Y-334949400D01*
X269850204Y-334949400D01*
X269700223Y-335024391D01*
X269625233Y-335099381D01*
X269550242Y-335249362D01*
X269550242Y-335699305D01*
X269625233Y-335849286D01*
X269700223Y-335924277D01*
X269850204Y-335999267D01*
X270150166Y-335999267D01*
X270300147Y-335924277D01*
X268950319Y-334574448D02*
X268875328Y-334499458D01*
X268725347Y-334424467D01*
X268350395Y-334424467D01*
X268200414Y-334499458D01*
X268125423Y-334574448D01*
X268050433Y-334724429D01*
X268050433Y-334874410D01*
X268125423Y-335099381D01*
X269025309Y-335999267D01*
X268050433Y-335999267D01*
X271874947Y-338534695D02*
X271874947Y-336959895D01*
X271499995Y-336959895D01*
X271275023Y-337034886D01*
X271125042Y-337184866D01*
X271050052Y-337334847D01*
X270975061Y-337634809D01*
X270975061Y-337859781D01*
X271050052Y-338159743D01*
X271125042Y-338309724D01*
X271275023Y-338459705D01*
X271499995Y-338534695D01*
X271874947Y-338534695D01*
X270300147Y-338534695D02*
X270300147Y-336959895D01*
X270300147Y-337559819D02*
X270150166Y-337484828D01*
X269850204Y-337484828D01*
X269700223Y-337559819D01*
X269625233Y-337634809D01*
X269550242Y-337784790D01*
X269550242Y-338234733D01*
X269625233Y-338384714D01*
X269700223Y-338459705D01*
X269850204Y-338534695D01*
X270150166Y-338534695D01*
X270300147Y-338459705D01*
X268200414Y-337484828D02*
X268200414Y-338534695D01*
X268575366Y-336884905D02*
X268950319Y-338009762D01*
X267975442Y-338009762D01*
X271874947Y-341070123D02*
X271874947Y-339495323D01*
X271499995Y-339495323D01*
X271275023Y-339570314D01*
X271125042Y-339720294D01*
X271050052Y-339870275D01*
X270975061Y-340170237D01*
X270975061Y-340395209D01*
X271050052Y-340695171D01*
X271125042Y-340845152D01*
X271275023Y-340995133D01*
X271499995Y-341070123D01*
X271874947Y-341070123D01*
X270300147Y-341070123D02*
X270300147Y-339495323D01*
X270300147Y-340095247D02*
X270150166Y-340020256D01*
X269850204Y-340020256D01*
X269700223Y-340095247D01*
X269625233Y-340170237D01*
X269550242Y-340320218D01*
X269550242Y-340770161D01*
X269625233Y-340920142D01*
X269700223Y-340995133D01*
X269850204Y-341070123D01*
X270150166Y-341070123D01*
X270300147Y-340995133D01*
X268200414Y-339495323D02*
X268500376Y-339495323D01*
X268650357Y-339570314D01*
X268725347Y-339645304D01*
X268875328Y-339870275D01*
X268950319Y-340170237D01*
X268950319Y-340770161D01*
X268875328Y-340920142D01*
X268800338Y-340995133D01*
X268650357Y-341070123D01*
X268350395Y-341070123D01*
X268200414Y-340995133D01*
X268125423Y-340920142D01*
X268050433Y-340770161D01*
X268050433Y-340395209D01*
X268125423Y-340245228D01*
X268200414Y-340170237D01*
X268350395Y-340095247D01*
X268650357Y-340095247D01*
X268800338Y-340170237D01*
X268875328Y-340245228D01*
X268950319Y-340395209D01*
X271874947Y-343605551D02*
X271874947Y-342030751D01*
X271499995Y-342030751D01*
X271275023Y-342105742D01*
X271125042Y-342255722D01*
X271050052Y-342405703D01*
X270975061Y-342705665D01*
X270975061Y-342930637D01*
X271050052Y-343230599D01*
X271125042Y-343380580D01*
X271275023Y-343530561D01*
X271499995Y-343605551D01*
X271874947Y-343605551D01*
X270300147Y-343605551D02*
X270300147Y-342030751D01*
X270300147Y-342630675D02*
X270150166Y-342555684D01*
X269850204Y-342555684D01*
X269700223Y-342630675D01*
X269625233Y-342705665D01*
X269550242Y-342855646D01*
X269550242Y-343305589D01*
X269625233Y-343455570D01*
X269700223Y-343530561D01*
X269850204Y-343605551D01*
X270150166Y-343605551D01*
X270300147Y-343530561D01*
X268650357Y-342705665D02*
X268800338Y-342630675D01*
X268875328Y-342555684D01*
X268950319Y-342405703D01*
X268950319Y-342330713D01*
X268875328Y-342180732D01*
X268800338Y-342105742D01*
X268650357Y-342030751D01*
X268350395Y-342030751D01*
X268200414Y-342105742D01*
X268125423Y-342180732D01*
X268050433Y-342330713D01*
X268050433Y-342405703D01*
X268125423Y-342555684D01*
X268200414Y-342630675D01*
X268350395Y-342705665D01*
X268650357Y-342705665D01*
X268800338Y-342780656D01*
X268875328Y-342855646D01*
X268950319Y-343005627D01*
X268950319Y-343305589D01*
X268875328Y-343455570D01*
X268800338Y-343530561D01*
X268650357Y-343605551D01*
X268350395Y-343605551D01*
X268200414Y-343530561D01*
X268125423Y-343455570D01*
X268050433Y-343305589D01*
X268050433Y-343005627D01*
X268125423Y-342855646D01*
X268200414Y-342780656D01*
X268350395Y-342705665D01*
X271874947Y-346140979D02*
X271874947Y-344566179D01*
X271499995Y-344566179D01*
X271275023Y-344641170D01*
X271125042Y-344791150D01*
X271050052Y-344941131D01*
X270975061Y-345241093D01*
X270975061Y-345466065D01*
X271050052Y-345766027D01*
X271125042Y-345916008D01*
X271275023Y-346065989D01*
X271499995Y-346140979D01*
X271874947Y-346140979D01*
X270300147Y-346140979D02*
X270300147Y-344566179D01*
X270300147Y-345166103D02*
X270150166Y-345091112D01*
X269850204Y-345091112D01*
X269700223Y-345166103D01*
X269625233Y-345241093D01*
X269550242Y-345391074D01*
X269550242Y-345841017D01*
X269625233Y-345990998D01*
X269700223Y-346065989D01*
X269850204Y-346140979D01*
X270150166Y-346140979D01*
X270300147Y-346065989D01*
X268050433Y-346140979D02*
X268950319Y-346140979D01*
X268500376Y-346140979D02*
X268500376Y-344566179D01*
X268650357Y-344791150D01*
X268800338Y-344941131D01*
X268950319Y-345016122D01*
X267075557Y-344566179D02*
X266925576Y-344566179D01*
X266775595Y-344641170D01*
X266700604Y-344716160D01*
X266625614Y-344866141D01*
X266550623Y-345166103D01*
X266550623Y-345541055D01*
X266625614Y-345841017D01*
X266700604Y-345990998D01*
X266775595Y-346065989D01*
X266925576Y-346140979D01*
X267075557Y-346140979D01*
X267225538Y-346065989D01*
X267300528Y-345990998D01*
X267375519Y-345841017D01*
X267450509Y-345541055D01*
X267450509Y-345166103D01*
X267375519Y-344866141D01*
X267300528Y-344716160D01*
X267225538Y-344641170D01*
X267075557Y-344566179D01*
X271874947Y-348676407D02*
X271874947Y-347101607D01*
X271499995Y-347101607D01*
X271275023Y-347176598D01*
X271125042Y-347326578D01*
X271050052Y-347476559D01*
X270975061Y-347776521D01*
X270975061Y-348001493D01*
X271050052Y-348301455D01*
X271125042Y-348451436D01*
X271275023Y-348601417D01*
X271499995Y-348676407D01*
X271874947Y-348676407D01*
X270300147Y-348676407D02*
X270300147Y-347101607D01*
X270300147Y-347701531D02*
X270150166Y-347626540D01*
X269850204Y-347626540D01*
X269700223Y-347701531D01*
X269625233Y-347776521D01*
X269550242Y-347926502D01*
X269550242Y-348376445D01*
X269625233Y-348526426D01*
X269700223Y-348601417D01*
X269850204Y-348676407D01*
X270150166Y-348676407D01*
X270300147Y-348601417D01*
X268050433Y-348676407D02*
X268950319Y-348676407D01*
X268500376Y-348676407D02*
X268500376Y-347101607D01*
X268650357Y-347326578D01*
X268800338Y-347476559D01*
X268950319Y-347551550D01*
X267450509Y-347251588D02*
X267375519Y-347176598D01*
X267225538Y-347101607D01*
X266850585Y-347101607D01*
X266700604Y-347176598D01*
X266625614Y-347251588D01*
X266550623Y-347401569D01*
X266550623Y-347551550D01*
X266625614Y-347776521D01*
X267525500Y-348676407D01*
X266550623Y-348676407D01*
X271874947Y-351211835D02*
X271874947Y-349637035D01*
X271499995Y-349637035D01*
X271275023Y-349712026D01*
X271125042Y-349862006D01*
X271050052Y-350011987D01*
X270975061Y-350311949D01*
X270975061Y-350536921D01*
X271050052Y-350836883D01*
X271125042Y-350986864D01*
X271275023Y-351136845D01*
X271499995Y-351211835D01*
X271874947Y-351211835D01*
X270300147Y-351211835D02*
X270300147Y-349637035D01*
X270300147Y-350236959D02*
X270150166Y-350161968D01*
X269850204Y-350161968D01*
X269700223Y-350236959D01*
X269625233Y-350311949D01*
X269550242Y-350461930D01*
X269550242Y-350911873D01*
X269625233Y-351061854D01*
X269700223Y-351136845D01*
X269850204Y-351211835D01*
X270150166Y-351211835D01*
X270300147Y-351136845D01*
X268050433Y-351211835D02*
X268950319Y-351211835D01*
X268500376Y-351211835D02*
X268500376Y-349637035D01*
X268650357Y-349862006D01*
X268800338Y-350011987D01*
X268950319Y-350086978D01*
X266700604Y-350161968D02*
X266700604Y-351211835D01*
X267075557Y-349562045D02*
X267450509Y-350686902D01*
X266475633Y-350686902D01*
X271050052Y-352247454D02*
X271200033Y-352172463D01*
X271425004Y-352172463D01*
X271649976Y-352247454D01*
X271799957Y-352397434D01*
X271874947Y-352547415D01*
X271949938Y-352847377D01*
X271949938Y-353072349D01*
X271874947Y-353372311D01*
X271799957Y-353522292D01*
X271649976Y-353672273D01*
X271425004Y-353747263D01*
X271275023Y-353747263D01*
X271050052Y-353672273D01*
X270975061Y-353597282D01*
X270975061Y-353072349D01*
X271275023Y-353072349D01*
X270300147Y-353747263D02*
X270300147Y-352172463D01*
X269400261Y-353747263D01*
X269400261Y-352172463D01*
X268650357Y-353747263D02*
X268650357Y-352172463D01*
X268275404Y-352172463D01*
X268050433Y-352247454D01*
X267900452Y-352397434D01*
X267825461Y-352547415D01*
X267750471Y-352847377D01*
X267750471Y-353072349D01*
X267825461Y-353372311D01*
X267900452Y-353522292D01*
X268050433Y-353672273D01*
X268275404Y-353747263D01*
X268650357Y-353747263D01*
X271050052Y-139572746D02*
X271200033Y-139497755D01*
X271425004Y-139497755D01*
X271649976Y-139572746D01*
X271799957Y-139722726D01*
X271874947Y-139872707D01*
X271949938Y-140172669D01*
X271949938Y-140397641D01*
X271874947Y-140697603D01*
X271799957Y-140847584D01*
X271649976Y-140997565D01*
X271425004Y-141072555D01*
X271275023Y-141072555D01*
X271050052Y-140997565D01*
X270975061Y-140922574D01*
X270975061Y-140397641D01*
X271275023Y-140397641D01*
X270300147Y-141072555D02*
X270300147Y-139497755D01*
X269400261Y-141072555D01*
X269400261Y-139497755D01*
X268650357Y-141072555D02*
X268650357Y-139497755D01*
X268275404Y-139497755D01*
X268050433Y-139572746D01*
X267900452Y-139722726D01*
X267825461Y-139872707D01*
X267750471Y-140172669D01*
X267750471Y-140397641D01*
X267825461Y-140697603D01*
X267900452Y-140847584D01*
X268050433Y-140997565D01*
X268275404Y-141072555D01*
X268650357Y-141072555D01*
X271050052Y-142108174D02*
X271200033Y-142033183D01*
X271425004Y-142033183D01*
X271649976Y-142108174D01*
X271799957Y-142258154D01*
X271874947Y-142408135D01*
X271949938Y-142708097D01*
X271949938Y-142933069D01*
X271874947Y-143233031D01*
X271799957Y-143383012D01*
X271649976Y-143532993D01*
X271425004Y-143607983D01*
X271275023Y-143607983D01*
X271050052Y-143532993D01*
X270975061Y-143458002D01*
X270975061Y-142933069D01*
X271275023Y-142933069D01*
X270300147Y-143607983D02*
X270300147Y-142033183D01*
X269400261Y-143607983D01*
X269400261Y-142033183D01*
X268650357Y-143607983D02*
X268650357Y-142033183D01*
X268275404Y-142033183D01*
X268050433Y-142108174D01*
X267900452Y-142258154D01*
X267825461Y-142408135D01*
X267750471Y-142708097D01*
X267750471Y-142933069D01*
X267825461Y-143233031D01*
X267900452Y-143383012D01*
X268050433Y-143532993D01*
X268275404Y-143607983D01*
X268650357Y-143607983D01*
X271050052Y-144643602D02*
X271200033Y-144568611D01*
X271425004Y-144568611D01*
X271649976Y-144643602D01*
X271799957Y-144793582D01*
X271874947Y-144943563D01*
X271949938Y-145243525D01*
X271949938Y-145468497D01*
X271874947Y-145768459D01*
X271799957Y-145918440D01*
X271649976Y-146068421D01*
X271425004Y-146143411D01*
X271275023Y-146143411D01*
X271050052Y-146068421D01*
X270975061Y-145993430D01*
X270975061Y-145468497D01*
X271275023Y-145468497D01*
X270300147Y-146143411D02*
X270300147Y-144568611D01*
X269400261Y-146143411D01*
X269400261Y-144568611D01*
X268650357Y-146143411D02*
X268650357Y-144568611D01*
X268275404Y-144568611D01*
X268050433Y-144643602D01*
X267900452Y-144793582D01*
X267825461Y-144943563D01*
X267750471Y-145243525D01*
X267750471Y-145468497D01*
X267825461Y-145768459D01*
X267900452Y-145918440D01*
X268050433Y-146068421D01*
X268275404Y-146143411D01*
X268650357Y-146143411D01*
X270825080Y-148828820D02*
X270975061Y-148753830D01*
X271125042Y-148603849D01*
X271350014Y-148378877D01*
X271499995Y-148303887D01*
X271649976Y-148303887D01*
X271574985Y-148678839D02*
X271724966Y-148603849D01*
X271874947Y-148453868D01*
X271949938Y-148153906D01*
X271949938Y-147628972D01*
X271874947Y-147329010D01*
X271724966Y-147179030D01*
X271574985Y-147104039D01*
X271275023Y-147104039D01*
X271125042Y-147179030D01*
X270975061Y-147329010D01*
X270900071Y-147628972D01*
X270900071Y-148153906D01*
X270975061Y-148453868D01*
X271125042Y-148603849D01*
X271275023Y-148678839D01*
X271574985Y-148678839D01*
X270300147Y-148603849D02*
X270075176Y-148678839D01*
X269700223Y-148678839D01*
X269550242Y-148603849D01*
X269475252Y-148528858D01*
X269400261Y-148378877D01*
X269400261Y-148228896D01*
X269475252Y-148078915D01*
X269550242Y-148003925D01*
X269700223Y-147928934D01*
X270000185Y-147853944D01*
X270150166Y-147778953D01*
X270225157Y-147703963D01*
X270300147Y-147553982D01*
X270300147Y-147404001D01*
X270225157Y-147254020D01*
X270150166Y-147179030D01*
X270000185Y-147104039D01*
X269625233Y-147104039D01*
X269400261Y-147179030D01*
X267825461Y-148528858D02*
X267900452Y-148603849D01*
X268125423Y-148678839D01*
X268275404Y-148678839D01*
X268500376Y-148603849D01*
X268650357Y-148453868D01*
X268725347Y-148303887D01*
X268800338Y-148003925D01*
X268800338Y-147778953D01*
X268725347Y-147478991D01*
X268650357Y-147329010D01*
X268500376Y-147179030D01*
X268275404Y-147104039D01*
X268125423Y-147104039D01*
X267900452Y-147179030D01*
X267825461Y-147254020D01*
X266925576Y-148678839D02*
X267075557Y-148603849D01*
X267150547Y-148528858D01*
X267225538Y-148378877D01*
X267225538Y-147928934D01*
X267150547Y-147778953D01*
X267075557Y-147703963D01*
X266925576Y-147628972D01*
X266700604Y-147628972D01*
X266550623Y-147703963D01*
X266475633Y-147778953D01*
X266400642Y-147928934D01*
X266400642Y-148378877D01*
X266475633Y-148528858D01*
X266550623Y-148603849D01*
X266700604Y-148678839D01*
X266925576Y-148678839D01*
X265050814Y-147628972D02*
X265050814Y-148678839D01*
X265725728Y-147628972D02*
X265725728Y-148453868D01*
X265650738Y-148603849D01*
X265500757Y-148678839D01*
X265275785Y-148678839D01*
X265125804Y-148603849D01*
X265050814Y-148528858D01*
X264525880Y-147628972D02*
X263925957Y-147628972D01*
X264300909Y-147104039D02*
X264300909Y-148453868D01*
X264225919Y-148603849D01*
X264075938Y-148678839D01*
X263925957Y-148678839D01*
X270825080Y-151364248D02*
X270975061Y-151289258D01*
X271125042Y-151139277D01*
X271350014Y-150914305D01*
X271499995Y-150839315D01*
X271649976Y-150839315D01*
X271574985Y-151214267D02*
X271724966Y-151139277D01*
X271874947Y-150989296D01*
X271949938Y-150689334D01*
X271949938Y-150164400D01*
X271874947Y-149864438D01*
X271724966Y-149714458D01*
X271574985Y-149639467D01*
X271275023Y-149639467D01*
X271125042Y-149714458D01*
X270975061Y-149864438D01*
X270900071Y-150164400D01*
X270900071Y-150689334D01*
X270975061Y-150989296D01*
X271125042Y-151139277D01*
X271275023Y-151214267D01*
X271574985Y-151214267D01*
X270375138Y-149639467D02*
X269325271Y-149639467D01*
X270375138Y-151214267D01*
X269325271Y-151214267D01*
X268125423Y-151139277D02*
X268275404Y-151214267D01*
X268575366Y-151214267D01*
X268725347Y-151139277D01*
X268800338Y-150989296D01*
X268800338Y-150389372D01*
X268725347Y-150239391D01*
X268575366Y-150164400D01*
X268275404Y-150164400D01*
X268125423Y-150239391D01*
X268050433Y-150389372D01*
X268050433Y-150539353D01*
X268800338Y-150689334D01*
X267375519Y-151214267D02*
X267375519Y-150164400D01*
X267375519Y-150464362D02*
X267300528Y-150314381D01*
X267225538Y-150239391D01*
X267075557Y-150164400D01*
X266925576Y-150164400D01*
X266175671Y-151214267D02*
X266325652Y-151139277D01*
X266400642Y-151064286D01*
X266475633Y-150914305D01*
X266475633Y-150464362D01*
X266400642Y-150314381D01*
X266325652Y-150239391D01*
X266175671Y-150164400D01*
X265950700Y-150164400D01*
X265800719Y-150239391D01*
X265725728Y-150314381D01*
X265650738Y-150464362D01*
X265650738Y-150914305D01*
X265725728Y-151064286D01*
X265800719Y-151139277D01*
X265950700Y-151214267D01*
X266175671Y-151214267D01*
X271050052Y-152249886D02*
X271200033Y-152174895D01*
X271425004Y-152174895D01*
X271649976Y-152249886D01*
X271799957Y-152399866D01*
X271874947Y-152549847D01*
X271949938Y-152849809D01*
X271949938Y-153074781D01*
X271874947Y-153374743D01*
X271799957Y-153524724D01*
X271649976Y-153674705D01*
X271425004Y-153749695D01*
X271275023Y-153749695D01*
X271050052Y-153674705D01*
X270975061Y-153599714D01*
X270975061Y-153074781D01*
X271275023Y-153074781D01*
X270300147Y-153749695D02*
X270300147Y-152174895D01*
X269400261Y-153749695D01*
X269400261Y-152174895D01*
X268650357Y-153749695D02*
X268650357Y-152174895D01*
X268275404Y-152174895D01*
X268050433Y-152249886D01*
X267900452Y-152399866D01*
X267825461Y-152549847D01*
X267750471Y-152849809D01*
X267750471Y-153074781D01*
X267825461Y-153374743D01*
X267900452Y-153524724D01*
X268050433Y-153674705D01*
X268275404Y-153749695D01*
X268650357Y-153749695D01*
X271050052Y-154785314D02*
X271200033Y-154710323D01*
X271425004Y-154710323D01*
X271649976Y-154785314D01*
X271799957Y-154935294D01*
X271874947Y-155085275D01*
X271949938Y-155385237D01*
X271949938Y-155610209D01*
X271874947Y-155910171D01*
X271799957Y-156060152D01*
X271649976Y-156210133D01*
X271425004Y-156285123D01*
X271275023Y-156285123D01*
X271050052Y-156210133D01*
X270975061Y-156135142D01*
X270975061Y-155610209D01*
X271275023Y-155610209D01*
X270300147Y-156285123D02*
X270300147Y-154710323D01*
X269400261Y-156285123D01*
X269400261Y-154710323D01*
X268650357Y-156285123D02*
X268650357Y-154710323D01*
X268275404Y-154710323D01*
X268050433Y-154785314D01*
X267900452Y-154935294D01*
X267825461Y-155085275D01*
X267750471Y-155385237D01*
X267750471Y-155610209D01*
X267825461Y-155910171D01*
X267900452Y-156060152D01*
X268050433Y-156210133D01*
X268275404Y-156285123D01*
X268650357Y-156285123D01*
X271050052Y-157320742D02*
X271200033Y-157245751D01*
X271425004Y-157245751D01*
X271649976Y-157320742D01*
X271799957Y-157470722D01*
X271874947Y-157620703D01*
X271949938Y-157920665D01*
X271949938Y-158145637D01*
X271874947Y-158445599D01*
X271799957Y-158595580D01*
X271649976Y-158745561D01*
X271425004Y-158820551D01*
X271275023Y-158820551D01*
X271050052Y-158745561D01*
X270975061Y-158670570D01*
X270975061Y-158145637D01*
X271275023Y-158145637D01*
X270300147Y-158820551D02*
X270300147Y-157245751D01*
X269400261Y-158820551D01*
X269400261Y-157245751D01*
X268650357Y-158820551D02*
X268650357Y-157245751D01*
X268275404Y-157245751D01*
X268050433Y-157320742D01*
X267900452Y-157470722D01*
X267825461Y-157620703D01*
X267750471Y-157920665D01*
X267750471Y-158145637D01*
X267825461Y-158445599D01*
X267900452Y-158595580D01*
X268050433Y-158745561D01*
X268275404Y-158820551D01*
X268650357Y-158820551D01*
X271050052Y-159856170D02*
X271200033Y-159781179D01*
X271425004Y-159781179D01*
X271649976Y-159856170D01*
X271799957Y-160006150D01*
X271874947Y-160156131D01*
X271949938Y-160456093D01*
X271949938Y-160681065D01*
X271874947Y-160981027D01*
X271799957Y-161131008D01*
X271649976Y-161280989D01*
X271425004Y-161355979D01*
X271275023Y-161355979D01*
X271050052Y-161280989D01*
X270975061Y-161205998D01*
X270975061Y-160681065D01*
X271275023Y-160681065D01*
X270300147Y-161355979D02*
X270300147Y-159781179D01*
X269400261Y-161355979D01*
X269400261Y-159781179D01*
X268650357Y-161355979D02*
X268650357Y-159781179D01*
X268275404Y-159781179D01*
X268050433Y-159856170D01*
X267900452Y-160006150D01*
X267825461Y-160156131D01*
X267750471Y-160456093D01*
X267750471Y-160681065D01*
X267825461Y-160981027D01*
X267900452Y-161131008D01*
X268050433Y-161280989D01*
X268275404Y-161355979D01*
X268650357Y-161355979D01*
X270825080Y-164041388D02*
X270975061Y-163966398D01*
X271125042Y-163816417D01*
X271350014Y-163591445D01*
X271499995Y-163516455D01*
X271649976Y-163516455D01*
X271574985Y-163891407D02*
X271724966Y-163816417D01*
X271874947Y-163666436D01*
X271949938Y-163366474D01*
X271949938Y-162841540D01*
X271874947Y-162541578D01*
X271724966Y-162391598D01*
X271574985Y-162316607D01*
X271275023Y-162316607D01*
X271125042Y-162391598D01*
X270975061Y-162541578D01*
X270900071Y-162841540D01*
X270900071Y-163366474D01*
X270975061Y-163666436D01*
X271125042Y-163816417D01*
X271275023Y-163891407D01*
X271574985Y-163891407D01*
X270225157Y-163891407D02*
X270225157Y-162316607D01*
X269475252Y-162841540D02*
X269475252Y-163891407D01*
X269475252Y-162991521D02*
X269400261Y-162916531D01*
X269250280Y-162841540D01*
X269025309Y-162841540D01*
X268875328Y-162916531D01*
X268800338Y-163066512D01*
X268800338Y-163891407D01*
X268275404Y-162841540D02*
X267675480Y-162841540D01*
X268050433Y-162316607D02*
X268050433Y-163666436D01*
X267975442Y-163816417D01*
X267825461Y-163891407D01*
X267675480Y-163891407D01*
X267150547Y-163891407D02*
X267150547Y-162316607D01*
X266550623Y-162316607D01*
X266400642Y-162391598D01*
X266325652Y-162466588D01*
X266250661Y-162616569D01*
X266250661Y-162841540D01*
X266325652Y-162991521D01*
X266400642Y-163066512D01*
X266550623Y-163141502D01*
X267150547Y-163141502D01*
X265575747Y-163891407D02*
X265575747Y-162841540D01*
X265575747Y-163141502D02*
X265500757Y-162991521D01*
X265425766Y-162916531D01*
X265275785Y-162841540D01*
X265125804Y-162841540D01*
X264375900Y-163891407D02*
X264525880Y-163816417D01*
X264600871Y-163741426D01*
X264675861Y-163591445D01*
X264675861Y-163141502D01*
X264600871Y-162991521D01*
X264525880Y-162916531D01*
X264375900Y-162841540D01*
X264150928Y-162841540D01*
X264000947Y-162916531D01*
X263925957Y-162991521D01*
X263850966Y-163141502D01*
X263850966Y-163591445D01*
X263925957Y-163741426D01*
X264000947Y-163816417D01*
X264150928Y-163891407D01*
X264375900Y-163891407D01*
X262501138Y-162841540D02*
X262501138Y-164116378D01*
X262576128Y-164266359D01*
X262651119Y-164341350D01*
X262801100Y-164416340D01*
X263026071Y-164416340D01*
X263176052Y-164341350D01*
X262501138Y-163816417D02*
X262651119Y-163891407D01*
X262951080Y-163891407D01*
X263101061Y-163816417D01*
X263176052Y-163741426D01*
X263251042Y-163591445D01*
X263251042Y-163141502D01*
X263176052Y-162991521D01*
X263101061Y-162916531D01*
X262951080Y-162841540D01*
X262651119Y-162841540D01*
X262501138Y-162916531D01*
X270825080Y-166576816D02*
X270975061Y-166501826D01*
X271125042Y-166351845D01*
X271350014Y-166126873D01*
X271499995Y-166051883D01*
X271649976Y-166051883D01*
X271574985Y-166426835D02*
X271724966Y-166351845D01*
X271874947Y-166201864D01*
X271949938Y-165901902D01*
X271949938Y-165376968D01*
X271874947Y-165077006D01*
X271724966Y-164927026D01*
X271574985Y-164852035D01*
X271275023Y-164852035D01*
X271125042Y-164927026D01*
X270975061Y-165077006D01*
X270900071Y-165376968D01*
X270900071Y-165901902D01*
X270975061Y-166201864D01*
X271125042Y-166351845D01*
X271275023Y-166426835D01*
X271574985Y-166426835D01*
X270225157Y-166426835D02*
X270225157Y-164852035D01*
X268575366Y-166426835D02*
X269100300Y-165676930D01*
X269475252Y-166426835D02*
X269475252Y-164852035D01*
X268875328Y-164852035D01*
X268725347Y-164927026D01*
X268650357Y-165002016D01*
X268575366Y-165151997D01*
X268575366Y-165376968D01*
X268650357Y-165526949D01*
X268725347Y-165601940D01*
X268875328Y-165676930D01*
X269475252Y-165676930D01*
X266850585Y-166576816D02*
X267000566Y-166501826D01*
X267150547Y-166351845D01*
X267375519Y-166126873D01*
X267525500Y-166051883D01*
X267675480Y-166051883D01*
X267600490Y-166426835D02*
X267750471Y-166351845D01*
X267900452Y-166201864D01*
X267975442Y-165901902D01*
X267975442Y-165376968D01*
X267900452Y-165077006D01*
X267750471Y-164927026D01*
X267600490Y-164852035D01*
X267300528Y-164852035D01*
X267150547Y-164927026D01*
X267000566Y-165077006D01*
X266925576Y-165376968D01*
X266925576Y-165901902D01*
X267000566Y-166201864D01*
X267150547Y-166351845D01*
X267300528Y-166426835D01*
X267600490Y-166426835D01*
X271050052Y-167462454D02*
X271200033Y-167387463D01*
X271425004Y-167387463D01*
X271649976Y-167462454D01*
X271799957Y-167612434D01*
X271874947Y-167762415D01*
X271949938Y-168062377D01*
X271949938Y-168287349D01*
X271874947Y-168587311D01*
X271799957Y-168737292D01*
X271649976Y-168887273D01*
X271425004Y-168962263D01*
X271275023Y-168962263D01*
X271050052Y-168887273D01*
X270975061Y-168812282D01*
X270975061Y-168287349D01*
X271275023Y-168287349D01*
X270300147Y-168962263D02*
X270300147Y-167387463D01*
X269400261Y-168962263D01*
X269400261Y-167387463D01*
X268650357Y-168962263D02*
X268650357Y-167387463D01*
X268275404Y-167387463D01*
X268050433Y-167462454D01*
X267900452Y-167612434D01*
X267825461Y-167762415D01*
X267750471Y-168062377D01*
X267750471Y-168287349D01*
X267825461Y-168587311D01*
X267900452Y-168737292D01*
X268050433Y-168887273D01*
X268275404Y-168962263D01*
X268650357Y-168962263D01*
X281319642Y-139572746D02*
X281469623Y-139497755D01*
X281694595Y-139497755D01*
X281919566Y-139572746D01*
X282069547Y-139722726D01*
X282144538Y-139872707D01*
X282219528Y-140172669D01*
X282219528Y-140397641D01*
X282144538Y-140697603D01*
X282069547Y-140847584D01*
X281919566Y-140997565D01*
X281694595Y-141072555D01*
X281544614Y-141072555D01*
X281319642Y-140997565D01*
X281244652Y-140922574D01*
X281244652Y-140397641D01*
X281544614Y-140397641D01*
X280569738Y-141072555D02*
X280569738Y-139497755D01*
X279669852Y-141072555D01*
X279669852Y-139497755D01*
X278919947Y-141072555D02*
X278919947Y-139497755D01*
X278544995Y-139497755D01*
X278320023Y-139572746D01*
X278170042Y-139722726D01*
X278095052Y-139872707D01*
X278020061Y-140172669D01*
X278020061Y-140397641D01*
X278095052Y-140697603D01*
X278170042Y-140847584D01*
X278320023Y-140997565D01*
X278544995Y-141072555D01*
X278919947Y-141072555D01*
X281319642Y-142108174D02*
X281469623Y-142033183D01*
X281694595Y-142033183D01*
X281919566Y-142108174D01*
X282069547Y-142258154D01*
X282144538Y-142408135D01*
X282219528Y-142708097D01*
X282219528Y-142933069D01*
X282144538Y-143233031D01*
X282069547Y-143383012D01*
X281919566Y-143532993D01*
X281694595Y-143607983D01*
X281544614Y-143607983D01*
X281319642Y-143532993D01*
X281244652Y-143458002D01*
X281244652Y-142933069D01*
X281544614Y-142933069D01*
X280569738Y-143607983D02*
X280569738Y-142033183D01*
X279669852Y-143607983D01*
X279669852Y-142033183D01*
X278919947Y-143607983D02*
X278919947Y-142033183D01*
X278544995Y-142033183D01*
X278320023Y-142108174D01*
X278170042Y-142258154D01*
X278095052Y-142408135D01*
X278020061Y-142708097D01*
X278020061Y-142933069D01*
X278095052Y-143233031D01*
X278170042Y-143383012D01*
X278320023Y-143532993D01*
X278544995Y-143607983D01*
X278919947Y-143607983D01*
X281319642Y-144643602D02*
X281469623Y-144568611D01*
X281694595Y-144568611D01*
X281919566Y-144643602D01*
X282069547Y-144793582D01*
X282144538Y-144943563D01*
X282219528Y-145243525D01*
X282219528Y-145468497D01*
X282144538Y-145768459D01*
X282069547Y-145918440D01*
X281919566Y-146068421D01*
X281694595Y-146143411D01*
X281544614Y-146143411D01*
X281319642Y-146068421D01*
X281244652Y-145993430D01*
X281244652Y-145468497D01*
X281544614Y-145468497D01*
X280569738Y-146143411D02*
X280569738Y-144568611D01*
X279669852Y-146143411D01*
X279669852Y-144568611D01*
X278919947Y-146143411D02*
X278919947Y-144568611D01*
X278544995Y-144568611D01*
X278320023Y-144643602D01*
X278170042Y-144793582D01*
X278095052Y-144943563D01*
X278020061Y-145243525D01*
X278020061Y-145468497D01*
X278095052Y-145768459D01*
X278170042Y-145918440D01*
X278320023Y-146068421D01*
X278544995Y-146143411D01*
X278919947Y-146143411D01*
X284919185Y-148828820D02*
X285069166Y-148753830D01*
X285219147Y-148603849D01*
X285444119Y-148378877D01*
X285594100Y-148303887D01*
X285744080Y-148303887D01*
X285669090Y-148678839D02*
X285819071Y-148603849D01*
X285969052Y-148453868D01*
X286044042Y-148153906D01*
X286044042Y-147628972D01*
X285969052Y-147329010D01*
X285819071Y-147179030D01*
X285669090Y-147104039D01*
X285369128Y-147104039D01*
X285219147Y-147179030D01*
X285069166Y-147329010D01*
X284994176Y-147628972D01*
X284994176Y-148153906D01*
X285069166Y-148453868D01*
X285219147Y-148603849D01*
X285369128Y-148678839D01*
X285669090Y-148678839D01*
X284319261Y-147104039D02*
X284319261Y-148378877D01*
X284244271Y-148528858D01*
X284169280Y-148603849D01*
X284019300Y-148678839D01*
X283719338Y-148678839D01*
X283569357Y-148603849D01*
X283494366Y-148528858D01*
X283419376Y-148378877D01*
X283419376Y-147104039D01*
X281769585Y-148528858D02*
X281844576Y-148603849D01*
X282069547Y-148678839D01*
X282219528Y-148678839D01*
X282444500Y-148603849D01*
X282594480Y-148453868D01*
X282669471Y-148303887D01*
X282744461Y-148003925D01*
X282744461Y-147778953D01*
X282669471Y-147478991D01*
X282594480Y-147329010D01*
X282444500Y-147179030D01*
X282219528Y-147104039D01*
X282069547Y-147104039D01*
X281844576Y-147179030D01*
X281769585Y-147254020D01*
X280869700Y-148678839D02*
X281019680Y-148603849D01*
X281094671Y-148528858D01*
X281169661Y-148378877D01*
X281169661Y-147928934D01*
X281094671Y-147778953D01*
X281019680Y-147703963D01*
X280869700Y-147628972D01*
X280644728Y-147628972D01*
X280494747Y-147703963D01*
X280419757Y-147778953D01*
X280344766Y-147928934D01*
X280344766Y-148378877D01*
X280419757Y-148528858D01*
X280494747Y-148603849D01*
X280644728Y-148678839D01*
X280869700Y-148678839D01*
X278994938Y-147628972D02*
X278994938Y-148678839D01*
X279669852Y-147628972D02*
X279669852Y-148453868D01*
X279594861Y-148603849D01*
X279444880Y-148678839D01*
X279219909Y-148678839D01*
X279069928Y-148603849D01*
X278994938Y-148528858D01*
X278470004Y-147628972D02*
X277870080Y-147628972D01*
X278245033Y-147104039D02*
X278245033Y-148453868D01*
X278170042Y-148603849D01*
X278020061Y-148678839D01*
X277870080Y-148678839D01*
X282819452Y-151364248D02*
X282969433Y-151289258D01*
X283119414Y-151139277D01*
X283344385Y-150914305D01*
X283494366Y-150839315D01*
X283644347Y-150839315D01*
X283569357Y-151214267D02*
X283719338Y-151139277D01*
X283869319Y-150989296D01*
X283944309Y-150689334D01*
X283944309Y-150164400D01*
X283869319Y-149864438D01*
X283719338Y-149714458D01*
X283569357Y-149639467D01*
X283269395Y-149639467D01*
X283119414Y-149714458D01*
X282969433Y-149864438D01*
X282894442Y-150164400D01*
X282894442Y-150689334D01*
X282969433Y-150989296D01*
X283119414Y-151139277D01*
X283269395Y-151214267D01*
X283569357Y-151214267D01*
X282219528Y-150389372D02*
X281694595Y-150389372D01*
X281469623Y-151214267D02*
X282219528Y-151214267D01*
X282219528Y-149639467D01*
X281469623Y-149639467D01*
X280944690Y-151214267D02*
X280119795Y-150164400D01*
X280944690Y-150164400D02*
X280119795Y-151214267D01*
X278994938Y-150389372D02*
X279519871Y-150389372D01*
X279519871Y-151214267D02*
X279519871Y-149639467D01*
X278769966Y-149639467D01*
X277945071Y-151214267D02*
X278095052Y-151139277D01*
X278170042Y-150989296D01*
X278170042Y-149639467D01*
X281319642Y-152249886D02*
X281469623Y-152174895D01*
X281694595Y-152174895D01*
X281919566Y-152249886D01*
X282069547Y-152399866D01*
X282144538Y-152549847D01*
X282219528Y-152849809D01*
X282219528Y-153074781D01*
X282144538Y-153374743D01*
X282069547Y-153524724D01*
X281919566Y-153674705D01*
X281694595Y-153749695D01*
X281544614Y-153749695D01*
X281319642Y-153674705D01*
X281244652Y-153599714D01*
X281244652Y-153074781D01*
X281544614Y-153074781D01*
X280569738Y-153749695D02*
X280569738Y-152174895D01*
X279669852Y-153749695D01*
X279669852Y-152174895D01*
X278919947Y-153749695D02*
X278919947Y-152174895D01*
X278544995Y-152174895D01*
X278320023Y-152249886D01*
X278170042Y-152399866D01*
X278095052Y-152549847D01*
X278020061Y-152849809D01*
X278020061Y-153074781D01*
X278095052Y-153374743D01*
X278170042Y-153524724D01*
X278320023Y-153674705D01*
X278544995Y-153749695D01*
X278919947Y-153749695D01*
X281319642Y-154785314D02*
X281469623Y-154710323D01*
X281694595Y-154710323D01*
X281919566Y-154785314D01*
X282069547Y-154935294D01*
X282144538Y-155085275D01*
X282219528Y-155385237D01*
X282219528Y-155610209D01*
X282144538Y-155910171D01*
X282069547Y-156060152D01*
X281919566Y-156210133D01*
X281694595Y-156285123D01*
X281544614Y-156285123D01*
X281319642Y-156210133D01*
X281244652Y-156135142D01*
X281244652Y-155610209D01*
X281544614Y-155610209D01*
X280569738Y-156285123D02*
X280569738Y-154710323D01*
X279669852Y-156285123D01*
X279669852Y-154710323D01*
X278919947Y-156285123D02*
X278919947Y-154710323D01*
X278544995Y-154710323D01*
X278320023Y-154785314D01*
X278170042Y-154935294D01*
X278095052Y-155085275D01*
X278020061Y-155385237D01*
X278020061Y-155610209D01*
X278095052Y-155910171D01*
X278170042Y-156060152D01*
X278320023Y-156210133D01*
X278544995Y-156285123D01*
X278919947Y-156285123D01*
X281319642Y-157320742D02*
X281469623Y-157245751D01*
X281694595Y-157245751D01*
X281919566Y-157320742D01*
X282069547Y-157470722D01*
X282144538Y-157620703D01*
X282219528Y-157920665D01*
X282219528Y-158145637D01*
X282144538Y-158445599D01*
X282069547Y-158595580D01*
X281919566Y-158745561D01*
X281694595Y-158820551D01*
X281544614Y-158820551D01*
X281319642Y-158745561D01*
X281244652Y-158670570D01*
X281244652Y-158145637D01*
X281544614Y-158145637D01*
X280569738Y-158820551D02*
X280569738Y-157245751D01*
X279669852Y-158820551D01*
X279669852Y-157245751D01*
X278919947Y-158820551D02*
X278919947Y-157245751D01*
X278544995Y-157245751D01*
X278320023Y-157320742D01*
X278170042Y-157470722D01*
X278095052Y-157620703D01*
X278020061Y-157920665D01*
X278020061Y-158145637D01*
X278095052Y-158445599D01*
X278170042Y-158595580D01*
X278320023Y-158745561D01*
X278544995Y-158820551D01*
X278919947Y-158820551D01*
X281319642Y-159856170D02*
X281469623Y-159781179D01*
X281694595Y-159781179D01*
X281919566Y-159856170D01*
X282069547Y-160006150D01*
X282144538Y-160156131D01*
X282219528Y-160456093D01*
X282219528Y-160681065D01*
X282144538Y-160981027D01*
X282069547Y-161131008D01*
X281919566Y-161280989D01*
X281694595Y-161355979D01*
X281544614Y-161355979D01*
X281319642Y-161280989D01*
X281244652Y-161205998D01*
X281244652Y-160681065D01*
X281544614Y-160681065D01*
X280569738Y-161355979D02*
X280569738Y-159781179D01*
X279669852Y-161355979D01*
X279669852Y-159781179D01*
X278919947Y-161355979D02*
X278919947Y-159781179D01*
X278544995Y-159781179D01*
X278320023Y-159856170D01*
X278170042Y-160006150D01*
X278095052Y-160156131D01*
X278020061Y-160456093D01*
X278020061Y-160681065D01*
X278095052Y-160981027D01*
X278170042Y-161131008D01*
X278320023Y-161280989D01*
X278544995Y-161355979D01*
X278919947Y-161355979D01*
X284169280Y-164041388D02*
X284319261Y-163966398D01*
X284469242Y-163816417D01*
X284694214Y-163591445D01*
X284844195Y-163516455D01*
X284994176Y-163516455D01*
X284919185Y-163891407D02*
X285069166Y-163816417D01*
X285219147Y-163666436D01*
X285294138Y-163366474D01*
X285294138Y-162841540D01*
X285219147Y-162541578D01*
X285069166Y-162391598D01*
X284919185Y-162316607D01*
X284619223Y-162316607D01*
X284469242Y-162391598D01*
X284319261Y-162541578D01*
X284244271Y-162841540D01*
X284244271Y-163366474D01*
X284319261Y-163666436D01*
X284469242Y-163816417D01*
X284619223Y-163891407D01*
X284919185Y-163891407D01*
X283569357Y-163891407D02*
X283569357Y-162316607D01*
X282819452Y-162841540D02*
X282819452Y-163891407D01*
X282819452Y-162991521D02*
X282744461Y-162916531D01*
X282594480Y-162841540D01*
X282369509Y-162841540D01*
X282219528Y-162916531D01*
X282144538Y-163066512D01*
X282144538Y-163891407D01*
X281619604Y-162841540D02*
X281019680Y-162841540D01*
X281394633Y-162316607D02*
X281394633Y-163666436D01*
X281319642Y-163816417D01*
X281169661Y-163891407D01*
X281019680Y-163891407D01*
X280569738Y-163816417D02*
X280344766Y-163891407D01*
X279969814Y-163891407D01*
X279819833Y-163816417D01*
X279744842Y-163741426D01*
X279669852Y-163591445D01*
X279669852Y-163441464D01*
X279744842Y-163291483D01*
X279819833Y-163216493D01*
X279969814Y-163141502D01*
X280269776Y-163066512D01*
X280419757Y-162991521D01*
X280494747Y-162916531D01*
X280569738Y-162766550D01*
X280569738Y-162616569D01*
X280494747Y-162466588D01*
X280419757Y-162391598D01*
X280269776Y-162316607D01*
X279894823Y-162316607D01*
X279669852Y-162391598D01*
X279144919Y-162841540D02*
X278844957Y-163891407D01*
X278544995Y-163141502D01*
X278245033Y-163891407D01*
X277945071Y-162841540D01*
X282144538Y-166576816D02*
X282294519Y-166501826D01*
X282444500Y-166351845D01*
X282669471Y-166126873D01*
X282819452Y-166051883D01*
X282969433Y-166051883D01*
X282894442Y-166426835D02*
X283044423Y-166351845D01*
X283194404Y-166201864D01*
X283269395Y-165901902D01*
X283269395Y-165376968D01*
X283194404Y-165077006D01*
X283044423Y-164927026D01*
X282894442Y-164852035D01*
X282594480Y-164852035D01*
X282444500Y-164927026D01*
X282294519Y-165077006D01*
X282219528Y-165376968D01*
X282219528Y-165901902D01*
X282294519Y-166201864D01*
X282444500Y-166351845D01*
X282594480Y-166426835D01*
X282894442Y-166426835D01*
X281544614Y-166426835D02*
X281544614Y-164852035D01*
X280644728Y-166426835D01*
X280644728Y-164852035D01*
X279894823Y-166426835D02*
X279894823Y-164852035D01*
X279369890Y-165976892D01*
X278844957Y-164852035D01*
X278844957Y-166426835D01*
X278095052Y-166426835D02*
X278095052Y-164852035D01*
X281319642Y-167462454D02*
X281469623Y-167387463D01*
X281694595Y-167387463D01*
X281919566Y-167462454D01*
X282069547Y-167612434D01*
X282144538Y-167762415D01*
X282219528Y-168062377D01*
X282219528Y-168287349D01*
X282144538Y-168587311D01*
X282069547Y-168737292D01*
X281919566Y-168887273D01*
X281694595Y-168962263D01*
X281544614Y-168962263D01*
X281319642Y-168887273D01*
X281244652Y-168812282D01*
X281244652Y-168287349D01*
X281544614Y-168287349D01*
X280569738Y-168962263D02*
X280569738Y-167387463D01*
X279669852Y-168962263D01*
X279669852Y-167387463D01*
X278919947Y-168962263D02*
X278919947Y-167387463D01*
X278544995Y-167387463D01*
X278320023Y-167462454D01*
X278170042Y-167612434D01*
X278095052Y-167762415D01*
X278020061Y-168062377D01*
X278020061Y-168287349D01*
X278095052Y-168587311D01*
X278170042Y-168737292D01*
X278320023Y-168887273D01*
X278544995Y-168962263D01*
X278919947Y-168962263D01*
X270990052Y-101472746D02*
X271140033Y-101397755D01*
X271365004Y-101397755D01*
X271589976Y-101472746D01*
X271739957Y-101622726D01*
X271814947Y-101772707D01*
X271889938Y-102072669D01*
X271889938Y-102297641D01*
X271814947Y-102597603D01*
X271739957Y-102747584D01*
X271589976Y-102897565D01*
X271365004Y-102972555D01*
X271215023Y-102972555D01*
X270990052Y-102897565D01*
X270915061Y-102822574D01*
X270915061Y-102297641D01*
X271215023Y-102297641D01*
X270240147Y-102972555D02*
X270240147Y-101397755D01*
X269340261Y-102972555D01*
X269340261Y-101397755D01*
X268590357Y-102972555D02*
X268590357Y-101397755D01*
X268215404Y-101397755D01*
X267990433Y-101472746D01*
X267840452Y-101622726D01*
X267765461Y-101772707D01*
X267690471Y-102072669D01*
X267690471Y-102297641D01*
X267765461Y-102597603D01*
X267840452Y-102747584D01*
X267990433Y-102897565D01*
X268215404Y-102972555D01*
X268590357Y-102972555D01*
X272189900Y-103488490D02*
X270615100Y-103488490D01*
X270915061Y-105507983D02*
X271439995Y-104758078D01*
X271814947Y-105507983D02*
X271814947Y-103933183D01*
X271215023Y-103933183D01*
X271065042Y-104008174D01*
X270990052Y-104083164D01*
X270915061Y-104233145D01*
X270915061Y-104458116D01*
X270990052Y-104608097D01*
X271065042Y-104683088D01*
X271215023Y-104758078D01*
X271814947Y-104758078D01*
X270615100Y-103488490D02*
X269115290Y-103488490D01*
X270315138Y-105432993D02*
X270090166Y-105507983D01*
X269715214Y-105507983D01*
X269565233Y-105432993D01*
X269490242Y-105358002D01*
X269415252Y-105208021D01*
X269415252Y-105058040D01*
X269490242Y-104908059D01*
X269565233Y-104833069D01*
X269715214Y-104758078D01*
X270015176Y-104683088D01*
X270165157Y-104608097D01*
X270240147Y-104533107D01*
X270315138Y-104383126D01*
X270315138Y-104233145D01*
X270240147Y-104083164D01*
X270165157Y-104008174D01*
X270015176Y-103933183D01*
X269640223Y-103933183D01*
X269415252Y-104008174D01*
X269115290Y-103488490D02*
X267915442Y-103488490D01*
X268965309Y-103933183D02*
X268065423Y-103933183D01*
X268515366Y-105507983D02*
X268515366Y-103933183D01*
X271889938Y-107968421D02*
X271664966Y-108043411D01*
X271290014Y-108043411D01*
X271140033Y-107968421D01*
X271065042Y-107893430D01*
X270990052Y-107743449D01*
X270990052Y-107593468D01*
X271065042Y-107443487D01*
X271140033Y-107368497D01*
X271290014Y-107293506D01*
X271589976Y-107218516D01*
X271739957Y-107143525D01*
X271814947Y-107068535D01*
X271889938Y-106918554D01*
X271889938Y-106768573D01*
X271814947Y-106618592D01*
X271739957Y-106543602D01*
X271589976Y-106468611D01*
X271215023Y-106468611D01*
X270990052Y-106543602D01*
X270315138Y-108043411D02*
X270315138Y-106468611D01*
X269565233Y-108043411D02*
X269565233Y-106993544D01*
X269565233Y-107143525D02*
X269490242Y-107068535D01*
X269340261Y-106993544D01*
X269115290Y-106993544D01*
X268965309Y-107068535D01*
X268890319Y-107218516D01*
X268890319Y-108043411D01*
X268890319Y-107218516D02*
X268815328Y-107068535D01*
X268665347Y-106993544D01*
X268440376Y-106993544D01*
X268290395Y-107068535D01*
X268215404Y-107218516D01*
X268215404Y-108043411D01*
X267465500Y-108043411D02*
X267465500Y-106993544D01*
X267465500Y-107143525D02*
X267390509Y-107068535D01*
X267240528Y-106993544D01*
X267015557Y-106993544D01*
X266865576Y-107068535D01*
X266790585Y-107218516D01*
X266790585Y-108043411D01*
X266790585Y-107218516D02*
X266715595Y-107068535D01*
X266565614Y-106993544D01*
X266340642Y-106993544D01*
X266190661Y-107068535D01*
X266115671Y-107218516D01*
X266115671Y-108043411D01*
X264540871Y-108043411D02*
X265440757Y-108043411D01*
X264990814Y-108043411D02*
X264990814Y-106468611D01*
X265140795Y-106693582D01*
X265290776Y-106843563D01*
X265440757Y-106918554D01*
X271814947Y-110578839D02*
X271814947Y-109004039D01*
X271215023Y-109004039D01*
X271065042Y-109079030D01*
X270990052Y-109154020D01*
X270915061Y-109304001D01*
X270915061Y-109528972D01*
X270990052Y-109678953D01*
X271065042Y-109753944D01*
X271215023Y-109828934D01*
X271814947Y-109828934D01*
X269715214Y-109753944D02*
X270240147Y-109753944D01*
X270240147Y-110578839D02*
X270240147Y-109004039D01*
X269490242Y-109004039D01*
X268890319Y-109978915D02*
X267690471Y-109978915D01*
X267090547Y-109004039D02*
X266715595Y-110578839D01*
X266415633Y-109453982D01*
X266115671Y-110578839D01*
X265740719Y-109004039D01*
X265140795Y-110578839D02*
X265140795Y-109004039D01*
X265140795Y-109603963D02*
X264990814Y-109528972D01*
X264690852Y-109528972D01*
X264540871Y-109603963D01*
X264465880Y-109678953D01*
X264390890Y-109828934D01*
X264390890Y-110278877D01*
X264465880Y-110428858D01*
X264540871Y-110503849D01*
X264690852Y-110578839D01*
X264990814Y-110578839D01*
X265140795Y-110503849D01*
X271814947Y-113114267D02*
X271814947Y-111539467D01*
X271065042Y-112064400D02*
X271065042Y-113114267D01*
X271065042Y-112214381D02*
X270990052Y-112139391D01*
X270840071Y-112064400D01*
X270615100Y-112064400D01*
X270465119Y-112139391D01*
X270390128Y-112289372D01*
X270390128Y-113114267D01*
X269865195Y-112064400D02*
X269265271Y-112064400D01*
X269640223Y-111539467D02*
X269640223Y-112889296D01*
X269565233Y-113039277D01*
X269415252Y-113114267D01*
X269265271Y-113114267D01*
X268740338Y-113114267D02*
X268740338Y-111539467D01*
X268140414Y-111539467D01*
X267990433Y-111614458D01*
X267915442Y-111689448D01*
X267840452Y-111839429D01*
X267840452Y-112064400D01*
X267915442Y-112214381D01*
X267990433Y-112289372D01*
X268140414Y-112364362D01*
X268740338Y-112364362D01*
X267165538Y-113114267D02*
X267165538Y-112064400D01*
X267165538Y-112364362D02*
X267090547Y-112214381D01*
X267015557Y-112139391D01*
X266865576Y-112064400D01*
X266715595Y-112064400D01*
X265965690Y-113114267D02*
X266115671Y-113039277D01*
X266190661Y-112964286D01*
X266265652Y-112814305D01*
X266265652Y-112364362D01*
X266190661Y-112214381D01*
X266115671Y-112139391D01*
X265965690Y-112064400D01*
X265740719Y-112064400D01*
X265590738Y-112139391D01*
X265515747Y-112214381D01*
X265440757Y-112364362D01*
X265440757Y-112814305D01*
X265515747Y-112964286D01*
X265590738Y-113039277D01*
X265740719Y-113114267D01*
X265965690Y-113114267D01*
X264090928Y-112064400D02*
X264090928Y-113339238D01*
X264165919Y-113489219D01*
X264240909Y-113564210D01*
X264390890Y-113639200D01*
X264615861Y-113639200D01*
X264765842Y-113564210D01*
X264090928Y-113039277D02*
X264240909Y-113114267D01*
X264540871Y-113114267D01*
X264690852Y-113039277D01*
X264765842Y-112964286D01*
X264840833Y-112814305D01*
X264840833Y-112364362D01*
X264765842Y-112214381D01*
X264690852Y-112139391D01*
X264540871Y-112064400D01*
X264240909Y-112064400D01*
X264090928Y-112139391D01*
X271889938Y-115574705D02*
X271664966Y-115649695D01*
X271290014Y-115649695D01*
X271140033Y-115574705D01*
X271065042Y-115499714D01*
X270990052Y-115349733D01*
X270990052Y-115199752D01*
X271065042Y-115049771D01*
X271140033Y-114974781D01*
X271290014Y-114899790D01*
X271589976Y-114824800D01*
X271739957Y-114749809D01*
X271814947Y-114674819D01*
X271889938Y-114524838D01*
X271889938Y-114374857D01*
X271814947Y-114224876D01*
X271739957Y-114149886D01*
X271589976Y-114074895D01*
X271215023Y-114074895D01*
X270990052Y-114149886D01*
X269415252Y-115499714D02*
X269490242Y-115574705D01*
X269715214Y-115649695D01*
X269865195Y-115649695D01*
X270090166Y-115574705D01*
X270240147Y-115424724D01*
X270315138Y-115274743D01*
X270390128Y-114974781D01*
X270390128Y-114749809D01*
X270315138Y-114449847D01*
X270240147Y-114299866D01*
X270090166Y-114149886D01*
X269865195Y-114074895D01*
X269715214Y-114074895D01*
X269490242Y-114149886D01*
X269415252Y-114224876D01*
X268515366Y-115649695D02*
X268665347Y-115574705D01*
X268740338Y-115499714D01*
X268815328Y-115349733D01*
X268815328Y-114899790D01*
X268740338Y-114749809D01*
X268665347Y-114674819D01*
X268515366Y-114599828D01*
X268290395Y-114599828D01*
X268140414Y-114674819D01*
X268065423Y-114749809D01*
X267990433Y-114899790D01*
X267990433Y-115349733D01*
X268065423Y-115499714D01*
X268140414Y-115574705D01*
X268290395Y-115649695D01*
X268515366Y-115649695D01*
X266640604Y-114599828D02*
X266640604Y-115649695D01*
X267315519Y-114599828D02*
X267315519Y-115424724D01*
X267240528Y-115574705D01*
X267090547Y-115649695D01*
X266865576Y-115649695D01*
X266715595Y-115574705D01*
X266640604Y-115499714D01*
X266115671Y-114599828D02*
X265515747Y-114599828D01*
X265890700Y-114074895D02*
X265890700Y-115424724D01*
X265815709Y-115574705D01*
X265665728Y-115649695D01*
X265515747Y-115649695D01*
X271964928Y-116610323D02*
X271589976Y-118185123D01*
X271290014Y-117060266D01*
X270990052Y-118185123D01*
X270615100Y-116610323D01*
X270015176Y-117360228D02*
X269490242Y-117360228D01*
X269265271Y-118185123D02*
X270015176Y-118185123D01*
X270015176Y-116610323D01*
X269265271Y-116610323D01*
X271290014Y-119895656D02*
X271065042Y-119970646D01*
X270990052Y-120045637D01*
X270915061Y-120195618D01*
X270915061Y-120420589D01*
X270990052Y-120570570D01*
X271065042Y-120645561D01*
X271215023Y-120720551D01*
X271814947Y-120720551D01*
X271814947Y-119145751D01*
X271290014Y-119145751D01*
X271140033Y-119220742D01*
X271065042Y-119295732D01*
X270990052Y-119445713D01*
X270990052Y-119595694D01*
X271065042Y-119745675D01*
X271140033Y-119820665D01*
X271290014Y-119895656D01*
X271814947Y-119895656D01*
X269415252Y-120720551D02*
X270315138Y-120720551D01*
X269865195Y-120720551D02*
X269865195Y-119145751D01*
X270015176Y-119370722D01*
X270165157Y-119520703D01*
X270315138Y-119595694D01*
X271889938Y-122806036D02*
X271140033Y-122806036D01*
X272039919Y-123255979D02*
X271514985Y-121681179D01*
X270990052Y-123255979D01*
X270540109Y-121831160D02*
X270465119Y-121756170D01*
X270315138Y-121681179D01*
X269940185Y-121681179D01*
X269790204Y-121756170D01*
X269715214Y-121831160D01*
X269640223Y-121981141D01*
X269640223Y-122131122D01*
X269715214Y-122356093D01*
X270615100Y-123255979D01*
X269640223Y-123255979D01*
X271889938Y-125341464D02*
X271140033Y-125341464D01*
X272039919Y-125791407D02*
X271514985Y-124216607D01*
X270990052Y-125791407D01*
X270165157Y-124216607D02*
X270015176Y-124216607D01*
X269865195Y-124291598D01*
X269790204Y-124366588D01*
X269715214Y-124516569D01*
X269640223Y-124816531D01*
X269640223Y-125191483D01*
X269715214Y-125491445D01*
X269790204Y-125641426D01*
X269865195Y-125716417D01*
X270015176Y-125791407D01*
X270165157Y-125791407D01*
X270315138Y-125716417D01*
X270390128Y-125641426D01*
X270465119Y-125491445D01*
X270540109Y-125191483D01*
X270540109Y-124816531D01*
X270465119Y-124516569D01*
X270390128Y-124366588D01*
X270315138Y-124291598D01*
X270165157Y-124216607D01*
X271814947Y-128326835D02*
X271814947Y-126752035D01*
X271439995Y-126752035D01*
X271215023Y-126827026D01*
X271065042Y-126977006D01*
X270990052Y-127126987D01*
X270915061Y-127426949D01*
X270915061Y-127651921D01*
X270990052Y-127951883D01*
X271065042Y-128101864D01*
X271215023Y-128251845D01*
X271439995Y-128326835D01*
X271814947Y-128326835D01*
X269415252Y-128326835D02*
X270315138Y-128326835D01*
X269865195Y-128326835D02*
X269865195Y-126752035D01*
X270015176Y-126977006D01*
X270165157Y-127126987D01*
X270315138Y-127201978D01*
X270990052Y-129362454D02*
X271140033Y-129287463D01*
X271365004Y-129287463D01*
X271589976Y-129362454D01*
X271739957Y-129512434D01*
X271814947Y-129662415D01*
X271889938Y-129962377D01*
X271889938Y-130187349D01*
X271814947Y-130487311D01*
X271739957Y-130637292D01*
X271589976Y-130787273D01*
X271365004Y-130862263D01*
X271215023Y-130862263D01*
X270990052Y-130787273D01*
X270915061Y-130712282D01*
X270915061Y-130187349D01*
X271215023Y-130187349D01*
X270240147Y-130862263D02*
X270240147Y-129287463D01*
X269340261Y-130862263D01*
X269340261Y-129287463D01*
X268590357Y-130862263D02*
X268590357Y-129287463D01*
X268215404Y-129287463D01*
X267990433Y-129362454D01*
X267840452Y-129512434D01*
X267765461Y-129662415D01*
X267690471Y-129962377D01*
X267690471Y-130187349D01*
X267765461Y-130487311D01*
X267840452Y-130637292D01*
X267990433Y-130787273D01*
X268215404Y-130862263D01*
X268590357Y-130862263D01*
X281259642Y-101472746D02*
X281409623Y-101397755D01*
X281634595Y-101397755D01*
X281859566Y-101472746D01*
X282009547Y-101622726D01*
X282084538Y-101772707D01*
X282159528Y-102072669D01*
X282159528Y-102297641D01*
X282084538Y-102597603D01*
X282009547Y-102747584D01*
X281859566Y-102897565D01*
X281634595Y-102972555D01*
X281484614Y-102972555D01*
X281259642Y-102897565D01*
X281184652Y-102822574D01*
X281184652Y-102297641D01*
X281484614Y-102297641D01*
X280509738Y-102972555D02*
X280509738Y-101397755D01*
X279609852Y-102972555D01*
X279609852Y-101397755D01*
X278859947Y-102972555D02*
X278859947Y-101397755D01*
X278484995Y-101397755D01*
X278260023Y-101472746D01*
X278110042Y-101622726D01*
X278035052Y-101772707D01*
X277960061Y-102072669D01*
X277960061Y-102297641D01*
X278035052Y-102597603D01*
X278110042Y-102747584D01*
X278260023Y-102897565D01*
X278484995Y-102972555D01*
X278859947Y-102972555D01*
X280809700Y-105358002D02*
X280884690Y-105432993D01*
X281109661Y-105507983D01*
X281259642Y-105507983D01*
X281484614Y-105432993D01*
X281634595Y-105283012D01*
X281709585Y-105133031D01*
X281784576Y-104833069D01*
X281784576Y-104608097D01*
X281709585Y-104308135D01*
X281634595Y-104158154D01*
X281484614Y-104008174D01*
X281259642Y-103933183D01*
X281109661Y-103933183D01*
X280884690Y-104008174D01*
X280809700Y-104083164D01*
X279384880Y-105507983D02*
X280134785Y-105507983D01*
X280134785Y-103933183D01*
X278859947Y-105507983D02*
X278859947Y-103933183D01*
X277960061Y-105507983D02*
X278634976Y-104608097D01*
X277960061Y-103933183D02*
X278859947Y-104833069D01*
X285309128Y-107968421D02*
X285084157Y-108043411D01*
X284709204Y-108043411D01*
X284559223Y-107968421D01*
X284484233Y-107893430D01*
X284409242Y-107743449D01*
X284409242Y-107593468D01*
X284484233Y-107443487D01*
X284559223Y-107368497D01*
X284709204Y-107293506D01*
X285009166Y-107218516D01*
X285159147Y-107143525D01*
X285234138Y-107068535D01*
X285309128Y-106918554D01*
X285309128Y-106768573D01*
X285234138Y-106618592D01*
X285159147Y-106543602D01*
X285009166Y-106468611D01*
X284634214Y-106468611D01*
X284409242Y-106543602D01*
X283734328Y-108043411D02*
X283734328Y-106468611D01*
X282984423Y-108043411D02*
X282984423Y-106993544D01*
X282984423Y-107143525D02*
X282909433Y-107068535D01*
X282759452Y-106993544D01*
X282534480Y-106993544D01*
X282384500Y-107068535D01*
X282309509Y-107218516D01*
X282309509Y-108043411D01*
X282309509Y-107218516D02*
X282234519Y-107068535D01*
X282084538Y-106993544D01*
X281859566Y-106993544D01*
X281709585Y-107068535D01*
X281634595Y-107218516D01*
X281634595Y-108043411D01*
X280884690Y-108043411D02*
X280884690Y-106993544D01*
X280884690Y-107143525D02*
X280809700Y-107068535D01*
X280659719Y-106993544D01*
X280434747Y-106993544D01*
X280284766Y-107068535D01*
X280209776Y-107218516D01*
X280209776Y-108043411D01*
X280209776Y-107218516D02*
X280134785Y-107068535D01*
X279984804Y-106993544D01*
X279759833Y-106993544D01*
X279609852Y-107068535D01*
X279534861Y-107218516D01*
X279534861Y-108043411D01*
X278484995Y-106468611D02*
X278335014Y-106468611D01*
X278185033Y-106543602D01*
X278110042Y-106618592D01*
X278035052Y-106768573D01*
X277960061Y-107068535D01*
X277960061Y-107443487D01*
X278035052Y-107743449D01*
X278110042Y-107893430D01*
X278185033Y-107968421D01*
X278335014Y-108043411D01*
X278484995Y-108043411D01*
X278634976Y-107968421D01*
X278709966Y-107893430D01*
X278784957Y-107743449D01*
X278859947Y-107443487D01*
X278859947Y-107068535D01*
X278784957Y-106768573D01*
X278709966Y-106618592D01*
X278634976Y-106543602D01*
X278484995Y-106468611D01*
X280809700Y-110578839D02*
X280809700Y-109004039D01*
X280059795Y-109528972D02*
X280059795Y-110578839D01*
X280059795Y-109678953D02*
X279984804Y-109603963D01*
X279834823Y-109528972D01*
X279609852Y-109528972D01*
X279459871Y-109603963D01*
X279384880Y-109753944D01*
X279384880Y-110578839D01*
X277960061Y-110503849D02*
X278110042Y-110578839D01*
X278410004Y-110578839D01*
X278559985Y-110503849D01*
X278634976Y-110428858D01*
X278709966Y-110278877D01*
X278709966Y-109828934D01*
X278634976Y-109678953D01*
X278559985Y-109603963D01*
X278410004Y-109528972D01*
X278110042Y-109528972D01*
X277960061Y-109603963D01*
X282684461Y-111539467D02*
X281634595Y-111539467D01*
X282684461Y-113114267D01*
X281634595Y-113114267D01*
X280434747Y-113039277D02*
X280584728Y-113114267D01*
X280884690Y-113114267D01*
X281034671Y-113039277D01*
X281109661Y-112889296D01*
X281109661Y-112289372D01*
X281034671Y-112139391D01*
X280884690Y-112064400D01*
X280584728Y-112064400D01*
X280434747Y-112139391D01*
X280359757Y-112289372D01*
X280359757Y-112439353D01*
X281109661Y-112589334D01*
X279684842Y-113114267D02*
X279684842Y-112064400D01*
X279684842Y-112364362D02*
X279609852Y-112214381D01*
X279534861Y-112139391D01*
X279384880Y-112064400D01*
X279234900Y-112064400D01*
X278484995Y-113114267D02*
X278634976Y-113039277D01*
X278709966Y-112964286D01*
X278784957Y-112814305D01*
X278784957Y-112364362D01*
X278709966Y-112214381D01*
X278634976Y-112139391D01*
X278484995Y-112064400D01*
X278260023Y-112064400D01*
X278110042Y-112139391D01*
X278035052Y-112214381D01*
X277960061Y-112364362D01*
X277960061Y-112814305D01*
X278035052Y-112964286D01*
X278110042Y-113039277D01*
X278260023Y-113114267D01*
X278484995Y-113114267D01*
X284259261Y-114074895D02*
X284259261Y-115349733D01*
X284184271Y-115499714D01*
X284109280Y-115574705D01*
X283959300Y-115649695D01*
X283659338Y-115649695D01*
X283509357Y-115574705D01*
X283434366Y-115499714D01*
X283359376Y-115349733D01*
X283359376Y-114074895D01*
X281709585Y-115499714D02*
X281784576Y-115574705D01*
X282009547Y-115649695D01*
X282159528Y-115649695D01*
X282384500Y-115574705D01*
X282534480Y-115424724D01*
X282609471Y-115274743D01*
X282684461Y-114974781D01*
X282684461Y-114749809D01*
X282609471Y-114449847D01*
X282534480Y-114299866D01*
X282384500Y-114149886D01*
X282159528Y-114074895D01*
X282009547Y-114074895D01*
X281784576Y-114149886D01*
X281709585Y-114224876D01*
X280809700Y-115649695D02*
X280959680Y-115574705D01*
X281034671Y-115499714D01*
X281109661Y-115349733D01*
X281109661Y-114899790D01*
X281034671Y-114749809D01*
X280959680Y-114674819D01*
X280809700Y-114599828D01*
X280584728Y-114599828D01*
X280434747Y-114674819D01*
X280359757Y-114749809D01*
X280284766Y-114899790D01*
X280284766Y-115349733D01*
X280359757Y-115499714D01*
X280434747Y-115574705D01*
X280584728Y-115649695D01*
X280809700Y-115649695D01*
X278934938Y-114599828D02*
X278934938Y-115649695D01*
X279609852Y-114599828D02*
X279609852Y-115424724D01*
X279534861Y-115574705D01*
X279384880Y-115649695D01*
X279159909Y-115649695D01*
X279009928Y-115574705D01*
X278934938Y-115499714D01*
X278410004Y-114599828D02*
X277810080Y-114599828D01*
X278185033Y-114074895D02*
X278185033Y-115424724D01*
X278110042Y-115574705D01*
X277960061Y-115649695D01*
X277810080Y-115649695D01*
X279834823Y-117360228D02*
X279609852Y-117435218D01*
X279534861Y-117510209D01*
X279459871Y-117660190D01*
X279459871Y-117885161D01*
X279534861Y-118035142D01*
X279609852Y-118110133D01*
X279759833Y-118185123D01*
X280359757Y-118185123D01*
X280359757Y-116610323D01*
X279834823Y-116610323D01*
X279684842Y-116685314D01*
X279609852Y-116760304D01*
X279534861Y-116910285D01*
X279534861Y-117060266D01*
X279609852Y-117210247D01*
X279684842Y-117285237D01*
X279834823Y-117360228D01*
X280359757Y-117360228D01*
X278859947Y-116760304D02*
X278784957Y-116685314D01*
X278634976Y-116610323D01*
X278260023Y-116610323D01*
X278110042Y-116685314D01*
X278035052Y-116760304D01*
X277960061Y-116910285D01*
X277960061Y-117060266D01*
X278035052Y-117285237D01*
X278934938Y-118185123D01*
X277960061Y-118185123D01*
X279834823Y-119895656D02*
X279609852Y-119970646D01*
X279534861Y-120045637D01*
X279459871Y-120195618D01*
X279459871Y-120420589D01*
X279534861Y-120570570D01*
X279609852Y-120645561D01*
X279759833Y-120720551D01*
X280359757Y-120720551D01*
X280359757Y-119145751D01*
X279834823Y-119145751D01*
X279684842Y-119220742D01*
X279609852Y-119295732D01*
X279534861Y-119445713D01*
X279534861Y-119595694D01*
X279609852Y-119745675D01*
X279684842Y-119820665D01*
X279834823Y-119895656D01*
X280359757Y-119895656D01*
X278484995Y-119145751D02*
X278335014Y-119145751D01*
X278185033Y-119220742D01*
X278110042Y-119295732D01*
X278035052Y-119445713D01*
X277960061Y-119745675D01*
X277960061Y-120120627D01*
X278035052Y-120420589D01*
X278110042Y-120570570D01*
X278185033Y-120645561D01*
X278335014Y-120720551D01*
X278484995Y-120720551D01*
X278634976Y-120645561D01*
X278709966Y-120570570D01*
X278784957Y-120420589D01*
X278859947Y-120120627D01*
X278859947Y-119745675D01*
X278784957Y-119445713D01*
X278709966Y-119295732D01*
X278634976Y-119220742D01*
X278484995Y-119145751D01*
X280209776Y-122806036D02*
X279459871Y-122806036D01*
X280359757Y-123255979D02*
X279834823Y-121681179D01*
X279309890Y-123255979D01*
X277960061Y-123255979D02*
X278859947Y-123255979D01*
X278410004Y-123255979D02*
X278410004Y-121681179D01*
X278559985Y-121906150D01*
X278709966Y-122056131D01*
X278859947Y-122131122D01*
X280359757Y-125791407D02*
X280359757Y-124216607D01*
X279984804Y-124216607D01*
X279759833Y-124291598D01*
X279609852Y-124441578D01*
X279534861Y-124591559D01*
X279459871Y-124891521D01*
X279459871Y-125116493D01*
X279534861Y-125416455D01*
X279609852Y-125566436D01*
X279759833Y-125716417D01*
X279984804Y-125791407D01*
X280359757Y-125791407D01*
X278859947Y-124366588D02*
X278784957Y-124291598D01*
X278634976Y-124216607D01*
X278260023Y-124216607D01*
X278110042Y-124291598D01*
X278035052Y-124366588D01*
X277960061Y-124516569D01*
X277960061Y-124666550D01*
X278035052Y-124891521D01*
X278934938Y-125791407D01*
X277960061Y-125791407D01*
X280359757Y-128326835D02*
X280359757Y-126752035D01*
X279984804Y-126752035D01*
X279759833Y-126827026D01*
X279609852Y-126977006D01*
X279534861Y-127126987D01*
X279459871Y-127426949D01*
X279459871Y-127651921D01*
X279534861Y-127951883D01*
X279609852Y-128101864D01*
X279759833Y-128251845D01*
X279984804Y-128326835D01*
X280359757Y-128326835D01*
X278484995Y-126752035D02*
X278335014Y-126752035D01*
X278185033Y-126827026D01*
X278110042Y-126902016D01*
X278035052Y-127051997D01*
X277960061Y-127351959D01*
X277960061Y-127726911D01*
X278035052Y-128026873D01*
X278110042Y-128176854D01*
X278185033Y-128251845D01*
X278335014Y-128326835D01*
X278484995Y-128326835D01*
X278634976Y-128251845D01*
X278709966Y-128176854D01*
X278784957Y-128026873D01*
X278859947Y-127726911D01*
X278859947Y-127351959D01*
X278784957Y-127051997D01*
X278709966Y-126902016D01*
X278634976Y-126827026D01*
X278484995Y-126752035D01*
X281259642Y-129362454D02*
X281409623Y-129287463D01*
X281634595Y-129287463D01*
X281859566Y-129362454D01*
X282009547Y-129512434D01*
X282084538Y-129662415D01*
X282159528Y-129962377D01*
X282159528Y-130187349D01*
X282084538Y-130487311D01*
X282009547Y-130637292D01*
X281859566Y-130787273D01*
X281634595Y-130862263D01*
X281484614Y-130862263D01*
X281259642Y-130787273D01*
X281184652Y-130712282D01*
X281184652Y-130187349D01*
X281484614Y-130187349D01*
X280509738Y-130862263D02*
X280509738Y-129287463D01*
X279609852Y-130862263D01*
X279609852Y-129287463D01*
X278859947Y-130862263D02*
X278859947Y-129287463D01*
X278484995Y-129287463D01*
X278260023Y-129362454D01*
X278110042Y-129512434D01*
X278035052Y-129662415D01*
X277960061Y-129962377D01*
X277960061Y-130187349D01*
X278035052Y-130487311D01*
X278110042Y-130637292D01*
X278260023Y-130787273D01*
X278484995Y-130862263D01*
X278859947Y-130862263D01*
X194959642Y-51942746D02*
X195109623Y-51867755D01*
X195334595Y-51867755D01*
X195559566Y-51942746D01*
X195709547Y-52092726D01*
X195784538Y-52242707D01*
X195859528Y-52542669D01*
X195859528Y-52767641D01*
X195784538Y-53067603D01*
X195709547Y-53217584D01*
X195559566Y-53367565D01*
X195334595Y-53442555D01*
X195184614Y-53442555D01*
X194959642Y-53367565D01*
X194884652Y-53292574D01*
X194884652Y-52767641D01*
X195184614Y-52767641D01*
X194209738Y-53442555D02*
X194209738Y-51867755D01*
X193309852Y-53442555D01*
X193309852Y-51867755D01*
X192559947Y-53442555D02*
X192559947Y-51867755D01*
X192184995Y-51867755D01*
X191960023Y-51942746D01*
X191810042Y-52092726D01*
X191735052Y-52242707D01*
X191660061Y-52542669D01*
X191660061Y-52767641D01*
X191735052Y-53067603D01*
X191810042Y-53217584D01*
X191960023Y-53367565D01*
X192184995Y-53442555D01*
X192559947Y-53442555D01*
X194959642Y-54478174D02*
X195109623Y-54403183D01*
X195334595Y-54403183D01*
X195559566Y-54478174D01*
X195709547Y-54628154D01*
X195784538Y-54778135D01*
X195859528Y-55078097D01*
X195859528Y-55303069D01*
X195784538Y-55603031D01*
X195709547Y-55753012D01*
X195559566Y-55902993D01*
X195334595Y-55977983D01*
X195184614Y-55977983D01*
X194959642Y-55902993D01*
X194884652Y-55828002D01*
X194884652Y-55303069D01*
X195184614Y-55303069D01*
X194209738Y-55977983D02*
X194209738Y-54403183D01*
X193309852Y-55977983D01*
X193309852Y-54403183D01*
X192559947Y-55977983D02*
X192559947Y-54403183D01*
X192184995Y-54403183D01*
X191960023Y-54478174D01*
X191810042Y-54628154D01*
X191735052Y-54778135D01*
X191660061Y-55078097D01*
X191660061Y-55303069D01*
X191735052Y-55603031D01*
X191810042Y-55753012D01*
X191960023Y-55902993D01*
X192184995Y-55977983D01*
X192559947Y-55977983D01*
X194959642Y-57013602D02*
X195109623Y-56938611D01*
X195334595Y-56938611D01*
X195559566Y-57013602D01*
X195709547Y-57163582D01*
X195784538Y-57313563D01*
X195859528Y-57613525D01*
X195859528Y-57838497D01*
X195784538Y-58138459D01*
X195709547Y-58288440D01*
X195559566Y-58438421D01*
X195334595Y-58513411D01*
X195184614Y-58513411D01*
X194959642Y-58438421D01*
X194884652Y-58363430D01*
X194884652Y-57838497D01*
X195184614Y-57838497D01*
X194209738Y-58513411D02*
X194209738Y-56938611D01*
X193309852Y-58513411D01*
X193309852Y-56938611D01*
X192559947Y-58513411D02*
X192559947Y-56938611D01*
X192184995Y-56938611D01*
X191960023Y-57013602D01*
X191810042Y-57163582D01*
X191735052Y-57313563D01*
X191660061Y-57613525D01*
X191660061Y-57838497D01*
X191735052Y-58138459D01*
X191810042Y-58288440D01*
X191960023Y-58438421D01*
X192184995Y-58513411D01*
X192559947Y-58513411D01*
X197059376Y-61048839D02*
X197059376Y-59474039D01*
X196459452Y-59474039D01*
X196309471Y-59549030D01*
X196234480Y-59624020D01*
X196159490Y-59774001D01*
X196159490Y-59998972D01*
X196234480Y-60148953D01*
X196309471Y-60223944D01*
X196459452Y-60298934D01*
X197059376Y-60298934D01*
X195484576Y-61048839D02*
X195484576Y-59474039D01*
X195484576Y-60073963D02*
X195334595Y-59998972D01*
X195034633Y-59998972D01*
X194884652Y-60073963D01*
X194809661Y-60148953D01*
X194734671Y-60298934D01*
X194734671Y-60748877D01*
X194809661Y-60898858D01*
X194884652Y-60973849D01*
X195034633Y-61048839D01*
X195334595Y-61048839D01*
X195484576Y-60973849D01*
X193534823Y-60223944D02*
X193309852Y-60298934D01*
X193234861Y-60373925D01*
X193159871Y-60523906D01*
X193159871Y-60748877D01*
X193234861Y-60898858D01*
X193309852Y-60973849D01*
X193459833Y-61048839D01*
X194059757Y-61048839D01*
X194059757Y-59474039D01*
X193534823Y-59474039D01*
X193384842Y-59549030D01*
X193309852Y-59624020D01*
X193234861Y-59774001D01*
X193234861Y-59923982D01*
X193309852Y-60073963D01*
X193384842Y-60148953D01*
X193534823Y-60223944D01*
X194059757Y-60223944D01*
X191660061Y-61048839D02*
X192559947Y-61048839D01*
X192110004Y-61048839D02*
X192110004Y-59474039D01*
X192259985Y-59699010D01*
X192409966Y-59848991D01*
X192559947Y-59923982D01*
X197059376Y-63584267D02*
X197059376Y-62009467D01*
X196459452Y-62009467D01*
X196309471Y-62084458D01*
X196234480Y-62159448D01*
X196159490Y-62309429D01*
X196159490Y-62534400D01*
X196234480Y-62684381D01*
X196309471Y-62759372D01*
X196459452Y-62834362D01*
X197059376Y-62834362D01*
X195484576Y-63584267D02*
X195484576Y-62009467D01*
X195484576Y-62609391D02*
X195334595Y-62534400D01*
X195034633Y-62534400D01*
X194884652Y-62609391D01*
X194809661Y-62684381D01*
X194734671Y-62834362D01*
X194734671Y-63284305D01*
X194809661Y-63434286D01*
X194884652Y-63509277D01*
X195034633Y-63584267D01*
X195334595Y-63584267D01*
X195484576Y-63509277D01*
X193534823Y-62759372D02*
X193309852Y-62834362D01*
X193234861Y-62909353D01*
X193159871Y-63059334D01*
X193159871Y-63284305D01*
X193234861Y-63434286D01*
X193309852Y-63509277D01*
X193459833Y-63584267D01*
X194059757Y-63584267D01*
X194059757Y-62009467D01*
X193534823Y-62009467D01*
X193384842Y-62084458D01*
X193309852Y-62159448D01*
X193234861Y-62309429D01*
X193234861Y-62459410D01*
X193309852Y-62609391D01*
X193384842Y-62684381D01*
X193534823Y-62759372D01*
X194059757Y-62759372D01*
X192634938Y-62009467D02*
X191660061Y-62009467D01*
X192184995Y-62609391D01*
X191960023Y-62609391D01*
X191810042Y-62684381D01*
X191735052Y-62759372D01*
X191660061Y-62909353D01*
X191660061Y-63284305D01*
X191735052Y-63434286D01*
X191810042Y-63509277D01*
X191960023Y-63584267D01*
X192409966Y-63584267D01*
X192559947Y-63509277D01*
X192634938Y-63434286D01*
X197059376Y-66119695D02*
X197059376Y-64544895D01*
X196459452Y-64544895D01*
X196309471Y-64619886D01*
X196234480Y-64694876D01*
X196159490Y-64844857D01*
X196159490Y-65069828D01*
X196234480Y-65219809D01*
X196309471Y-65294800D01*
X196459452Y-65369790D01*
X197059376Y-65369790D01*
X195484576Y-66119695D02*
X195484576Y-64544895D01*
X195484576Y-65144819D02*
X195334595Y-65069828D01*
X195034633Y-65069828D01*
X194884652Y-65144819D01*
X194809661Y-65219809D01*
X194734671Y-65369790D01*
X194734671Y-65819733D01*
X194809661Y-65969714D01*
X194884652Y-66044705D01*
X195034633Y-66119695D01*
X195334595Y-66119695D01*
X195484576Y-66044705D01*
X193534823Y-65294800D02*
X193309852Y-65369790D01*
X193234861Y-65444781D01*
X193159871Y-65594762D01*
X193159871Y-65819733D01*
X193234861Y-65969714D01*
X193309852Y-66044705D01*
X193459833Y-66119695D01*
X194059757Y-66119695D01*
X194059757Y-64544895D01*
X193534823Y-64544895D01*
X193384842Y-64619886D01*
X193309852Y-64694876D01*
X193234861Y-64844857D01*
X193234861Y-64994838D01*
X193309852Y-65144819D01*
X193384842Y-65219809D01*
X193534823Y-65294800D01*
X194059757Y-65294800D01*
X191735052Y-64544895D02*
X192484957Y-64544895D01*
X192559947Y-65294800D01*
X192484957Y-65219809D01*
X192334976Y-65144819D01*
X191960023Y-65144819D01*
X191810042Y-65219809D01*
X191735052Y-65294800D01*
X191660061Y-65444781D01*
X191660061Y-65819733D01*
X191735052Y-65969714D01*
X191810042Y-66044705D01*
X191960023Y-66119695D01*
X192334976Y-66119695D01*
X192484957Y-66044705D01*
X192559947Y-65969714D01*
X197059376Y-68655123D02*
X197059376Y-67080323D01*
X196459452Y-67080323D01*
X196309471Y-67155314D01*
X196234480Y-67230304D01*
X196159490Y-67380285D01*
X196159490Y-67605256D01*
X196234480Y-67755237D01*
X196309471Y-67830228D01*
X196459452Y-67905218D01*
X197059376Y-67905218D01*
X195484576Y-68655123D02*
X195484576Y-67080323D01*
X195484576Y-67680247D02*
X195334595Y-67605256D01*
X195034633Y-67605256D01*
X194884652Y-67680247D01*
X194809661Y-67755237D01*
X194734671Y-67905218D01*
X194734671Y-68355161D01*
X194809661Y-68505142D01*
X194884652Y-68580133D01*
X195034633Y-68655123D01*
X195334595Y-68655123D01*
X195484576Y-68580133D01*
X193534823Y-67830228D02*
X193309852Y-67905218D01*
X193234861Y-67980209D01*
X193159871Y-68130190D01*
X193159871Y-68355161D01*
X193234861Y-68505142D01*
X193309852Y-68580133D01*
X193459833Y-68655123D01*
X194059757Y-68655123D01*
X194059757Y-67080323D01*
X193534823Y-67080323D01*
X193384842Y-67155314D01*
X193309852Y-67230304D01*
X193234861Y-67380285D01*
X193234861Y-67530266D01*
X193309852Y-67680247D01*
X193384842Y-67755237D01*
X193534823Y-67830228D01*
X194059757Y-67830228D01*
X192634938Y-67080323D02*
X191585071Y-67080323D01*
X192259985Y-68655123D01*
X197059376Y-71190551D02*
X197059376Y-69615751D01*
X196459452Y-69615751D01*
X196309471Y-69690742D01*
X196234480Y-69765732D01*
X196159490Y-69915713D01*
X196159490Y-70140684D01*
X196234480Y-70290665D01*
X196309471Y-70365656D01*
X196459452Y-70440646D01*
X197059376Y-70440646D01*
X195484576Y-71190551D02*
X195484576Y-69615751D01*
X195484576Y-70215675D02*
X195334595Y-70140684D01*
X195034633Y-70140684D01*
X194884652Y-70215675D01*
X194809661Y-70290665D01*
X194734671Y-70440646D01*
X194734671Y-70890589D01*
X194809661Y-71040570D01*
X194884652Y-71115561D01*
X195034633Y-71190551D01*
X195334595Y-71190551D01*
X195484576Y-71115561D01*
X193534823Y-70365656D02*
X193309852Y-70440646D01*
X193234861Y-70515637D01*
X193159871Y-70665618D01*
X193159871Y-70890589D01*
X193234861Y-71040570D01*
X193309852Y-71115561D01*
X193459833Y-71190551D01*
X194059757Y-71190551D01*
X194059757Y-69615751D01*
X193534823Y-69615751D01*
X193384842Y-69690742D01*
X193309852Y-69765732D01*
X193234861Y-69915713D01*
X193234861Y-70065694D01*
X193309852Y-70215675D01*
X193384842Y-70290665D01*
X193534823Y-70365656D01*
X194059757Y-70365656D01*
X192409966Y-71190551D02*
X192110004Y-71190551D01*
X191960023Y-71115561D01*
X191885033Y-71040570D01*
X191735052Y-70815599D01*
X191660061Y-70515637D01*
X191660061Y-69915713D01*
X191735052Y-69765732D01*
X191810042Y-69690742D01*
X191960023Y-69615751D01*
X192259985Y-69615751D01*
X192409966Y-69690742D01*
X192484957Y-69765732D01*
X192559947Y-69915713D01*
X192559947Y-70290665D01*
X192484957Y-70440646D01*
X192409966Y-70515637D01*
X192259985Y-70590627D01*
X191960023Y-70590627D01*
X191810042Y-70515637D01*
X191735052Y-70440646D01*
X191660061Y-70290665D01*
X198559185Y-73725979D02*
X198559185Y-72151179D01*
X197959261Y-72151179D01*
X197809280Y-72226170D01*
X197734290Y-72301160D01*
X197659300Y-72451141D01*
X197659300Y-72676112D01*
X197734290Y-72826093D01*
X197809280Y-72901084D01*
X197959261Y-72976074D01*
X198559185Y-72976074D01*
X196984385Y-73725979D02*
X196984385Y-72151179D01*
X196984385Y-72751103D02*
X196834404Y-72676112D01*
X196534442Y-72676112D01*
X196384461Y-72751103D01*
X196309471Y-72826093D01*
X196234480Y-72976074D01*
X196234480Y-73426017D01*
X196309471Y-73575998D01*
X196384461Y-73650989D01*
X196534442Y-73725979D01*
X196834404Y-73725979D01*
X196984385Y-73650989D01*
X195034633Y-72901084D02*
X194809661Y-72976074D01*
X194734671Y-73051065D01*
X194659680Y-73201046D01*
X194659680Y-73426017D01*
X194734671Y-73575998D01*
X194809661Y-73650989D01*
X194959642Y-73725979D01*
X195559566Y-73725979D01*
X195559566Y-72151179D01*
X195034633Y-72151179D01*
X194884652Y-72226170D01*
X194809661Y-72301160D01*
X194734671Y-72451141D01*
X194734671Y-72601122D01*
X194809661Y-72751103D01*
X194884652Y-72826093D01*
X195034633Y-72901084D01*
X195559566Y-72901084D01*
X193159871Y-73725979D02*
X194059757Y-73725979D01*
X193609814Y-73725979D02*
X193609814Y-72151179D01*
X193759795Y-72376150D01*
X193909776Y-72526131D01*
X194059757Y-72601122D01*
X191660061Y-73725979D02*
X192559947Y-73725979D01*
X192110004Y-73725979D02*
X192110004Y-72151179D01*
X192259985Y-72376150D01*
X192409966Y-72526131D01*
X192559947Y-72601122D01*
X198559185Y-76261407D02*
X198559185Y-74686607D01*
X197959261Y-74686607D01*
X197809280Y-74761598D01*
X197734290Y-74836588D01*
X197659300Y-74986569D01*
X197659300Y-75211540D01*
X197734290Y-75361521D01*
X197809280Y-75436512D01*
X197959261Y-75511502D01*
X198559185Y-75511502D01*
X196984385Y-76261407D02*
X196984385Y-74686607D01*
X196984385Y-75286531D02*
X196834404Y-75211540D01*
X196534442Y-75211540D01*
X196384461Y-75286531D01*
X196309471Y-75361521D01*
X196234480Y-75511502D01*
X196234480Y-75961445D01*
X196309471Y-76111426D01*
X196384461Y-76186417D01*
X196534442Y-76261407D01*
X196834404Y-76261407D01*
X196984385Y-76186417D01*
X195034633Y-75436512D02*
X194809661Y-75511502D01*
X194734671Y-75586493D01*
X194659680Y-75736474D01*
X194659680Y-75961445D01*
X194734671Y-76111426D01*
X194809661Y-76186417D01*
X194959642Y-76261407D01*
X195559566Y-76261407D01*
X195559566Y-74686607D01*
X195034633Y-74686607D01*
X194884652Y-74761598D01*
X194809661Y-74836588D01*
X194734671Y-74986569D01*
X194734671Y-75136550D01*
X194809661Y-75286531D01*
X194884652Y-75361521D01*
X195034633Y-75436512D01*
X195559566Y-75436512D01*
X193159871Y-76261407D02*
X194059757Y-76261407D01*
X193609814Y-76261407D02*
X193609814Y-74686607D01*
X193759795Y-74911578D01*
X193909776Y-75061559D01*
X194059757Y-75136550D01*
X192634938Y-74686607D02*
X191660061Y-74686607D01*
X192184995Y-75286531D01*
X191960023Y-75286531D01*
X191810042Y-75361521D01*
X191735052Y-75436512D01*
X191660061Y-75586493D01*
X191660061Y-75961445D01*
X191735052Y-76111426D01*
X191810042Y-76186417D01*
X191960023Y-76261407D01*
X192409966Y-76261407D01*
X192559947Y-76186417D01*
X192634938Y-76111426D01*
X198559185Y-78796835D02*
X198559185Y-77222035D01*
X197959261Y-77222035D01*
X197809280Y-77297026D01*
X197734290Y-77372016D01*
X197659300Y-77521997D01*
X197659300Y-77746968D01*
X197734290Y-77896949D01*
X197809280Y-77971940D01*
X197959261Y-78046930D01*
X198559185Y-78046930D01*
X196984385Y-78796835D02*
X196984385Y-77222035D01*
X196984385Y-77821959D02*
X196834404Y-77746968D01*
X196534442Y-77746968D01*
X196384461Y-77821959D01*
X196309471Y-77896949D01*
X196234480Y-78046930D01*
X196234480Y-78496873D01*
X196309471Y-78646854D01*
X196384461Y-78721845D01*
X196534442Y-78796835D01*
X196834404Y-78796835D01*
X196984385Y-78721845D01*
X195034633Y-77971940D02*
X194809661Y-78046930D01*
X194734671Y-78121921D01*
X194659680Y-78271902D01*
X194659680Y-78496873D01*
X194734671Y-78646854D01*
X194809661Y-78721845D01*
X194959642Y-78796835D01*
X195559566Y-78796835D01*
X195559566Y-77222035D01*
X195034633Y-77222035D01*
X194884652Y-77297026D01*
X194809661Y-77372016D01*
X194734671Y-77521997D01*
X194734671Y-77671978D01*
X194809661Y-77821959D01*
X194884652Y-77896949D01*
X195034633Y-77971940D01*
X195559566Y-77971940D01*
X193159871Y-78796835D02*
X194059757Y-78796835D01*
X193609814Y-78796835D02*
X193609814Y-77222035D01*
X193759795Y-77447006D01*
X193909776Y-77596987D01*
X194059757Y-77671978D01*
X191735052Y-77222035D02*
X192484957Y-77222035D01*
X192559947Y-77971940D01*
X192484957Y-77896949D01*
X192334976Y-77821959D01*
X191960023Y-77821959D01*
X191810042Y-77896949D01*
X191735052Y-77971940D01*
X191660061Y-78121921D01*
X191660061Y-78496873D01*
X191735052Y-78646854D01*
X191810042Y-78721845D01*
X191960023Y-78796835D01*
X192334976Y-78796835D01*
X192484957Y-78721845D01*
X192559947Y-78646854D01*
X194959642Y-79832454D02*
X195109623Y-79757463D01*
X195334595Y-79757463D01*
X195559566Y-79832454D01*
X195709547Y-79982434D01*
X195784538Y-80132415D01*
X195859528Y-80432377D01*
X195859528Y-80657349D01*
X195784538Y-80957311D01*
X195709547Y-81107292D01*
X195559566Y-81257273D01*
X195334595Y-81332263D01*
X195184614Y-81332263D01*
X194959642Y-81257273D01*
X194884652Y-81182282D01*
X194884652Y-80657349D01*
X195184614Y-80657349D01*
X194209738Y-81332263D02*
X194209738Y-79757463D01*
X193309852Y-81332263D01*
X193309852Y-79757463D01*
X192559947Y-81332263D02*
X192559947Y-79757463D01*
X192184995Y-79757463D01*
X191960023Y-79832454D01*
X191810042Y-79982434D01*
X191735052Y-80132415D01*
X191660061Y-80432377D01*
X191660061Y-80657349D01*
X191735052Y-80957311D01*
X191810042Y-81107292D01*
X191960023Y-81257273D01*
X192184995Y-81332263D01*
X192559947Y-81332263D01*
X184690052Y-51942746D02*
X184840033Y-51867755D01*
X185065004Y-51867755D01*
X185289976Y-51942746D01*
X185439957Y-52092726D01*
X185514947Y-52242707D01*
X185589938Y-52542669D01*
X185589938Y-52767641D01*
X185514947Y-53067603D01*
X185439957Y-53217584D01*
X185289976Y-53367565D01*
X185065004Y-53442555D01*
X184915023Y-53442555D01*
X184690052Y-53367565D01*
X184615061Y-53292574D01*
X184615061Y-52767641D01*
X184915023Y-52767641D01*
X183940147Y-53442555D02*
X183940147Y-51867755D01*
X183040261Y-53442555D01*
X183040261Y-51867755D01*
X182290357Y-53442555D02*
X182290357Y-51867755D01*
X181915404Y-51867755D01*
X181690433Y-51942746D01*
X181540452Y-52092726D01*
X181465461Y-52242707D01*
X181390471Y-52542669D01*
X181390471Y-52767641D01*
X181465461Y-53067603D01*
X181540452Y-53217584D01*
X181690433Y-53367565D01*
X181915404Y-53442555D01*
X182290357Y-53442555D01*
X184690052Y-54478174D02*
X184840033Y-54403183D01*
X185065004Y-54403183D01*
X185289976Y-54478174D01*
X185439957Y-54628154D01*
X185514947Y-54778135D01*
X185589938Y-55078097D01*
X185589938Y-55303069D01*
X185514947Y-55603031D01*
X185439957Y-55753012D01*
X185289976Y-55902993D01*
X185065004Y-55977983D01*
X184915023Y-55977983D01*
X184690052Y-55902993D01*
X184615061Y-55828002D01*
X184615061Y-55303069D01*
X184915023Y-55303069D01*
X183940147Y-55977983D02*
X183940147Y-54403183D01*
X183040261Y-55977983D01*
X183040261Y-54403183D01*
X182290357Y-55977983D02*
X182290357Y-54403183D01*
X181915404Y-54403183D01*
X181690433Y-54478174D01*
X181540452Y-54628154D01*
X181465461Y-54778135D01*
X181390471Y-55078097D01*
X181390471Y-55303069D01*
X181465461Y-55603031D01*
X181540452Y-55753012D01*
X181690433Y-55902993D01*
X181915404Y-55977983D01*
X182290357Y-55977983D01*
X184690052Y-57013602D02*
X184840033Y-56938611D01*
X185065004Y-56938611D01*
X185289976Y-57013602D01*
X185439957Y-57163582D01*
X185514947Y-57313563D01*
X185589938Y-57613525D01*
X185589938Y-57838497D01*
X185514947Y-58138459D01*
X185439957Y-58288440D01*
X185289976Y-58438421D01*
X185065004Y-58513411D01*
X184915023Y-58513411D01*
X184690052Y-58438421D01*
X184615061Y-58363430D01*
X184615061Y-57838497D01*
X184915023Y-57838497D01*
X183940147Y-58513411D02*
X183940147Y-56938611D01*
X183040261Y-58513411D01*
X183040261Y-56938611D01*
X182290357Y-58513411D02*
X182290357Y-56938611D01*
X181915404Y-56938611D01*
X181690433Y-57013602D01*
X181540452Y-57163582D01*
X181465461Y-57313563D01*
X181390471Y-57613525D01*
X181390471Y-57838497D01*
X181465461Y-58138459D01*
X181540452Y-58288440D01*
X181690433Y-58438421D01*
X181915404Y-58513411D01*
X182290357Y-58513411D01*
X185514947Y-61048839D02*
X185514947Y-59474039D01*
X184915023Y-59474039D01*
X184765042Y-59549030D01*
X184690052Y-59624020D01*
X184615061Y-59774001D01*
X184615061Y-59998972D01*
X184690052Y-60148953D01*
X184765042Y-60223944D01*
X184915023Y-60298934D01*
X185514947Y-60298934D01*
X183940147Y-61048839D02*
X183940147Y-59474039D01*
X183940147Y-60073963D02*
X183790166Y-59998972D01*
X183490204Y-59998972D01*
X183340223Y-60073963D01*
X183265233Y-60148953D01*
X183190242Y-60298934D01*
X183190242Y-60748877D01*
X183265233Y-60898858D01*
X183340223Y-60973849D01*
X183490204Y-61048839D01*
X183790166Y-61048839D01*
X183940147Y-60973849D01*
X181990395Y-60223944D02*
X181765423Y-60298934D01*
X181690433Y-60373925D01*
X181615442Y-60523906D01*
X181615442Y-60748877D01*
X181690433Y-60898858D01*
X181765423Y-60973849D01*
X181915404Y-61048839D01*
X182515328Y-61048839D01*
X182515328Y-59474039D01*
X181990395Y-59474039D01*
X181840414Y-59549030D01*
X181765423Y-59624020D01*
X181690433Y-59774001D01*
X181690433Y-59923982D01*
X181765423Y-60073963D01*
X181840414Y-60148953D01*
X181990395Y-60223944D01*
X182515328Y-60223944D01*
X180640566Y-59474039D02*
X180490585Y-59474039D01*
X180340604Y-59549030D01*
X180265614Y-59624020D01*
X180190623Y-59774001D01*
X180115633Y-60073963D01*
X180115633Y-60448915D01*
X180190623Y-60748877D01*
X180265614Y-60898858D01*
X180340604Y-60973849D01*
X180490585Y-61048839D01*
X180640566Y-61048839D01*
X180790547Y-60973849D01*
X180865538Y-60898858D01*
X180940528Y-60748877D01*
X181015519Y-60448915D01*
X181015519Y-60073963D01*
X180940528Y-59774001D01*
X180865538Y-59624020D01*
X180790547Y-59549030D01*
X180640566Y-59474039D01*
X185514947Y-63584267D02*
X185514947Y-62009467D01*
X184915023Y-62009467D01*
X184765042Y-62084458D01*
X184690052Y-62159448D01*
X184615061Y-62309429D01*
X184615061Y-62534400D01*
X184690052Y-62684381D01*
X184765042Y-62759372D01*
X184915023Y-62834362D01*
X185514947Y-62834362D01*
X183940147Y-63584267D02*
X183940147Y-62009467D01*
X183940147Y-62609391D02*
X183790166Y-62534400D01*
X183490204Y-62534400D01*
X183340223Y-62609391D01*
X183265233Y-62684381D01*
X183190242Y-62834362D01*
X183190242Y-63284305D01*
X183265233Y-63434286D01*
X183340223Y-63509277D01*
X183490204Y-63584267D01*
X183790166Y-63584267D01*
X183940147Y-63509277D01*
X181990395Y-62759372D02*
X181765423Y-62834362D01*
X181690433Y-62909353D01*
X181615442Y-63059334D01*
X181615442Y-63284305D01*
X181690433Y-63434286D01*
X181765423Y-63509277D01*
X181915404Y-63584267D01*
X182515328Y-63584267D01*
X182515328Y-62009467D01*
X181990395Y-62009467D01*
X181840414Y-62084458D01*
X181765423Y-62159448D01*
X181690433Y-62309429D01*
X181690433Y-62459410D01*
X181765423Y-62609391D01*
X181840414Y-62684381D01*
X181990395Y-62759372D01*
X182515328Y-62759372D01*
X181015519Y-62159448D02*
X180940528Y-62084458D01*
X180790547Y-62009467D01*
X180415595Y-62009467D01*
X180265614Y-62084458D01*
X180190623Y-62159448D01*
X180115633Y-62309429D01*
X180115633Y-62459410D01*
X180190623Y-62684381D01*
X181090509Y-63584267D01*
X180115633Y-63584267D01*
X185514947Y-66119695D02*
X185514947Y-64544895D01*
X184915023Y-64544895D01*
X184765042Y-64619886D01*
X184690052Y-64694876D01*
X184615061Y-64844857D01*
X184615061Y-65069828D01*
X184690052Y-65219809D01*
X184765042Y-65294800D01*
X184915023Y-65369790D01*
X185514947Y-65369790D01*
X183940147Y-66119695D02*
X183940147Y-64544895D01*
X183940147Y-65144819D02*
X183790166Y-65069828D01*
X183490204Y-65069828D01*
X183340223Y-65144819D01*
X183265233Y-65219809D01*
X183190242Y-65369790D01*
X183190242Y-65819733D01*
X183265233Y-65969714D01*
X183340223Y-66044705D01*
X183490204Y-66119695D01*
X183790166Y-66119695D01*
X183940147Y-66044705D01*
X181990395Y-65294800D02*
X181765423Y-65369790D01*
X181690433Y-65444781D01*
X181615442Y-65594762D01*
X181615442Y-65819733D01*
X181690433Y-65969714D01*
X181765423Y-66044705D01*
X181915404Y-66119695D01*
X182515328Y-66119695D01*
X182515328Y-64544895D01*
X181990395Y-64544895D01*
X181840414Y-64619886D01*
X181765423Y-64694876D01*
X181690433Y-64844857D01*
X181690433Y-64994838D01*
X181765423Y-65144819D01*
X181840414Y-65219809D01*
X181990395Y-65294800D01*
X182515328Y-65294800D01*
X180265614Y-65069828D02*
X180265614Y-66119695D01*
X180640566Y-64469905D02*
X181015519Y-65594762D01*
X180040642Y-65594762D01*
X185514947Y-68655123D02*
X185514947Y-67080323D01*
X184915023Y-67080323D01*
X184765042Y-67155314D01*
X184690052Y-67230304D01*
X184615061Y-67380285D01*
X184615061Y-67605256D01*
X184690052Y-67755237D01*
X184765042Y-67830228D01*
X184915023Y-67905218D01*
X185514947Y-67905218D01*
X183940147Y-68655123D02*
X183940147Y-67080323D01*
X183940147Y-67680247D02*
X183790166Y-67605256D01*
X183490204Y-67605256D01*
X183340223Y-67680247D01*
X183265233Y-67755237D01*
X183190242Y-67905218D01*
X183190242Y-68355161D01*
X183265233Y-68505142D01*
X183340223Y-68580133D01*
X183490204Y-68655123D01*
X183790166Y-68655123D01*
X183940147Y-68580133D01*
X181990395Y-67830228D02*
X181765423Y-67905218D01*
X181690433Y-67980209D01*
X181615442Y-68130190D01*
X181615442Y-68355161D01*
X181690433Y-68505142D01*
X181765423Y-68580133D01*
X181915404Y-68655123D01*
X182515328Y-68655123D01*
X182515328Y-67080323D01*
X181990395Y-67080323D01*
X181840414Y-67155314D01*
X181765423Y-67230304D01*
X181690433Y-67380285D01*
X181690433Y-67530266D01*
X181765423Y-67680247D01*
X181840414Y-67755237D01*
X181990395Y-67830228D01*
X182515328Y-67830228D01*
X180265614Y-67080323D02*
X180565576Y-67080323D01*
X180715557Y-67155314D01*
X180790547Y-67230304D01*
X180940528Y-67455275D01*
X181015519Y-67755237D01*
X181015519Y-68355161D01*
X180940528Y-68505142D01*
X180865538Y-68580133D01*
X180715557Y-68655123D01*
X180415595Y-68655123D01*
X180265614Y-68580133D01*
X180190623Y-68505142D01*
X180115633Y-68355161D01*
X180115633Y-67980209D01*
X180190623Y-67830228D01*
X180265614Y-67755237D01*
X180415595Y-67680247D01*
X180715557Y-67680247D01*
X180865538Y-67755237D01*
X180940528Y-67830228D01*
X181015519Y-67980209D01*
X185514947Y-71190551D02*
X185514947Y-69615751D01*
X184915023Y-69615751D01*
X184765042Y-69690742D01*
X184690052Y-69765732D01*
X184615061Y-69915713D01*
X184615061Y-70140684D01*
X184690052Y-70290665D01*
X184765042Y-70365656D01*
X184915023Y-70440646D01*
X185514947Y-70440646D01*
X183940147Y-71190551D02*
X183940147Y-69615751D01*
X183940147Y-70215675D02*
X183790166Y-70140684D01*
X183490204Y-70140684D01*
X183340223Y-70215675D01*
X183265233Y-70290665D01*
X183190242Y-70440646D01*
X183190242Y-70890589D01*
X183265233Y-71040570D01*
X183340223Y-71115561D01*
X183490204Y-71190551D01*
X183790166Y-71190551D01*
X183940147Y-71115561D01*
X181990395Y-70365656D02*
X181765423Y-70440646D01*
X181690433Y-70515637D01*
X181615442Y-70665618D01*
X181615442Y-70890589D01*
X181690433Y-71040570D01*
X181765423Y-71115561D01*
X181915404Y-71190551D01*
X182515328Y-71190551D01*
X182515328Y-69615751D01*
X181990395Y-69615751D01*
X181840414Y-69690742D01*
X181765423Y-69765732D01*
X181690433Y-69915713D01*
X181690433Y-70065694D01*
X181765423Y-70215675D01*
X181840414Y-70290665D01*
X181990395Y-70365656D01*
X182515328Y-70365656D01*
X180715557Y-70290665D02*
X180865538Y-70215675D01*
X180940528Y-70140684D01*
X181015519Y-69990703D01*
X181015519Y-69915713D01*
X180940528Y-69765732D01*
X180865538Y-69690742D01*
X180715557Y-69615751D01*
X180415595Y-69615751D01*
X180265614Y-69690742D01*
X180190623Y-69765732D01*
X180115633Y-69915713D01*
X180115633Y-69990703D01*
X180190623Y-70140684D01*
X180265614Y-70215675D01*
X180415595Y-70290665D01*
X180715557Y-70290665D01*
X180865538Y-70365656D01*
X180940528Y-70440646D01*
X181015519Y-70590627D01*
X181015519Y-70890589D01*
X180940528Y-71040570D01*
X180865538Y-71115561D01*
X180715557Y-71190551D01*
X180415595Y-71190551D01*
X180265614Y-71115561D01*
X180190623Y-71040570D01*
X180115633Y-70890589D01*
X180115633Y-70590627D01*
X180190623Y-70440646D01*
X180265614Y-70365656D01*
X180415595Y-70290665D01*
X185514947Y-73725979D02*
X185514947Y-72151179D01*
X184915023Y-72151179D01*
X184765042Y-72226170D01*
X184690052Y-72301160D01*
X184615061Y-72451141D01*
X184615061Y-72676112D01*
X184690052Y-72826093D01*
X184765042Y-72901084D01*
X184915023Y-72976074D01*
X185514947Y-72976074D01*
X183940147Y-73725979D02*
X183940147Y-72151179D01*
X183940147Y-72751103D02*
X183790166Y-72676112D01*
X183490204Y-72676112D01*
X183340223Y-72751103D01*
X183265233Y-72826093D01*
X183190242Y-72976074D01*
X183190242Y-73426017D01*
X183265233Y-73575998D01*
X183340223Y-73650989D01*
X183490204Y-73725979D01*
X183790166Y-73725979D01*
X183940147Y-73650989D01*
X181990395Y-72901084D02*
X181765423Y-72976074D01*
X181690433Y-73051065D01*
X181615442Y-73201046D01*
X181615442Y-73426017D01*
X181690433Y-73575998D01*
X181765423Y-73650989D01*
X181915404Y-73725979D01*
X182515328Y-73725979D01*
X182515328Y-72151179D01*
X181990395Y-72151179D01*
X181840414Y-72226170D01*
X181765423Y-72301160D01*
X181690433Y-72451141D01*
X181690433Y-72601122D01*
X181765423Y-72751103D01*
X181840414Y-72826093D01*
X181990395Y-72901084D01*
X182515328Y-72901084D01*
X180115633Y-73725979D02*
X181015519Y-73725979D01*
X180565576Y-73725979D02*
X180565576Y-72151179D01*
X180715557Y-72376150D01*
X180865538Y-72526131D01*
X181015519Y-72601122D01*
X179140757Y-72151179D02*
X178990776Y-72151179D01*
X178840795Y-72226170D01*
X178765804Y-72301160D01*
X178690814Y-72451141D01*
X178615823Y-72751103D01*
X178615823Y-73126055D01*
X178690814Y-73426017D01*
X178765804Y-73575998D01*
X178840795Y-73650989D01*
X178990776Y-73725979D01*
X179140757Y-73725979D01*
X179290738Y-73650989D01*
X179365728Y-73575998D01*
X179440719Y-73426017D01*
X179515709Y-73126055D01*
X179515709Y-72751103D01*
X179440719Y-72451141D01*
X179365728Y-72301160D01*
X179290738Y-72226170D01*
X179140757Y-72151179D01*
X185514947Y-76261407D02*
X185514947Y-74686607D01*
X184915023Y-74686607D01*
X184765042Y-74761598D01*
X184690052Y-74836588D01*
X184615061Y-74986569D01*
X184615061Y-75211540D01*
X184690052Y-75361521D01*
X184765042Y-75436512D01*
X184915023Y-75511502D01*
X185514947Y-75511502D01*
X183940147Y-76261407D02*
X183940147Y-74686607D01*
X183940147Y-75286531D02*
X183790166Y-75211540D01*
X183490204Y-75211540D01*
X183340223Y-75286531D01*
X183265233Y-75361521D01*
X183190242Y-75511502D01*
X183190242Y-75961445D01*
X183265233Y-76111426D01*
X183340223Y-76186417D01*
X183490204Y-76261407D01*
X183790166Y-76261407D01*
X183940147Y-76186417D01*
X181990395Y-75436512D02*
X181765423Y-75511502D01*
X181690433Y-75586493D01*
X181615442Y-75736474D01*
X181615442Y-75961445D01*
X181690433Y-76111426D01*
X181765423Y-76186417D01*
X181915404Y-76261407D01*
X182515328Y-76261407D01*
X182515328Y-74686607D01*
X181990395Y-74686607D01*
X181840414Y-74761598D01*
X181765423Y-74836588D01*
X181690433Y-74986569D01*
X181690433Y-75136550D01*
X181765423Y-75286531D01*
X181840414Y-75361521D01*
X181990395Y-75436512D01*
X182515328Y-75436512D01*
X180115633Y-76261407D02*
X181015519Y-76261407D01*
X180565576Y-76261407D02*
X180565576Y-74686607D01*
X180715557Y-74911578D01*
X180865538Y-75061559D01*
X181015519Y-75136550D01*
X179515709Y-74836588D02*
X179440719Y-74761598D01*
X179290738Y-74686607D01*
X178915785Y-74686607D01*
X178765804Y-74761598D01*
X178690814Y-74836588D01*
X178615823Y-74986569D01*
X178615823Y-75136550D01*
X178690814Y-75361521D01*
X179590700Y-76261407D01*
X178615823Y-76261407D01*
X185514947Y-78796835D02*
X185514947Y-77222035D01*
X184915023Y-77222035D01*
X184765042Y-77297026D01*
X184690052Y-77372016D01*
X184615061Y-77521997D01*
X184615061Y-77746968D01*
X184690052Y-77896949D01*
X184765042Y-77971940D01*
X184915023Y-78046930D01*
X185514947Y-78046930D01*
X183940147Y-78796835D02*
X183940147Y-77222035D01*
X183940147Y-77821959D02*
X183790166Y-77746968D01*
X183490204Y-77746968D01*
X183340223Y-77821959D01*
X183265233Y-77896949D01*
X183190242Y-78046930D01*
X183190242Y-78496873D01*
X183265233Y-78646854D01*
X183340223Y-78721845D01*
X183490204Y-78796835D01*
X183790166Y-78796835D01*
X183940147Y-78721845D01*
X181990395Y-77971940D02*
X181765423Y-78046930D01*
X181690433Y-78121921D01*
X181615442Y-78271902D01*
X181615442Y-78496873D01*
X181690433Y-78646854D01*
X181765423Y-78721845D01*
X181915404Y-78796835D01*
X182515328Y-78796835D01*
X182515328Y-77222035D01*
X181990395Y-77222035D01*
X181840414Y-77297026D01*
X181765423Y-77372016D01*
X181690433Y-77521997D01*
X181690433Y-77671978D01*
X181765423Y-77821959D01*
X181840414Y-77896949D01*
X181990395Y-77971940D01*
X182515328Y-77971940D01*
X180115633Y-78796835D02*
X181015519Y-78796835D01*
X180565576Y-78796835D02*
X180565576Y-77222035D01*
X180715557Y-77447006D01*
X180865538Y-77596987D01*
X181015519Y-77671978D01*
X178765804Y-77746968D02*
X178765804Y-78796835D01*
X179140757Y-77147045D02*
X179515709Y-78271902D01*
X178540833Y-78271902D01*
X184690052Y-79832454D02*
X184840033Y-79757463D01*
X185065004Y-79757463D01*
X185289976Y-79832454D01*
X185439957Y-79982434D01*
X185514947Y-80132415D01*
X185589938Y-80432377D01*
X185589938Y-80657349D01*
X185514947Y-80957311D01*
X185439957Y-81107292D01*
X185289976Y-81257273D01*
X185065004Y-81332263D01*
X184915023Y-81332263D01*
X184690052Y-81257273D01*
X184615061Y-81182282D01*
X184615061Y-80657349D01*
X184915023Y-80657349D01*
X183940147Y-81332263D02*
X183940147Y-79757463D01*
X183040261Y-81332263D01*
X183040261Y-79757463D01*
X182290357Y-81332263D02*
X182290357Y-79757463D01*
X181915404Y-79757463D01*
X181690433Y-79832454D01*
X181540452Y-79982434D01*
X181465461Y-80132415D01*
X181390471Y-80432377D01*
X181390471Y-80657349D01*
X181465461Y-80957311D01*
X181540452Y-81107292D01*
X181690433Y-81257273D01*
X181915404Y-81332263D01*
X182290357Y-81332263D01*
X281319642Y-51942746D02*
X281469623Y-51867755D01*
X281694595Y-51867755D01*
X281919566Y-51942746D01*
X282069547Y-52092726D01*
X282144538Y-52242707D01*
X282219528Y-52542669D01*
X282219528Y-52767641D01*
X282144538Y-53067603D01*
X282069547Y-53217584D01*
X281919566Y-53367565D01*
X281694595Y-53442555D01*
X281544614Y-53442555D01*
X281319642Y-53367565D01*
X281244652Y-53292574D01*
X281244652Y-52767641D01*
X281544614Y-52767641D01*
X280569738Y-53442555D02*
X280569738Y-51867755D01*
X279669852Y-53442555D01*
X279669852Y-51867755D01*
X278919947Y-53442555D02*
X278919947Y-51867755D01*
X278544995Y-51867755D01*
X278320023Y-51942746D01*
X278170042Y-52092726D01*
X278095052Y-52242707D01*
X278020061Y-52542669D01*
X278020061Y-52767641D01*
X278095052Y-53067603D01*
X278170042Y-53217584D01*
X278320023Y-53367565D01*
X278544995Y-53442555D01*
X278919947Y-53442555D01*
X281319642Y-54478174D02*
X281469623Y-54403183D01*
X281694595Y-54403183D01*
X281919566Y-54478174D01*
X282069547Y-54628154D01*
X282144538Y-54778135D01*
X282219528Y-55078097D01*
X282219528Y-55303069D01*
X282144538Y-55603031D01*
X282069547Y-55753012D01*
X281919566Y-55902993D01*
X281694595Y-55977983D01*
X281544614Y-55977983D01*
X281319642Y-55902993D01*
X281244652Y-55828002D01*
X281244652Y-55303069D01*
X281544614Y-55303069D01*
X280569738Y-55977983D02*
X280569738Y-54403183D01*
X279669852Y-55977983D01*
X279669852Y-54403183D01*
X278919947Y-55977983D02*
X278919947Y-54403183D01*
X278544995Y-54403183D01*
X278320023Y-54478174D01*
X278170042Y-54628154D01*
X278095052Y-54778135D01*
X278020061Y-55078097D01*
X278020061Y-55303069D01*
X278095052Y-55603031D01*
X278170042Y-55753012D01*
X278320023Y-55902993D01*
X278544995Y-55977983D01*
X278919947Y-55977983D01*
X281319642Y-57013602D02*
X281469623Y-56938611D01*
X281694595Y-56938611D01*
X281919566Y-57013602D01*
X282069547Y-57163582D01*
X282144538Y-57313563D01*
X282219528Y-57613525D01*
X282219528Y-57838497D01*
X282144538Y-58138459D01*
X282069547Y-58288440D01*
X281919566Y-58438421D01*
X281694595Y-58513411D01*
X281544614Y-58513411D01*
X281319642Y-58438421D01*
X281244652Y-58363430D01*
X281244652Y-57838497D01*
X281544614Y-57838497D01*
X280569738Y-58513411D02*
X280569738Y-56938611D01*
X279669852Y-58513411D01*
X279669852Y-56938611D01*
X278919947Y-58513411D02*
X278919947Y-56938611D01*
X278544995Y-56938611D01*
X278320023Y-57013602D01*
X278170042Y-57163582D01*
X278095052Y-57313563D01*
X278020061Y-57613525D01*
X278020061Y-57838497D01*
X278095052Y-58138459D01*
X278170042Y-58288440D01*
X278320023Y-58438421D01*
X278544995Y-58513411D01*
X278919947Y-58513411D01*
X283194404Y-61048839D02*
X283194404Y-59474039D01*
X282594480Y-59474039D01*
X282444500Y-59549030D01*
X282369509Y-59624020D01*
X282294519Y-59774001D01*
X282294519Y-59998972D01*
X282369509Y-60148953D01*
X282444500Y-60223944D01*
X282594480Y-60298934D01*
X283194404Y-60298934D01*
X281619604Y-61048839D02*
X281619604Y-59474039D01*
X281619604Y-60073963D02*
X281469623Y-59998972D01*
X281169661Y-59998972D01*
X281019680Y-60073963D01*
X280944690Y-60148953D01*
X280869700Y-60298934D01*
X280869700Y-60748877D01*
X280944690Y-60898858D01*
X281019680Y-60973849D01*
X281169661Y-61048839D01*
X281469623Y-61048839D01*
X281619604Y-60973849D01*
X280269776Y-60598896D02*
X279519871Y-60598896D01*
X280419757Y-61048839D02*
X279894823Y-59474039D01*
X279369890Y-61048839D01*
X278020061Y-61048839D02*
X278919947Y-61048839D01*
X278470004Y-61048839D02*
X278470004Y-59474039D01*
X278619985Y-59699010D01*
X278769966Y-59848991D01*
X278919947Y-59923982D01*
X283194404Y-63584267D02*
X283194404Y-62009467D01*
X282594480Y-62009467D01*
X282444500Y-62084458D01*
X282369509Y-62159448D01*
X282294519Y-62309429D01*
X282294519Y-62534400D01*
X282369509Y-62684381D01*
X282444500Y-62759372D01*
X282594480Y-62834362D01*
X283194404Y-62834362D01*
X281619604Y-63584267D02*
X281619604Y-62009467D01*
X281619604Y-62609391D02*
X281469623Y-62534400D01*
X281169661Y-62534400D01*
X281019680Y-62609391D01*
X280944690Y-62684381D01*
X280869700Y-62834362D01*
X280869700Y-63284305D01*
X280944690Y-63434286D01*
X281019680Y-63509277D01*
X281169661Y-63584267D01*
X281469623Y-63584267D01*
X281619604Y-63509277D01*
X280269776Y-63134324D02*
X279519871Y-63134324D01*
X280419757Y-63584267D02*
X279894823Y-62009467D01*
X279369890Y-63584267D01*
X278994938Y-62009467D02*
X278020061Y-62009467D01*
X278544995Y-62609391D01*
X278320023Y-62609391D01*
X278170042Y-62684381D01*
X278095052Y-62759372D01*
X278020061Y-62909353D01*
X278020061Y-63284305D01*
X278095052Y-63434286D01*
X278170042Y-63509277D01*
X278320023Y-63584267D01*
X278769966Y-63584267D01*
X278919947Y-63509277D01*
X278994938Y-63434286D01*
X283194404Y-66119695D02*
X283194404Y-64544895D01*
X282594480Y-64544895D01*
X282444500Y-64619886D01*
X282369509Y-64694876D01*
X282294519Y-64844857D01*
X282294519Y-65069828D01*
X282369509Y-65219809D01*
X282444500Y-65294800D01*
X282594480Y-65369790D01*
X283194404Y-65369790D01*
X281619604Y-66119695D02*
X281619604Y-64544895D01*
X281619604Y-65144819D02*
X281469623Y-65069828D01*
X281169661Y-65069828D01*
X281019680Y-65144819D01*
X280944690Y-65219809D01*
X280869700Y-65369790D01*
X280869700Y-65819733D01*
X280944690Y-65969714D01*
X281019680Y-66044705D01*
X281169661Y-66119695D01*
X281469623Y-66119695D01*
X281619604Y-66044705D01*
X280269776Y-65669752D02*
X279519871Y-65669752D01*
X280419757Y-66119695D02*
X279894823Y-64544895D01*
X279369890Y-66119695D01*
X278095052Y-64544895D02*
X278844957Y-64544895D01*
X278919947Y-65294800D01*
X278844957Y-65219809D01*
X278694976Y-65144819D01*
X278320023Y-65144819D01*
X278170042Y-65219809D01*
X278095052Y-65294800D01*
X278020061Y-65444781D01*
X278020061Y-65819733D01*
X278095052Y-65969714D01*
X278170042Y-66044705D01*
X278320023Y-66119695D01*
X278694976Y-66119695D01*
X278844957Y-66044705D01*
X278919947Y-65969714D01*
X283194404Y-68655123D02*
X283194404Y-67080323D01*
X282594480Y-67080323D01*
X282444500Y-67155314D01*
X282369509Y-67230304D01*
X282294519Y-67380285D01*
X282294519Y-67605256D01*
X282369509Y-67755237D01*
X282444500Y-67830228D01*
X282594480Y-67905218D01*
X283194404Y-67905218D01*
X281619604Y-68655123D02*
X281619604Y-67080323D01*
X281619604Y-67680247D02*
X281469623Y-67605256D01*
X281169661Y-67605256D01*
X281019680Y-67680247D01*
X280944690Y-67755237D01*
X280869700Y-67905218D01*
X280869700Y-68355161D01*
X280944690Y-68505142D01*
X281019680Y-68580133D01*
X281169661Y-68655123D01*
X281469623Y-68655123D01*
X281619604Y-68580133D01*
X280269776Y-68205180D02*
X279519871Y-68205180D01*
X280419757Y-68655123D02*
X279894823Y-67080323D01*
X279369890Y-68655123D01*
X278994938Y-67080323D02*
X277945071Y-67080323D01*
X278619985Y-68655123D01*
X283194404Y-71190551D02*
X283194404Y-69615751D01*
X282594480Y-69615751D01*
X282444500Y-69690742D01*
X282369509Y-69765732D01*
X282294519Y-69915713D01*
X282294519Y-70140684D01*
X282369509Y-70290665D01*
X282444500Y-70365656D01*
X282594480Y-70440646D01*
X283194404Y-70440646D01*
X281619604Y-71190551D02*
X281619604Y-69615751D01*
X281619604Y-70215675D02*
X281469623Y-70140684D01*
X281169661Y-70140684D01*
X281019680Y-70215675D01*
X280944690Y-70290665D01*
X280869700Y-70440646D01*
X280869700Y-70890589D01*
X280944690Y-71040570D01*
X281019680Y-71115561D01*
X281169661Y-71190551D01*
X281469623Y-71190551D01*
X281619604Y-71115561D01*
X280269776Y-70740608D02*
X279519871Y-70740608D01*
X280419757Y-71190551D02*
X279894823Y-69615751D01*
X279369890Y-71190551D01*
X278769966Y-71190551D02*
X278470004Y-71190551D01*
X278320023Y-71115561D01*
X278245033Y-71040570D01*
X278095052Y-70815599D01*
X278020061Y-70515637D01*
X278020061Y-69915713D01*
X278095052Y-69765732D01*
X278170042Y-69690742D01*
X278320023Y-69615751D01*
X278619985Y-69615751D01*
X278769966Y-69690742D01*
X278844957Y-69765732D01*
X278919947Y-69915713D01*
X278919947Y-70290665D01*
X278844957Y-70440646D01*
X278769966Y-70515637D01*
X278619985Y-70590627D01*
X278320023Y-70590627D01*
X278170042Y-70515637D01*
X278095052Y-70440646D01*
X278020061Y-70290665D01*
X284694214Y-73725979D02*
X284694214Y-72151179D01*
X284094290Y-72151179D01*
X283944309Y-72226170D01*
X283869319Y-72301160D01*
X283794328Y-72451141D01*
X283794328Y-72676112D01*
X283869319Y-72826093D01*
X283944309Y-72901084D01*
X284094290Y-72976074D01*
X284694214Y-72976074D01*
X283119414Y-73725979D02*
X283119414Y-72151179D01*
X283119414Y-72751103D02*
X282969433Y-72676112D01*
X282669471Y-72676112D01*
X282519490Y-72751103D01*
X282444500Y-72826093D01*
X282369509Y-72976074D01*
X282369509Y-73426017D01*
X282444500Y-73575998D01*
X282519490Y-73650989D01*
X282669471Y-73725979D01*
X282969433Y-73725979D01*
X283119414Y-73650989D01*
X281769585Y-73276036D02*
X281019680Y-73276036D01*
X281919566Y-73725979D02*
X281394633Y-72151179D01*
X280869700Y-73725979D01*
X279519871Y-73725979D02*
X280419757Y-73725979D01*
X279969814Y-73725979D02*
X279969814Y-72151179D01*
X280119795Y-72376150D01*
X280269776Y-72526131D01*
X280419757Y-72601122D01*
X278020061Y-73725979D02*
X278919947Y-73725979D01*
X278470004Y-73725979D02*
X278470004Y-72151179D01*
X278619985Y-72376150D01*
X278769966Y-72526131D01*
X278919947Y-72601122D01*
X284694214Y-76261407D02*
X284694214Y-74686607D01*
X284094290Y-74686607D01*
X283944309Y-74761598D01*
X283869319Y-74836588D01*
X283794328Y-74986569D01*
X283794328Y-75211540D01*
X283869319Y-75361521D01*
X283944309Y-75436512D01*
X284094290Y-75511502D01*
X284694214Y-75511502D01*
X283119414Y-76261407D02*
X283119414Y-74686607D01*
X283119414Y-75286531D02*
X282969433Y-75211540D01*
X282669471Y-75211540D01*
X282519490Y-75286531D01*
X282444500Y-75361521D01*
X282369509Y-75511502D01*
X282369509Y-75961445D01*
X282444500Y-76111426D01*
X282519490Y-76186417D01*
X282669471Y-76261407D01*
X282969433Y-76261407D01*
X283119414Y-76186417D01*
X281769585Y-75811464D02*
X281019680Y-75811464D01*
X281919566Y-76261407D02*
X281394633Y-74686607D01*
X280869700Y-76261407D01*
X279519871Y-76261407D02*
X280419757Y-76261407D01*
X279969814Y-76261407D02*
X279969814Y-74686607D01*
X280119795Y-74911578D01*
X280269776Y-75061559D01*
X280419757Y-75136550D01*
X278994938Y-74686607D02*
X278020061Y-74686607D01*
X278544995Y-75286531D01*
X278320023Y-75286531D01*
X278170042Y-75361521D01*
X278095052Y-75436512D01*
X278020061Y-75586493D01*
X278020061Y-75961445D01*
X278095052Y-76111426D01*
X278170042Y-76186417D01*
X278320023Y-76261407D01*
X278769966Y-76261407D01*
X278919947Y-76186417D01*
X278994938Y-76111426D01*
X284694214Y-78796835D02*
X284694214Y-77222035D01*
X284094290Y-77222035D01*
X283944309Y-77297026D01*
X283869319Y-77372016D01*
X283794328Y-77521997D01*
X283794328Y-77746968D01*
X283869319Y-77896949D01*
X283944309Y-77971940D01*
X284094290Y-78046930D01*
X284694214Y-78046930D01*
X283119414Y-78796835D02*
X283119414Y-77222035D01*
X283119414Y-77821959D02*
X282969433Y-77746968D01*
X282669471Y-77746968D01*
X282519490Y-77821959D01*
X282444500Y-77896949D01*
X282369509Y-78046930D01*
X282369509Y-78496873D01*
X282444500Y-78646854D01*
X282519490Y-78721845D01*
X282669471Y-78796835D01*
X282969433Y-78796835D01*
X283119414Y-78721845D01*
X281769585Y-78346892D02*
X281019680Y-78346892D01*
X281919566Y-78796835D02*
X281394633Y-77222035D01*
X280869700Y-78796835D01*
X279519871Y-78796835D02*
X280419757Y-78796835D01*
X279969814Y-78796835D02*
X279969814Y-77222035D01*
X280119795Y-77447006D01*
X280269776Y-77596987D01*
X280419757Y-77671978D01*
X278095052Y-77222035D02*
X278844957Y-77222035D01*
X278919947Y-77971940D01*
X278844957Y-77896949D01*
X278694976Y-77821959D01*
X278320023Y-77821959D01*
X278170042Y-77896949D01*
X278095052Y-77971940D01*
X278020061Y-78121921D01*
X278020061Y-78496873D01*
X278095052Y-78646854D01*
X278170042Y-78721845D01*
X278320023Y-78796835D01*
X278694976Y-78796835D01*
X278844957Y-78721845D01*
X278919947Y-78646854D01*
X281319642Y-79832454D02*
X281469623Y-79757463D01*
X281694595Y-79757463D01*
X281919566Y-79832454D01*
X282069547Y-79982434D01*
X282144538Y-80132415D01*
X282219528Y-80432377D01*
X282219528Y-80657349D01*
X282144538Y-80957311D01*
X282069547Y-81107292D01*
X281919566Y-81257273D01*
X281694595Y-81332263D01*
X281544614Y-81332263D01*
X281319642Y-81257273D01*
X281244652Y-81182282D01*
X281244652Y-80657349D01*
X281544614Y-80657349D01*
X280569738Y-81332263D02*
X280569738Y-79757463D01*
X279669852Y-81332263D01*
X279669852Y-79757463D01*
X278919947Y-81332263D02*
X278919947Y-79757463D01*
X278544995Y-79757463D01*
X278320023Y-79832454D01*
X278170042Y-79982434D01*
X278095052Y-80132415D01*
X278020061Y-80432377D01*
X278020061Y-80657349D01*
X278095052Y-80957311D01*
X278170042Y-81107292D01*
X278320023Y-81257273D01*
X278544995Y-81332263D01*
X278919947Y-81332263D01*
X271050052Y-51942746D02*
X271200033Y-51867755D01*
X271425004Y-51867755D01*
X271649976Y-51942746D01*
X271799957Y-52092726D01*
X271874947Y-52242707D01*
X271949938Y-52542669D01*
X271949938Y-52767641D01*
X271874947Y-53067603D01*
X271799957Y-53217584D01*
X271649976Y-53367565D01*
X271425004Y-53442555D01*
X271275023Y-53442555D01*
X271050052Y-53367565D01*
X270975061Y-53292574D01*
X270975061Y-52767641D01*
X271275023Y-52767641D01*
X270300147Y-53442555D02*
X270300147Y-51867755D01*
X269400261Y-53442555D01*
X269400261Y-51867755D01*
X268650357Y-53442555D02*
X268650357Y-51867755D01*
X268275404Y-51867755D01*
X268050433Y-51942746D01*
X267900452Y-52092726D01*
X267825461Y-52242707D01*
X267750471Y-52542669D01*
X267750471Y-52767641D01*
X267825461Y-53067603D01*
X267900452Y-53217584D01*
X268050433Y-53367565D01*
X268275404Y-53442555D01*
X268650357Y-53442555D01*
X271050052Y-54478174D02*
X271200033Y-54403183D01*
X271425004Y-54403183D01*
X271649976Y-54478174D01*
X271799957Y-54628154D01*
X271874947Y-54778135D01*
X271949938Y-55078097D01*
X271949938Y-55303069D01*
X271874947Y-55603031D01*
X271799957Y-55753012D01*
X271649976Y-55902993D01*
X271425004Y-55977983D01*
X271275023Y-55977983D01*
X271050052Y-55902993D01*
X270975061Y-55828002D01*
X270975061Y-55303069D01*
X271275023Y-55303069D01*
X270300147Y-55977983D02*
X270300147Y-54403183D01*
X269400261Y-55977983D01*
X269400261Y-54403183D01*
X268650357Y-55977983D02*
X268650357Y-54403183D01*
X268275404Y-54403183D01*
X268050433Y-54478174D01*
X267900452Y-54628154D01*
X267825461Y-54778135D01*
X267750471Y-55078097D01*
X267750471Y-55303069D01*
X267825461Y-55603031D01*
X267900452Y-55753012D01*
X268050433Y-55902993D01*
X268275404Y-55977983D01*
X268650357Y-55977983D01*
X271050052Y-57013602D02*
X271200033Y-56938611D01*
X271425004Y-56938611D01*
X271649976Y-57013602D01*
X271799957Y-57163582D01*
X271874947Y-57313563D01*
X271949938Y-57613525D01*
X271949938Y-57838497D01*
X271874947Y-58138459D01*
X271799957Y-58288440D01*
X271649976Y-58438421D01*
X271425004Y-58513411D01*
X271275023Y-58513411D01*
X271050052Y-58438421D01*
X270975061Y-58363430D01*
X270975061Y-57838497D01*
X271275023Y-57838497D01*
X270300147Y-58513411D02*
X270300147Y-56938611D01*
X269400261Y-58513411D01*
X269400261Y-56938611D01*
X268650357Y-58513411D02*
X268650357Y-56938611D01*
X268275404Y-56938611D01*
X268050433Y-57013602D01*
X267900452Y-57163582D01*
X267825461Y-57313563D01*
X267750471Y-57613525D01*
X267750471Y-57838497D01*
X267825461Y-58138459D01*
X267900452Y-58288440D01*
X268050433Y-58438421D01*
X268275404Y-58513411D01*
X268650357Y-58513411D01*
X271874947Y-61048839D02*
X271874947Y-59474039D01*
X271275023Y-59474039D01*
X271125042Y-59549030D01*
X271050052Y-59624020D01*
X270975061Y-59774001D01*
X270975061Y-59998972D01*
X271050052Y-60148953D01*
X271125042Y-60223944D01*
X271275023Y-60298934D01*
X271874947Y-60298934D01*
X270300147Y-61048839D02*
X270300147Y-59474039D01*
X270300147Y-60073963D02*
X270150166Y-59998972D01*
X269850204Y-59998972D01*
X269700223Y-60073963D01*
X269625233Y-60148953D01*
X269550242Y-60298934D01*
X269550242Y-60748877D01*
X269625233Y-60898858D01*
X269700223Y-60973849D01*
X269850204Y-61048839D01*
X270150166Y-61048839D01*
X270300147Y-60973849D01*
X268950319Y-60598896D02*
X268200414Y-60598896D01*
X269100300Y-61048839D02*
X268575366Y-59474039D01*
X268050433Y-61048839D01*
X267225538Y-59474039D02*
X267075557Y-59474039D01*
X266925576Y-59549030D01*
X266850585Y-59624020D01*
X266775595Y-59774001D01*
X266700604Y-60073963D01*
X266700604Y-60448915D01*
X266775595Y-60748877D01*
X266850585Y-60898858D01*
X266925576Y-60973849D01*
X267075557Y-61048839D01*
X267225538Y-61048839D01*
X267375519Y-60973849D01*
X267450509Y-60898858D01*
X267525500Y-60748877D01*
X267600490Y-60448915D01*
X267600490Y-60073963D01*
X267525500Y-59774001D01*
X267450509Y-59624020D01*
X267375519Y-59549030D01*
X267225538Y-59474039D01*
X271874947Y-63584267D02*
X271874947Y-62009467D01*
X271275023Y-62009467D01*
X271125042Y-62084458D01*
X271050052Y-62159448D01*
X270975061Y-62309429D01*
X270975061Y-62534400D01*
X271050052Y-62684381D01*
X271125042Y-62759372D01*
X271275023Y-62834362D01*
X271874947Y-62834362D01*
X270300147Y-63584267D02*
X270300147Y-62009467D01*
X270300147Y-62609391D02*
X270150166Y-62534400D01*
X269850204Y-62534400D01*
X269700223Y-62609391D01*
X269625233Y-62684381D01*
X269550242Y-62834362D01*
X269550242Y-63284305D01*
X269625233Y-63434286D01*
X269700223Y-63509277D01*
X269850204Y-63584267D01*
X270150166Y-63584267D01*
X270300147Y-63509277D01*
X268950319Y-63134324D02*
X268200414Y-63134324D01*
X269100300Y-63584267D02*
X268575366Y-62009467D01*
X268050433Y-63584267D01*
X267600490Y-62159448D02*
X267525500Y-62084458D01*
X267375519Y-62009467D01*
X267000566Y-62009467D01*
X266850585Y-62084458D01*
X266775595Y-62159448D01*
X266700604Y-62309429D01*
X266700604Y-62459410D01*
X266775595Y-62684381D01*
X267675480Y-63584267D01*
X266700604Y-63584267D01*
X271874947Y-66119695D02*
X271874947Y-64544895D01*
X271275023Y-64544895D01*
X271125042Y-64619886D01*
X271050052Y-64694876D01*
X270975061Y-64844857D01*
X270975061Y-65069828D01*
X271050052Y-65219809D01*
X271125042Y-65294800D01*
X271275023Y-65369790D01*
X271874947Y-65369790D01*
X270300147Y-66119695D02*
X270300147Y-64544895D01*
X270300147Y-65144819D02*
X270150166Y-65069828D01*
X269850204Y-65069828D01*
X269700223Y-65144819D01*
X269625233Y-65219809D01*
X269550242Y-65369790D01*
X269550242Y-65819733D01*
X269625233Y-65969714D01*
X269700223Y-66044705D01*
X269850204Y-66119695D01*
X270150166Y-66119695D01*
X270300147Y-66044705D01*
X268950319Y-65669752D02*
X268200414Y-65669752D01*
X269100300Y-66119695D02*
X268575366Y-64544895D01*
X268050433Y-66119695D01*
X266850585Y-65069828D02*
X266850585Y-66119695D01*
X267225538Y-64469905D02*
X267600490Y-65594762D01*
X266625614Y-65594762D01*
X271874947Y-68655123D02*
X271874947Y-67080323D01*
X271275023Y-67080323D01*
X271125042Y-67155314D01*
X271050052Y-67230304D01*
X270975061Y-67380285D01*
X270975061Y-67605256D01*
X271050052Y-67755237D01*
X271125042Y-67830228D01*
X271275023Y-67905218D01*
X271874947Y-67905218D01*
X270300147Y-68655123D02*
X270300147Y-67080323D01*
X270300147Y-67680247D02*
X270150166Y-67605256D01*
X269850204Y-67605256D01*
X269700223Y-67680247D01*
X269625233Y-67755237D01*
X269550242Y-67905218D01*
X269550242Y-68355161D01*
X269625233Y-68505142D01*
X269700223Y-68580133D01*
X269850204Y-68655123D01*
X270150166Y-68655123D01*
X270300147Y-68580133D01*
X268950319Y-68205180D02*
X268200414Y-68205180D01*
X269100300Y-68655123D02*
X268575366Y-67080323D01*
X268050433Y-68655123D01*
X266850585Y-67080323D02*
X267150547Y-67080323D01*
X267300528Y-67155314D01*
X267375519Y-67230304D01*
X267525500Y-67455275D01*
X267600490Y-67755237D01*
X267600490Y-68355161D01*
X267525500Y-68505142D01*
X267450509Y-68580133D01*
X267300528Y-68655123D01*
X267000566Y-68655123D01*
X266850585Y-68580133D01*
X266775595Y-68505142D01*
X266700604Y-68355161D01*
X266700604Y-67980209D01*
X266775595Y-67830228D01*
X266850585Y-67755237D01*
X267000566Y-67680247D01*
X267300528Y-67680247D01*
X267450509Y-67755237D01*
X267525500Y-67830228D01*
X267600490Y-67980209D01*
X271874947Y-71190551D02*
X271874947Y-69615751D01*
X271275023Y-69615751D01*
X271125042Y-69690742D01*
X271050052Y-69765732D01*
X270975061Y-69915713D01*
X270975061Y-70140684D01*
X271050052Y-70290665D01*
X271125042Y-70365656D01*
X271275023Y-70440646D01*
X271874947Y-70440646D01*
X270300147Y-71190551D02*
X270300147Y-69615751D01*
X270300147Y-70215675D02*
X270150166Y-70140684D01*
X269850204Y-70140684D01*
X269700223Y-70215675D01*
X269625233Y-70290665D01*
X269550242Y-70440646D01*
X269550242Y-70890589D01*
X269625233Y-71040570D01*
X269700223Y-71115561D01*
X269850204Y-71190551D01*
X270150166Y-71190551D01*
X270300147Y-71115561D01*
X268950319Y-70740608D02*
X268200414Y-70740608D01*
X269100300Y-71190551D02*
X268575366Y-69615751D01*
X268050433Y-71190551D01*
X267300528Y-70290665D02*
X267450509Y-70215675D01*
X267525500Y-70140684D01*
X267600490Y-69990703D01*
X267600490Y-69915713D01*
X267525500Y-69765732D01*
X267450509Y-69690742D01*
X267300528Y-69615751D01*
X267000566Y-69615751D01*
X266850585Y-69690742D01*
X266775595Y-69765732D01*
X266700604Y-69915713D01*
X266700604Y-69990703D01*
X266775595Y-70140684D01*
X266850585Y-70215675D01*
X267000566Y-70290665D01*
X267300528Y-70290665D01*
X267450509Y-70365656D01*
X267525500Y-70440646D01*
X267600490Y-70590627D01*
X267600490Y-70890589D01*
X267525500Y-71040570D01*
X267450509Y-71115561D01*
X267300528Y-71190551D01*
X267000566Y-71190551D01*
X266850585Y-71115561D01*
X266775595Y-71040570D01*
X266700604Y-70890589D01*
X266700604Y-70590627D01*
X266775595Y-70440646D01*
X266850585Y-70365656D01*
X267000566Y-70290665D01*
X271874947Y-73725979D02*
X271874947Y-72151179D01*
X271275023Y-72151179D01*
X271125042Y-72226170D01*
X271050052Y-72301160D01*
X270975061Y-72451141D01*
X270975061Y-72676112D01*
X271050052Y-72826093D01*
X271125042Y-72901084D01*
X271275023Y-72976074D01*
X271874947Y-72976074D01*
X270300147Y-73725979D02*
X270300147Y-72151179D01*
X270300147Y-72751103D02*
X270150166Y-72676112D01*
X269850204Y-72676112D01*
X269700223Y-72751103D01*
X269625233Y-72826093D01*
X269550242Y-72976074D01*
X269550242Y-73426017D01*
X269625233Y-73575998D01*
X269700223Y-73650989D01*
X269850204Y-73725979D01*
X270150166Y-73725979D01*
X270300147Y-73650989D01*
X268950319Y-73276036D02*
X268200414Y-73276036D01*
X269100300Y-73725979D02*
X268575366Y-72151179D01*
X268050433Y-73725979D01*
X266700604Y-73725979D02*
X267600490Y-73725979D01*
X267150547Y-73725979D02*
X267150547Y-72151179D01*
X267300528Y-72376150D01*
X267450509Y-72526131D01*
X267600490Y-72601122D01*
X265725728Y-72151179D02*
X265575747Y-72151179D01*
X265425766Y-72226170D01*
X265350776Y-72301160D01*
X265275785Y-72451141D01*
X265200795Y-72751103D01*
X265200795Y-73126055D01*
X265275785Y-73426017D01*
X265350776Y-73575998D01*
X265425766Y-73650989D01*
X265575747Y-73725979D01*
X265725728Y-73725979D01*
X265875709Y-73650989D01*
X265950700Y-73575998D01*
X266025690Y-73426017D01*
X266100680Y-73126055D01*
X266100680Y-72751103D01*
X266025690Y-72451141D01*
X265950700Y-72301160D01*
X265875709Y-72226170D01*
X265725728Y-72151179D01*
X271874947Y-76261407D02*
X271874947Y-74686607D01*
X271275023Y-74686607D01*
X271125042Y-74761598D01*
X271050052Y-74836588D01*
X270975061Y-74986569D01*
X270975061Y-75211540D01*
X271050052Y-75361521D01*
X271125042Y-75436512D01*
X271275023Y-75511502D01*
X271874947Y-75511502D01*
X270300147Y-76261407D02*
X270300147Y-74686607D01*
X270300147Y-75286531D02*
X270150166Y-75211540D01*
X269850204Y-75211540D01*
X269700223Y-75286531D01*
X269625233Y-75361521D01*
X269550242Y-75511502D01*
X269550242Y-75961445D01*
X269625233Y-76111426D01*
X269700223Y-76186417D01*
X269850204Y-76261407D01*
X270150166Y-76261407D01*
X270300147Y-76186417D01*
X268950319Y-75811464D02*
X268200414Y-75811464D01*
X269100300Y-76261407D02*
X268575366Y-74686607D01*
X268050433Y-76261407D01*
X266700604Y-76261407D02*
X267600490Y-76261407D01*
X267150547Y-76261407D02*
X267150547Y-74686607D01*
X267300528Y-74911578D01*
X267450509Y-75061559D01*
X267600490Y-75136550D01*
X266100680Y-74836588D02*
X266025690Y-74761598D01*
X265875709Y-74686607D01*
X265500757Y-74686607D01*
X265350776Y-74761598D01*
X265275785Y-74836588D01*
X265200795Y-74986569D01*
X265200795Y-75136550D01*
X265275785Y-75361521D01*
X266175671Y-76261407D01*
X265200795Y-76261407D01*
X271874947Y-78796835D02*
X271874947Y-77222035D01*
X271275023Y-77222035D01*
X271125042Y-77297026D01*
X271050052Y-77372016D01*
X270975061Y-77521997D01*
X270975061Y-77746968D01*
X271050052Y-77896949D01*
X271125042Y-77971940D01*
X271275023Y-78046930D01*
X271874947Y-78046930D01*
X270300147Y-78796835D02*
X270300147Y-77222035D01*
X270300147Y-77821959D02*
X270150166Y-77746968D01*
X269850204Y-77746968D01*
X269700223Y-77821959D01*
X269625233Y-77896949D01*
X269550242Y-78046930D01*
X269550242Y-78496873D01*
X269625233Y-78646854D01*
X269700223Y-78721845D01*
X269850204Y-78796835D01*
X270150166Y-78796835D01*
X270300147Y-78721845D01*
X268950319Y-78346892D02*
X268200414Y-78346892D01*
X269100300Y-78796835D02*
X268575366Y-77222035D01*
X268050433Y-78796835D01*
X266700604Y-78796835D02*
X267600490Y-78796835D01*
X267150547Y-78796835D02*
X267150547Y-77222035D01*
X267300528Y-77447006D01*
X267450509Y-77596987D01*
X267600490Y-77671978D01*
X265350776Y-77746968D02*
X265350776Y-78796835D01*
X265725728Y-77147045D02*
X266100680Y-78271902D01*
X265125804Y-78271902D01*
X271050052Y-79832454D02*
X271200033Y-79757463D01*
X271425004Y-79757463D01*
X271649976Y-79832454D01*
X271799957Y-79982434D01*
X271874947Y-80132415D01*
X271949938Y-80432377D01*
X271949938Y-80657349D01*
X271874947Y-80957311D01*
X271799957Y-81107292D01*
X271649976Y-81257273D01*
X271425004Y-81332263D01*
X271275023Y-81332263D01*
X271050052Y-81257273D01*
X270975061Y-81182282D01*
X270975061Y-80657349D01*
X271275023Y-80657349D01*
X270300147Y-81332263D02*
X270300147Y-79757463D01*
X269400261Y-81332263D01*
X269400261Y-79757463D01*
X268650357Y-81332263D02*
X268650357Y-79757463D01*
X268275404Y-79757463D01*
X268050433Y-79832454D01*
X267900452Y-79982434D01*
X267825461Y-80132415D01*
X267750471Y-80432377D01*
X267750471Y-80657349D01*
X267825461Y-80957311D01*
X267900452Y-81107292D01*
X268050433Y-81257273D01*
X268275404Y-81332263D01*
X268650357Y-81332263D01*
D11*
X70933571Y-55765000D02*
X71076428Y-55693571D01*
X71290714Y-55693571D01*
X71505000Y-55765000D01*
X71647857Y-55907857D01*
X71719285Y-56050714D01*
X71790714Y-56336428D01*
X71790714Y-56550714D01*
X71719285Y-56836428D01*
X71647857Y-56979285D01*
X71505000Y-57122142D01*
X71290714Y-57193571D01*
X71147857Y-57193571D01*
X70933571Y-57122142D01*
X70862142Y-57050714D01*
X70862142Y-56550714D01*
X71147857Y-56550714D01*
X70219285Y-57193571D02*
X70219285Y-55693571D01*
X69362142Y-57193571D01*
X69362142Y-55693571D01*
X68647857Y-57193571D02*
X68647857Y-55693571D01*
X68290714Y-55693571D01*
X68076428Y-55765000D01*
X67933571Y-55907857D01*
X67862142Y-56050714D01*
X67790714Y-56336428D01*
X67790714Y-56550714D01*
X67862142Y-56836428D01*
X67933571Y-56979285D01*
X68076428Y-57122142D01*
X68290714Y-57193571D01*
X68647857Y-57193571D01*
X56597857Y-56622142D02*
X55455000Y-56622142D01*
X56026428Y-57193571D02*
X56026428Y-56050714D01*
X54026428Y-55693571D02*
X54740714Y-55693571D01*
X54812142Y-56407857D01*
X54740714Y-56336428D01*
X54597857Y-56265000D01*
X54240714Y-56265000D01*
X54097857Y-56336428D01*
X54026428Y-56407857D01*
X53955000Y-56550714D01*
X53955000Y-56907857D01*
X54026428Y-57050714D01*
X54097857Y-57122142D01*
X54240714Y-57193571D01*
X54597857Y-57193571D01*
X54740714Y-57122142D01*
X54812142Y-57050714D01*
M02*
