%TF.GenerationSoftware,KiCad,Pcbnew,6.0.10-86aedd382b~118~ubuntu20.04.1*%
%TF.CreationDate,2022-12-19T16:19:32+01:00*%
%TF.ProjectId,px16_regfile,70783136-5f72-4656-9766-696c652e6b69,2*%
%TF.SameCoordinates,Original*%
%TF.FileFunction,Soldermask,Top*%
%TF.FilePolarity,Negative*%
%FSLAX46Y46*%
G04 Gerber Fmt 4.6, Leading zero omitted, Abs format (unit mm)*
G04 Created by KiCad (PCBNEW 6.0.10-86aedd382b~118~ubuntu20.04.1) date 2022-12-19 16:19:32*
%MOMM*%
%LPD*%
G01*
G04 APERTURE LIST*
G04 Aperture macros list*
%AMRoundRect*
0 Rectangle with rounded corners*
0 $1 Rounding radius*
0 $2 $3 $4 $5 $6 $7 $8 $9 X,Y pos of 4 corners*
0 Add a 4 corners polygon primitive as box body*
4,1,4,$2,$3,$4,$5,$6,$7,$8,$9,$2,$3,0*
0 Add four circle primitives for the rounded corners*
1,1,$1+$1,$2,$3*
1,1,$1+$1,$4,$5*
1,1,$1+$1,$6,$7*
1,1,$1+$1,$8,$9*
0 Add four rect primitives between the rounded corners*
20,1,$1+$1,$2,$3,$4,$5,0*
20,1,$1+$1,$4,$5,$6,$7,0*
20,1,$1+$1,$6,$7,$8,$9,0*
20,1,$1+$1,$8,$9,$2,$3,0*%
G04 Aperture macros list end*
%ADD10RoundRect,0.150000X-0.800000X-0.150000X0.800000X-0.150000X0.800000X0.150000X-0.800000X0.150000X0*%
%ADD11R,1.600000X1.600000*%
%ADD12O,1.600000X1.600000*%
%ADD13C,1.600000*%
%ADD14RoundRect,0.150000X-0.875000X-0.150000X0.875000X-0.150000X0.875000X0.150000X-0.875000X0.150000X0*%
%ADD15R,1.000000X1.500000*%
%ADD16C,6.000000*%
%ADD17R,1.700000X1.700000*%
%ADD18O,1.700000X1.700000*%
%ADD19R,3.000000X3.000000*%
%ADD20C,3.000000*%
G04 APERTURE END LIST*
D10*
%TO.C,U30*%
X117320000Y-313055000D03*
X117320000Y-314325000D03*
X117320000Y-315595000D03*
X117320000Y-316865000D03*
X117320000Y-318135000D03*
X117320000Y-319405000D03*
X117320000Y-320675000D03*
X117320000Y-321945000D03*
X117320000Y-323215000D03*
X117320000Y-324485000D03*
X126520000Y-324485000D03*
X126520000Y-323215000D03*
X126520000Y-321945000D03*
X126520000Y-320675000D03*
X126520000Y-319405000D03*
X126520000Y-318135000D03*
X126520000Y-316865000D03*
X126520000Y-315595000D03*
X126520000Y-314325000D03*
X126520000Y-313055000D03*
%TD*%
D11*
%TO.C,D9*%
X126365000Y-274955000D03*
D12*
X123825000Y-274955000D03*
X121285000Y-274955000D03*
X118745000Y-274955000D03*
X116205000Y-274955000D03*
X113665000Y-274955000D03*
X111125000Y-274955000D03*
X108585000Y-274955000D03*
X108585000Y-282575000D03*
X111125000Y-282575000D03*
X113665000Y-282575000D03*
X116205000Y-282575000D03*
X118745000Y-282575000D03*
X121285000Y-282575000D03*
X123825000Y-282575000D03*
X126365000Y-282575000D03*
%TD*%
D13*
%TO.C,R19*%
X113665000Y-120015000D03*
D12*
X113665000Y-122555000D03*
%TD*%
D10*
%TO.C,U38*%
X175740000Y-132080000D03*
X175740000Y-133350000D03*
X175740000Y-134620000D03*
X175740000Y-135890000D03*
X175740000Y-137160000D03*
X175740000Y-138430000D03*
X175740000Y-139700000D03*
X175740000Y-140970000D03*
X175740000Y-142240000D03*
X175740000Y-143510000D03*
X184940000Y-143510000D03*
X184940000Y-142240000D03*
X184940000Y-140970000D03*
X184940000Y-139700000D03*
X184940000Y-138430000D03*
X184940000Y-137160000D03*
X184940000Y-135890000D03*
X184940000Y-134620000D03*
X184940000Y-133350000D03*
X184940000Y-132080000D03*
%TD*%
D13*
%TO.C,R38*%
X121285000Y-180975000D03*
D12*
X121285000Y-183515000D03*
%TD*%
D13*
%TO.C,R75*%
X92075000Y-285750000D03*
D12*
X92075000Y-288290000D03*
%TD*%
D13*
%TO.C,R33*%
X107950000Y-175260000D03*
D12*
X107950000Y-177800000D03*
%TD*%
D14*
%TO.C,U45*%
X221410000Y-187325000D03*
X221410000Y-188595000D03*
X221410000Y-189865000D03*
X221410000Y-191135000D03*
X221410000Y-192405000D03*
X221410000Y-193675000D03*
X221410000Y-194945000D03*
X221410000Y-196215000D03*
X230710000Y-196215000D03*
X230710000Y-194945000D03*
X230710000Y-193675000D03*
X230710000Y-192405000D03*
X230710000Y-191135000D03*
X230710000Y-189865000D03*
X230710000Y-188595000D03*
X230710000Y-187325000D03*
%TD*%
D10*
%TO.C,U55*%
X206220000Y-242570000D03*
X206220000Y-243840000D03*
X206220000Y-245110000D03*
X206220000Y-246380000D03*
X206220000Y-247650000D03*
X206220000Y-248920000D03*
X206220000Y-250190000D03*
X206220000Y-251460000D03*
X206220000Y-252730000D03*
X206220000Y-254000000D03*
X215420000Y-254000000D03*
X215420000Y-252730000D03*
X215420000Y-251460000D03*
X215420000Y-250190000D03*
X215420000Y-248920000D03*
X215420000Y-247650000D03*
X215420000Y-246380000D03*
X215420000Y-245110000D03*
X215420000Y-243840000D03*
X215420000Y-242570000D03*
%TD*%
D13*
%TO.C,R17*%
X108585000Y-120015000D03*
D12*
X108585000Y-122555000D03*
%TD*%
D10*
%TO.C,U6*%
X117320000Y-92075000D03*
X117320000Y-93345000D03*
X117320000Y-94615000D03*
X117320000Y-95885000D03*
X117320000Y-97155000D03*
X117320000Y-98425000D03*
X117320000Y-99695000D03*
X117320000Y-100965000D03*
X117320000Y-102235000D03*
X117320000Y-103505000D03*
X126520000Y-103505000D03*
X126520000Y-102235000D03*
X126520000Y-100965000D03*
X126520000Y-99695000D03*
X126520000Y-98425000D03*
X126520000Y-97155000D03*
X126520000Y-95885000D03*
X126520000Y-94615000D03*
X126520000Y-93345000D03*
X126520000Y-92075000D03*
%TD*%
D13*
%TO.C,R90*%
X178435000Y-180975000D03*
D12*
X178435000Y-183515000D03*
%TD*%
D13*
%TO.C,R97*%
X175895000Y-120015000D03*
D12*
X175895000Y-122555000D03*
%TD*%
D13*
%TO.C,R82*%
X200025000Y-180975000D03*
D12*
X200025000Y-183515000D03*
%TD*%
D13*
%TO.C,R11*%
X92075000Y-64770000D03*
D12*
X92075000Y-67310000D03*
%TD*%
D10*
%TO.C,U17*%
X102080000Y-202565000D03*
X102080000Y-203835000D03*
X102080000Y-205105000D03*
X102080000Y-206375000D03*
X102080000Y-207645000D03*
X102080000Y-208915000D03*
X102080000Y-210185000D03*
X102080000Y-211455000D03*
X102080000Y-212725000D03*
X102080000Y-213995000D03*
X111280000Y-213995000D03*
X111280000Y-212725000D03*
X111280000Y-211455000D03*
X111280000Y-210185000D03*
X111280000Y-208915000D03*
X111280000Y-207645000D03*
X111280000Y-206375000D03*
X111280000Y-205105000D03*
X111280000Y-203835000D03*
X111280000Y-202565000D03*
%TD*%
D13*
%TO.C,R94*%
X188595000Y-180975000D03*
D12*
X188595000Y-183515000D03*
%TD*%
D13*
%TO.C,R135*%
X193675000Y-291465000D03*
D12*
X193675000Y-294005000D03*
%TD*%
D10*
%TO.C,U54*%
X206220000Y-313055000D03*
X206220000Y-314325000D03*
X206220000Y-315595000D03*
X206220000Y-316865000D03*
X206220000Y-318135000D03*
X206220000Y-319405000D03*
X206220000Y-320675000D03*
X206220000Y-321945000D03*
X206220000Y-323215000D03*
X206220000Y-324485000D03*
X215420000Y-324485000D03*
X215420000Y-323215000D03*
X215420000Y-321945000D03*
X215420000Y-320675000D03*
X215420000Y-319405000D03*
X215420000Y-318135000D03*
X215420000Y-316865000D03*
X215420000Y-315595000D03*
X215420000Y-314325000D03*
X215420000Y-313055000D03*
%TD*%
D13*
%TO.C,R109*%
X210185000Y-236220000D03*
D12*
X210185000Y-238760000D03*
%TD*%
D13*
%TO.C,R113*%
X178435000Y-236220000D03*
D12*
X178435000Y-238760000D03*
%TD*%
D13*
%TO.C,R21*%
X118745000Y-120015000D03*
D12*
X118745000Y-122555000D03*
%TD*%
D10*
%TO.C,U50*%
X175740000Y-202565000D03*
X175740000Y-203835000D03*
X175740000Y-205105000D03*
X175740000Y-206375000D03*
X175740000Y-207645000D03*
X175740000Y-208915000D03*
X175740000Y-210185000D03*
X175740000Y-211455000D03*
X175740000Y-212725000D03*
X175740000Y-213995000D03*
X184940000Y-213995000D03*
X184940000Y-212725000D03*
X184940000Y-211455000D03*
X184940000Y-210185000D03*
X184940000Y-208915000D03*
X184940000Y-207645000D03*
X184940000Y-206375000D03*
X184940000Y-205105000D03*
X184940000Y-203835000D03*
X184940000Y-202565000D03*
%TD*%
D14*
%TO.C,U32*%
X206170000Y-132080000D03*
X206170000Y-133350000D03*
X206170000Y-134620000D03*
X206170000Y-135890000D03*
X206170000Y-137160000D03*
X206170000Y-138430000D03*
X206170000Y-139700000D03*
X215470000Y-139700000D03*
X215470000Y-138430000D03*
X215470000Y-137160000D03*
X215470000Y-135890000D03*
X215470000Y-134620000D03*
X215470000Y-133350000D03*
X215470000Y-132080000D03*
%TD*%
D13*
%TO.C,R84*%
X205105000Y-180975000D03*
D12*
X205105000Y-183515000D03*
%TD*%
D13*
%TO.C,R48*%
X104775000Y-180975000D03*
D12*
X104775000Y-183515000D03*
%TD*%
D10*
%TO.C,U23*%
X102080000Y-257810000D03*
X102080000Y-259080000D03*
X102080000Y-260350000D03*
X102080000Y-261620000D03*
X102080000Y-262890000D03*
X102080000Y-264160000D03*
X102080000Y-265430000D03*
X102080000Y-266700000D03*
X102080000Y-267970000D03*
X102080000Y-269240000D03*
X111280000Y-269240000D03*
X111280000Y-267970000D03*
X111280000Y-266700000D03*
X111280000Y-265430000D03*
X111280000Y-264160000D03*
X111280000Y-262890000D03*
X111280000Y-261620000D03*
X111280000Y-260350000D03*
X111280000Y-259080000D03*
X111280000Y-257810000D03*
%TD*%
D13*
%TO.C,R62*%
X99695000Y-236220000D03*
D12*
X99695000Y-238760000D03*
%TD*%
D13*
%TO.C,R24*%
X126365000Y-125730000D03*
D12*
X126365000Y-128270000D03*
%TD*%
D10*
%TO.C,U8*%
X102080000Y-132080000D03*
X102080000Y-133350000D03*
X102080000Y-134620000D03*
X102080000Y-135890000D03*
X102080000Y-137160000D03*
X102080000Y-138430000D03*
X102080000Y-139700000D03*
X102080000Y-140970000D03*
X102080000Y-142240000D03*
X102080000Y-143510000D03*
X111280000Y-143510000D03*
X111280000Y-142240000D03*
X111280000Y-140970000D03*
X111280000Y-139700000D03*
X111280000Y-138430000D03*
X111280000Y-137160000D03*
X111280000Y-135890000D03*
X111280000Y-134620000D03*
X111280000Y-133350000D03*
X111280000Y-132080000D03*
%TD*%
D14*
%TO.C,U35*%
X206170000Y-116840000D03*
X206170000Y-118110000D03*
X206170000Y-119380000D03*
X206170000Y-120650000D03*
X206170000Y-121920000D03*
X206170000Y-123190000D03*
X206170000Y-124460000D03*
X215470000Y-124460000D03*
X215470000Y-123190000D03*
X215470000Y-121920000D03*
X215470000Y-120650000D03*
X215470000Y-119380000D03*
X215470000Y-118110000D03*
X215470000Y-116840000D03*
%TD*%
D13*
%TO.C,R103*%
X191135000Y-120015000D03*
D12*
X191135000Y-122555000D03*
%TD*%
D10*
%TO.C,U18*%
X117320000Y-202565000D03*
X117320000Y-203835000D03*
X117320000Y-205105000D03*
X117320000Y-206375000D03*
X117320000Y-207645000D03*
X117320000Y-208915000D03*
X117320000Y-210185000D03*
X117320000Y-211455000D03*
X117320000Y-212725000D03*
X117320000Y-213995000D03*
X126520000Y-213995000D03*
X126520000Y-212725000D03*
X126520000Y-211455000D03*
X126520000Y-210185000D03*
X126520000Y-208915000D03*
X126520000Y-207645000D03*
X126520000Y-206375000D03*
X126520000Y-205105000D03*
X126520000Y-203835000D03*
X126520000Y-202565000D03*
%TD*%
%TO.C,U37*%
X206220000Y-147320000D03*
X206220000Y-148590000D03*
X206220000Y-149860000D03*
X206220000Y-151130000D03*
X206220000Y-152400000D03*
X206220000Y-153670000D03*
X206220000Y-154940000D03*
X206220000Y-156210000D03*
X206220000Y-157480000D03*
X206220000Y-158750000D03*
X215420000Y-158750000D03*
X215420000Y-157480000D03*
X215420000Y-156210000D03*
X215420000Y-154940000D03*
X215420000Y-153670000D03*
X215420000Y-152400000D03*
X215420000Y-151130000D03*
X215420000Y-149860000D03*
X215420000Y-148590000D03*
X215420000Y-147320000D03*
%TD*%
D15*
%TO.C,JP1*%
X224125000Y-164465000D03*
X225425000Y-164465000D03*
X226725000Y-164465000D03*
%TD*%
D13*
%TO.C,R69*%
X118745000Y-285750000D03*
D12*
X118745000Y-288290000D03*
%TD*%
D13*
%TO.C,R2*%
X111125000Y-70485000D03*
D12*
X111125000Y-73025000D03*
%TD*%
D11*
%TO.C,D6*%
X104775000Y-164465000D03*
D12*
X102235000Y-164465000D03*
X99695000Y-164465000D03*
X97155000Y-164465000D03*
X94615000Y-164465000D03*
X92075000Y-164465000D03*
X89535000Y-164465000D03*
X86995000Y-164465000D03*
X86995000Y-172085000D03*
X89535000Y-172085000D03*
X92075000Y-172085000D03*
X94615000Y-172085000D03*
X97155000Y-172085000D03*
X99695000Y-172085000D03*
X102235000Y-172085000D03*
X104775000Y-172085000D03*
%TD*%
D13*
%TO.C,R36*%
X116205000Y-180975000D03*
D12*
X116205000Y-183515000D03*
%TD*%
D13*
%TO.C,R120*%
X197485000Y-285750000D03*
D12*
X197485000Y-288290000D03*
%TD*%
D13*
%TO.C,R15*%
X102235000Y-64770000D03*
D12*
X102235000Y-67310000D03*
%TD*%
D13*
%TO.C,R44*%
X94615000Y-180975000D03*
D12*
X94615000Y-183515000D03*
%TD*%
D10*
%TO.C,U15*%
X117320000Y-187325000D03*
X117320000Y-188595000D03*
X117320000Y-189865000D03*
X117320000Y-191135000D03*
X117320000Y-192405000D03*
X117320000Y-193675000D03*
X117320000Y-194945000D03*
X117320000Y-196215000D03*
X117320000Y-197485000D03*
X117320000Y-198755000D03*
X126520000Y-198755000D03*
X126520000Y-197485000D03*
X126520000Y-196215000D03*
X126520000Y-194945000D03*
X126520000Y-193675000D03*
X126520000Y-192405000D03*
X126520000Y-191135000D03*
X126520000Y-189865000D03*
X126520000Y-188595000D03*
X126520000Y-187325000D03*
%TD*%
D13*
%TO.C,R116*%
X186055000Y-230505000D03*
D12*
X186055000Y-233045000D03*
%TD*%
D11*
%TO.C,D5*%
X126365000Y-164465000D03*
D12*
X123825000Y-164465000D03*
X121285000Y-164465000D03*
X118745000Y-164465000D03*
X116205000Y-164465000D03*
X113665000Y-164465000D03*
X111125000Y-164465000D03*
X108585000Y-164465000D03*
X108585000Y-172085000D03*
X111125000Y-172085000D03*
X113665000Y-172085000D03*
X116205000Y-172085000D03*
X118745000Y-172085000D03*
X121285000Y-172085000D03*
X123825000Y-172085000D03*
X126365000Y-172085000D03*
%TD*%
D13*
%TO.C,R9*%
X86995000Y-64770000D03*
D12*
X86995000Y-67310000D03*
%TD*%
D10*
%TO.C,U41*%
X221460000Y-147320000D03*
X221460000Y-148590000D03*
X221460000Y-149860000D03*
X221460000Y-151130000D03*
X221460000Y-152400000D03*
X221460000Y-153670000D03*
X221460000Y-154940000D03*
X221460000Y-156210000D03*
X221460000Y-157480000D03*
X221460000Y-158750000D03*
X230660000Y-158750000D03*
X230660000Y-157480000D03*
X230660000Y-156210000D03*
X230660000Y-154940000D03*
X230660000Y-153670000D03*
X230660000Y-152400000D03*
X230660000Y-151130000D03*
X230660000Y-149860000D03*
X230660000Y-148590000D03*
X230660000Y-147320000D03*
%TD*%
%TO.C,U46*%
X175740000Y-187325000D03*
X175740000Y-188595000D03*
X175740000Y-189865000D03*
X175740000Y-191135000D03*
X175740000Y-192405000D03*
X175740000Y-193675000D03*
X175740000Y-194945000D03*
X175740000Y-196215000D03*
X175740000Y-197485000D03*
X175740000Y-198755000D03*
X184940000Y-198755000D03*
X184940000Y-197485000D03*
X184940000Y-196215000D03*
X184940000Y-194945000D03*
X184940000Y-193675000D03*
X184940000Y-192405000D03*
X184940000Y-191135000D03*
X184940000Y-189865000D03*
X184940000Y-188595000D03*
X184940000Y-187325000D03*
%TD*%
%TO.C,U40*%
X221460000Y-132080000D03*
X221460000Y-133350000D03*
X221460000Y-134620000D03*
X221460000Y-135890000D03*
X221460000Y-137160000D03*
X221460000Y-138430000D03*
X221460000Y-139700000D03*
X221460000Y-140970000D03*
X221460000Y-142240000D03*
X221460000Y-143510000D03*
X230660000Y-143510000D03*
X230660000Y-142240000D03*
X230660000Y-140970000D03*
X230660000Y-139700000D03*
X230660000Y-138430000D03*
X230660000Y-137160000D03*
X230660000Y-135890000D03*
X230660000Y-134620000D03*
X230660000Y-133350000D03*
X230660000Y-132080000D03*
%TD*%
%TO.C,U7*%
X86840000Y-132080000D03*
X86840000Y-133350000D03*
X86840000Y-134620000D03*
X86840000Y-135890000D03*
X86840000Y-137160000D03*
X86840000Y-138430000D03*
X86840000Y-139700000D03*
X86840000Y-140970000D03*
X86840000Y-142240000D03*
X86840000Y-143510000D03*
X96040000Y-143510000D03*
X96040000Y-142240000D03*
X96040000Y-140970000D03*
X96040000Y-139700000D03*
X96040000Y-138430000D03*
X96040000Y-137160000D03*
X96040000Y-135890000D03*
X96040000Y-134620000D03*
X96040000Y-133350000D03*
X96040000Y-132080000D03*
%TD*%
D13*
%TO.C,R42*%
X89535000Y-180975000D03*
D12*
X89535000Y-183515000D03*
%TD*%
D13*
%TO.C,R118*%
X191135000Y-230505000D03*
D12*
X191135000Y-233045000D03*
%TD*%
D13*
%TO.C,R91*%
X180975000Y-175260000D03*
D12*
X180975000Y-177800000D03*
%TD*%
D10*
%TO.C,U20*%
X102080000Y-242570000D03*
X102080000Y-243840000D03*
X102080000Y-245110000D03*
X102080000Y-246380000D03*
X102080000Y-247650000D03*
X102080000Y-248920000D03*
X102080000Y-250190000D03*
X102080000Y-251460000D03*
X102080000Y-252730000D03*
X102080000Y-254000000D03*
X111280000Y-254000000D03*
X111280000Y-252730000D03*
X111280000Y-251460000D03*
X111280000Y-250190000D03*
X111280000Y-248920000D03*
X111280000Y-247650000D03*
X111280000Y-246380000D03*
X111280000Y-245110000D03*
X111280000Y-243840000D03*
X111280000Y-242570000D03*
%TD*%
D13*
%TO.C,R8*%
X126365000Y-70485000D03*
D12*
X126365000Y-73025000D03*
%TD*%
D10*
%TO.C,U16*%
X86840000Y-202565000D03*
X86840000Y-203835000D03*
X86840000Y-205105000D03*
X86840000Y-206375000D03*
X86840000Y-207645000D03*
X86840000Y-208915000D03*
X86840000Y-210185000D03*
X86840000Y-211455000D03*
X86840000Y-212725000D03*
X86840000Y-213995000D03*
X96040000Y-213995000D03*
X96040000Y-212725000D03*
X96040000Y-211455000D03*
X96040000Y-210185000D03*
X96040000Y-208915000D03*
X96040000Y-207645000D03*
X96040000Y-206375000D03*
X96040000Y-205105000D03*
X96040000Y-203835000D03*
X96040000Y-202565000D03*
%TD*%
D13*
%TO.C,R108*%
X207645000Y-230505000D03*
D12*
X207645000Y-233045000D03*
%TD*%
D13*
%TO.C,R117*%
X188595000Y-236220000D03*
D12*
X188595000Y-238760000D03*
%TD*%
D13*
%TO.C,R61*%
X97155000Y-230505000D03*
D12*
X97155000Y-233045000D03*
%TD*%
D10*
%TO.C,U14*%
X102080000Y-187325000D03*
X102080000Y-188595000D03*
X102080000Y-189865000D03*
X102080000Y-191135000D03*
X102080000Y-192405000D03*
X102080000Y-193675000D03*
X102080000Y-194945000D03*
X102080000Y-196215000D03*
X102080000Y-197485000D03*
X102080000Y-198755000D03*
X111280000Y-198755000D03*
X111280000Y-197485000D03*
X111280000Y-196215000D03*
X111280000Y-194945000D03*
X111280000Y-193675000D03*
X111280000Y-192405000D03*
X111280000Y-191135000D03*
X111280000Y-189865000D03*
X111280000Y-188595000D03*
X111280000Y-187325000D03*
%TD*%
%TO.C,U10*%
X86840000Y-147320000D03*
X86840000Y-148590000D03*
X86840000Y-149860000D03*
X86840000Y-151130000D03*
X86840000Y-152400000D03*
X86840000Y-153670000D03*
X86840000Y-154940000D03*
X86840000Y-156210000D03*
X86840000Y-157480000D03*
X86840000Y-158750000D03*
X96040000Y-158750000D03*
X96040000Y-157480000D03*
X96040000Y-156210000D03*
X96040000Y-154940000D03*
X96040000Y-153670000D03*
X96040000Y-152400000D03*
X96040000Y-151130000D03*
X96040000Y-149860000D03*
X96040000Y-148590000D03*
X96040000Y-147320000D03*
%TD*%
D16*
%TO.C,H3*%
X288290000Y-29845000D03*
%TD*%
D13*
%TO.C,R52*%
X116205000Y-236220000D03*
D12*
X116205000Y-238760000D03*
%TD*%
D13*
%TO.C,R49*%
X108585000Y-230505000D03*
D12*
X108585000Y-233045000D03*
%TD*%
D14*
%TO.C,U36*%
X206170000Y-86360000D03*
X206170000Y-87630000D03*
X206170000Y-88900000D03*
X206170000Y-90170000D03*
X206170000Y-91440000D03*
X206170000Y-92710000D03*
X206170000Y-93980000D03*
X215470000Y-93980000D03*
X215470000Y-92710000D03*
X215470000Y-91440000D03*
X215470000Y-90170000D03*
X215470000Y-88900000D03*
X215470000Y-87630000D03*
X215470000Y-86360000D03*
%TD*%
D13*
%TO.C,R128*%
X175895000Y-285750000D03*
D12*
X175895000Y-288290000D03*
%TD*%
D13*
%TO.C,R16*%
X104775000Y-70485000D03*
D12*
X104775000Y-73025000D03*
%TD*%
D13*
%TO.C,R58*%
X89535000Y-236220000D03*
D12*
X89535000Y-238760000D03*
%TD*%
D13*
%TO.C,R80*%
X104775000Y-291465000D03*
D12*
X104775000Y-294005000D03*
%TD*%
D13*
%TO.C,R1*%
X108585000Y-64770000D03*
D12*
X108585000Y-67310000D03*
%TD*%
D10*
%TO.C,U60*%
X175740000Y-313055000D03*
X175740000Y-314325000D03*
X175740000Y-315595000D03*
X175740000Y-316865000D03*
X175740000Y-318135000D03*
X175740000Y-319405000D03*
X175740000Y-320675000D03*
X175740000Y-321945000D03*
X175740000Y-323215000D03*
X175740000Y-324485000D03*
X184940000Y-324485000D03*
X184940000Y-323215000D03*
X184940000Y-321945000D03*
X184940000Y-320675000D03*
X184940000Y-319405000D03*
X184940000Y-318135000D03*
X184940000Y-316865000D03*
X184940000Y-315595000D03*
X184940000Y-314325000D03*
X184940000Y-313055000D03*
%TD*%
D13*
%TO.C,R28*%
X94615000Y-125730000D03*
D12*
X94615000Y-128270000D03*
%TD*%
D10*
%TO.C,U12*%
X117320000Y-147320000D03*
X117320000Y-148590000D03*
X117320000Y-149860000D03*
X117320000Y-151130000D03*
X117320000Y-152400000D03*
X117320000Y-153670000D03*
X117320000Y-154940000D03*
X117320000Y-156210000D03*
X117320000Y-157480000D03*
X117320000Y-158750000D03*
X126520000Y-158750000D03*
X126520000Y-157480000D03*
X126520000Y-156210000D03*
X126520000Y-154940000D03*
X126520000Y-153670000D03*
X126520000Y-152400000D03*
X126520000Y-151130000D03*
X126520000Y-149860000D03*
X126520000Y-148590000D03*
X126520000Y-147320000D03*
%TD*%
D11*
%TO.C,D13*%
X215265000Y-219710000D03*
D12*
X212725000Y-219710000D03*
X210185000Y-219710000D03*
X207645000Y-219710000D03*
X205105000Y-219710000D03*
X202565000Y-219710000D03*
X200025000Y-219710000D03*
X197485000Y-219710000D03*
X197485000Y-227330000D03*
X200025000Y-227330000D03*
X202565000Y-227330000D03*
X205105000Y-227330000D03*
X207645000Y-227330000D03*
X210185000Y-227330000D03*
X212725000Y-227330000D03*
X215265000Y-227330000D03*
%TD*%
D11*
%TO.C,D11*%
X215265000Y-164465000D03*
D12*
X212725000Y-164465000D03*
X210185000Y-164465000D03*
X207645000Y-164465000D03*
X205105000Y-164465000D03*
X202565000Y-164465000D03*
X200025000Y-164465000D03*
X197485000Y-164465000D03*
X197485000Y-172085000D03*
X200025000Y-172085000D03*
X202565000Y-172085000D03*
X205105000Y-172085000D03*
X207645000Y-172085000D03*
X210185000Y-172085000D03*
X212725000Y-172085000D03*
X215265000Y-172085000D03*
%TD*%
D10*
%TO.C,U11*%
X102080000Y-147320000D03*
X102080000Y-148590000D03*
X102080000Y-149860000D03*
X102080000Y-151130000D03*
X102080000Y-152400000D03*
X102080000Y-153670000D03*
X102080000Y-154940000D03*
X102080000Y-156210000D03*
X102080000Y-157480000D03*
X102080000Y-158750000D03*
X111280000Y-158750000D03*
X111280000Y-157480000D03*
X111280000Y-156210000D03*
X111280000Y-154940000D03*
X111280000Y-153670000D03*
X111280000Y-152400000D03*
X111280000Y-151130000D03*
X111280000Y-149860000D03*
X111280000Y-148590000D03*
X111280000Y-147320000D03*
%TD*%
D13*
%TO.C,R106*%
X202565000Y-230505000D03*
D12*
X202565000Y-233045000D03*
%TD*%
D13*
%TO.C,R29*%
X97155000Y-120015000D03*
D12*
X97155000Y-122555000D03*
%TD*%
D14*
%TO.C,U34*%
X206170000Y-101600000D03*
X206170000Y-102870000D03*
X206170000Y-104140000D03*
X206170000Y-105410000D03*
X206170000Y-106680000D03*
X206170000Y-107950000D03*
X206170000Y-109220000D03*
X206170000Y-110490000D03*
X215470000Y-110490000D03*
X215470000Y-109220000D03*
X215470000Y-107950000D03*
X215470000Y-106680000D03*
X215470000Y-105410000D03*
X215470000Y-104140000D03*
X215470000Y-102870000D03*
X215470000Y-101600000D03*
%TD*%
D10*
%TO.C,U26*%
X102080000Y-297815000D03*
X102080000Y-299085000D03*
X102080000Y-300355000D03*
X102080000Y-301625000D03*
X102080000Y-302895000D03*
X102080000Y-304165000D03*
X102080000Y-305435000D03*
X102080000Y-306705000D03*
X102080000Y-307975000D03*
X102080000Y-309245000D03*
X111280000Y-309245000D03*
X111280000Y-307975000D03*
X111280000Y-306705000D03*
X111280000Y-305435000D03*
X111280000Y-304165000D03*
X111280000Y-302895000D03*
X111280000Y-301625000D03*
X111280000Y-300355000D03*
X111280000Y-299085000D03*
X111280000Y-297815000D03*
%TD*%
D13*
%TO.C,R130*%
X180975000Y-285750000D03*
D12*
X180975000Y-288290000D03*
%TD*%
D13*
%TO.C,R121*%
X200025000Y-291465000D03*
D12*
X200025000Y-294005000D03*
%TD*%
D10*
%TO.C,U1*%
X86840000Y-76835000D03*
X86840000Y-78105000D03*
X86840000Y-79375000D03*
X86840000Y-80645000D03*
X86840000Y-81915000D03*
X86840000Y-83185000D03*
X86840000Y-84455000D03*
X86840000Y-85725000D03*
X86840000Y-86995000D03*
X86840000Y-88265000D03*
X96040000Y-88265000D03*
X96040000Y-86995000D03*
X96040000Y-85725000D03*
X96040000Y-84455000D03*
X96040000Y-83185000D03*
X96040000Y-81915000D03*
X96040000Y-80645000D03*
X96040000Y-79375000D03*
X96040000Y-78105000D03*
X96040000Y-76835000D03*
%TD*%
D13*
%TO.C,R71*%
X123825000Y-285750000D03*
D12*
X123825000Y-288290000D03*
%TD*%
D13*
%TO.C,R134*%
X191135000Y-285750000D03*
D12*
X191135000Y-288290000D03*
%TD*%
D10*
%TO.C,U29*%
X102080000Y-313055000D03*
X102080000Y-314325000D03*
X102080000Y-315595000D03*
X102080000Y-316865000D03*
X102080000Y-318135000D03*
X102080000Y-319405000D03*
X102080000Y-320675000D03*
X102080000Y-321945000D03*
X102080000Y-323215000D03*
X102080000Y-324485000D03*
X111280000Y-324485000D03*
X111280000Y-323215000D03*
X111280000Y-321945000D03*
X111280000Y-320675000D03*
X111280000Y-319405000D03*
X111280000Y-318135000D03*
X111280000Y-316865000D03*
X111280000Y-315595000D03*
X111280000Y-314325000D03*
X111280000Y-313055000D03*
%TD*%
%TO.C,U43*%
X190980000Y-147320000D03*
X190980000Y-148590000D03*
X190980000Y-149860000D03*
X190980000Y-151130000D03*
X190980000Y-152400000D03*
X190980000Y-153670000D03*
X190980000Y-154940000D03*
X190980000Y-156210000D03*
X190980000Y-157480000D03*
X190980000Y-158750000D03*
X200180000Y-158750000D03*
X200180000Y-157480000D03*
X200180000Y-156210000D03*
X200180000Y-154940000D03*
X200180000Y-153670000D03*
X200180000Y-152400000D03*
X200180000Y-151130000D03*
X200180000Y-149860000D03*
X200180000Y-148590000D03*
X200180000Y-147320000D03*
%TD*%
D13*
%TO.C,R25*%
X86995000Y-120015000D03*
D12*
X86995000Y-122555000D03*
%TD*%
D10*
%TO.C,U53*%
X206220000Y-297815000D03*
X206220000Y-299085000D03*
X206220000Y-300355000D03*
X206220000Y-301625000D03*
X206220000Y-302895000D03*
X206220000Y-304165000D03*
X206220000Y-305435000D03*
X206220000Y-306705000D03*
X206220000Y-307975000D03*
X206220000Y-309245000D03*
X215420000Y-309245000D03*
X215420000Y-307975000D03*
X215420000Y-306705000D03*
X215420000Y-305435000D03*
X215420000Y-304165000D03*
X215420000Y-302895000D03*
X215420000Y-301625000D03*
X215420000Y-300355000D03*
X215420000Y-299085000D03*
X215420000Y-297815000D03*
%TD*%
%TO.C,U9*%
X117320000Y-132080000D03*
X117320000Y-133350000D03*
X117320000Y-134620000D03*
X117320000Y-135890000D03*
X117320000Y-137160000D03*
X117320000Y-138430000D03*
X117320000Y-139700000D03*
X117320000Y-140970000D03*
X117320000Y-142240000D03*
X117320000Y-143510000D03*
X126520000Y-143510000D03*
X126520000Y-142240000D03*
X126520000Y-140970000D03*
X126520000Y-139700000D03*
X126520000Y-138430000D03*
X126520000Y-137160000D03*
X126520000Y-135890000D03*
X126520000Y-134620000D03*
X126520000Y-133350000D03*
X126520000Y-132080000D03*
%TD*%
%TO.C,U42*%
X175740000Y-147320000D03*
X175740000Y-148590000D03*
X175740000Y-149860000D03*
X175740000Y-151130000D03*
X175740000Y-152400000D03*
X175740000Y-153670000D03*
X175740000Y-154940000D03*
X175740000Y-156210000D03*
X175740000Y-157480000D03*
X175740000Y-158750000D03*
X184940000Y-158750000D03*
X184940000Y-157480000D03*
X184940000Y-156210000D03*
X184940000Y-154940000D03*
X184940000Y-153670000D03*
X184940000Y-152400000D03*
X184940000Y-151130000D03*
X184940000Y-149860000D03*
X184940000Y-148590000D03*
X184940000Y-147320000D03*
%TD*%
D16*
%TO.C,H2*%
X161290000Y-29845000D03*
%TD*%
D13*
%TO.C,R22*%
X121285000Y-125730000D03*
D12*
X121285000Y-128270000D03*
%TD*%
D13*
%TO.C,R89*%
X175895000Y-175260000D03*
D12*
X175895000Y-177800000D03*
%TD*%
D13*
%TO.C,R59*%
X92075000Y-230505000D03*
D12*
X92075000Y-233045000D03*
%TD*%
D10*
%TO.C,U21*%
X117320000Y-242570000D03*
X117320000Y-243840000D03*
X117320000Y-245110000D03*
X117320000Y-246380000D03*
X117320000Y-247650000D03*
X117320000Y-248920000D03*
X117320000Y-250190000D03*
X117320000Y-251460000D03*
X117320000Y-252730000D03*
X117320000Y-254000000D03*
X126520000Y-254000000D03*
X126520000Y-252730000D03*
X126520000Y-251460000D03*
X126520000Y-250190000D03*
X126520000Y-248920000D03*
X126520000Y-247650000D03*
X126520000Y-246380000D03*
X126520000Y-245110000D03*
X126520000Y-243840000D03*
X126520000Y-242570000D03*
%TD*%
D16*
%TO.C,H1*%
X34290000Y-29845000D03*
%TD*%
D13*
%TO.C,R101*%
X186055000Y-120015000D03*
D12*
X186055000Y-122555000D03*
%TD*%
D13*
%TO.C,R72*%
X126365000Y-291465000D03*
D12*
X126365000Y-294005000D03*
%TD*%
D11*
%TO.C,D3*%
X126365000Y-109220000D03*
D12*
X123825000Y-109220000D03*
X121285000Y-109220000D03*
X118745000Y-109220000D03*
X116205000Y-109220000D03*
X113665000Y-109220000D03*
X111125000Y-109220000D03*
X108585000Y-109220000D03*
X108585000Y-116840000D03*
X111125000Y-116840000D03*
X113665000Y-116840000D03*
X116205000Y-116840000D03*
X118745000Y-116840000D03*
X121285000Y-116840000D03*
X123825000Y-116840000D03*
X126365000Y-116840000D03*
%TD*%
D13*
%TO.C,R57*%
X86995000Y-230505000D03*
D12*
X86995000Y-233045000D03*
%TD*%
D14*
%TO.C,U31*%
X221410000Y-86360000D03*
X221410000Y-87630000D03*
X221410000Y-88900000D03*
X221410000Y-90170000D03*
X221410000Y-91440000D03*
X221410000Y-92710000D03*
X221410000Y-93980000D03*
X221410000Y-95250000D03*
X230710000Y-95250000D03*
X230710000Y-93980000D03*
X230710000Y-92710000D03*
X230710000Y-91440000D03*
X230710000Y-90170000D03*
X230710000Y-88900000D03*
X230710000Y-87630000D03*
X230710000Y-86360000D03*
%TD*%
D10*
%TO.C,U56*%
X206220000Y-257810000D03*
X206220000Y-259080000D03*
X206220000Y-260350000D03*
X206220000Y-261620000D03*
X206220000Y-262890000D03*
X206220000Y-264160000D03*
X206220000Y-265430000D03*
X206220000Y-266700000D03*
X206220000Y-267970000D03*
X206220000Y-269240000D03*
X215420000Y-269240000D03*
X215420000Y-267970000D03*
X215420000Y-266700000D03*
X215420000Y-265430000D03*
X215420000Y-264160000D03*
X215420000Y-262890000D03*
X215420000Y-261620000D03*
X215420000Y-260350000D03*
X215420000Y-259080000D03*
X215420000Y-257810000D03*
%TD*%
%TO.C,U39*%
X190980000Y-132080000D03*
X190980000Y-133350000D03*
X190980000Y-134620000D03*
X190980000Y-135890000D03*
X190980000Y-137160000D03*
X190980000Y-138430000D03*
X190980000Y-139700000D03*
X190980000Y-140970000D03*
X190980000Y-142240000D03*
X190980000Y-143510000D03*
X200180000Y-143510000D03*
X200180000Y-142240000D03*
X200180000Y-140970000D03*
X200180000Y-139700000D03*
X200180000Y-138430000D03*
X200180000Y-137160000D03*
X200180000Y-135890000D03*
X200180000Y-134620000D03*
X200180000Y-133350000D03*
X200180000Y-132080000D03*
%TD*%
%TO.C,U4*%
X86840000Y-92075000D03*
X86840000Y-93345000D03*
X86840000Y-94615000D03*
X86840000Y-95885000D03*
X86840000Y-97155000D03*
X86840000Y-98425000D03*
X86840000Y-99695000D03*
X86840000Y-100965000D03*
X86840000Y-102235000D03*
X86840000Y-103505000D03*
X96040000Y-103505000D03*
X96040000Y-102235000D03*
X96040000Y-100965000D03*
X96040000Y-99695000D03*
X96040000Y-98425000D03*
X96040000Y-97155000D03*
X96040000Y-95885000D03*
X96040000Y-94615000D03*
X96040000Y-93345000D03*
X96040000Y-92075000D03*
%TD*%
D13*
%TO.C,R88*%
X215265000Y-180975000D03*
D12*
X215265000Y-183515000D03*
%TD*%
D13*
%TO.C,R6*%
X121285000Y-70485000D03*
D12*
X121285000Y-73025000D03*
%TD*%
D14*
%TO.C,U52*%
X221410000Y-116840000D03*
X221410000Y-118110000D03*
X221410000Y-119380000D03*
X221410000Y-120650000D03*
X221410000Y-121920000D03*
X221410000Y-123190000D03*
X221410000Y-124460000D03*
X230710000Y-124460000D03*
X230710000Y-123190000D03*
X230710000Y-121920000D03*
X230710000Y-120650000D03*
X230710000Y-119380000D03*
X230710000Y-118110000D03*
X230710000Y-116840000D03*
%TD*%
D13*
%TO.C,R114*%
X180975000Y-230505000D03*
D12*
X180975000Y-233045000D03*
%TD*%
D11*
%TO.C,D2*%
X104775000Y-53975000D03*
D12*
X102235000Y-53975000D03*
X99695000Y-53975000D03*
X97155000Y-53975000D03*
X94615000Y-53975000D03*
X92075000Y-53975000D03*
X89535000Y-53975000D03*
X86995000Y-53975000D03*
X86995000Y-61595000D03*
X89535000Y-61595000D03*
X92075000Y-61595000D03*
X94615000Y-61595000D03*
X97155000Y-61595000D03*
X99695000Y-61595000D03*
X102235000Y-61595000D03*
X104775000Y-61595000D03*
%TD*%
D17*
%TO.C,J6*%
X276225000Y-168275000D03*
D18*
X273685000Y-168275000D03*
X276225000Y-165735000D03*
X273685000Y-165735000D03*
X276225000Y-163195000D03*
X273685000Y-163195000D03*
X276225000Y-160655000D03*
X273685000Y-160655000D03*
X276225000Y-158115000D03*
X273685000Y-158115000D03*
X276225000Y-155575000D03*
X273685000Y-155575000D03*
X276225000Y-153035000D03*
X273685000Y-153035000D03*
X276225000Y-150495000D03*
X273685000Y-150495000D03*
X276225000Y-147955000D03*
X273685000Y-147955000D03*
X276225000Y-145415000D03*
X273685000Y-145415000D03*
X276225000Y-142875000D03*
X273685000Y-142875000D03*
X276225000Y-140335000D03*
X273685000Y-140335000D03*
%TD*%
D13*
%TO.C,R105*%
X200025000Y-236220000D03*
D12*
X200025000Y-238760000D03*
%TD*%
D10*
%TO.C,U5*%
X102080000Y-92075000D03*
X102080000Y-93345000D03*
X102080000Y-94615000D03*
X102080000Y-95885000D03*
X102080000Y-97155000D03*
X102080000Y-98425000D03*
X102080000Y-99695000D03*
X102080000Y-100965000D03*
X102080000Y-102235000D03*
X102080000Y-103505000D03*
X111280000Y-103505000D03*
X111280000Y-102235000D03*
X111280000Y-100965000D03*
X111280000Y-99695000D03*
X111280000Y-98425000D03*
X111280000Y-97155000D03*
X111280000Y-95885000D03*
X111280000Y-94615000D03*
X111280000Y-93345000D03*
X111280000Y-92075000D03*
%TD*%
D16*
%TO.C,H8*%
X34290000Y-195580000D03*
%TD*%
D13*
%TO.C,R78*%
X99695000Y-291465000D03*
D12*
X99695000Y-294005000D03*
%TD*%
D13*
%TO.C,R3*%
X113665000Y-64770000D03*
D12*
X113665000Y-67310000D03*
%TD*%
D16*
%TO.C,H6*%
X161290000Y-360045000D03*
%TD*%
D13*
%TO.C,R87*%
X212725000Y-175260000D03*
D12*
X212725000Y-177800000D03*
%TD*%
D17*
%TO.C,J2*%
X276225000Y-80645000D03*
D18*
X273685000Y-80645000D03*
X276225000Y-78105000D03*
X273685000Y-78105000D03*
X276225000Y-75565000D03*
X273685000Y-75565000D03*
X276225000Y-73025000D03*
X273685000Y-73025000D03*
X276225000Y-70485000D03*
X273685000Y-70485000D03*
X276225000Y-67945000D03*
X273685000Y-67945000D03*
X276225000Y-65405000D03*
X273685000Y-65405000D03*
X276225000Y-62865000D03*
X273685000Y-62865000D03*
X276225000Y-60325000D03*
X273685000Y-60325000D03*
X276225000Y-57785000D03*
X273685000Y-57785000D03*
X276225000Y-55245000D03*
X273685000Y-55245000D03*
X276225000Y-52705000D03*
X273685000Y-52705000D03*
%TD*%
D13*
%TO.C,R37*%
X118745000Y-175260000D03*
D12*
X118745000Y-177800000D03*
%TD*%
D13*
%TO.C,R18*%
X111125000Y-125730000D03*
D12*
X111125000Y-128270000D03*
%TD*%
D13*
%TO.C,R124*%
X207645000Y-285750000D03*
D12*
X207645000Y-288290000D03*
%TD*%
D13*
%TO.C,R32*%
X104775000Y-125730000D03*
D12*
X104775000Y-128270000D03*
%TD*%
D13*
%TO.C,R40*%
X126365000Y-180975000D03*
D12*
X126365000Y-183515000D03*
%TD*%
D14*
%TO.C,U44*%
X206170000Y-187325000D03*
X206170000Y-188595000D03*
X206170000Y-189865000D03*
X206170000Y-191135000D03*
X206170000Y-192405000D03*
X206170000Y-193675000D03*
X206170000Y-194945000D03*
X206170000Y-196215000D03*
X215470000Y-196215000D03*
X215470000Y-194945000D03*
X215470000Y-193675000D03*
X215470000Y-192405000D03*
X215470000Y-191135000D03*
X215470000Y-189865000D03*
X215470000Y-188595000D03*
X215470000Y-187325000D03*
%TD*%
D13*
%TO.C,R55*%
X123825000Y-230505000D03*
D12*
X123825000Y-233045000D03*
%TD*%
D17*
%TO.C,J7*%
X74930000Y-57785000D03*
D18*
X74930000Y-55245000D03*
%TD*%
D13*
%TO.C,R73*%
X86995000Y-285750000D03*
D12*
X86995000Y-288290000D03*
%TD*%
D13*
%TO.C,R70*%
X121285000Y-291465000D03*
D12*
X121285000Y-294005000D03*
%TD*%
D13*
%TO.C,R81*%
X197485000Y-175260000D03*
D12*
X197485000Y-177800000D03*
%TD*%
D11*
%TO.C,D12*%
X193675000Y-164465000D03*
D12*
X191135000Y-164465000D03*
X188595000Y-164465000D03*
X186055000Y-164465000D03*
X183515000Y-164465000D03*
X180975000Y-164465000D03*
X178435000Y-164465000D03*
X175895000Y-164465000D03*
X175895000Y-172085000D03*
X178435000Y-172085000D03*
X180975000Y-172085000D03*
X183515000Y-172085000D03*
X186055000Y-172085000D03*
X188595000Y-172085000D03*
X191135000Y-172085000D03*
X193675000Y-172085000D03*
%TD*%
D13*
%TO.C,R127*%
X215265000Y-291465000D03*
D12*
X215265000Y-294005000D03*
%TD*%
D13*
%TO.C,R107*%
X205105000Y-236220000D03*
D12*
X205105000Y-238760000D03*
%TD*%
D13*
%TO.C,R60*%
X94615000Y-236220000D03*
D12*
X94615000Y-238760000D03*
%TD*%
D13*
%TO.C,R115*%
X183515000Y-236220000D03*
D12*
X183515000Y-238760000D03*
%TD*%
D13*
%TO.C,R7*%
X123825000Y-64770000D03*
D12*
X123825000Y-67310000D03*
%TD*%
D10*
%TO.C,U24*%
X117320000Y-257810000D03*
X117320000Y-259080000D03*
X117320000Y-260350000D03*
X117320000Y-261620000D03*
X117320000Y-262890000D03*
X117320000Y-264160000D03*
X117320000Y-265430000D03*
X117320000Y-266700000D03*
X117320000Y-267970000D03*
X117320000Y-269240000D03*
X126520000Y-269240000D03*
X126520000Y-267970000D03*
X126520000Y-266700000D03*
X126520000Y-265430000D03*
X126520000Y-264160000D03*
X126520000Y-262890000D03*
X126520000Y-261620000D03*
X126520000Y-260350000D03*
X126520000Y-259080000D03*
X126520000Y-257810000D03*
%TD*%
D17*
%TO.C,J3*%
X161925000Y-80645000D03*
D18*
X159385000Y-80645000D03*
X161925000Y-78105000D03*
X159385000Y-78105000D03*
X161925000Y-75565000D03*
X159385000Y-75565000D03*
X161925000Y-73025000D03*
X159385000Y-73025000D03*
X161925000Y-70485000D03*
X159385000Y-70485000D03*
X161925000Y-67945000D03*
X159385000Y-67945000D03*
X161925000Y-65405000D03*
X159385000Y-65405000D03*
X161925000Y-62865000D03*
X159385000Y-62865000D03*
X161925000Y-60325000D03*
X159385000Y-60325000D03*
X161925000Y-57785000D03*
X159385000Y-57785000D03*
X161925000Y-55245000D03*
X159385000Y-55245000D03*
X161925000Y-52705000D03*
X159385000Y-52705000D03*
%TD*%
D11*
%TO.C,D16*%
X193675000Y-274955000D03*
D12*
X191135000Y-274955000D03*
X188595000Y-274955000D03*
X186055000Y-274955000D03*
X183515000Y-274955000D03*
X180975000Y-274955000D03*
X178435000Y-274955000D03*
X175895000Y-274955000D03*
X175895000Y-282575000D03*
X178435000Y-282575000D03*
X180975000Y-282575000D03*
X183515000Y-282575000D03*
X186055000Y-282575000D03*
X188595000Y-282575000D03*
X191135000Y-282575000D03*
X193675000Y-282575000D03*
%TD*%
D13*
%TO.C,R39*%
X123825000Y-175260000D03*
D12*
X123825000Y-177800000D03*
%TD*%
D13*
%TO.C,R14*%
X99695000Y-70485000D03*
D12*
X99695000Y-73025000D03*
%TD*%
D10*
%TO.C,U2*%
X102080000Y-76835000D03*
X102080000Y-78105000D03*
X102080000Y-79375000D03*
X102080000Y-80645000D03*
X102080000Y-81915000D03*
X102080000Y-83185000D03*
X102080000Y-84455000D03*
X102080000Y-85725000D03*
X102080000Y-86995000D03*
X102080000Y-88265000D03*
X111280000Y-88265000D03*
X111280000Y-86995000D03*
X111280000Y-85725000D03*
X111280000Y-84455000D03*
X111280000Y-83185000D03*
X111280000Y-81915000D03*
X111280000Y-80645000D03*
X111280000Y-79375000D03*
X111280000Y-78105000D03*
X111280000Y-76835000D03*
%TD*%
D13*
%TO.C,R131*%
X183515000Y-291465000D03*
D12*
X183515000Y-294005000D03*
%TD*%
D13*
%TO.C,R77*%
X97155000Y-285750000D03*
D12*
X97155000Y-288290000D03*
%TD*%
D11*
%TO.C,D8*%
X104775000Y-219710000D03*
D12*
X102235000Y-219710000D03*
X99695000Y-219710000D03*
X97155000Y-219710000D03*
X94615000Y-219710000D03*
X92075000Y-219710000D03*
X89535000Y-219710000D03*
X86995000Y-219710000D03*
X86995000Y-227330000D03*
X89535000Y-227330000D03*
X92075000Y-227330000D03*
X94615000Y-227330000D03*
X97155000Y-227330000D03*
X99695000Y-227330000D03*
X102235000Y-227330000D03*
X104775000Y-227330000D03*
%TD*%
D10*
%TO.C,U28*%
X86840000Y-313055000D03*
X86840000Y-314325000D03*
X86840000Y-315595000D03*
X86840000Y-316865000D03*
X86840000Y-318135000D03*
X86840000Y-319405000D03*
X86840000Y-320675000D03*
X86840000Y-321945000D03*
X86840000Y-323215000D03*
X86840000Y-324485000D03*
X96040000Y-324485000D03*
X96040000Y-323215000D03*
X96040000Y-321945000D03*
X96040000Y-320675000D03*
X96040000Y-319405000D03*
X96040000Y-318135000D03*
X96040000Y-316865000D03*
X96040000Y-315595000D03*
X96040000Y-314325000D03*
X96040000Y-313055000D03*
%TD*%
D13*
%TO.C,R66*%
X111125000Y-291465000D03*
D12*
X111125000Y-294005000D03*
%TD*%
D10*
%TO.C,U25*%
X86840000Y-297815000D03*
X86840000Y-299085000D03*
X86840000Y-300355000D03*
X86840000Y-301625000D03*
X86840000Y-302895000D03*
X86840000Y-304165000D03*
X86840000Y-305435000D03*
X86840000Y-306705000D03*
X86840000Y-307975000D03*
X86840000Y-309245000D03*
X96040000Y-309245000D03*
X96040000Y-307975000D03*
X96040000Y-306705000D03*
X96040000Y-305435000D03*
X96040000Y-304165000D03*
X96040000Y-302895000D03*
X96040000Y-301625000D03*
X96040000Y-300355000D03*
X96040000Y-299085000D03*
X96040000Y-297815000D03*
%TD*%
D13*
%TO.C,R51*%
X113665000Y-230505000D03*
D12*
X113665000Y-233045000D03*
%TD*%
D13*
%TO.C,R76*%
X94615000Y-291465000D03*
D12*
X94615000Y-294005000D03*
%TD*%
D13*
%TO.C,R34*%
X111125000Y-180975000D03*
D12*
X111125000Y-183515000D03*
%TD*%
D11*
%TO.C,D7*%
X126365000Y-219710000D03*
D12*
X123825000Y-219710000D03*
X121285000Y-219710000D03*
X118745000Y-219710000D03*
X116205000Y-219710000D03*
X113665000Y-219710000D03*
X111125000Y-219710000D03*
X108585000Y-219710000D03*
X108585000Y-227330000D03*
X111125000Y-227330000D03*
X113665000Y-227330000D03*
X116205000Y-227330000D03*
X118745000Y-227330000D03*
X121285000Y-227330000D03*
X123825000Y-227330000D03*
X126365000Y-227330000D03*
%TD*%
D13*
%TO.C,R129*%
X178435000Y-291465000D03*
D12*
X178435000Y-294005000D03*
%TD*%
D13*
%TO.C,R64*%
X104775000Y-236220000D03*
D12*
X104775000Y-238760000D03*
%TD*%
D16*
%TO.C,H5*%
X288290000Y-360045000D03*
%TD*%
%TO.C,H7*%
X34290000Y-360045000D03*
%TD*%
D13*
%TO.C,R30*%
X99695000Y-125730000D03*
D12*
X99695000Y-128270000D03*
%TD*%
D10*
%TO.C,U47*%
X190980000Y-187325000D03*
X190980000Y-188595000D03*
X190980000Y-189865000D03*
X190980000Y-191135000D03*
X190980000Y-192405000D03*
X190980000Y-193675000D03*
X190980000Y-194945000D03*
X190980000Y-196215000D03*
X190980000Y-197485000D03*
X190980000Y-198755000D03*
X200180000Y-198755000D03*
X200180000Y-197485000D03*
X200180000Y-196215000D03*
X200180000Y-194945000D03*
X200180000Y-193675000D03*
X200180000Y-192405000D03*
X200180000Y-191135000D03*
X200180000Y-189865000D03*
X200180000Y-188595000D03*
X200180000Y-187325000D03*
%TD*%
D17*
%TO.C,J1*%
X276225000Y-351790000D03*
D18*
X273685000Y-351790000D03*
X276225000Y-349250000D03*
X273685000Y-349250000D03*
X276225000Y-346710000D03*
X273685000Y-346710000D03*
X276225000Y-344170000D03*
X273685000Y-344170000D03*
X276225000Y-341630000D03*
X273685000Y-341630000D03*
X276225000Y-339090000D03*
X273685000Y-339090000D03*
X276225000Y-336550000D03*
X273685000Y-336550000D03*
X276225000Y-334010000D03*
X273685000Y-334010000D03*
X276225000Y-331470000D03*
X273685000Y-331470000D03*
X276225000Y-328930000D03*
X273685000Y-328930000D03*
X276225000Y-326390000D03*
X273685000Y-326390000D03*
X276225000Y-323850000D03*
X273685000Y-323850000D03*
%TD*%
D13*
%TO.C,R65*%
X108585000Y-285750000D03*
D12*
X108585000Y-288290000D03*
%TD*%
D13*
%TO.C,R93*%
X186055000Y-175260000D03*
D12*
X186055000Y-177800000D03*
%TD*%
D13*
%TO.C,R63*%
X102235000Y-230505000D03*
D12*
X102235000Y-233045000D03*
%TD*%
D14*
%TO.C,U33*%
X221410000Y-101600000D03*
X221410000Y-102870000D03*
X221410000Y-104140000D03*
X221410000Y-105410000D03*
X221410000Y-106680000D03*
X221410000Y-107950000D03*
X221410000Y-109220000D03*
X221410000Y-110490000D03*
X230710000Y-110490000D03*
X230710000Y-109220000D03*
X230710000Y-107950000D03*
X230710000Y-106680000D03*
X230710000Y-105410000D03*
X230710000Y-104140000D03*
X230710000Y-102870000D03*
X230710000Y-101600000D03*
%TD*%
%TO.C,U48*%
X206170000Y-202565000D03*
X206170000Y-203835000D03*
X206170000Y-205105000D03*
X206170000Y-206375000D03*
X206170000Y-207645000D03*
X206170000Y-208915000D03*
X206170000Y-210185000D03*
X206170000Y-211455000D03*
X215470000Y-211455000D03*
X215470000Y-210185000D03*
X215470000Y-208915000D03*
X215470000Y-207645000D03*
X215470000Y-206375000D03*
X215470000Y-205105000D03*
X215470000Y-203835000D03*
X215470000Y-202565000D03*
%TD*%
D11*
%TO.C,D1*%
X126365000Y-53975000D03*
D12*
X123825000Y-53975000D03*
X121285000Y-53975000D03*
X118745000Y-53975000D03*
X116205000Y-53975000D03*
X113665000Y-53975000D03*
X111125000Y-53975000D03*
X108585000Y-53975000D03*
X108585000Y-61595000D03*
X111125000Y-61595000D03*
X113665000Y-61595000D03*
X116205000Y-61595000D03*
X118745000Y-61595000D03*
X121285000Y-61595000D03*
X123825000Y-61595000D03*
X126365000Y-61595000D03*
%TD*%
D13*
%TO.C,R20*%
X116205000Y-125730000D03*
D12*
X116205000Y-128270000D03*
%TD*%
D10*
%TO.C,U58*%
X175740000Y-257810000D03*
X175740000Y-259080000D03*
X175740000Y-260350000D03*
X175740000Y-261620000D03*
X175740000Y-262890000D03*
X175740000Y-264160000D03*
X175740000Y-265430000D03*
X175740000Y-266700000D03*
X175740000Y-267970000D03*
X175740000Y-269240000D03*
X184940000Y-269240000D03*
X184940000Y-267970000D03*
X184940000Y-266700000D03*
X184940000Y-265430000D03*
X184940000Y-264160000D03*
X184940000Y-262890000D03*
X184940000Y-261620000D03*
X184940000Y-260350000D03*
X184940000Y-259080000D03*
X184940000Y-257810000D03*
%TD*%
D11*
%TO.C,D15*%
X215265000Y-274955000D03*
D12*
X212725000Y-274955000D03*
X210185000Y-274955000D03*
X207645000Y-274955000D03*
X205105000Y-274955000D03*
X202565000Y-274955000D03*
X200025000Y-274955000D03*
X197485000Y-274955000D03*
X197485000Y-282575000D03*
X200025000Y-282575000D03*
X202565000Y-282575000D03*
X205105000Y-282575000D03*
X207645000Y-282575000D03*
X210185000Y-282575000D03*
X212725000Y-282575000D03*
X215265000Y-282575000D03*
%TD*%
D13*
%TO.C,R67*%
X113665000Y-285750000D03*
D12*
X113665000Y-288290000D03*
%TD*%
D13*
%TO.C,R31*%
X102235000Y-120015000D03*
D12*
X102235000Y-122555000D03*
%TD*%
D10*
%TO.C,U57*%
X175740000Y-242570000D03*
X175740000Y-243840000D03*
X175740000Y-245110000D03*
X175740000Y-246380000D03*
X175740000Y-247650000D03*
X175740000Y-248920000D03*
X175740000Y-250190000D03*
X175740000Y-251460000D03*
X175740000Y-252730000D03*
X175740000Y-254000000D03*
X184940000Y-254000000D03*
X184940000Y-252730000D03*
X184940000Y-251460000D03*
X184940000Y-250190000D03*
X184940000Y-248920000D03*
X184940000Y-247650000D03*
X184940000Y-246380000D03*
X184940000Y-245110000D03*
X184940000Y-243840000D03*
X184940000Y-242570000D03*
%TD*%
D13*
%TO.C,R10*%
X89535000Y-70485000D03*
D12*
X89535000Y-73025000D03*
%TD*%
D13*
%TO.C,R100*%
X183515000Y-125730000D03*
D12*
X183515000Y-128270000D03*
%TD*%
D13*
%TO.C,R96*%
X193675000Y-180975000D03*
D12*
X193675000Y-183515000D03*
%TD*%
D13*
%TO.C,R74*%
X89535000Y-291465000D03*
D12*
X89535000Y-294005000D03*
%TD*%
D13*
%TO.C,R35*%
X113665000Y-175260000D03*
D12*
X113665000Y-177800000D03*
%TD*%
D13*
%TO.C,R92*%
X183515000Y-180975000D03*
D12*
X183515000Y-183515000D03*
%TD*%
D13*
%TO.C,R4*%
X116205000Y-70485000D03*
D12*
X116205000Y-73025000D03*
%TD*%
D13*
%TO.C,R12*%
X94615000Y-70485000D03*
D12*
X94615000Y-73025000D03*
%TD*%
D11*
%TO.C,D10*%
X104775000Y-274955000D03*
D12*
X102235000Y-274955000D03*
X99695000Y-274955000D03*
X97155000Y-274955000D03*
X94615000Y-274955000D03*
X92075000Y-274955000D03*
X89535000Y-274955000D03*
X86995000Y-274955000D03*
X86995000Y-282575000D03*
X89535000Y-282575000D03*
X92075000Y-282575000D03*
X94615000Y-282575000D03*
X97155000Y-282575000D03*
X99695000Y-282575000D03*
X102235000Y-282575000D03*
X104775000Y-282575000D03*
%TD*%
D11*
%TO.C,D17*%
X193675000Y-109220000D03*
D12*
X191135000Y-109220000D03*
X188595000Y-109220000D03*
X186055000Y-109220000D03*
X183515000Y-109220000D03*
X180975000Y-109220000D03*
X178435000Y-109220000D03*
X175895000Y-109220000D03*
X175895000Y-116840000D03*
X178435000Y-116840000D03*
X180975000Y-116840000D03*
X183515000Y-116840000D03*
X186055000Y-116840000D03*
X188595000Y-116840000D03*
X191135000Y-116840000D03*
X193675000Y-116840000D03*
%TD*%
D14*
%TO.C,U49*%
X221410000Y-202565000D03*
X221410000Y-203835000D03*
X221410000Y-205105000D03*
X221410000Y-206375000D03*
X221410000Y-207645000D03*
X221410000Y-208915000D03*
X221410000Y-210185000D03*
X221410000Y-211455000D03*
X230710000Y-211455000D03*
X230710000Y-210185000D03*
X230710000Y-208915000D03*
X230710000Y-207645000D03*
X230710000Y-206375000D03*
X230710000Y-205105000D03*
X230710000Y-203835000D03*
X230710000Y-202565000D03*
%TD*%
D17*
%TO.C,J5*%
X276225000Y-130175000D03*
D18*
X273685000Y-130175000D03*
X276225000Y-127635000D03*
X273685000Y-127635000D03*
X276225000Y-125095000D03*
X273685000Y-125095000D03*
X276225000Y-122555000D03*
X273685000Y-122555000D03*
X276225000Y-120015000D03*
X273685000Y-120015000D03*
X276225000Y-117475000D03*
X273685000Y-117475000D03*
X276225000Y-114935000D03*
X273685000Y-114935000D03*
X276225000Y-112395000D03*
X273685000Y-112395000D03*
X276225000Y-109855000D03*
X273685000Y-109855000D03*
X276225000Y-107315000D03*
X273685000Y-107315000D03*
X276225000Y-104775000D03*
X273685000Y-104775000D03*
X276225000Y-102235000D03*
X273685000Y-102235000D03*
%TD*%
D13*
%TO.C,R132*%
X186055000Y-285750000D03*
D12*
X186055000Y-288290000D03*
%TD*%
D10*
%TO.C,U3*%
X117320000Y-76835000D03*
X117320000Y-78105000D03*
X117320000Y-79375000D03*
X117320000Y-80645000D03*
X117320000Y-81915000D03*
X117320000Y-83185000D03*
X117320000Y-84455000D03*
X117320000Y-85725000D03*
X117320000Y-86995000D03*
X117320000Y-88265000D03*
X126520000Y-88265000D03*
X126520000Y-86995000D03*
X126520000Y-85725000D03*
X126520000Y-84455000D03*
X126520000Y-83185000D03*
X126520000Y-81915000D03*
X126520000Y-80645000D03*
X126520000Y-79375000D03*
X126520000Y-78105000D03*
X126520000Y-76835000D03*
%TD*%
D13*
%TO.C,R119*%
X193675000Y-236220000D03*
D12*
X193675000Y-238760000D03*
%TD*%
D13*
%TO.C,R126*%
X212725000Y-285750000D03*
D12*
X212725000Y-288290000D03*
%TD*%
D13*
%TO.C,R86*%
X210185000Y-180975000D03*
D12*
X210185000Y-183515000D03*
%TD*%
D13*
%TO.C,R56*%
X126365000Y-236220000D03*
D12*
X126365000Y-238760000D03*
%TD*%
D13*
%TO.C,R122*%
X202565000Y-285750000D03*
D12*
X202565000Y-288290000D03*
%TD*%
D13*
%TO.C,R95*%
X191135000Y-175260000D03*
D12*
X191135000Y-177800000D03*
%TD*%
D10*
%TO.C,U13*%
X86840000Y-187325000D03*
X86840000Y-188595000D03*
X86840000Y-189865000D03*
X86840000Y-191135000D03*
X86840000Y-192405000D03*
X86840000Y-193675000D03*
X86840000Y-194945000D03*
X86840000Y-196215000D03*
X86840000Y-197485000D03*
X86840000Y-198755000D03*
X96040000Y-198755000D03*
X96040000Y-197485000D03*
X96040000Y-196215000D03*
X96040000Y-194945000D03*
X96040000Y-193675000D03*
X96040000Y-192405000D03*
X96040000Y-191135000D03*
X96040000Y-189865000D03*
X96040000Y-188595000D03*
X96040000Y-187325000D03*
%TD*%
D13*
%TO.C,R83*%
X202565000Y-175260000D03*
D12*
X202565000Y-177800000D03*
%TD*%
D13*
%TO.C,R46*%
X99695000Y-180975000D03*
D12*
X99695000Y-183515000D03*
%TD*%
D13*
%TO.C,R26*%
X89535000Y-125730000D03*
D12*
X89535000Y-128270000D03*
%TD*%
D13*
%TO.C,R98*%
X178435000Y-125730000D03*
D12*
X178435000Y-128270000D03*
%TD*%
D13*
%TO.C,R112*%
X175895000Y-230505000D03*
D12*
X175895000Y-233045000D03*
%TD*%
D13*
%TO.C,R136*%
X193675000Y-125730000D03*
D12*
X193675000Y-128270000D03*
%TD*%
D13*
%TO.C,R104*%
X197485000Y-230505000D03*
D12*
X197485000Y-233045000D03*
%TD*%
D13*
%TO.C,R79*%
X102235000Y-285750000D03*
D12*
X102235000Y-288290000D03*
%TD*%
D16*
%TO.C,H4*%
X288290000Y-195580000D03*
%TD*%
D13*
%TO.C,R41*%
X86995000Y-175260000D03*
D12*
X86995000Y-177800000D03*
%TD*%
D13*
%TO.C,R54*%
X121285000Y-236220000D03*
D12*
X121285000Y-238760000D03*
%TD*%
D13*
%TO.C,R23*%
X123825000Y-120015000D03*
D12*
X123825000Y-122555000D03*
%TD*%
D10*
%TO.C,U27*%
X117320000Y-297815000D03*
X117320000Y-299085000D03*
X117320000Y-300355000D03*
X117320000Y-301625000D03*
X117320000Y-302895000D03*
X117320000Y-304165000D03*
X117320000Y-305435000D03*
X117320000Y-306705000D03*
X117320000Y-307975000D03*
X117320000Y-309245000D03*
X126520000Y-309245000D03*
X126520000Y-307975000D03*
X126520000Y-306705000D03*
X126520000Y-305435000D03*
X126520000Y-304165000D03*
X126520000Y-302895000D03*
X126520000Y-301625000D03*
X126520000Y-300355000D03*
X126520000Y-299085000D03*
X126520000Y-297815000D03*
%TD*%
D13*
%TO.C,R68*%
X116205000Y-291465000D03*
D12*
X116205000Y-294005000D03*
%TD*%
D13*
%TO.C,R99*%
X180975000Y-120015000D03*
D12*
X180975000Y-122555000D03*
%TD*%
D11*
%TO.C,D4*%
X104760000Y-109230000D03*
D12*
X102220000Y-109230000D03*
X99680000Y-109230000D03*
X97140000Y-109230000D03*
X94600000Y-109230000D03*
X92060000Y-109230000D03*
X89520000Y-109230000D03*
X86980000Y-109230000D03*
X86980000Y-116850000D03*
X89520000Y-116850000D03*
X92060000Y-116850000D03*
X94600000Y-116850000D03*
X97140000Y-116850000D03*
X99680000Y-116850000D03*
X102220000Y-116850000D03*
X104760000Y-116850000D03*
%TD*%
D13*
%TO.C,R110*%
X212725000Y-230505000D03*
D12*
X212725000Y-233045000D03*
%TD*%
D13*
%TO.C,R125*%
X210185000Y-291465000D03*
D12*
X210185000Y-294005000D03*
%TD*%
D19*
%TO.C,J4*%
X64770000Y-56515000D03*
D20*
X59690000Y-56515000D03*
%TD*%
D13*
%TO.C,R5*%
X118745000Y-64770000D03*
D12*
X118745000Y-67310000D03*
%TD*%
D11*
%TO.C,D14*%
X193675000Y-219710000D03*
D12*
X191135000Y-219710000D03*
X188595000Y-219710000D03*
X186055000Y-219710000D03*
X183515000Y-219710000D03*
X180975000Y-219710000D03*
X178435000Y-219710000D03*
X175895000Y-219710000D03*
X175895000Y-227330000D03*
X178435000Y-227330000D03*
X180975000Y-227330000D03*
X183515000Y-227330000D03*
X186055000Y-227330000D03*
X188595000Y-227330000D03*
X191135000Y-227330000D03*
X193675000Y-227330000D03*
%TD*%
D13*
%TO.C,R47*%
X102235000Y-175260000D03*
D12*
X102235000Y-177800000D03*
%TD*%
D13*
%TO.C,R111*%
X215265000Y-236220000D03*
D12*
X215265000Y-238760000D03*
%TD*%
D13*
%TO.C,R45*%
X97155000Y-175260000D03*
D12*
X97155000Y-177800000D03*
%TD*%
D10*
%TO.C,U19*%
X86840000Y-242570000D03*
X86840000Y-243840000D03*
X86840000Y-245110000D03*
X86840000Y-246380000D03*
X86840000Y-247650000D03*
X86840000Y-248920000D03*
X86840000Y-250190000D03*
X86840000Y-251460000D03*
X86840000Y-252730000D03*
X86840000Y-254000000D03*
X96040000Y-254000000D03*
X96040000Y-252730000D03*
X96040000Y-251460000D03*
X96040000Y-250190000D03*
X96040000Y-248920000D03*
X96040000Y-247650000D03*
X96040000Y-246380000D03*
X96040000Y-245110000D03*
X96040000Y-243840000D03*
X96040000Y-242570000D03*
%TD*%
D13*
%TO.C,R43*%
X92075000Y-175260000D03*
D12*
X92075000Y-177800000D03*
%TD*%
D13*
%TO.C,R53*%
X118745000Y-230505000D03*
D12*
X118745000Y-233045000D03*
%TD*%
D13*
%TO.C,R133*%
X188595000Y-291465000D03*
D12*
X188595000Y-294005000D03*
%TD*%
D13*
%TO.C,R85*%
X207645000Y-175260000D03*
D12*
X207645000Y-177800000D03*
%TD*%
D13*
%TO.C,R123*%
X205105000Y-291465000D03*
D12*
X205105000Y-294005000D03*
%TD*%
D13*
%TO.C,R13*%
X97155000Y-64770000D03*
D12*
X97155000Y-67310000D03*
%TD*%
D10*
%TO.C,U59*%
X175740000Y-297815000D03*
X175740000Y-299085000D03*
X175740000Y-300355000D03*
X175740000Y-301625000D03*
X175740000Y-302895000D03*
X175740000Y-304165000D03*
X175740000Y-305435000D03*
X175740000Y-306705000D03*
X175740000Y-307975000D03*
X175740000Y-309245000D03*
X184940000Y-309245000D03*
X184940000Y-307975000D03*
X184940000Y-306705000D03*
X184940000Y-305435000D03*
X184940000Y-304165000D03*
X184940000Y-302895000D03*
X184940000Y-301625000D03*
X184940000Y-300355000D03*
X184940000Y-299085000D03*
X184940000Y-297815000D03*
%TD*%
D13*
%TO.C,R50*%
X111125000Y-236220000D03*
D12*
X111125000Y-238760000D03*
%TD*%
D10*
%TO.C,U51*%
X190980000Y-202565000D03*
X190980000Y-203835000D03*
X190980000Y-205105000D03*
X190980000Y-206375000D03*
X190980000Y-207645000D03*
X190980000Y-208915000D03*
X190980000Y-210185000D03*
X190980000Y-211455000D03*
X190980000Y-212725000D03*
X190980000Y-213995000D03*
X200180000Y-213995000D03*
X200180000Y-212725000D03*
X200180000Y-211455000D03*
X200180000Y-210185000D03*
X200180000Y-208915000D03*
X200180000Y-207645000D03*
X200180000Y-206375000D03*
X200180000Y-205105000D03*
X200180000Y-203835000D03*
X200180000Y-202565000D03*
%TD*%
D13*
%TO.C,R102*%
X188595000Y-125730000D03*
D12*
X188595000Y-128270000D03*
%TD*%
D10*
%TO.C,U22*%
X86840000Y-257810000D03*
X86840000Y-259080000D03*
X86840000Y-260350000D03*
X86840000Y-261620000D03*
X86840000Y-262890000D03*
X86840000Y-264160000D03*
X86840000Y-265430000D03*
X86840000Y-266700000D03*
X86840000Y-267970000D03*
X86840000Y-269240000D03*
X96040000Y-269240000D03*
X96040000Y-267970000D03*
X96040000Y-266700000D03*
X96040000Y-265430000D03*
X96040000Y-264160000D03*
X96040000Y-262890000D03*
X96040000Y-261620000D03*
X96040000Y-260350000D03*
X96040000Y-259080000D03*
X96040000Y-257810000D03*
%TD*%
D13*
%TO.C,R27*%
X92075000Y-120015000D03*
D12*
X92075000Y-122555000D03*
%TD*%
M02*
