%TF.GenerationSoftware,KiCad,Pcbnew,6.0.10-86aedd382b~118~ubuntu20.04.1*%
%TF.CreationDate,2022-12-19T16:19:31+01:00*%
%TF.ProjectId,px16_regfile,70783136-5f72-4656-9766-696c652e6b69,2*%
%TF.SameCoordinates,Original*%
%TF.FileFunction,Paste,Bot*%
%TF.FilePolarity,Positive*%
%FSLAX46Y46*%
G04 Gerber Fmt 4.6, Leading zero omitted, Abs format (unit mm)*
G04 Created by KiCad (PCBNEW 6.0.10-86aedd382b~118~ubuntu20.04.1) date 2022-12-19 16:19:31*
%MOMM*%
%LPD*%
G01*
G04 APERTURE LIST*
G04 Aperture macros list*
%AMRoundRect*
0 Rectangle with rounded corners*
0 $1 Rounding radius*
0 $2 $3 $4 $5 $6 $7 $8 $9 X,Y pos of 4 corners*
0 Add a 4 corners polygon primitive as box body*
4,1,4,$2,$3,$4,$5,$6,$7,$8,$9,$2,$3,0*
0 Add four circle primitives for the rounded corners*
1,1,$1+$1,$2,$3*
1,1,$1+$1,$4,$5*
1,1,$1+$1,$6,$7*
1,1,$1+$1,$8,$9*
0 Add four rect primitives between the rounded corners*
20,1,$1+$1,$2,$3,$4,$5,0*
20,1,$1+$1,$4,$5,$6,$7,0*
20,1,$1+$1,$6,$7,$8,$9,0*
20,1,$1+$1,$8,$9,$2,$3,0*%
G04 Aperture macros list end*
%ADD10RoundRect,0.079500X-0.079500X-0.100500X0.079500X-0.100500X0.079500X0.100500X-0.079500X0.100500X0*%
%ADD11RoundRect,0.079500X0.079500X0.100500X-0.079500X0.100500X-0.079500X-0.100500X0.079500X-0.100500X0*%
G04 APERTURE END LIST*
D10*
%TO.C,C60*%
X86386250Y-266700000D03*
X85696250Y-266700000D03*
%TD*%
%TO.C,C4*%
X85697500Y-85725000D03*
X86387500Y-85725000D03*
%TD*%
D11*
%TO.C,C113*%
X216880000Y-299243750D03*
X216190000Y-299243750D03*
%TD*%
%TO.C,C124*%
X216190000Y-321786250D03*
X216880000Y-321786250D03*
%TD*%
D10*
%TO.C,C52*%
X86386250Y-251460000D03*
X85696250Y-251460000D03*
%TD*%
%TO.C,C68*%
X85695000Y-306705000D03*
X86385000Y-306705000D03*
%TD*%
D11*
%TO.C,C134*%
X230953750Y-141763750D03*
X231643750Y-141763750D03*
%TD*%
D10*
%TO.C,C49*%
X86386250Y-245110000D03*
X85696250Y-245110000D03*
%TD*%
%TO.C,C72*%
X86385000Y-299243750D03*
X85695000Y-299243750D03*
%TD*%
D11*
%TO.C,C85*%
X221428750Y-189865000D03*
X222118750Y-189865000D03*
%TD*%
D10*
%TO.C,C8*%
X85697500Y-78263750D03*
X86387500Y-78263750D03*
%TD*%
%TO.C,C41*%
X85697500Y-205105000D03*
X86387500Y-205105000D03*
%TD*%
D11*
%TO.C,C110*%
X216190000Y-265430000D03*
X216880000Y-265430000D03*
%TD*%
%TO.C,C103*%
X216190000Y-247332500D03*
X216880000Y-247332500D03*
%TD*%
D10*
%TO.C,C7*%
X86387500Y-80486250D03*
X85697500Y-80486250D03*
%TD*%
%TO.C,C50*%
X85696250Y-247332500D03*
X86386250Y-247332500D03*
%TD*%
%TO.C,C57*%
X85696250Y-260350000D03*
X86386250Y-260350000D03*
%TD*%
D11*
%TO.C,C90*%
X231643750Y-207327500D03*
X230953750Y-207327500D03*
%TD*%
D10*
%TO.C,C80*%
X85695000Y-314483750D03*
X86385000Y-314483750D03*
%TD*%
%TO.C,C25*%
X85697500Y-149860000D03*
X86387500Y-149860000D03*
%TD*%
D11*
%TO.C,C121*%
X216880000Y-314483750D03*
X216190000Y-314483750D03*
%TD*%
%TO.C,C86*%
X222121250Y-191135000D03*
X221431250Y-191135000D03*
%TD*%
%TO.C,C132*%
X230953750Y-140652500D03*
X231643750Y-140652500D03*
%TD*%
%TO.C,C133*%
X230953750Y-142875000D03*
X231643750Y-142875000D03*
%TD*%
D10*
%TO.C,C29*%
X86387500Y-157321250D03*
X85697500Y-157321250D03*
%TD*%
%TO.C,C59*%
X86386250Y-264477500D03*
X85696250Y-264477500D03*
%TD*%
D11*
%TO.C,C119*%
X216880000Y-302577500D03*
X216190000Y-302577500D03*
%TD*%
D10*
%TO.C,C18*%
X85697500Y-136842500D03*
X86387500Y-136842500D03*
%TD*%
D11*
%TO.C,C101*%
X216880000Y-252412500D03*
X216190000Y-252412500D03*
%TD*%
D10*
%TO.C,C9*%
X86387500Y-94615000D03*
X85697500Y-94615000D03*
%TD*%
D11*
%TO.C,C100*%
X216190000Y-251301250D03*
X216880000Y-251301250D03*
%TD*%
D10*
%TO.C,C34*%
X86387500Y-192087500D03*
X85697500Y-192087500D03*
%TD*%
%TO.C,C31*%
X86387500Y-150971250D03*
X85697500Y-150971250D03*
%TD*%
D11*
%TO.C,C106*%
X216190000Y-261461250D03*
X216880000Y-261461250D03*
%TD*%
%TO.C,C81*%
X230953750Y-190341250D03*
X231643750Y-190341250D03*
%TD*%
%TO.C,C107*%
X216882500Y-264318750D03*
X216192500Y-264318750D03*
%TD*%
D10*
%TO.C,C30*%
X86387500Y-155098750D03*
X85697500Y-155098750D03*
%TD*%
%TO.C,C27*%
X85697500Y-153987500D03*
X86387500Y-153987500D03*
%TD*%
%TO.C,C67*%
X86385000Y-304482500D03*
X85695000Y-304482500D03*
%TD*%
%TO.C,C65*%
X85695000Y-300355000D03*
X86385000Y-300355000D03*
%TD*%
%TO.C,C15*%
X86387500Y-95726250D03*
X85697500Y-95726250D03*
%TD*%
%TO.C,C2*%
X85695000Y-81597500D03*
X86385000Y-81597500D03*
%TD*%
D11*
%TO.C,C108*%
X216880000Y-266541250D03*
X216190000Y-266541250D03*
%TD*%
D10*
%TO.C,C45*%
X86387500Y-212566250D03*
X85697500Y-212566250D03*
%TD*%
D11*
%TO.C,C120*%
X216880000Y-300355000D03*
X216190000Y-300355000D03*
%TD*%
%TO.C,C82*%
X230956250Y-191452500D03*
X231646250Y-191452500D03*
%TD*%
D10*
%TO.C,C95*%
X221428750Y-207645000D03*
X222118750Y-207645000D03*
%TD*%
%TO.C,C20*%
X85697500Y-140970000D03*
X86387500Y-140970000D03*
%TD*%
%TO.C,C76*%
X85695000Y-321945000D03*
X86385000Y-321945000D03*
%TD*%
%TO.C,C37*%
X85697500Y-197326250D03*
X86387500Y-197326250D03*
%TD*%
%TO.C,C36*%
X86387500Y-196215000D03*
X85697500Y-196215000D03*
%TD*%
%TO.C,C5*%
X86387500Y-86836250D03*
X85697500Y-86836250D03*
%TD*%
D11*
%TO.C,C129*%
X230953750Y-133985000D03*
X231643750Y-133985000D03*
%TD*%
D10*
%TO.C,C19*%
X86387500Y-138747500D03*
X85697500Y-138747500D03*
%TD*%
D11*
%TO.C,C136*%
X231643750Y-136366250D03*
X230953750Y-136366250D03*
%TD*%
%TO.C,C89*%
X231643750Y-206216250D03*
X230953750Y-206216250D03*
%TD*%
%TO.C,C126*%
X216190000Y-320675000D03*
X216880000Y-320675000D03*
%TD*%
%TO.C,C123*%
X216190000Y-319563750D03*
X216880000Y-319563750D03*
%TD*%
%TO.C,C118*%
X216880000Y-305435000D03*
X216190000Y-305435000D03*
%TD*%
%TO.C,C109*%
X216882500Y-267652500D03*
X216192500Y-267652500D03*
%TD*%
%TO.C,C84*%
X230953750Y-193675000D03*
X231643750Y-193675000D03*
%TD*%
%TO.C,C111*%
X216880000Y-262572500D03*
X216190000Y-262572500D03*
%TD*%
%TO.C,C99*%
X216190000Y-249078750D03*
X216880000Y-249078750D03*
%TD*%
%TO.C,C130*%
X231643750Y-135255000D03*
X230953750Y-135255000D03*
%TD*%
D10*
%TO.C,C54*%
X86386250Y-250348750D03*
X85696250Y-250348750D03*
%TD*%
%TO.C,C1*%
X85697500Y-79375000D03*
X86387500Y-79375000D03*
%TD*%
D11*
%TO.C,C91*%
X230953750Y-208438750D03*
X231643750Y-208438750D03*
%TD*%
D10*
%TO.C,C17*%
X85697500Y-134620000D03*
X86387500Y-134620000D03*
%TD*%
%TO.C,C48*%
X86387500Y-203993750D03*
X85697500Y-203993750D03*
%TD*%
D11*
%TO.C,C93*%
X221426250Y-205105000D03*
X222116250Y-205105000D03*
%TD*%
D10*
%TO.C,C73*%
X86385000Y-315595000D03*
X85695000Y-315595000D03*
%TD*%
%TO.C,C46*%
X86387500Y-210343750D03*
X85697500Y-210343750D03*
%TD*%
D11*
%TO.C,C112*%
X216190000Y-260350000D03*
X216880000Y-260350000D03*
%TD*%
D10*
%TO.C,C44*%
X86387500Y-211455000D03*
X85697500Y-211455000D03*
%TD*%
%TO.C,C39*%
X86387500Y-190976250D03*
X85697500Y-190976250D03*
%TD*%
D11*
%TO.C,C114*%
X216190000Y-301466250D03*
X216880000Y-301466250D03*
%TD*%
D10*
%TO.C,C33*%
X86387500Y-189865000D03*
X85697500Y-189865000D03*
%TD*%
D11*
%TO.C,C94*%
X222118750Y-206375000D03*
X221428750Y-206375000D03*
%TD*%
D10*
%TO.C,C56*%
X85696250Y-243998750D03*
X86386250Y-243998750D03*
%TD*%
D11*
%TO.C,C98*%
X216190000Y-246221250D03*
X216880000Y-246221250D03*
%TD*%
%TO.C,C117*%
X216190000Y-307657500D03*
X216880000Y-307657500D03*
%TD*%
%TO.C,C83*%
X231643750Y-192563750D03*
X230953750Y-192563750D03*
%TD*%
D10*
%TO.C,C78*%
X85695000Y-320833750D03*
X86385000Y-320833750D03*
%TD*%
D11*
%TO.C,C127*%
X216882500Y-317817500D03*
X216192500Y-317817500D03*
%TD*%
D10*
%TO.C,C14*%
X86387500Y-99853750D03*
X85697500Y-99853750D03*
%TD*%
D11*
%TO.C,C92*%
X231643750Y-209550000D03*
X230953750Y-209550000D03*
%TD*%
D10*
%TO.C,C32*%
X86387500Y-148748750D03*
X85697500Y-148748750D03*
%TD*%
%TO.C,C24*%
X86387500Y-133508750D03*
X85697500Y-133508750D03*
%TD*%
%TO.C,C10*%
X85697500Y-96837500D03*
X86387500Y-96837500D03*
%TD*%
%TO.C,C42*%
X86387500Y-207327500D03*
X85697500Y-207327500D03*
%TD*%
D11*
%TO.C,C104*%
X216880000Y-245110000D03*
X216190000Y-245110000D03*
%TD*%
D10*
%TO.C,C70*%
X86385000Y-305593750D03*
X85695000Y-305593750D03*
%TD*%
%TO.C,C22*%
X86387500Y-139858750D03*
X85697500Y-139858750D03*
%TD*%
D11*
%TO.C,C135*%
X230953750Y-138588750D03*
X231643750Y-138588750D03*
%TD*%
D10*
%TO.C,C28*%
X85697500Y-156210000D03*
X86387500Y-156210000D03*
%TD*%
D11*
%TO.C,C122*%
X216880000Y-316706250D03*
X216190000Y-316706250D03*
%TD*%
%TO.C,C125*%
X216880000Y-322897500D03*
X216190000Y-322897500D03*
%TD*%
D10*
%TO.C,C13*%
X85697500Y-102076250D03*
X86387500Y-102076250D03*
%TD*%
D11*
%TO.C,C96*%
X222118750Y-208915000D03*
X221428750Y-208915000D03*
%TD*%
D10*
%TO.C,C66*%
X86385000Y-302577500D03*
X85695000Y-302577500D03*
%TD*%
%TO.C,C38*%
X85697500Y-195103750D03*
X86387500Y-195103750D03*
%TD*%
%TO.C,C69*%
X86385000Y-307816250D03*
X85695000Y-307816250D03*
%TD*%
D11*
%TO.C,C128*%
X216880000Y-315595000D03*
X216190000Y-315595000D03*
%TD*%
D10*
%TO.C,C35*%
X86387500Y-193992500D03*
X85697500Y-193992500D03*
%TD*%
%TO.C,C12*%
X86387500Y-100965000D03*
X85697500Y-100965000D03*
%TD*%
D11*
%TO.C,C116*%
X216187500Y-306546250D03*
X216877500Y-306546250D03*
%TD*%
D10*
%TO.C,C87*%
X222121250Y-192405000D03*
X221431250Y-192405000D03*
%TD*%
%TO.C,C75*%
X85695000Y-319722500D03*
X86385000Y-319722500D03*
%TD*%
%TO.C,C71*%
X86385000Y-301466250D03*
X85695000Y-301466250D03*
%TD*%
%TO.C,C16*%
X85697500Y-93503750D03*
X86387500Y-93503750D03*
%TD*%
%TO.C,C43*%
X85697500Y-209232500D03*
X86387500Y-209232500D03*
%TD*%
D11*
%TO.C,C102*%
X216880000Y-250190000D03*
X216190000Y-250190000D03*
%TD*%
%TO.C,C115*%
X216880000Y-304323750D03*
X216190000Y-304323750D03*
%TD*%
D10*
%TO.C,C58*%
X86386250Y-262572500D03*
X85696250Y-262572500D03*
%TD*%
%TO.C,C6*%
X85697500Y-84613750D03*
X86387500Y-84613750D03*
%TD*%
D11*
%TO.C,C131*%
X231643750Y-137477500D03*
X230953750Y-137477500D03*
%TD*%
D10*
%TO.C,C11*%
X85697500Y-98742500D03*
X86387500Y-98742500D03*
%TD*%
%TO.C,C63*%
X85696250Y-261461250D03*
X86386250Y-261461250D03*
%TD*%
%TO.C,C40*%
X86387500Y-188753750D03*
X85697500Y-188753750D03*
%TD*%
%TO.C,C79*%
X86385000Y-316706250D03*
X85695000Y-316706250D03*
%TD*%
D11*
%TO.C,C88*%
X221426250Y-193675000D03*
X222116250Y-193675000D03*
%TD*%
D10*
%TO.C,C3*%
X85697500Y-83502500D03*
X86387500Y-83502500D03*
%TD*%
%TO.C,C51*%
X85696250Y-249237500D03*
X86386250Y-249237500D03*
%TD*%
%TO.C,C77*%
X85695000Y-323056250D03*
X86385000Y-323056250D03*
%TD*%
%TO.C,C74*%
X86385000Y-317817500D03*
X85695000Y-317817500D03*
%TD*%
%TO.C,C26*%
X85697500Y-152082500D03*
X86387500Y-152082500D03*
%TD*%
D11*
%TO.C,C105*%
X216882500Y-259238750D03*
X216192500Y-259238750D03*
%TD*%
D10*
%TO.C,C64*%
X86386250Y-259238750D03*
X85696250Y-259238750D03*
%TD*%
%TO.C,C23*%
X86387500Y-135731250D03*
X85697500Y-135731250D03*
%TD*%
%TO.C,C21*%
X85697500Y-142081250D03*
X86387500Y-142081250D03*
%TD*%
%TO.C,C53*%
X85696250Y-252571250D03*
X86386250Y-252571250D03*
%TD*%
%TO.C,C47*%
X86387500Y-206216250D03*
X85697500Y-206216250D03*
%TD*%
D11*
%TO.C,C97*%
X216190000Y-243998750D03*
X216880000Y-243998750D03*
%TD*%
D10*
%TO.C,C62*%
X85696250Y-265588750D03*
X86386250Y-265588750D03*
%TD*%
%TO.C,C61*%
X85696250Y-267811250D03*
X86386250Y-267811250D03*
%TD*%
%TO.C,C55*%
X86386250Y-246221250D03*
X85696250Y-246221250D03*
%TD*%
M02*
